<svg width="0" height="0" class="hidden">
  <symbol stroke-width=".501" stroke-linejoin="bevel" fill-rule="evenodd" xmlns="http://www.w3.org/2000/svg" overflow="visible" viewBox="0 0 72 72" id="vgks-icon-address">
    <path d="M36.001 71.999L16.145 32.737c-.111-.151-.18-.329-.262-.507l-.083-.124c-4.063-8.529-2.458-19.047 4.753-25.927 8.925-8.527 23.111-8.185 31.653.755 6.591 6.922 7.895 16.974 3.983 25.172L36.001 71.999zm6.962-42.283c4.024-3.872 4.188-10.271.33-14.308-3.844-4.025-10.23-4.175-14.254-.331-4.038 3.859-4.174 10.245-.357 14.268 3.872 4.039 10.231 4.203 14.281.371z" font-family="Times New Roman" font-size="16"></path>
  </symbol>
  <symbol stroke-width=".501" stroke-linejoin="bevel" fill-rule="evenodd" xmlns="http://www.w3.org/2000/svg" overflow="visible" viewBox="0 0 72 72" id="vgks-icon-facebook">
    <path d="M10.544 61.462c-14.068-14.049-14.068-36.882 0-50.912 14.039-14.068 36.872-14.068 50.912 0 14.068 14.03 14.068 36.863 0 50.912-3.759 3.769-8.151 6.502-12.85 8.285V42.848h7.786c.595 0 1.046-.441 1.046-1.007V33.46c0-.278-.096-.576-.317-.787a1.29 1.29 0 00-.729-.249h-7.786v-4.929c0-2.359.585-3.548 3.672-3.548h4.421a1.04 1.04 0 001.036-1.046v-7.767c0-.604-.441-1.026-1.036-1.026l-6.578-.01c-7.442 0-12.237 4.91-12.237 12.505v5.821h-6.646c-.565 0-1.054.432-1.054 1.036v8.381c0 .566.489 1.007 1.054 1.007h6.646l-.019 29.105c-9.82.508-19.832-2.992-27.321-10.491z" font-family="Times New Roman" font-size="16"></path>
  </symbol>
  <symbol stroke-width=".501" stroke-linejoin="bevel" fill-rule="evenodd" xmlns="http://www.w3.org/2000/svg" overflow="visible" viewBox="0 0 72 72" id="vgks-icon-instagram">
    <g stroke-linejoin="round" stroke-linecap="round" stroke-width=".25" stroke-miterlimit="79.84" font-family="Times New Roman" font-size="16">
      <path d="M29.469 45.482c-2.531-1.841-4.171-4.632-4.66-7.748-.432-3.155.345-6.243 2.215-8.775 1.87-2.56 4.641-4.191 7.758-4.661h3.491a11.9 11.9 0 016.645 3.309c1.765 1.832 2.964 4.124 3.328 6.646.441 3.136-.316 6.252-2.225 8.793-1.87 2.523-4.632 4.21-7.748 4.671-.614.076-1.189.086-1.765.086-2.541 0-4.967-.786-7.039-2.321zm14.567-10.577c-.508-3.366-3.088-5.898-6.425-6.377a4.653 4.653 0 00-1.074-.116c-.364 0-.748.039-1.141.116a7.156 7.156 0 00-4.929 2.963c-1.237 1.592-1.736 3.615-1.429 5.648a7.382 7.382 0 002.973 4.929c1.649 1.218 3.634 1.717 5.6 1.41 4.162-.614 6.991-4.459 6.425-8.573z"></path>
      <path d="M10.53 61.449c-14.04-14.049-14.04-36.863 0-50.912 14.049-14.049 36.882-14.049 50.94 0 14.04 14.049 14.04 36.863 0 50.912-14.058 14.068-36.891 14.068-50.94 0zm45.187-5.926c2.637-2.369 4.315-5.773 4.315-9.542V24.298c0-7.038-5.716-12.763-12.745-12.763H25.576c-6.991 0-12.754 5.725-12.754 12.763v21.683c0 4.056 1.917 7.681 4.833 9.992 2.388 2.753 5.744 4.479 9.532 4.479h18.681c3.97 0 7.557-1.937 9.849-4.929z"></path>
      <path d="M46.386 23.752c-.652-.633-1.046-1.602-1.046-2.561 0-.968.394-1.966 1.046-2.646.757-.662 1.688-1.122 2.675-1.122.93 0 1.918.46 2.637 1.122.662.68 1.094 1.678 1.094 2.646 0 .959-.432 1.928-1.094 2.561-.719.738-1.707 1.16-2.637 1.16-.987 0-1.918-.422-2.675-1.16z"></path>
    </g>
  </symbol>
  <symbol stroke-width=".501" stroke-linejoin="bevel" fill-rule="evenodd" xmlns="http://www.w3.org/2000/svg" overflow="visible" viewBox="0 0 72 72" id="vgks-icon-mail">
    <path d="M0 59.021V20.202l36.03 19.522L72 20.237v38.784H0zm36.03-26.819L.525 12.979h71.021L36.03 32.202z" font-family="Times New Roman" font-size="16"></path>
  </symbol>
  <symbol stroke-width=".501" stroke-linejoin="bevel" fill-rule="evenodd" xmlns="http://www.w3.org/2000/svg" overflow="visible" viewBox="0 0 72 72" id="vgks-icon-phone">
    <path d="M21.349 3.119C19.472 1.503 16.177-.433 13.401.084 8.917.924 4.597 6.141 3.242 9.269-.756 34.105 24.188 73.236 58.391 71.97c7.185-4.364 14.326-8.803 8.847-16.692-4.484-3.889-7.703-4.759-13.821-6.451-3.066-.916-6.24.99-9.566 4.438-1.937 1.619-3.11.565-4.744-.274-10.008-6.759-16.582-15.318-20.673-24.349-.227-1.371 1.695-2.653 2.747-3.416 1.847-1.357 3.906-3.464 4.272-5.248-.489-5.736-1.052-11.503-4.104-16.859z" font-family="Times New Roman" font-size="16"></path>
  </symbol>
  <symbol stroke-width=".501" stroke-linejoin="bevel" fill-rule="evenodd" xmlns="http://www.w3.org/2000/svg" overflow="visible" viewBox="0 0 72 72" id="vgks-icon-whatsapp">
    <path d="M36.021.001C16.164.001.042 16.137.042 36.008c0 7.855 2.513 15.161 6.838 21.093L2.417 70.463l13.815-4.449a35.494 35.494 0 0019.789 5.987C55.865 72.001 72 55.838 72 36.008 72 16.137 55.865.001 36.021.001zm20.956 50.824c-.865 2.459-4.326 4.45-7.072 5.109-1.854.357-4.354.714-12.579-2.76-10.629-4.367-17.427-15.12-17.949-15.82-.481-.659-4.257-5.672-4.257-10.876 0-5.136 2.623-7.649 3.68-8.721.838-.892 2.28-1.29 3.653-1.29.481 0 .852 0 1.209.027 1.071.041 1.606.124 2.293 1.771.865 2.102 2.994 7.279 3.227 7.814.247.508.508 1.223.179 1.923-.344.714-.632 1.03-1.14 1.62-.549.646-1.071 1.113-1.621 1.786-.466.563-1.016 1.181-.425 2.252.645 1.002 2.746 4.463 5.85 7.223 4.023 3.598 7.264 4.738 8.432 5.218.879.358 1.908.289 2.54-.398.81-.892 1.827-2.293 2.802-3.721.741-1.003 1.675-1.126 2.581-.783 1.017.357 6.125 2.87 7.196 3.406 1.044.508 1.785.769 2.019 1.222.275.453.275 2.527-.618 4.998z" font-family="Times New Roman" font-size="16"></path>
  </symbol>
</svg>