<?xml version="1.0" standalone="no"?>
<!DOCTYPE svg PUBLIC "-//W3C//DTD SVG 1.1//EN" "http://www.w3.org/Graphics/SVG/1.1/DTD/svg11.dtd">
<!--Generator: Xara Designer (www.xara.com), SVG filter version: 4.0.0.1-->
<svg stroke-width="0.501" stroke-linejoin="bevel" fill-rule="evenodd" xmlns:xlink="http://www.w3.org/1999/xlink" xmlns="http://www.w3.org/2000/svg" version="1.1" overflow="visible" width="720pt" height="252pt" viewBox="0 0 720 252">
 <defs>
  <marker id="DefaultArrow2" markerUnits="strokeWidth" viewBox="0 0 1 1" markerWidth="1" markerHeight="1" overflow="visible" orient="auto">
   <!-- REF_ARROW_STRAIGHT (-2) -->
   <g transform="scale(0.0092592592)">
    <!-- 1/108 -->
    <path d="M -9 54 L -9 -54 L 117 0 z"/>
   </g>
  </marker>
  <marker id="DefaultArrow3" markerUnits="strokeWidth" viewBox="0 0 1 1" markerWidth="1" markerHeight="1" overflow="visible" orient="auto">
   <!-- REF_ARROW_ANGLED -->
   <g transform="scale(0.0092592592)">
    <path d="M -27 54 L -9 0 L -27 -54 L 135 0 z"/>
   </g>
  </marker>
  <marker id="DefaultArrow4" markerUnits="strokeWidth" viewBox="0 0 1 1" markerWidth="1" markerHeight="1" overflow="visible" orient="auto">
   <!-- REF_ARROW_ROUNDED -->
   <g transform="scale(0.0092592592)">
    <path d="M -9,0 L -9,-45 C -9,-51.708 2.808,-56.580 9,-54 L 117,-9 C 120.916,-7.369 126.000,-4.242 126,0 C 126,4.242 120.916,7.369 117,9 L 9,54 C 2.808,56.580 -9,51.708 -9,45 z"/>
   </g>
  </marker>
  <marker id="DefaultArrow5" markerUnits="strokeWidth" viewBox="0 0 1 1" markerWidth="1" markerHeight="1" overflow="visible" orient="auto">
   <!-- REF_ARROW_SPOT -->
   <g transform="scale(0.0092592592)">
    <path d="M -54, 0 C -54,29.807 -29.807,54 0,54 C 29.807,54 54,29.807 54,0 C 54,-29.807 29.807,-54 0,-54 C -29.807,-54 -54,-29.807 -54,0 z"/>
   </g>
  </marker>
  <marker id="DefaultArrow6" markerUnits="strokeWidth" viewBox="0 0 1 1" markerWidth="1" markerHeight="1" overflow="visible" orient="auto">
   <!-- REF_ARROW_DIAMOND -->
   <g transform="scale(0.0092592592)">
    <path d="M -63,0 L 0,63 L 63,0 L 0,-63 z"/>
   </g>
  </marker>
  <marker id="DefaultArrow7" markerUnits="strokeWidth" viewBox="0 0 1 1" markerWidth="1" markerHeight="1" overflow="visible" orient="auto">
   <!-- REF_ARROW_FEATHER -->
   <g transform="scale(0.0092592592)">
    <path d="M 18,-54 L 108,-54 L 63,0 L 108,54 L 18, 54 L -36,0 z"/>
   </g>
  </marker>
  <marker id="DefaultArrow8" markerUnits="strokeWidth" viewBox="0 0 1 1" markerWidth="1" markerHeight="1" overflow="visible" orient="auto">
   <!-- REF_ARROW_FEATHER2 -->
   <g transform="scale(0.0092592592)">
    <path d="M -36,0 L 18,-54 L 54,-54 L 18,-18 L 27,-18 L 63,-54 L 99,-54 L 63,-18 L 72,-18 L 108,-54 L 144,-54 L 90,0 L 144,54 L 108,54 L 72,18 L 63,18 L 99,54 L 63,54 L 27,18 L 18,18 L 54,54 L 18,54 z"/>
   </g>
  </marker>
  <marker id="DefaultArrow9" markerUnits="strokeWidth" viewBox="0 0 1 1" markerWidth="1" markerHeight="1" overflow="visible" orient="auto">
   <!-- REF_ARROW_HOLLOWDIAMOND -->
   <g transform="scale(0.0092592592)">
    <path d="M 0,45 L -45,0 L 0, -45 L 45, 0 z M 0, 63 L-63, 0 L 0, -63 L 63, 0 z"/>
   </g>
  </marker>
  <filter id="StainedFilter">
   <feBlend mode="multiply" in2="BackgroundImage" in="SourceGraphic" result="blend"/>
   <feComposite in="blend" in2="SourceAlpha" operator="in" result="comp"/>
  </filter>
  <filter id="BleachFilter">
   <feBlend mode="screen" in2="BackgroundImage" in="SourceGraphic" result="blend"/>
   <feComposite in="blend" in2="SourceAlpha" operator="in" result="comp"/>
  </filter>
  <filter id="InvertTransparencyBitmapFilter">
   <feComponentTransfer>
    <feFuncR type="gamma" amplitude="1.055" exponent=".416666666" offset="-0.055"/>
    <feFuncG type="gamma" amplitude="1.055" exponent=".416666666" offset="-0.055"/>
    <feFuncB type="gamma" amplitude="1.055" exponent=".416666666" offset="-0.055"/>
   </feComponentTransfer>
   <feComponentTransfer>
    <feFuncR type="linear" slope="-1" intercept="1"/>
    <feFuncG type="linear" slope="-1" intercept="1"/>
    <feFuncB type="linear" slope="-1" intercept="1"/>
    <feFuncA type="linear" slope="1" intercept="0"/>
   </feComponentTransfer>
   <feComponentTransfer>
    <feFuncR type="gamma" amplitude="1" exponent="2.4" offset="0"/>
    <feFuncG type="gamma" amplitude="1" exponent="2.4" offset="0"/>
    <feFuncB type="gamma" amplitude="1" exponent="2.4" offset="0"/>
   </feComponentTransfer>
  </filter>
 </defs>
 <g id="Document" fill="none" stroke="black" font-family="Times New Roman" font-size="16" transform="scale(1 -1)">
  <g id="Spread" transform="translate(0 -252)">
   <g id="Layer 1">
    <path d="M 332.013,228.062 L 332.013,123.387 L 436.688,123.387 L 436.688,228.062 L 332.013,228.062 Z" stroke="none" fill="#ffffff" stroke-linejoin="miter" marker-start="none" marker-end="none"/>
    <g id="Group" stroke="#777777" stroke-miterlimit="79.8403193612775">
     <g id="Group_1">
      <g id="Group_2" fill="#777777" stroke="#777777" stroke-linejoin="miter" stroke-width="1.883" stroke-miterlimit="19.9600798403194">
       <path d="M 110.491,153.668 L 114.783,155.437 L 116.754,156.166 L 119.666,166.684 L 124.862,186.956 L 131.465,214.635 L 134.992,229.472 L 135.117,230.312 L 134.741,231.856 L 133.736,233.086 L 132.293,233.752 L 131.439,233.778 L 128.464,233.601 L 122.013,232.623 L 115.072,230.978 L 107.805,228.744 L 100.349,225.982 L 92.856,222.794 L 85.451,219.216 L 78.31,215.338 L 74.907,213.304 L 71.745,211.346 L 65.582,207.103 L 59.809,202.56 L 54.7,197.777 L 51.499,194.061 L 49.679,191.564 L 48.173,189.04 L 47.006,186.517 L 46.228,183.995 L 45.851,181.458 L 45.914,178.961 L 46.441,176.5 L 46.918,175.27 L 47.432,174.178 L 48.813,172.484 L 50.483,171.342 L 52.403,170.663 L 54.487,170.4 L 56.683,170.488 L 59.997,171.128 L 64.076,172.647 L 67.213,174.441 L 68.545,175.634 L 68.87,176.249 L 68.619,176.676 L 67.741,176.789 L 67.012,176.727 L 63.913,176.337 L 59.934,176.074 L 57.662,176.124 L 56.683,176.249 L 55.904,176.362 L 54.725,176.777 L 53.633,177.592 L 53.257,178.232 L 53.018,178.848 L 52.779,180.178 L 52.818,181.609 L 53.143,183.141 L 54.085,185.563 L 56.306,189.09 L 59.57,192.868 L 63.812,196.847 L 68.996,200.965 L 75.121,205.196 L 78.548,207.329 L 81.435,209.074 L 87.446,212.375 L 93.622,215.451 L 99.86,218.225 L 106.073,220.697 L 112.16,222.819 L 118.035,224.526 L 123.57,225.794 L 126.18,226.233 L 127.034,226.321 L 126.695,224.89 L 122.954,209.061 L 116.24,181.759 L 111.119,162.479 L 108.332,152.638 L 110.491,153.668 Z M 30.137,24.063 L 33.939,24.491 L 37.667,25.244 L 41.295,26.348 L 44.847,27.767 L 48.323,29.499 L 51.713,31.507 L 55.026,33.829 L 58.252,36.402 L 61.415,39.265 L 66.009,43.96 L 71.87,51.077 L 77.443,59.022 L 82.728,67.708 L 87.723,77.035 L 92.454,86.938 L 96.948,97.257 L 101.166,107.951 L 105.156,118.923 L 110.704,135.642 L 114.08,146.852 L 112.726,146.387 L 110.064,144.968 L 107.591,143.199 L 105.495,141.341 L 104.68,140.449 L 101.981,131.826 L 96.158,114.817 L 93.019,106.571 L 89.844,98.574 L 84.849,87.24 L 81.396,80.072 L 77.807,73.294 L 74.13,66.867 L 70.314,60.892 L 66.398,55.357 L 62.369,50.311 L 58.214,45.792 L 53.921,41.8 L 49.529,38.386 L 44.997,35.574 L 40.341,33.415 L 35.559,31.909 L 30.652,31.093 L 28.129,30.992 L 26.66,31.018 L 23.61,31.419 L 20.56,32.248 L 17.598,33.591 L 14.849,35.486 L 12.427,38.009 L 10.406,41.173 L 8.912,45.063 L 8.423,47.323 L 7.946,53.097 L 8.523,57.993 L 8.962,60.24 L 10.192,64.759 L 11.85,69.252 L 13.883,73.658 L 16.268,77.976 L 19.004,82.156 L 22.041,86.161 L 25.38,89.963 L 27.149,91.758 L 29.685,94.219 L 35.031,98.888 L 40.679,103.332 L 46.617,107.487 L 49.704,109.458 L 58.088,114.492 L 66.298,119.575 L 66.461,119.751 L 66.498,120.015 L 65.983,120.227 L 64.214,120.089 L 61.465,119.512 L 57.9,118.483 L 53.72,117.027 L 49.102,115.144 L 44.232,112.797 L 41.76,111.454 L 38.107,109.345 L 32.786,105.68 L 29.283,102.943 L 27.551,101.437 L 24.865,99.026 L 19.795,93.892 L 15.176,88.445 L 11.046,82.684 L 7.519,76.62 L 4.658,70.295 L 2.537,63.704 L 1.231,56.888 L 0.955,53.386 L 0.942,53.185 L 0.98,51.164 L 1.331,47.411 L 1.984,43.96 L 2.95,40.846 L 4.155,38.022 L 5.612,35.499 L 7.268,33.252 L 9.113,31.281 L 11.109,29.574 L 13.243,28.105 L 16.594,26.336 L 21.263,24.792 L 25.945,24.063 L 28.191,24 L 30.137,24.063 Z" marker-start="none" marker-end="none"/>
       <path d="M 101.19,110.725 L 99.22,112.81 L 96.069,116.901 L 93.797,120.88 L 92.43,124.747 L 92.115,126.617 L 91.953,128.06 L 92.115,131.01 L 92.819,134.022 L 94.149,137.123 L 96.145,140.299 L 98.844,143.525 L 102.295,146.813 L 106.562,150.152 L 109.048,151.86 L 110.968,153.039 L 114.834,155.111 L 116.754,156.002 L 120.946,157.872 L 128.239,160.534 L 132.808,161.689 L 135.481,162.128 L 137.828,162.266 L 139.861,162.128 L 140.74,161.94 L 141.531,161.726 L 142.861,161.061 L 143.916,160.095 L 144.731,158.814 L 145.045,158.011 L 145.321,157.132 L 145.672,155.011 L 145.773,152.399 L 145.572,149.274 L 145.334,147.466 L 144.982,145.42 L 143.577,140.626 L 142.597,137.688 L 140.225,132.115 L 138.744,129.491 L 138.305,128.826 L 137.565,127.584 L 137.377,126.818 L 137.464,126.516 L 137.727,126.102 L 138.531,125.826 L 139.623,126.14 L 140.928,126.944 L 143.15,128.877 L 146.351,132.605 L 147.882,134.776 L 149.388,137.149 L 151.647,141.931 L 152.388,143.876 L 152.727,144.856 L 153.216,146.952 L 153.58,150.266 L 153.442,154.709 L 152.714,158.776 L 152.174,160.508 L 151.497,162.203 L 149.627,165.065 L 147.204,167.262 L 144.229,168.793 L 142.535,169.27 L 140.941,169.597 L 137.464,169.809 L 133.673,169.496 L 129.594,168.717 L 125.239,167.487 L 120.645,165.869 L 113.366,162.781 L 108.231,160.257 L 108.081,160.195 L 107.943,160.106 L 104.894,158.186 L 99.445,154.245 L 94.802,150.178 L 90.973,145.972 L 88.011,141.655 L 85.903,137.224 L 84.685,132.668 L 84.384,128.01 L 84.635,125.625 L 84.861,124.144 L 85.602,121.22 L 86.694,118.32 L 88.112,115.483 L 89.844,112.659 L 91.877,109.872 L 95.442,105.742 L 98.241,103.056 L 101.19,110.725 Z M 114.268,48.603 L 117.683,49.332 L 117.896,49.407 L 120.608,50.248 L 125.59,52.119 L 130.034,54.215 L 133.837,56.55 L 136.962,59.147 L 139.321,62.01 L 140.891,65.16 L 141.481,67.746 L 141.593,69.553 L 141.568,70.495 L 141.38,72.227 L 140.363,75.667 L 138.581,79.106 L 136.084,82.533 L 132.933,85.96 L 129.18,89.386 L 124.875,92.8 L 120.055,96.202 L 117.47,97.91 L 114.608,99.767 L 109.474,103.47 L 107.178,105.291 L 104.341,97.897 L 106.449,96.29 L 110.968,93.114 L 113.366,91.558 L 116.026,89.813 L 120.695,86.486 L 124.586,83.374 L 127.75,80.461 L 130.235,77.763 L 132.067,75.277 L 133.284,73.005 L 133.937,70.959 L 134.025,70.043 L 134.05,69.352 L 133.761,67.909 L 133.046,66.378 L 131.828,64.809 L 130.059,63.177 L 127.649,61.558 L 124.536,59.9 L 120.645,58.269 L 118.361,57.465 L 115.838,56.675 L 112.876,56.047 L 110.391,55.633 L 106.073,55.268 L 102.496,55.407 L 99.659,55.934 L 98.517,56.323 L 97.45,56.788 L 95.881,57.893 L 94.915,59.16 L 94.45,60.553 L 94.375,61.282 L 94.4,62.486 L 95.166,65.336 L 96.872,68.461 L 99.596,71.612 L 101.417,73.119 L 103.073,74.285 L 106.525,75.98 L 110.93,77.474 L 111.997,78.052 L 112.235,78.264 L 112.374,78.705 L 111.885,79.345 L 109.989,80.009 L 107.115,80.361 L 103.612,80.273 L 99.822,79.57 L 97.023,78.516 L 95.241,77.587 L 93.596,76.407 L 92.128,74.988 L 91.488,74.148 L 90.27,72.641 L 88.451,69.378 L 87.296,66.001 L 86.819,62.587 L 86.856,60.918 L 86.919,59.951 L 87.284,58.081 L 87.911,56.323 L 88.789,54.704 L 89.944,53.211 L 91.325,51.867 L 92.945,50.675 L 94.802,49.695 L 95.831,49.282 L 97.864,48.579 L 102.596,47.8 L 108.069,47.8 L 114.268,48.603 Z" marker-start="none" marker-end="none"/>
      </g>
      <g id="Group_3">
       <g id="Group_4" fill="#777777" fill-rule="nonzero" stroke-linejoin="miter" stroke="none" stroke-width="3.062" stroke-miterlimit="19.9600798403194">
        <g id="Group_5">
         <path d="M 262.141,143.739 C 259.164,143.738 256.424,144.369 253.919,145.632 C 251.413,146.892 249.368,148.671 247.782,150.968 L 255.35,158.003 C 256.222,156.806 257.225,155.891 258.357,155.261 C 259.489,154.629 260.684,154.315 261.946,154.315 C 263.724,154.315 265.101,154.849 266.07,155.916 C 267.04,156.984 267.524,158.504 267.524,160.476 L 267.524,215.003 L 278.149,215.003 L 278.149,159.603 C 278.149,156.271 277.519,153.417 276.257,151.04 C 274.996,148.663 273.176,146.852 270.799,145.607 C 268.422,144.361 265.536,143.738 262.141,143.739 Z" marker-start="none" marker-end="none"/>
         <path d="M 304.404,143.739 C 300.943,143.738 297.983,144.41 295.526,145.753 C 293.067,147.095 291.201,149.052 289.923,151.623 C 288.647,154.193 288.008,157.306 288.008,160.961 L 288.008,215.003 L 298.631,215.003 L 298.631,160.573 C 298.631,158.568 299.133,157.015 300.134,155.916 C 301.137,154.816 302.56,154.266 304.404,154.267 C 306.279,154.266 307.726,154.816 308.744,155.916 C 309.763,157.015 310.273,158.568 310.273,160.573 L 310.273,215.003 L 320.944,215.003 L 320.944,160.961 C 320.944,157.306 320.297,154.193 319.004,151.623 C 317.71,149.052 315.826,147.095 313.352,145.753 C 310.879,144.41 307.896,143.738 304.404,143.739 Z" marker-start="none" marker-end="none"/>
         <path d="M 330.805,215.003 L 341.428,215.003 L 341.428,144.467 L 330.805,144.467 L 330.805,215.003 Z M 335.753,154.606 L 360.637,154.606 L 360.637,144.467 L 335.753,144.467 L 335.753,154.606 Z" marker-start="none" marker-end="none"/>
         <path d="M 378.791,144.467 L 368.168,144.467 L 368.168,215.003 L 378.791,215.003 L 378.791,144.467 Z" marker-start="none" marker-end="none"/>
         <path d="M 388.748,215.003 L 399.371,215.003 L 399.371,144.467 L 388.748,144.467 L 388.748,215.003 Z M 393.793,154.703 L 419.549,154.703 L 419.549,144.467 L 393.793,144.467 L 393.793,154.703 Z M 393.793,184.635 L 417.124,184.635 L 417.124,174.398 L 393.793,174.398 L 393.793,184.635 Z M 393.793,215.003 L 419.549,215.003 L 419.549,204.767 L 393.793,204.767 L 393.793,215.003 Z" marker-start="none" marker-end="none"/>
         <path d="M 465.61,143.739 C 461.924,143.738 458.778,144.402 456.175,145.728 C 453.571,147.054 451.591,148.986 450.232,151.525 C 448.875,154.064 448.196,157.146 448.196,160.768 L 448.196,164.405 L 458.77,164.453 L 458.77,160.961 C 458.769,158.793 459.368,157.112 460.564,155.916 C 461.762,154.719 463.444,154.121 465.61,154.121 C 467.713,154.121 469.337,154.712 470.484,155.891 C 471.633,157.072 472.207,158.746 472.207,160.912 L 472.207,167.074 C 472.207,168.593 471.81,169.886 471.019,170.954 C 470.226,172.02 469.231,172.919 468.034,173.646 C 466.839,174.375 465.189,175.239 463.086,176.242 C 462.99,176.275 462.894,176.314 462.797,176.363 C 462.699,176.412 462.602,176.451 462.506,176.484 L 461.876,176.776 C 459.06,178.135 456.724,179.493 454.864,180.85 C 453.006,182.21 451.437,184.053 450.16,186.382 C 448.882,188.71 448.243,191.62 448.245,195.113 L 448.245,198.995 C 448.243,202.519 448.915,205.534 450.258,208.041 C 451.6,210.548 453.564,212.456 456.151,213.767 C 458.737,215.076 461.858,215.732 465.513,215.732 C 469.103,215.732 472.159,215.076 474.68,213.767 C 477.203,212.456 479.126,210.532 480.452,207.993 C 481.778,205.455 482.442,202.391 482.442,198.801 L 482.442,194.968 L 471.819,194.87 L 471.819,198.557 C 471.819,200.757 471.277,202.447 470.194,203.627 C 469.11,204.808 467.55,205.399 465.513,205.397 C 463.378,205.399 461.738,204.848 460.589,203.749 C 459.442,202.648 458.868,201.096 458.868,199.091 L 458.868,194.531 C 458.868,192.979 459.247,191.654 460.007,190.553 C 460.767,189.455 461.729,188.556 462.894,187.86 C 464.056,187.165 465.657,186.332 467.695,185.362 C 467.986,185.233 468.27,185.095 468.545,184.95 C 468.82,184.803 469.118,184.668 469.441,184.537 C 469.539,184.474 469.643,184.418 469.757,184.367 C 469.87,184.319 469.991,184.263 470.121,184.198 C 472.869,182.872 475.085,181.617 476.767,180.438 C 478.448,179.257 479.878,177.576 481.059,175.393 C 482.239,173.21 482.83,170.388 482.83,166.928 L 482.83,160.768 C 482.83,157.146 482.158,154.064 480.817,151.525 C 479.474,148.986 477.517,147.054 474.947,145.728 C 472.377,144.402 469.265,143.738 465.61,143.739 Z" marker-start="none" marker-end="none"/>
         <path d="M 510.832,143.739 C 507.112,143.738 503.919,144.417 501.253,145.777 C 498.583,147.134 496.554,149.091 495.164,151.646 C 493.774,154.201 493.079,157.29 493.079,160.912 L 493.079,198.605 C 493.079,202.227 493.774,205.324 495.164,207.897 C 496.554,210.467 498.583,212.415 501.253,213.741 C 503.919,215.067 507.112,215.732 510.832,215.732 C 514.582,215.732 517.784,215.067 520.436,213.741 C 523.088,212.415 525.116,210.467 526.524,207.897 C 527.929,205.324 528.634,202.227 528.634,198.605 L 528.634,160.912 C 528.634,157.29 527.929,154.201 526.524,151.646 C 525.116,149.091 523.088,147.134 520.436,145.777 C 517.784,144.417 514.582,143.738 510.832,143.739 Z M 510.832,154.267 C 512.319,154.266 513.597,154.548 514.663,155.115 C 515.732,155.682 516.54,156.507 517.09,157.59 C 517.64,158.672 517.915,159.991 517.915,161.543 L 517.915,198.025 C 517.915,199.545 517.64,200.847 517.09,201.93 C 516.54,203.013 515.732,203.839 514.663,204.404 C 513.597,204.97 512.319,205.252 510.832,205.252 C 509.344,205.252 508.075,204.97 507.023,204.404 C 505.972,203.839 505.172,203.013 504.623,201.93 C 504.072,200.847 503.798,199.545 503.798,198.025 L 503.798,161.543 C 503.798,159.991 504.072,158.672 504.623,157.59 C 505.172,156.507 505.972,155.682 507.023,155.115 C 508.075,154.548 509.344,154.266 510.832,154.267 Z" marker-start="none" marker-end="none"/>
         <path d="M 575.361,215.003 L 585.062,215.003 L 585.062,144.467 L 575.457,144.467 L 575.457,195.792 L 576.233,192.687 L 565.075,156.498 L 559.11,156.498 L 547.953,191.718 L 548.972,195.792 L 548.972,144.467 L 539.125,144.467 L 539.125,215.003 L 549.118,215.003 L 562.069,173.719 L 575.361,215.003 Z" marker-start="none" marker-end="none"/>
         <path d="M 613.306,143.739 C 609.587,143.738 606.394,144.417 603.727,145.777 C 601.058,147.134 599.029,149.091 597.639,151.646 C 596.249,154.201 595.553,157.29 595.553,160.912 L 595.553,198.605 C 595.553,202.227 596.249,205.324 597.639,207.897 C 599.029,210.467 601.058,212.415 603.727,213.741 C 606.394,215.067 609.587,215.732 613.306,215.732 C 617.056,215.732 620.259,215.067 622.911,213.741 C 625.563,212.415 627.591,210.467 628.999,207.897 C 630.404,205.324 631.108,202.227 631.108,198.605 L 631.108,160.912 C 631.108,157.29 630.404,154.201 628.999,151.646 C 627.591,149.091 625.563,147.134 622.911,145.777 C 620.259,144.417 617.056,143.738 613.306,143.739 Z M 613.306,154.267 C 614.793,154.266 616.071,154.548 617.138,155.115 C 618.206,155.682 619.015,156.507 619.564,157.59 C 620.114,158.672 620.389,159.991 620.389,161.543 L 620.389,198.025 C 620.389,199.545 620.114,200.847 619.564,201.93 C 619.015,203.013 618.206,203.839 617.138,204.404 C 616.071,204.97 614.793,205.252 613.306,205.252 C 611.819,205.252 610.549,204.97 609.498,204.404 C 608.446,203.839 607.646,203.013 607.097,201.93 C 606.547,200.847 606.272,199.545 606.272,198.025 L 606.272,161.543 C 606.272,159.991 606.547,158.672 607.097,157.59 C 607.646,156.507 608.446,155.682 609.498,155.115 C 610.549,154.548 611.819,154.266 613.306,154.267 Z" marker-start="none" marker-end="none"/>
         <path d="M 637.234,215.003 L 648.391,215.003 L 656.443,163.581 L 664.495,215.003 L 675.7,215.003 L 662.118,144.467 L 650.816,144.467 L 637.234,215.003 Z" marker-start="none" marker-end="none"/>
         <path d="M 694.969,215.003 L 703.409,215.003 L 720,144.467 L 709.086,144.467 L 699.191,195.648 L 689.343,144.467 L 678.429,144.467 L 694.969,215.003 Z M 689.343,167.607 L 709.426,167.607 L 709.426,157.663 L 689.343,157.663 L 689.343,167.607 Z" marker-start="none" marker-end="none"/>
        </g>
        <g id="Group_6">
         <path d="M 257.484,82.627 L 270.387,82.627 C 271.519,82.627 272.489,82.886 273.297,83.403 C 274.106,83.92 274.728,84.672 275.165,85.659 C 275.602,86.646 275.82,87.819 275.82,89.176 L 275.82,98.733 C 275.82,100.156 275.61,101.377 275.189,102.395 C 274.769,103.415 274.147,104.189 273.323,104.723 C 272.497,105.258 271.519,105.525 270.387,105.525 L 257.484,105.525 L 257.484,115.664 L 270.484,115.664 C 273.879,115.664 276.79,115.041 279.215,113.796 C 281.641,112.55 283.484,110.732 284.745,108.339 C 286.007,105.946 286.637,103.067 286.637,99.704 L 286.637,88.158 C 286.637,84.858 285.998,82.036 284.72,79.692 C 283.442,77.348 281.593,75.561 279.167,74.331 C 276.742,73.104 273.846,72.488 270.484,72.488 L 257.484,72.488 L 257.484,82.627 Z M 252.148,115.664 L 262.771,115.664 L 262.771,45.127 L 252.148,45.127 L 252.148,115.664 Z" marker-start="none" marker-end="none"/>
         <path d="M 317.974,115.664 L 328.597,115.664 L 328.597,45.127 L 317.974,45.127 L 317.974,115.664 Z M 295.563,115.664 L 306.186,115.664 L 306.186,45.127 L 295.563,45.127 L 295.563,115.664 Z M 301.48,84.907 L 324.133,84.907 L 324.133,74.866 L 301.48,74.866 L 301.48,84.907 Z" marker-start="none" marker-end="none"/>
         <path d="M 355.518,44.4 C 351.799,44.399 348.606,45.077 345.939,46.437 C 343.27,47.794 341.241,49.752 339.851,52.307 C 338.461,54.861 337.765,57.95 337.765,61.573 L 337.765,99.266 C 337.765,102.888 338.461,105.984 339.851,108.557 C 341.241,111.128 343.27,113.076 345.939,114.402 C 348.606,115.728 351.799,116.392 355.518,116.392 C 359.269,116.392 362.471,115.728 365.123,114.402 C 367.775,113.076 369.803,111.128 371.211,108.557 C 372.616,105.984 373.32,102.888 373.32,99.266 L 373.32,61.573 C 373.32,57.95 372.616,54.861 371.211,52.307 C 369.803,49.752 367.775,47.794 365.123,46.437 C 362.471,45.077 359.269,44.399 355.518,44.4 Z M 355.518,54.928 C 357.006,54.927 358.283,55.209 359.35,55.776 C 360.418,56.342 361.227,57.167 361.776,58.251 C 362.327,59.333 362.601,60.651 362.601,62.204 L 362.601,98.685 C 362.601,100.206 362.327,101.507 361.776,102.591 C 361.227,103.673 360.418,104.499 359.35,105.064 C 358.283,105.631 357.006,105.913 355.518,105.913 C 354.031,105.913 352.761,105.631 351.71,105.064 C 350.659,104.499 349.858,103.673 349.309,102.591 C 348.759,101.507 348.484,100.206 348.484,98.685 L 348.484,62.204 C 348.484,60.651 348.759,59.333 349.309,58.251 C 349.858,57.167 350.659,56.342 351.71,55.776 C 352.761,55.209 354.031,54.927 355.518,54.928 Z" marker-start="none" marker-end="none"/>
         <path d="M 389.716,109.841 L 400.339,109.841 L 400.339,45.127 L 389.716,45.127 L 389.716,109.841 Z M 377.638,115.664 L 412.417,115.664 L 412.417,105.525 L 377.638,105.525 L 377.638,115.664 Z" marker-start="none" marker-end="none"/>
         <path d="M 434.488,44.4 C 430.769,44.399 427.576,45.077 424.909,46.437 C 422.24,47.794 420.211,49.752 418.821,52.307 C 417.431,54.861 416.735,57.95 416.735,61.573 L 416.735,99.266 C 416.735,102.888 417.431,105.984 418.821,108.557 C 420.211,111.128 422.24,113.076 424.909,114.402 C 427.576,115.728 430.769,116.392 434.488,116.392 C 438.238,116.392 441.441,115.728 444.093,114.402 C 446.745,113.076 448.773,111.128 450.181,108.557 C 451.586,105.984 452.29,102.888 452.29,99.266 L 452.29,61.573 C 452.29,57.95 451.586,54.861 450.181,52.307 C 448.773,49.752 446.745,47.794 444.093,46.437 C 441.441,45.077 438.238,44.399 434.488,44.4 Z M 434.488,54.928 C 435.975,54.927 437.253,55.209 438.32,55.776 C 439.388,56.342 440.197,57.167 440.746,58.251 C 441.296,59.333 441.571,60.651 441.571,62.204 L 441.571,98.685 C 441.571,100.206 441.296,101.507 440.746,102.591 C 440.197,103.673 439.388,104.499 438.32,105.064 C 437.253,105.631 435.975,105.913 434.488,105.913 C 433.001,105.913 431.731,105.631 430.68,105.064 C 429.629,104.499 428.828,103.673 428.279,102.591 C 427.729,101.507 427.454,100.206 427.454,98.685 L 427.454,62.204 C 427.454,60.651 427.729,59.333 428.279,58.251 C 428.828,57.167 429.629,56.342 430.68,55.776 C 431.731,55.209 433.001,54.927 434.488,54.928 Z" marker-start="none" marker-end="none"/>
         <path d="M 496.142,83.161 L 496.142,62.3 C 496.141,58.549 495.461,55.339 494.104,52.671 C 492.746,50.003 490.781,47.958 488.211,46.535 C 485.639,45.11 482.543,44.399 478.921,44.4 C 475.268,44.399 472.131,45.077 469.511,46.437 C 466.892,47.794 464.894,49.759 463.52,52.332 C 462.146,54.903 461.459,57.983 461.459,61.573 L 461.459,98.247 C 461.459,102.064 462.131,105.33 463.472,108.047 C 464.815,110.764 466.778,112.833 469.365,114.258 C 471.952,115.68 475.041,116.392 478.63,116.392 C 482.189,116.392 485.228,115.704 487.75,114.329 C 490.273,112.956 492.205,110.943 493.547,108.289 C 494.888,105.638 495.56,102.469 495.56,98.782 L 495.56,94.317 L 484.452,94.317 L 484.452,98.782 C 484.452,100.269 484.225,101.538 483.772,102.591 C 483.32,103.64 482.657,104.44 481.783,104.992 C 480.91,105.541 479.859,105.815 478.63,105.815 C 477.306,105.815 476.149,105.515 475.161,104.918 C 474.176,104.32 473.432,103.454 472.93,102.323 C 472.429,101.191 472.178,99.833 472.178,98.247 L 472.178,61.573 C 472.178,60.216 472.445,59.042 472.978,58.055 C 473.512,57.069 474.289,56.317 475.307,55.799 C 476.326,55.282 477.53,55.024 478.921,55.024 C 480.312,55.024 481.508,55.298 482.511,55.849 C 483.512,56.398 484.282,57.215 484.815,58.299 C 485.348,59.382 485.614,60.682 485.615,62.204 L 485.615,73.021 L 478.679,73.021 L 478.679,83.161 L 496.142,83.161 Z" marker-start="none" marker-end="none"/>
         <path d="M 510.159,85.102 L 523.014,85.102 C 524.34,85.102 525.489,85.353 526.458,85.854 C 527.428,86.354 528.163,87.067 528.666,87.988 C 529.167,88.91 529.418,90.033 529.418,91.359 L 529.418,98.879 C 529.418,100.269 529.167,101.474 528.666,102.492 C 528.163,103.511 527.428,104.279 526.458,104.797 C 525.489,105.314 524.34,105.574 523.014,105.574 L 510.159,105.574 L 510.159,115.712 L 522.238,115.712 C 526.021,115.713 529.255,115.091 531.941,113.845 C 534.624,112.6 536.677,110.771 538.099,108.363 C 539.524,105.953 540.235,103.067 540.234,99.704 L 540.234,91.456 C 540.235,87.995 539.524,85.028 538.099,82.554 C 536.677,80.08 534.616,78.196 531.916,76.902 C 529.215,75.609 525.989,74.962 522.238,74.962 L 510.159,74.962 L 510.159,85.102 Z M 505.31,115.712 L 515.787,115.712 L 515.787,45.127 L 505.31,45.127 L 505.31,115.712 Z M 521.123,77.145 L 530.97,79.377 L 542.224,45.127 L 530.728,45.127 L 521.123,77.145 Z" marker-start="none" marker-end="none"/>
         <path d="M 563.324,115.664 L 571.764,115.664 L 588.355,45.127 L 577.441,45.127 L 567.546,96.308 L 557.698,45.127 L 546.784,45.127 L 563.324,115.664 Z M 557.698,68.268 L 577.781,68.268 L 577.781,58.323 L 557.698,58.323 L 557.698,68.268 Z" marker-start="none" marker-end="none"/>
         <path d="M 599.464,82.627 L 612.367,82.627 C 613.498,82.627 614.469,82.886 615.276,83.403 C 616.085,83.92 616.707,84.672 617.144,85.659 C 617.581,86.646 617.799,87.819 617.799,89.176 L 617.799,98.733 C 617.799,100.156 617.59,101.377 617.169,102.395 C 616.749,103.415 616.127,104.189 615.302,104.723 C 614.476,105.258 613.498,105.525 612.367,105.525 L 599.464,105.525 L 599.464,115.664 L 612.463,115.664 C 615.859,115.664 618.769,115.041 621.195,113.796 C 623.62,112.55 625.463,110.732 626.724,108.339 C 627.986,105.946 628.616,103.067 628.616,99.704 L 628.616,88.158 C 628.616,84.858 627.977,82.036 626.699,79.692 C 625.422,77.348 623.572,75.561 621.147,74.331 C 618.721,73.104 615.825,72.488 612.463,72.488 L 599.464,72.488 L 599.464,82.627 Z M 594.128,115.664 L 604.751,115.664 L 604.751,45.127 L 594.128,45.127 L 594.128,115.664 Z" marker-start="none" marker-end="none"/>
         <path d="M 659.953,115.664 L 670.576,115.664 L 670.576,45.127 L 659.953,45.127 L 659.953,115.664 Z M 637.543,115.664 L 648.165,115.664 L 648.165,45.127 L 637.543,45.127 L 637.543,115.664 Z M 643.46,84.907 L 666.113,84.907 L 666.113,74.866 L 643.46,74.866 L 643.46,84.907 Z" marker-start="none" marker-end="none"/>
         <path d="M 698.177,73.409 L 698.177,45.127 L 687.554,45.127 L 687.554,73.409 L 673.923,115.664 L 684.837,115.664 L 692.793,85.877 L 700.36,115.664 L 711.323,115.664 L 698.177,73.409 Z" marker-start="none" marker-end="none"/>
        </g>
       </g>
       <path d="M 202.682,227.375 L 202.682,30.403" fill="none" stroke="#777777" stroke-width="6.276" stroke-linejoin="round" stroke-linecap="round" stroke-miterlimit="19.9600798403194"/>
      </g>
     </g>
    </g>
   </g>
   <g id="SVG Document"/>
  </g>
 </g>
</svg>
