<?xml version="1.0" standalone="no"?>
<!DOCTYPE svg PUBLIC "-//W3C//DTD SVG 1.1//EN" "http://www.w3.org/Graphics/SVG/1.1/DTD/svg11.dtd">
<!--Generator: Xara Designer (www.xara.com), SVG filter version: 4.0.0.1-->
<svg stroke-width="0.501" stroke-linejoin="bevel" fill-rule="evenodd" xmlns:xlink="http://www.w3.org/1999/xlink" xmlns="http://www.w3.org/2000/svg" version="1.1" overflow="visible" width="360pt" height="108pt" viewBox="0 0 360 108">
 <defs>
  <marker id="DefaultArrow2" markerUnits="strokeWidth" viewBox="0 0 1 1" markerWidth="1" markerHeight="1" overflow="visible" orient="auto">
   <!-- REF_ARROW_STRAIGHT (-2) -->
   <g transform="scale(0.0092592592)">
    <!-- 1/108 -->
    <path d="M -9 54 L -9 -54 L 117 0 z"/>
   </g>
  </marker>
  <marker id="DefaultArrow3" markerUnits="strokeWidth" viewBox="0 0 1 1" markerWidth="1" markerHeight="1" overflow="visible" orient="auto">
   <!-- REF_ARROW_ANGLED -->
   <g transform="scale(0.0092592592)">
    <path d="M -27 54 L -9 0 L -27 -54 L 135 0 z"/>
   </g>
  </marker>
  <marker id="DefaultArrow4" markerUnits="strokeWidth" viewBox="0 0 1 1" markerWidth="1" markerHeight="1" overflow="visible" orient="auto">
   <!-- REF_ARROW_ROUNDED -->
   <g transform="scale(0.0092592592)">
    <path d="M -9,0 L -9,-45 C -9,-51.708 2.808,-56.580 9,-54 L 117,-9 C 120.916,-7.369 126.000,-4.242 126,0 C 126,4.242 120.916,7.369 117,9 L 9,54 C 2.808,56.580 -9,51.708 -9,45 z"/>
   </g>
  </marker>
  <marker id="DefaultArrow5" markerUnits="strokeWidth" viewBox="0 0 1 1" markerWidth="1" markerHeight="1" overflow="visible" orient="auto">
   <!-- REF_ARROW_SPOT -->
   <g transform="scale(0.0092592592)">
    <path d="M -54, 0 C -54,29.807 -29.807,54 0,54 C 29.807,54 54,29.807 54,0 C 54,-29.807 29.807,-54 0,-54 C -29.807,-54 -54,-29.807 -54,0 z"/>
   </g>
  </marker>
  <marker id="DefaultArrow6" markerUnits="strokeWidth" viewBox="0 0 1 1" markerWidth="1" markerHeight="1" overflow="visible" orient="auto">
   <!-- REF_ARROW_DIAMOND -->
   <g transform="scale(0.0092592592)">
    <path d="M -63,0 L 0,63 L 63,0 L 0,-63 z"/>
   </g>
  </marker>
  <marker id="DefaultArrow7" markerUnits="strokeWidth" viewBox="0 0 1 1" markerWidth="1" markerHeight="1" overflow="visible" orient="auto">
   <!-- REF_ARROW_FEATHER -->
   <g transform="scale(0.0092592592)">
    <path d="M 18,-54 L 108,-54 L 63,0 L 108,54 L 18, 54 L -36,0 z"/>
   </g>
  </marker>
  <marker id="DefaultArrow8" markerUnits="strokeWidth" viewBox="0 0 1 1" markerWidth="1" markerHeight="1" overflow="visible" orient="auto">
   <!-- REF_ARROW_FEATHER2 -->
   <g transform="scale(0.0092592592)">
    <path d="M -36,0 L 18,-54 L 54,-54 L 18,-18 L 27,-18 L 63,-54 L 99,-54 L 63,-18 L 72,-18 L 108,-54 L 144,-54 L 90,0 L 144,54 L 108,54 L 72,18 L 63,18 L 99,54 L 63,54 L 27,18 L 18,18 L 54,54 L 18,54 z"/>
   </g>
  </marker>
  <marker id="DefaultArrow9" markerUnits="strokeWidth" viewBox="0 0 1 1" markerWidth="1" markerHeight="1" overflow="visible" orient="auto">
   <!-- REF_ARROW_HOLLOWDIAMOND -->
   <g transform="scale(0.0092592592)">
    <path d="M 0,45 L -45,0 L 0, -45 L 45, 0 z M 0, 63 L-63, 0 L 0, -63 L 63, 0 z"/>
   </g>
  </marker>
  <filter id="StainedFilter">
   <feBlend mode="multiply" in2="BackgroundImage" in="SourceGraphic" result="blend"/>
   <feComposite in="blend" in2="SourceAlpha" operator="in" result="comp"/>
  </filter>
  <filter id="BleachFilter">
   <feBlend mode="screen" in2="BackgroundImage" in="SourceGraphic" result="blend"/>
   <feComposite in="blend" in2="SourceAlpha" operator="in" result="comp"/>
  </filter>
  <filter id="InvertTransparencyBitmapFilter">
   <feComponentTransfer>
    <feFuncR type="gamma" amplitude="1.055" exponent=".416666666" offset="-0.055"/>
    <feFuncG type="gamma" amplitude="1.055" exponent=".416666666" offset="-0.055"/>
    <feFuncB type="gamma" amplitude="1.055" exponent=".416666666" offset="-0.055"/>
   </feComponentTransfer>
   <feComponentTransfer>
    <feFuncR type="linear" slope="-1" intercept="1"/>
    <feFuncG type="linear" slope="-1" intercept="1"/>
    <feFuncB type="linear" slope="-1" intercept="1"/>
    <feFuncA type="linear" slope="1" intercept="0"/>
   </feComponentTransfer>
   <feComponentTransfer>
    <feFuncR type="gamma" amplitude="1" exponent="2.4" offset="0"/>
    <feFuncG type="gamma" amplitude="1" exponent="2.4" offset="0"/>
    <feFuncB type="gamma" amplitude="1" exponent="2.4" offset="0"/>
   </feComponentTransfer>
  </filter>
 </defs>
 <g id="Document" fill="none" stroke="black" font-family="Times New Roman" font-size="16" transform="scale(1 -1)">
  <g id="Spread" transform="translate(0 -108)">
   <g id="Layer 1">
    <g id="Group" fill-rule="nonzero" stroke-linejoin="round" stroke-linecap="round" stroke="none" fill="#000000">
     <g id="Group_1" stroke-width="0.438" stroke-miterlimit="79.8403193612775">
      <g id="Group_2">
       <path d="M 83.643,28.52 L 83.643,16.585 L 85.355,16.585 L 85.355,21.768 L 86.617,21.768 C 87.231,21.766 87.758,21.797 88.196,21.859 C 88.632,21.92 89.01,22.022 89.326,22.162 C 89.643,22.303 89.924,22.492 90.17,22.73 C 90.462,23.018 90.682,23.31 90.825,23.605 C 90.97,23.899 91.063,24.177 91.108,24.442 C 91.151,24.711 91.174,24.944 91.168,25.144 C 91.162,25.684 91.073,26.147 90.901,26.536 C 90.728,26.924 90.508,27.247 90.241,27.506 C 89.908,27.838 89.563,28.076 89.2,28.22 C 88.837,28.364 88.451,28.451 88.042,28.483 C 87.634,28.515 87.193,28.527 86.722,28.52 L 83.643,28.52 Z M 86.652,27.016 C 87.054,27.02 87.391,27.013 87.656,26.998 C 87.923,26.982 88.15,26.938 88.336,26.866 C 88.526,26.795 88.705,26.675 88.876,26.509 C 89.08,26.312 89.22,26.092 89.295,25.858 C 89.368,25.621 89.404,25.395 89.4,25.178 C 89.396,24.802 89.325,24.482 89.184,24.214 C 89.041,23.949 88.851,23.745 88.613,23.605 C 88.354,23.453 88.061,23.361 87.731,23.329 C 87.403,23.296 87.068,23.284 86.722,23.289 L 85.355,23.289 L 85.355,27.016 L 86.652,27.016 Z" marker-start="none" marker-end="none"/>
       <path d="M 99.541,28.52 L 99.541,16.585 L 101.237,16.585 L 101.237,21.787 L 101.693,21.787 C 101.898,21.789 102.093,21.782 102.277,21.761 C 102.464,21.744 102.655,21.687 102.848,21.596 C 103.043,21.507 103.254,21.358 103.486,21.15 C 103.716,20.943 103.974,20.652 104.266,20.279 C 104.346,20.171 104.469,19.997 104.631,19.756 C 104.793,19.514 104.976,19.237 105.18,18.927 C 105.384,18.615 105.589,18.302 105.792,17.988 C 105.996,17.675 106.181,17.391 106.345,17.142 C 106.512,16.892 106.634,16.705 106.718,16.585 L 108.749,16.585 C 108.545,16.87 108.367,17.118 108.219,17.329 C 108.071,17.538 107.934,17.728 107.815,17.899 C 107.698,18.071 107.584,18.24 107.474,18.409 C 107.363,18.578 107.245,18.763 107.119,18.967 C 106.821,19.456 106.537,19.904 106.267,20.314 C 105.998,20.721 105.718,21.087 105.429,21.411 C 105.139,21.737 104.818,22.019 104.458,22.258 C 105.109,22.515 105.603,22.896 105.944,23.399 C 106.283,23.901 106.454,24.499 106.455,25.196 C 106.456,25.601 106.389,25.995 106.253,26.372 C 106.118,26.753 105.912,27.096 105.637,27.4 C 105.358,27.704 105.008,27.951 104.584,28.135 C 104.202,28.297 103.837,28.402 103.486,28.452 C 103.134,28.504 102.816,28.527 102.534,28.52 L 99.541,28.52 Z M 101.763,27.068 C 102.104,27.068 102.401,27.059 102.651,27.042 C 102.902,27.024 103.12,26.995 103.302,26.954 C 103.486,26.912 103.649,26.858 103.793,26.788 C 103.98,26.698 104.144,26.573 104.279,26.41 C 104.416,26.247 104.519,26.063 104.593,25.853 C 104.666,25.645 104.703,25.426 104.705,25.196 C 104.705,24.977 104.666,24.757 104.588,24.534 C 104.51,24.311 104.388,24.107 104.22,23.923 C 104.053,23.738 103.835,23.59 103.566,23.48 C 103.403,23.424 103.208,23.384 102.983,23.358 C 102.759,23.334 102.547,23.317 102.347,23.312 C 102.146,23.306 101.997,23.304 101.903,23.305 L 101.237,23.305 L 101.237,27.068 L 101.763,27.068 Z" marker-start="none" marker-end="none"/>
       <path d="M 121.708,28.679 C 120.89,28.675 120.146,28.562 119.476,28.343 C 118.806,28.121 118.214,27.814 117.695,27.421 C 117.18,27.03 116.746,26.574 116.393,26.054 C 116.037,25.536 115.773,24.974 115.592,24.375 C 115.41,23.773 115.319,23.155 115.317,22.516 C 115.323,21.68 115.474,20.896 115.776,20.163 C 116.078,19.43 116.506,18.785 117.063,18.224 C 117.621,17.666 118.285,17.227 119.054,16.911 C 119.825,16.595 120.68,16.432 121.619,16.427 C 122.6,16.432 123.488,16.589 124.288,16.904 C 125.085,17.216 125.774,17.654 126.348,18.211 C 126.926,18.77 127.368,19.42 127.678,20.163 C 127.989,20.905 128.147,21.707 128.152,22.569 C 128.15,23.377 127.998,24.148 127.703,24.876 C 127.407,25.605 126.98,26.256 126.42,26.826 C 125.86,27.396 125.182,27.846 124.392,28.174 C 123.599,28.504 122.704,28.672 121.708,28.679 Z M 121.778,27.068 C 122.4,27.064 122.96,26.972 123.454,26.792 C 123.949,26.612 124.382,26.368 124.751,26.06 C 125.121,25.754 125.426,25.406 125.669,25.02 C 125.917,24.632 126.097,24.229 126.218,23.813 C 126.34,23.396 126.4,22.986 126.4,22.588 C 126.398,22.239 126.352,21.875 126.259,21.495 C 126.165,21.114 126.029,20.747 125.852,20.39 C 125.675,20.033 125.46,19.715 125.209,19.437 C 124.931,19.139 124.603,18.884 124.224,18.672 C 123.846,18.462 123.442,18.299 123.014,18.189 C 122.586,18.076 122.155,18.02 121.725,18.018 C 121.096,18.02 120.5,18.127 119.945,18.341 C 119.386,18.554 118.893,18.856 118.467,19.252 C 118.037,19.648 117.703,20.119 117.458,20.67 C 117.215,21.221 117.092,21.836 117.085,22.516 C 117.084,22.922 117.142,23.334 117.253,23.756 C 117.365,24.179 117.538,24.587 117.774,24.982 C 118.01,25.372 118.311,25.728 118.683,26.041 C 119.051,26.354 119.492,26.604 120.005,26.786 C 120.52,26.971 121.11,27.064 121.778,27.068 Z" marker-start="none" marker-end="none"/>
       <path d="M 143.475,28.52 L 137.104,28.52 L 137.104,16.585 L 138.82,16.585 L 138.82,22.136 L 143.475,22.136 L 143.475,23.673 L 138.82,23.673 L 138.82,26.982 L 143.475,26.982 L 143.475,28.52 Z" marker-start="none" marker-end="none"/>
       <path d="M 158.909,28.52 L 152.137,28.52 L 152.137,16.585 L 159.067,16.585 L 159.067,18.121 L 153.85,18.121 L 153.85,21.836 L 158.735,21.836 L 158.735,23.358 L 153.85,23.358 L 153.85,26.999 L 158.909,26.999 L 158.909,28.52 Z" marker-start="none" marker-end="none"/>
       <path d="M 173.764,27.84 C 173.351,28.111 172.911,28.318 172.449,28.462 C 171.985,28.604 171.506,28.677 171.017,28.679 C 170.295,28.673 169.671,28.532 169.149,28.257 C 168.623,27.984 168.216,27.608 167.932,27.134 C 167.645,26.659 167.499,26.12 167.497,25.512 C 167.498,25.137 167.552,24.805 167.658,24.514 C 167.761,24.223 167.907,23.959 168.092,23.726 C 168.22,23.563 168.359,23.41 168.512,23.272 C 168.661,23.131 168.845,22.986 169.06,22.837 C 169.275,22.682 169.544,22.508 169.864,22.309 C 170.186,22.11 170.582,21.872 171.049,21.589 C 171.196,21.504 171.356,21.397 171.532,21.266 C 171.711,21.135 171.882,20.981 172.047,20.805 C 172.214,20.63 172.35,20.435 172.458,20.219 C 172.566,20.006 172.623,19.772 172.626,19.521 C 172.62,19.184 172.525,18.897 172.344,18.663 C 172.163,18.429 171.932,18.251 171.648,18.13 C 171.368,18.008 171.077,17.948 170.771,17.946 C 170.32,17.951 169.915,18.023 169.557,18.159 C 169.196,18.295 168.884,18.462 168.616,18.658 C 168.347,18.856 168.124,19.051 167.948,19.241 C 167.769,19.43 167.636,19.583 167.551,19.699 L 167.551,17.527 C 168.018,17.175 168.523,16.905 169.069,16.715 C 169.614,16.524 170.181,16.429 170.771,16.427 C 171.482,16.432 172.094,16.575 172.611,16.853 C 173.127,17.132 173.526,17.516 173.807,18.006 C 174.09,18.491 174.232,19.052 174.235,19.681 C 174.232,20.11 174.17,20.487 174.05,20.815 C 173.931,21.14 173.775,21.423 173.59,21.658 C 173.357,21.964 173.106,22.224 172.837,22.442 C 172.57,22.661 172.304,22.843 172.047,22.99 C 171.482,23.318 171.007,23.604 170.623,23.841 C 170.242,24.08 169.935,24.295 169.708,24.491 C 169.479,24.687 169.318,24.886 169.219,25.082 C 169.118,25.282 169.071,25.506 169.074,25.756 C 169.075,26.013 169.151,26.243 169.303,26.449 C 169.453,26.658 169.67,26.825 169.951,26.949 C 170.234,27.074 170.57,27.137 170.963,27.14 C 171.232,27.143 171.518,27.109 171.822,27.035 C 172.124,26.963 172.438,26.836 172.766,26.654 C 173.09,26.476 173.425,26.221 173.764,25.896 L 173.764,27.84 Z" marker-start="none" marker-end="none"/>
       <path d="M 188.615,27.84 C 188.202,28.111 187.764,28.318 187.3,28.462 C 186.836,28.604 186.359,28.677 185.869,28.679 C 185.147,28.673 184.522,28.532 184,28.257 C 183.474,27.984 183.069,27.608 182.782,27.134 C 182.497,26.659 182.353,26.12 182.351,25.512 C 182.351,25.137 182.406,24.805 182.51,24.514 C 182.613,24.223 182.758,23.959 182.945,23.726 C 183.073,23.563 183.212,23.41 183.362,23.272 C 183.514,23.131 183.696,22.986 183.912,22.837 C 184.128,22.682 184.397,22.508 184.718,22.309 C 185.038,22.11 185.432,21.872 185.903,21.589 C 186.048,21.504 186.208,21.397 186.385,21.266 C 186.562,21.135 186.733,20.981 186.901,20.805 C 187.066,20.63 187.202,20.435 187.31,20.219 C 187.418,20.006 187.474,19.772 187.477,19.521 C 187.472,19.184 187.378,18.897 187.195,18.663 C 187.013,18.429 186.782,18.251 186.501,18.13 C 186.22,18.008 185.928,17.948 185.625,17.946 C 185.174,17.951 184.768,18.023 184.407,18.159 C 184.049,18.295 183.735,18.462 183.468,18.658 C 183.2,18.856 182.976,19.051 182.801,19.241 C 182.623,19.43 182.487,19.583 182.401,19.699 L 182.401,17.527 C 182.87,17.175 183.375,16.905 183.921,16.715 C 184.466,16.524 185.033,16.429 185.625,16.427 C 186.333,16.432 186.948,16.575 187.463,16.853 C 187.978,17.132 188.379,17.516 188.66,18.006 C 188.942,18.491 189.084,19.052 189.088,19.681 C 189.084,20.11 189.022,20.487 188.902,20.815 C 188.783,21.14 188.629,21.423 188.442,21.658 C 188.208,21.964 187.958,22.224 187.69,22.442 C 187.422,22.661 187.155,22.843 186.901,22.99 C 186.334,23.318 185.86,23.604 185.475,23.841 C 185.093,24.08 184.788,24.295 184.56,24.491 C 184.332,24.687 184.171,24.886 184.068,25.082 C 183.97,25.282 183.923,25.506 183.925,25.756 C 183.927,26.013 184.003,26.243 184.156,26.449 C 184.306,26.658 184.522,26.825 184.805,26.949 C 185.086,27.074 185.423,27.137 185.816,27.14 C 186.085,27.143 186.37,27.109 186.675,27.035 C 186.975,26.963 187.291,26.836 187.616,26.654 C 187.943,26.476 188.276,26.221 188.615,25.896 L 188.615,27.84 Z" marker-start="none" marker-end="none"/>
       <path d="M 199.525,28.52 L 197.812,28.52 L 197.812,16.585 L 199.525,16.585 L 199.525,28.52 Z" marker-start="none" marker-end="none"/>
       <path d="M 214.87,28.679 C 214.053,28.675 213.31,28.562 212.638,28.343 C 211.969,28.121 211.376,27.814 210.859,27.421 C 210.344,27.03 209.907,26.574 209.556,26.054 C 209.203,25.536 208.935,24.974 208.753,24.375 C 208.575,23.773 208.481,23.155 208.481,22.516 C 208.484,21.68 208.637,20.896 208.939,20.163 C 209.242,19.43 209.669,18.785 210.227,18.224 C 210.786,17.666 211.448,17.227 212.218,16.911 C 212.987,16.595 213.844,16.432 214.783,16.427 C 215.762,16.432 216.652,16.589 217.45,16.904 C 218.25,17.216 218.936,17.654 219.512,18.211 C 220.087,18.77 220.531,19.42 220.841,20.163 C 221.153,20.905 221.311,21.707 221.315,22.569 C 221.311,23.377 221.161,24.148 220.866,24.876 C 220.569,25.605 220.141,26.256 219.583,26.826 C 219.025,27.396 218.347,27.846 217.555,28.174 C 216.762,28.504 215.866,28.672 214.87,28.679 Z M 214.94,27.068 C 215.565,27.064 216.121,26.972 216.618,26.792 C 217.113,26.612 217.546,26.368 217.914,26.06 C 218.282,25.754 218.589,25.406 218.833,25.02 C 219.077,24.632 219.26,24.229 219.381,23.813 C 219.502,23.396 219.562,22.986 219.562,22.588 C 219.562,22.239 219.515,21.875 219.421,21.495 C 219.327,21.114 219.192,20.747 219.014,20.39 C 218.839,20.033 218.624,19.715 218.372,19.437 C 218.094,19.139 217.766,18.884 217.389,18.672 C 217.008,18.462 216.605,18.299 216.177,18.189 C 215.748,18.076 215.318,18.02 214.889,18.018 C 214.258,18.02 213.665,18.127 213.108,18.341 C 212.55,18.554 212.058,18.856 211.63,19.252 C 211.201,19.648 210.865,20.119 210.623,20.67 C 210.378,21.221 210.254,21.836 210.25,22.516 C 210.247,22.922 210.304,23.334 210.415,23.756 C 210.527,24.179 210.702,24.587 210.937,24.982 C 211.173,25.372 211.477,25.728 211.846,26.041 C 212.215,26.354 212.656,26.604 213.169,26.786 C 213.682,26.971 214.273,27.064 214.94,27.068 Z" marker-start="none" marker-end="none"/>
       <path d="M 241.369,28.52 L 239.738,28.52 L 239.738,19.262 L 231.685,28.52 L 230.301,28.52 L 230.301,16.585 L 231.913,16.585 L 231.913,25.772 L 239.897,16.585 L 241.369,16.585 L 241.369,28.52 Z" marker-start="none" marker-end="none"/>
       <path d="M 255.778,28.588 L 254.571,28.588 L 249.442,16.585 L 251.193,16.585 L 252.698,20.107 L 257.775,20.107 L 259.367,16.585 L 261.117,16.585 L 255.778,28.588 Z M 253.362,21.644 L 255.15,25.964 L 257.074,21.644 L 253.362,21.644 Z" marker-start="none" marker-end="none"/>
       <path d="M 270.981,28.52 L 269.248,28.52 L 269.248,16.585 L 276.355,16.585 L 276.355,18.144 L 270.981,18.144 L 270.981,28.52 Z" marker-start="none" marker-end="none"/>
      </g>
     </g>
     <g id="Group_3" stroke-width="1.98" stroke-miterlimit="79.8403193612775">
      <g id="Group_4">
       <path d="M 67.386,90.185 L 71.502,90.185 L 95.403,34.784 L 85.589,34.784 L 79.811,48.317 L 58.759,48.317 L 52.981,34.784 L 43.484,34.784 L 67.386,90.185 Z M 76.726,55.676 L 69.286,73.167 L 61.847,55.676 L 76.726,55.676 Z" marker-start="none" marker-end="none"/>
       <path d="M 109.473,90.185 L 109.473,43.093 L 129.973,43.093 L 129.973,34.784 L 100.451,34.784 L 100.451,90.185 L 109.473,90.185 Z" marker-start="none" marker-end="none"/>
       <path d="M 142.007,82.981 C 147.336,88.311 154.195,90.975 162.584,90.975 C 169.022,90.975 174.35,89.551 178.572,86.7 L 178.572,76.73 C 176.936,78.312 174.72,79.617 171.924,80.646 C 169.127,81.675 166.147,82.19 162.981,82.19 C 157.122,82.19 152.374,80.37 148.735,76.73 C 145.094,73.089 143.274,68.341 143.274,62.483 C 143.274,56.627 145.094,51.878 148.735,48.237 C 152.374,44.596 157.15,42.776 163.06,42.776 C 166.224,42.776 169.246,43.291 172.122,44.32 C 174.997,45.349 177.28,46.654 178.967,48.237 L 178.967,38.265 C 174.588,35.416 169.155,33.992 162.664,33.992 C 154.222,33.992 147.336,36.656 142.007,41.985 C 136.678,47.315 134.013,54.146 134.013,62.483 C 134.013,70.819 136.678,77.651 142.007,82.981 Z" marker-start="none" marker-end="none"/>
       <path d="M 197.185,34.784 L 188.161,34.784 L 188.161,90.185 L 197.185,90.185 L 197.185,34.784 Z" marker-start="none" marker-end="none"/>
       <path d="M 210.164,34.784 L 210.164,90.185 L 214.279,90.185 L 250.526,53.222 L 250.526,90.185 L 259.55,90.185 L 259.55,34.784 L 255.435,34.784 L 219.186,71.822 L 219.186,34.784 L 210.164,34.784 Z" marker-start="none" marker-end="none"/>
       <path d="M 288.496,90.185 L 292.612,90.185 L 316.514,34.784 L 306.698,34.784 L 300.923,48.317 L 279.87,48.317 L 274.092,34.784 L 264.595,34.784 L 288.496,90.185 Z M 297.836,55.676 L 290.395,73.167 L 282.957,55.676 L 297.836,55.676 Z" marker-start="none" marker-end="none"/>
      </g>
     </g>
    </g>
   </g>
   <g id="SVG Document"/>
  </g>
 </g>
</svg>
