<svg xmlns="http://www.w3.org/2000/svg" xmlns:xlink="http://www.w3.org/1999/xlink" stroke-width=".501" stroke-linejoin="bevel" fill-rule="evenodd" overflow="visible" width="438.048" height="438.048" viewBox="0 0 328.536 328.536" xmlns:v="https://vecta.io/nano"><defs><linearGradient id="A" gradientUnits="userSpaceOnUse" x1="164.267" y1="328.535" x2="164.267" y2=".002"><stop offset="0" stop-color="#8190c9"/><stop offset="1" stop-color="#6da5ce"/></linearGradient><path id="B" d="M143.069 176.351c5.452.034 9.608 1.577 12.47 4.628s4.305 7.412 4.326 13.078v37.008c-.021 5.667-1.463 10.027-4.326 13.078s-7.018 4.594-12.47 4.627c-5.449-.033-9.606-1.576-12.468-4.627s-4.305-7.411-4.326-13.078v-37.008c.021-5.666 1.463-10.025 4.326-13.078s7.019-4.594 12.468-4.628zm0 10.063c-1.776-.027-3.17.502-4.18 1.583s-1.526 2.867-1.546 5.355v38.417c.02 2.49.534 4.276 1.546 5.356s2.404 1.609 4.18 1.584c1.777.025 3.17-.503 4.182-1.584s1.526-2.866 1.545-5.356v-38.417c-.019-2.488-.535-4.274-1.545-5.355s-2.405-1.61-4.182-1.583z"/></defs><g transform="matrix(1 0 0 -1 0 328.536)" stroke="none"><path d="M.21 254.286V74.251C.21 33.266 33.474.002 74.459.002h179.617c40.985 0 74.249 33.264 74.249 74.249v180.035c0 40.985-33.264 74.249-74.249 74.249H74.459C33.474 328.535.21 295.271.21 254.286z" fill="url(#A)"/><g fill-rule="nonzero" fill="#fff"><path d="M86.463 177.359h17.404c5.541.017 9.724 1.442 12.549 4.275s4.244 6.975 4.252 12.424v6.033c.028 3.742-.606 6.869-1.9 9.378s-3.411 4.28-6.352 5.307v.201c2.457 1.003 4.265 2.646 5.423 4.929s1.734 5.234 1.724 8.849v2.815c.033 5.427-1.266 9.484-3.9 12.17s-6.798 4.029-12.499 4.025H86.463v-70.406zm11.069 41.744v18.6h5.33c1.951.012 3.379-.565 4.287-1.734s1.355-3.004 1.344-5.505v-3.921c-.006-1.864-.274-3.341-.803-4.432s-1.291-1.865-2.281-2.33-2.172-.691-3.553-.678h-4.324zm0-31.683v21.622h4.928c1.671.015 3.032-.241 4.085-.764s1.826-1.413 2.32-2.664.739-2.957.733-5.12v-6.135c-.005-2.577-.496-4.388-1.47-5.43s-2.395-1.547-4.261-1.509h-6.335z"/><use xlink:href="#B"/><use xlink:href="#B" x="40.229"/><path d="M207.543 177.356h11.069v22.431l4.426 8.953 9.356-31.384h11.568l-13.379 44.561 13.178 25.849h-11.066l-14.083-29.672v29.672h-11.069v-70.41zM75.555 79.763c5.452.034 9.608 1.577 12.47 4.628s4.305 7.412 4.326 13.078v37.008c-.021 5.667-1.463 10.027-4.326 13.078s-7.018 4.594-12.47 4.627c-5.449-.033-9.606-1.576-12.468-4.627s-4.305-7.411-4.326-13.078V97.469c.021-5.666 1.463-10.025 4.326-13.078s7.019-4.594 12.468-4.628zm0 10.063c-1.776-.027-3.17.502-4.18 1.583s-1.526 2.867-1.546 5.355v38.417c.02 2.49.534 4.276 1.546 5.356s2.404 1.609 4.18 1.584c1.777.025 3.17-.503 4.182-1.584s1.526-2.866 1.545-5.356V96.764c-.019-2.488-.535-4.274-1.545-5.355s-2.405-1.61-4.182-1.583zm24.242-9.058h9.846v51.4h.202l13.297-51.4h11.356v70.41h-9.846v-42.145h-.201l-10.778 42.145H99.797v-70.41zm42.934.003h29.277v10.061H153.8v60.346h-11.069V80.771zm34.629-.003h11.069v70.41H177.36v-70.41zm19.3 0h9.846v51.4h.202l13.297-51.4h11.356v70.41h-9.846v-42.145h-.201l-10.778 42.145H196.66v-70.41zm42.934.003h30.182v10.061h-19.113v21.621h15.19v10.062h-15.19v18.599h19.113v10.062h-30.182V80.771z"/></g></g></svg>