<svg xmlns="http://www.w3.org/2000/svg" stroke-width=".501" stroke-linejoin="bevel" fill-rule="evenodd" overflow="visible" width="3212.6" height="2011.093" viewBox="0 0 2409.45 1508.32" xmlns:v="https://vecta.io/nano"><defs><linearGradient id="A" gradientUnits="userSpaceOnUse" x1="-158.713" y1="1736.28" x2="3273.65" y2="555.191"><stop offset="0" stop-color="#9863cf"/><stop offset="1" stop-color="#ff97b6"/></linearGradient></defs><g transform="matrix(1 0 0 -1 0 1508.32)" fill="none" stroke="#000"><mask id="B"><path fill="#d3d3d3" stroke="none" d="M-240.945-150.832h2891.34v1809.984h-2891.34z"/></mask><g fill-rule="nonzero" stroke="none"><g mask="url(#B)" fill="url(#A)"><path d="M335.62 299.173a87 87 0 0 0-27.569 12.712c-8.471 5.893-17.187 13.8-26.137 23.687-26.778 28.741-45.07 60.305-54.771 94.706-9.73 34.417-14.003 70.909-12.834 109.364 1.015 83.197 7.081 165.771 18.185 247.829 11.12 82.028 24.937 163.633 41.607 244.889 11.54 57.74 23.967 115.43 37.317 173.05 13.303 57.62 24.75 115.63 34.308 174.05 5.973 35.06 10.496 70.21 13.584 105.45l1.664 23.45h72.745a240.83 240.83 0 0 1 .695-24.15c.701-8.75 3.163-17.2 7.314-25.43 2.926 16.6 4.413 33.12 4.457 49.58h40.057a852.86 852.86 0 0 0-2.891-93.82c-7.473-73.99-17.249-147.61-29.431-220.83L415.7 973.844l-27.074-161.996a4815.95 4815.95 0 0 1-22.205-163.012c-.469-4.602-1.234-9.343-2.261-14.098-1.122-4.82-3.79-9.2-8.11-13.178v1.294a436.79 436.79 0 0 0 1.794 25.016c.812 8.36-.219 17.323-3.075 26.995-6.815-32.423-10.992-64.454-12.615-96.064-1.588-31.565-2.572-63.268-2.866-95.035-.611-7.767-.705-15.343-.361-22.799.407-7.374.936-14.97 1.639-22.722.623-7.113 1.93-12.365 3.85-15.749 1.965-3.368 4.553-5.069 7.781-5.053 1.888 0 4.214.672 6.911 1.965 2.711 1.294 6.019 3.228 9.885 5.865 31.564 21.161 63.612 47.562 96.095 79.311 32.561 31.706 64.78 66.59 96.734 104.625 31.951 38.007 62.874 77.116 92.835 117.227 29.924 40.142 58.119 79.175 84.523 117.13l71.827 104.296c56.234 82.698 110.224 166.578 162.031 251.538l155.232 255.46 32.52 53.5h40.26l-15.58-31.4c-2.76-4.41-5.37-9.25-7.82-14.47-2.43-5.23-3.71-11.68-3.89-19.33 4.99 2.61 8.68 5.82 11.05 9.57 2.39 3.78 4.76 7.93 7.14 12.53l21.56 43.1h87.28l-101.02-216c-55.1-113.48-116.85-222.59-185.3-327.282-68.411-104.702-140.57-206.627-216.452-305.795-29.925-39.061-60.819-77.037-92.65-113.95-31.874-36.913-64.701-72.607-98.51-107.088-14.986-15.514-31.469-31.532-49.417-48.093-17.919-16.532-36.977-31.922-57.187-46.255-20.181-14.299-41.201-25.885-63.033-34.79-21.819-8.888-44.133-13.459-66.934-13.725-13.193-.03-24.765 1.219-34.667 3.791zm-2.197 30.052c.656.922 1.292 1.731 1.949 2.463-.657 2.558-1.637 4.225-2.914 5.005-1.296.812-2.935.825-4.885.156-.747-.062-1.574-.545-2.463-1.465-.876-.86-1.373-1.652-1.451-2.402.078-2.513.874-4.025 2.436-4.537 1.541-.562 3.333-.782 5.377-.641.642.064 1.31.546 1.951 1.421zm173.131 51.494c19.087 15.999 36.508 33.434 52.194 52.333-20.959-13.457-41.107-27.804-60.428-43.055-19.352-15.238-36.913-32.5-52.679-51.838 21.507 12.398 41.855 26.574 60.913 42.56zm-121.903-40.44c4.117.606 8.093 1.935 11.93 3.995 3.822 2.058 8.468 5.239 13.925 9.481 19.759 12.413 38.769 25.855 57.045 40.435 18.261 14.551 36.897 28.616 55.862 42.186 18.979 13.55 39.439 25.012 61.346 34.369 1.294.764 2.606 1.887 3.9 3.429 1.309 1.546 2.604 3.029 3.916 4.384 31.326 32.313 61.269 65.529 89.856 99.617 28.567 34.092 54.984 70.239 79.156 108.384l81.451 132.756 78.49 133.741 14.626 25.357c4.866 8.592 7.782 18.339 8.78 29.257-3.897-4.56-7.515-9.092-10.899-13.662l-9.92-13.647-87.783-131.323c-31.952-46.875-66.024-94.456-102.236-142.752-36.195-48.297-74.059-94.985-113.547-140.01-39.5-45.035-80.139-86.064-121.886-123.103-41.731-37.038-84.102-67.711-127.079-92.008-1.422-.578-2.482-1.717-3.23-3.43-.765-1.669-.546-4.445.639-8.252 6.333-.109 11.57.189 15.658.796zm-60.183 66.278c2.234 4.148 3.293 9.513 3.105 16.079a1763.21 1763.21 0 0 0 2.467 89.558l5.332 88.581a4023.74 4023.74 0 0 0 30.58 283.087l43.29 281.108 18.137 113.91c6.081 38.2 10.856 76.53 14.349 114.85.809 7.06 1.139 14.46.98 22.11-.171 7.72-1.805 16.38-4.91 26-3.714-6.91-5.833-13.55-6.362-19.93-.533-6.35-.61-12.38-.28-18.2.325-5.75-.064-11.24-1.174-16.47-5.035-18.18-8.95-36.66-11.772-55.3l-8.018-56.18c-2.522-18.83-5.876-37.54-10.073-56.21-9.403-38.42-17.495-77.27-24.311-116.5a3732.75 3732.75 0 0 0-22.332-117.494c-16.405-79.314-30.032-158.943-40.952-238.912-10.9-79.921-18.103-160.171-21.521-240.767-1.323-28.629-1.323-57.228 0-85.83-.154-7.688 1.156-13.1 3.915-16.25 2.807-3.149 8.016-4.647 15.691-4.522 6.983.703 11.601 3.149 13.859 7.282z"/><path d="M1473.78 5.307c-13.38 5.457-25.54 14.675-36.57 27.478-11 12.897-18.45 27.865-22.41 44.866-3.96 17.078-2.03 34.602 5.79 52.664 10.13 20.989 24.31 43.648 42.59 67.96 18.24 24.313 38.9 49.14 61.94 74.481 23.05 25.328 46.81 50.011 71.33 74.09 24.48 24.093 48.06 46.409 70.69 66.996 22.66 20.554 42.7 38.175 60.12 52.925 7.93 6.239 16.45 11.291 25.5 15.114 9.08 3.833 17.91 7.904 26.49 12.193 1.29 1.248 2.62 1.999 4.07 2.292 1.45.249 3.1.359 5.03.297 2.59-.077 5.25-.561 7.97-1.45 2.75-.905 5.71-1.698 8.94-2.433-2.08-6.955-5.12-12.552-9.09-16.764a134.31 134.31 0 0 0-13.02-11.836c-18.67-19.01-40.85-43.134-66.5-72.392-25.62-29.222-51.77-60.661-78.46-94.362-26.62-33.667-50.85-66.699-72.56-99.026-21.77-32.311-38.06-61.083-48.96-86.302-2.56-5.207-4.61-10.366-6.16-15.421-1.61-5.099-2.98-9.903-4.26-14.488-.81-3.29-1.13-6.426-.97-9.421.16-2.961 1.79-5.487 4.9-7.499.68-.594 1.54-.982 2.59-1.121 1.02-.125 1.9-.173 2.6-.159 1.89 0 3.62.313 5.19.969 1.58.652 3.29 1.607 5.21 2.914 39.41 22.363 77.53 48.951 114.34 79.691 36.83 30.751 71.94 64.169 105.35 100.196 33.43 36.069 64.6 73.278 93.63 111.623 29.03 38.351 55.48 76.292 79.25 113.905 43.43 67.682 80.75 138.059 111.94 211.074 31.26 73.059 57.18 148.304 77.85 225.747a1.55 1.55 0 0 0 .8 1.293c.54.285 1.16.719 1.83 1.294 3.37-2.651 4.38-5.471 3.05-8.435-1.32-2.994-1.91-5.831-1.79-8.47-.12-3.242-.81-6.47-2.1-9.73a78.18 78.18 0 0 1-3.1-9.759c-2.27-6.442-4.22-12.725-5.85-18.84-1.61-6.16-.96-12.414 1.96-18.853 12.6 29.911 22.5 61.069 29.74 93.444l20.96 100.288c-9.53-4.68-17.11-9.98-22.79-15.95-5.61-5.96-10.58-11.9-14.91-17.875l-197.75-219.573c-66.32-72.748-133.86-144.297-202.64-214.631-25.79-27.178-54.53-55.796-86.19-85.768-31.67-30.003-65.51-58.262-101.44-84.71-35.96-26.48-73.25-48.079-111.89-64.751-38.61-16.623-77.82-25.248-117.56-25.775-32.68.075-62.45 5.971-89.32 17.65-26.85 11.665-49.59 28.695-68.21 51.042-18.68 22.396-31.97 49.638-39.97 81.794-14.74 62.334-20.66 124.199-17.7 185.561 2.96 61.397 13.63 122.59 32.01 183.627 18.14 61.818 40.32 121.871 66.58 180.109 26.25 58.22 56.92 114.33 91.94 168.34l25.33 42.24 25.36 42.25c28.32 42.52 60.28 81.64 95.89 117.33a2289.12 2289.12 0 0 0 110.61 103.66l37.82 31.45h145.22l-3.69-2.83c-44.49-34.34-85.62-69.47-123.47-105.3-64.91-61.81-123.56-128.3-175.88-199.39-52.37-71.08-98.93-146.34-139.8-225.717-1.11-2.075-2.41-4.164-3.87-6.377-1.48-2.185-4.06-3.961-7.82-5.335 4.26 15.422 9.73 30.069 16.41 43.879 6.69 13.79 12.45 27.79 17.39 41.92-6.66-5.61-14.62-16.67-23.91-33.14-9.29-16.448-19.04-35.738-29.22-57.853-10.17-22.095-19.88-44.444-29.21-67.024-9.31-22.583-17.27-42.762-23.89-60.631-6.66-17.873-11.09-30.786-13.32-38.752-9.86-35.7-18.09-71.566-24.7-107.559-6.6-36.071-10.92-72.575-12.99-109.552-1.35-29.88.7-59.196 6.17-87.923 5.46-28.756 14.68-57.105 27.62-84.989 9.43-18.403 22.39-30.689 38.8-36.912 16.45-6.179 34.28-9.063 53.46-8.626 24.03.139 47.12 4.43 69.37 12.834 22.2 8.436 43.7 20.211 64.49 35.293a1625.08 1625.08 0 0 1 106.94 86.921 4095.21 4095.21 0 0 1 102.16 93.787l164.27 156.336 163.31 158.287 148.19 148.213c6.44 6.71 13.41 13.13 20.95 19.34 7.61 6.22 16.18 11.04 25.85 14.44 7.86 2.87 14.59 7.92 20.14 15.13 5.58 7.23 9.68 15.2 12.34 23.88 1.49 4.11 4.48 8.49 8.97 13.31 4.5 4.77 9.52 8.92 15.04 12.39 5.47 3.51 10.52 5.32 15.02 5.52 3.88-.1 7.5-.88 10.89-2.29l9.88-4.21c3.69-1.35 5.56-3.27 5.56-5.72-.04-2.47-.67-5.15-1.99-8.06-1.28-2.89-2.03-5.68-2.25-8.34 1.45-40.72-.76-80.93-6.61-120.66a1192.9 1192.9 0 0 0-23.64-118.349l-30.87-117.195c-5.19-19.541-11.33-38.956-18.35-58.169-6.99-19.243-14.74-38.004-23.23-56.25-18.64-43.008-37.92-85.676-57.85-127.89-19.92-42.245-41.82-83.229-65.65-123.01-45.68-73.174-97.98-139.994-156.96-200.485-58.99-60.478-123.67-115.386-194-164.758-16-11.478-34.09-21.398-54.28-29.771-6.45-2.678-12.88-4.948-19.3-6.811h-81.58c-4.98 1.518-10.03 3.302-15.13 5.345zm51.99 36.429c19.81 8.05 38.67 17.796 56.61 29.209 17.92 11.479 35.67 23.408 53.15 35.851 17.51 12.447 35.51 24.204 54.05 35.247-2.22-6.879-5.62-12.039-10.26-15.473-4.65-3.448-9-6.953-13.16-10.542-4.06-4.396-8.55-8.638-13.49-12.709-4.89-4.054-9.08-8.92-12.53-14.626l-4.52-2.124a16.67 16.67 0 0 1-4.57-3.07c-1.43-1.387-2.77-2.84-4.07-4.398-1.25-1.541-1.65-2.681-1.12-3.397.64-.705 1.29-1.299 1.96-1.81.63-.516 1.3-.767 1.94-.828 1.34.109 2.59.594 3.74 1.448 1.17.956 2.11 1.781 2.75 2.484 1.24 1.278 2.32 2.602 3.26 4.054l3.25 5.035c9.63 2.84 18.35 7.252 26.16 13.178l23.23 18.043c56.42 46.846 107.71 97.807 153.89 152.906 46.19 55.066 88.06 114.091 125.62 177.077 3.44 4.462 6.57 9.169 9.4 14.128 2.82 4.96 4.02 10.62 3.56 17.062 1.36.687 2.61 1.608 3.74 2.726a13.96 13.96 0 0 1 2.77 3.777c1.56 2.04 2.7 4.133 3.42 6.313.75 2.218-.41 3.98-3.42 5.366-1.98.499-3.83-.172-5.52-1.932-1.67-1.793-2.87-3.744-3.58-5.867 0-1.354.06-2.865.17-4.507.15-1.713.53-3.224 1.15-4.582-3.34.234-5.93-.671-7.81-2.745-1.9-2.06-3.88-4.116-6.05-6.189-2.18-2.09-5.35-3.029-9.55-2.761 4.37 13.596 9.25 26.665 14.65 39.171 5.33 12.462 12.15 24.579 20.44 36.261-6.33-.221-11.21-2.091-14.61-5.697-3.42-3.602-6.35-7.795-8.76-12.521-5.84-9.138-11.42-18.214-16.74-27.291l-15.78-27.322c-33.58-56.123-72.31-110.269-116.23-162.478-43.93-52.181-91.82-100.43-143.64-144.72-51.87-44.305-106.48-82.651-163.9-115.01 1.89-3.319 3.62-5.444 5.19-6.362 1.58-.937 3.29-1.075 5.21-.375zm-57.68 16.109c1.59 2.044 2.63 4.104 3.07 6.144 6.89 30.908 18.14 59.152 33.64 84.696 15.53 25.575 32.9 50.229 52.14 73.967 27.47 36.349 55.77 71.888 85.01 106.649l87.91 103.687 10.73 12.978c3.57 4.334 5.21 9.98 4.87 16.921-11.11-6.706-26.69-19.214-46.73-37.601s-41.99-39.842-65.89-64.341c-23.81-24.548-47-49.36-69.52-74.482-22.51-25.153-41.76-47.862-57.73-68.118-16.04-20.224-26.18-35.259-30.53-45.082 6.1 3.086 11.49 7.282 16.26 12.476 4.78 5.269 11.47 8.434 20.15 9.608-15.59-21.337-27.91-43.655-36.88-66.951-8.98-23.314-14.44-48.218-16.43-74.775 5.03.776 8.34 2.166 9.93 4.224zm-138.43 290.623l-35.08-2.434a519.05 519.05 0 0 0-35.09-1.451 406.48 406.48 0 0 0-13.02.126c-4.15.157-8.45.562-12.97 1.136 8.39-2.601 16.62-4.754 24.68-6.362 8.08-1.667 16.28-2.522 24.71-2.572 15.57 0 31.18 3.836 46.77 11.557zm250.68 154.87c8.51 7.72 17.2 15 26.06 21.956 6.31 4.039 12.4 8.781 18.27 14.238 5.84 5.476 12.42 10.685 19.75 15.675 7.26 5.034 16.26 8.934 26.94 11.694-10.02-12.49-19.9-23.61-29.59-33.295-9.67-9.759-17.58-21.191-23.72-34.339 10.27 6.816 24.71 19.058 43.37 36.727s39.82 38.894 63.45 63.686c23.7 24.78 48.16 51.292 73.4 79.503 25.23 28.21 49.6 56.249 73.03 84.147 23.43 27.932 44.28 53.803 62.5 77.678 18.24 23.875 32.15 43.854 41.74 59.992-68.24-71.576-137.8-141.958-208.63-211.227-70.84-69.333-142.99-137.143-216.45-203.481 11.43 3.636 21.4 9.312 29.88 17.046zm416.14 51.277c1.64 3.538 3.28 7.25 4.91 11.147 1.63 3.791 2.13 8.109 1.44 12.837-4.44-5.851-7.22-11.698-8.28-17.562-1.05-5.846-.89-11.711.48-17.525-.67 3.835-.2 7.531 1.45 11.103zm103.85 267.072c1.04 4.817 1.9 9.155 2.6 13.039-5.47-3.074-9.14-6.754-10.9-11.075-1.73-4.336.17-10.651 5.71-18.853.7 6.442 1.57 12.085 2.59 16.889zm-322.2 366.163c-7.41 1.25-14.4 2.25-21 3.09-7.73.37-14 3.83-18.83 10.4-4.82 6.55-8.5 13.89-11.04 22.08-1.05 4.38-.24 7.63 2.43 9.75 2.68 2.12 5.78 4.07 9.26 5.83 30.29 16.05 59.12 34.35 86.46 54.95l82.54 60.81c39.05 25.42 78.07 53.08 117.07 82.92 28.77 22.04 55.95 45.59 81.51 70.68h47.52c-.58-.76-1.17-1.67-1.73-2.82 0-1.28.33-1.98.97-2.12.67-.14 1.63.14 2.93.81a34.68 34.68 0 0 1 2.45 2.62c.47.55.84 1.05 1.08 1.51h78.9c-12.64-15.15-26.36-30.01-41.16-44.6-25.3-24.96-50.94-47.93-76.79-68.89-25.89-20.91-49.13-38.63-69.76-53.15l-86.77-60.92-88.74-59.99c-5.82-4.1-13.22-8.87-22.12-14.29a227.62 227.62 0 0 0-27.65-14.31c-9.48-4.09-18.01-6.26-25.61-6.45-7.22.08-14.52.78-21.92 2.09z"/><path d="M2306.36 921.664c-14.89 6.738-27.93 16.359-39.14 28.788-2.59 3.182-5.18 6.222-7.78 9.105a235 235 0 0 0-7.83 9.11l-12.99 13.036 2.62 2.574-18.17 25.993c-9.4 13.12-15.28 27.19-17.7 42.24-2.4 15.07-3.45 30.48-3.1 46.18.18 31.82 4.41 65.53 12.65 101.06 8.24 35.51 19.54 71.05 33.82 106.65 14.27 35.57 30.63 69.32 48.95 101.28 18.31 31.96 37.61 60.28 57.95 84.98 1.18 2.09 3.03 4.4 5.51 6.85 2.49 2.4 6.3 4.01 11.38 4.83l11.73 1.3-1.31-5.18 5.55 7.9h20.95V1359.1v.08c-16.77-28.36-31.85-57.13-45.26-86.34-18.31-39.97-32.44-78.94-42.36-116.94-3.65-15.66-6.78-31.89-9.29-48.71-2.54-16.87-3.4-34.08-2.65-51.64.78-17.57 4.33-35.27 10.65-53.07l1.29-1.3c.02-1.278.3-2.602.83-4.069l1.76-5.02c-.2-9.999.23-16.064 1.31-18.247 1.11-2.169 4.12-3.024 9.13-2.571h9.07c1.97-.05 3.9 0 5.86.138a24.11 24.11 0 0 1 5.85 1.155c6.57.03 12.93-.063 19.18-.33 6.24-.263 11.96-1.043 17.22-2.276 3.26-.577 6.49-1.716 9.76-3.412 2.56-1.361 5.11-3.345 7.65-5.992v-36.583-.076c-1.89-1.186-4.01-2.264-6.37-3.232-8.26-3.429-17.07-5.816-26.4-7.219-9.28-1.419-16.75-2.089-22.32-2.045-17.07.065-33.04 3.494-48 10.263zm-58.81 79.686c-.35 5.09-1.59 10.2-3.74 15.41-.06 1.34-.23 2.6-.62 3.9-.39 1.32-.61 2.62-.65 3.91-5.84 23.35-9.1 46.88-9.72 70.69-.67 23.82 1.29 48.38 5.8 73.64-7.08-26.59-10.73-52.41-10.98-77.52-.31-25.14 2.53-49.99 8.39-74.62l6.51-29.895c3.72 4.6 5.37 9.405 5.01 14.485z"/></g><g fill="#fff"><path d="M945.409 1126.37v-8.53c-11.08-2.02-19.457-5.54-25.139-10.63-8.169-7.52-15.393-19.06-21.71-34.59L789.439 806.366h-8.514L663.701 1076.07c-6.002 13.85-10.221 22.3-12.686 25.38-3.864 4.78-8.57 8.49-14.187 11.19-5.617 2.69-13.183 4.44-22.729 5.2v8.53h127.808v-8.53c-14.454-1.39-23.824-3.85-28.146-7.39-4.293-3.54-6.451-8.07-6.451-13.62 0-7.7 3.522-19.71 10.601-35.99l79.607-183.399 73.832 181.109c7.214 17.84 10.835 30.23 10.835 37.14 0 4.46-2.234 8.72-6.688 12.79-4.453 4.08-11.996 6.96-22.609 8.68l-3.928.68v8.53h96.449zm270.551 7.14l8.06-98.74h-8.06c-8.17 24.61-18.68 43.16-31.61 55.61-18.62 17.99-42.55 27-71.76 27-39.83 0-70.13-15.77-90.89-47.3-17.38-26.61-26.068-58.31-26.068-95.061 0-29.846 5.758-57.066 17.298-81.676s26.65-42.633 45.35-54.094c18.68-11.468 37.86-17.194 57.56-17.194 11.54 0 22.68 1.47 33.46 4.381 10.74 2.92 21.14 7.224 31.13 12.914v90.452c.01 15.688-1.19 25.961-3.57 30.809-2.39 4.833-6.07 8.523-11.09 11.075-4.98 2.528-13.8 3.801-26.42 3.801v8.756h121.13v-8.756h-5.76c-11.99 0-20.22-4.011-24.67-12.011-3.1-5.685-4.64-16.917-4.64-33.674v-95.748c-17.69-9.533-35.13-16.527-52.37-20.991-17.22-4.463-36.35-6.697-57.44-6.697-60.43 0-106.34 19.394-137.734 58.155-23.536 29.045-35.296 62.579-35.306 100.596.01 27.506 6.615 53.883 19.839 79.113 15.681 30.01 37.241 53.07 64.591 69.2 22.94 13.4 50.01 20.08 81.22 20.08 11.39 0 21.74-.89 31.03-2.76 9.31-1.86 22.49-5.92 39.58-12.24 8.62-3.24 14.37-4.83 17.3-4.83 2.94 0 5.41 1.34 7.5 4.04 2.08 2.7 3.34 7.96 3.81 15.79h8.53zm167.18-146.486l115.38-114.683c18.9-18.904 35.06-31.793 48.44-38.635 13.37-6.858 26.76-10.729 40.15-11.651v-8.539H1438.3v8.539c8.92 0 15.33 1.492 19.25 4.496 3.93 2.997 5.88 6.349 5.88 10.056 0 3.689-.73 6.99-2.2 9.909-1.44 2.931-6.24 8.381-14.4 16.377l-107.96 106.814V868.893c0-15.859.98-26.293 2.99-31.381 1.54-3.852 4.77-7.142 9.68-9.915 6.61-3.7 13.62-5.542 20.99-5.542h10.61v-8.539h-133.35v8.539h11.08c12.94 0 22.32 3.768 28.15 11.302 3.69 4.939 5.54 16.779 5.54 35.536v202.097c0 15.85-1 26.38-3 31.62-1.53 3.69-4.68 6.92-9.46 9.69-6.78 3.68-13.83 5.54-21.23 5.54h-11.08v8.53h133.35v-8.53h-10.61c-7.22 0-14.2-1.77-20.99-5.32-4.76-2.45-8.07-6.15-9.91-11.07-1.85-4.92-2.76-15.07-2.76-30.46v-95.726l31.6 29.276c45.67 41.84 73.29 69.76 82.81 83.76 4.16 6.15 6.25 11.54 6.24 16.15.01 3.52-1.61 6.66-4.84 9.34-3.24 2.7-8.69 4.05-16.38 4.05h-7.16v8.53h114.91v-8.53c-6.79-.16-12.93-1.1-18.47-2.79-5.53-1.69-12.3-4.95-20.29-9.8-8.02-4.85-17.86-12.64-29.54-23.39-3.39-3.09-18.99-18.87-46.83-47.31l-47.78-47.526zm391.47 146.486v-108.19h-8.54c-2.77 20.76-7.73 37.28-14.88 49.6-7.17 12.3-17.34 22.07-30.58 29.31-13.22 7.21-26.91 10.82-41.06 10.82-16.01 0-29.22-4.88-39.69-14.63-10.45-9.79-15.69-20.88-15.69-33.34 0-9.54 3.33-18.22 9.93-26.06 9.52-11.55 32.21-26.93 68.06-46.175 29.21-15.669 49.17-27.71 59.88-36.1 10.69-8.378 18.92-18.258 24.67-29.641 5.75-11.375 8.65-23.289 8.65-35.761 0-23.681-9.18-44.11-27.55-61.249-18.39-17.147-42.03-25.728-70.97-25.728-9.06 0-17.59.694-25.61 2.086-4.74.763-14.64 3.56-29.63 8.422-15 4.823-24.51 7.257-28.5 7.257-3.85 0-6.88-1.163-9.11-3.449-2.23-2.307-3.88-7.079-4.96-14.316h-8.55v107.27h8.55c4.02-22.456 9.37-39.266 16.15-50.416 6.76-11.127 17.11-20.399 31.01-27.771 13.94-7.406 29.2-11.088 45.81-11.088 19.24 0 34.42 5.088 45.56 15.228 11.16 10.143 16.75 22.153 16.75 35.999 0 7.681-2.13 15.469-6.35 23.31-4.24 7.816-10.82 15.128-19.73 21.909-5.99 4.612-22.38 14.41-49.16 29.392-26.74 15.002-45.76 26.99-57.09 35.896-11.31 8.93-19.87 18.765-25.73 29.525-5.83 10.77-8.77 22.61-8.77 35.54 0 22.45 8.62 41.8 25.86 58.03 17.21 16.22 39.12 24.32 65.73 24.32 16.63 0 34.23-4.07 52.85-12.22 8.61-3.84 14.7-5.76 18.23-5.76 4 0 7.27 1.19 9.8 3.58 2.53 2.38 4.57 7.18 6.12 14.4h8.54zM589.082 704.277v-2.272c-2.887-.503-5.077-1.438-6.598-2.772-2.143-1.996-4.048-5.027-5.732-9.117l-28.689-70.068h-2.256l-30.826 70.987c-1.605 3.619-2.706 5.853-3.357 6.667-1.014 1.262-2.24 2.261-3.723 2.953-1.478.703-3.48 1.152-6.008 1.35v2.272h33.66v-2.272c-3.812-.35-6.279-.984-7.403-1.914-1.137-.951-1.711-2.118-1.711-3.584 0-2.016.944-5.177 2.788-9.477l20.937-48.274 19.439 47.665c1.921 4.685 2.866 7.967 2.866 9.79 0 1.155-.594 2.273-1.75 3.357-1.186 1.073-3.174 1.807-5.955 2.268-.212.044-.535.115-1.041.169v2.272h25.359zm62.043-80.092v-2.244h-35.264v2.244h2.901c3.387 0 5.869.987 7.407 2.972.948 1.299 1.457 4.414 1.457 9.35v53.2c0 4.16-.254 6.895-.794 8.266-.394.991-1.237 1.86-2.51 2.594a11.29 11.29 0 0 1-5.56 1.438h-2.901v2.272h35.264v-2.272h-2.976c-3.362 0-5.797-.957-7.347-2.963-1.005-1.293-1.544-4.425-1.544-9.335v-53.2c0-4.157.284-6.937.82-8.278.396-.985 1.258-1.874 2.54-2.595 1.721-.987 3.596-1.449 5.531-1.449h2.976zm82.171 81.967v-28.464h-2.244c-.719 5.444-2.034 9.805-3.918 13.032s-4.544 5.812-8.018 7.736c-3.51 1.885-7.092 2.835-10.862 2.835-4.158 0-7.671-1.271-10.393-3.839-2.771-2.595-4.149-5.517-4.149-8.772 0-2.53.871-4.812 2.625-6.873 2.493-3.049 8.459-7.096 17.905-12.145 7.687-4.131 12.918-7.308 15.78-9.493 2.765-2.216 4.951-4.842 6.475-7.802 1.51-2.994 2.273-6.138 2.273-9.421 0-6.24-2.429-11.597-7.267-16.111-4.835-4.531-11.047-6.787-18.661-6.787-2.399 0-4.641.2-6.758.564-1.254.185-3.838.948-7.788 2.216-3.948 1.255-6.447 1.891-7.49 1.891-1.001 0-1.82-.283-2.397-.902-.576-.606-1.033-1.864-1.324-3.769h-2.218v28.243h2.218c1.073-5.922 2.476-10.325 4.269-13.263 1.781-2.961 4.503-5.404 8.159-7.333 3.649-1.918 7.688-2.891 12.042-2.906 5.048.015 9.073 1.324 12.009 4.022 2.93 2.634 4.397 5.81 4.397 9.466 0 2.003-.563 4.062-1.688 6.116-1.103 2.077-2.856 3.996-5.166 5.789-1.567 1.213-5.88 3.793-12.936 7.744-7.053 3.934-12.062 7.064-15.025 9.436-2.977 2.353-5.246 4.939-6.77 7.755-1.552 2.853-2.312 5.941-2.312 9.353 0 5.915 2.271 11.02 6.781 15.283 4.544 4.256 10.317 6.399 17.326 6.399 4.373 0 8.987-1.069 13.897-3.215 2.274-1.014 3.851-1.508 4.781-1.508 1.085 0 1.935.297 2.608.932.666.618 1.2 1.887 1.595 3.791h2.244zm91.142-56.663h-31.853l-5.598-12.982c-1.349-3.199-2.062-5.583-2.062-7.162 0-1.241.596-2.369 1.805-3.288 1.174-.955 3.778-1.576 7.746-1.872v-2.244h-25.943v2.244c3.441.619 5.672 1.381 6.674 2.365 2.073 1.949 4.356 5.899 6.873 11.854l28.959 67.748h2.127l28.665-68.499c2.296-5.498 4.4-9.042 6.261-10.705 1.905-1.637 4.514-2.558 7.889-2.763v-2.244h-32.504v2.244c3.285.14 5.486.703 6.659 1.63 1.142.947 1.724 2.063 1.724 3.404 0 1.793-.81 4.615-2.414 8.434l-5.008 11.836zm-1.68 4.503l-13.966 33.286-14.316-33.286h28.282zm133.04 52.16l2.143-25.968h-2.143c-2.143 6.462-4.924 11.33-8.298 14.615-4.921 4.726-11.196 7.11-18.901 7.11-10.479 0-18.449-4.16-23.905-12.456-4.573-6.995-6.873-15.333-6.873-25.01 0-7.874 1.534-15.023 4.57-21.497 3.047-6.463 6.993-11.216 11.903-14.223 4.927-3.031 9.99-4.538 15.164-4.538a33.77 33.77 0 0 1 8.819 1.156c2.822.759 5.542 1.903 8.182 3.399v23.795c0 4.121-.309 6.841-.918 8.113a6.55 6.55 0 0 1-2.946 2.913c-1.312.688-3.641.996-6.945.996v2.286h31.872v-2.286h-1.511c-3.163 0-5.318-1.033-6.493-3.148-.815-1.494-1.229-4.456-1.229-8.874v-25.194c-4.634-2.484-9.251-4.372-13.793-5.527-4.514-1.174-9.565-1.766-15.074-1.766-15.932 0-28.004 5.124-36.256 15.292-6.192 7.675-9.312 16.473-9.312 26.476 0 7.268 1.749 14.195 5.235 20.85 4.119 7.887 9.786 13.936 16.994 18.201 6.044 3.524 13.163 5.285 21.373 5.285 2.991 0 5.729-.236 8.169-.715 2.424-.507 5.926-1.58 10.395-3.232 2.273-.863 3.797-1.282 4.574-1.282.743 0 1.426.368 1.973 1.07.536.706.874 2.106 1.004 4.159h2.227zm73.982-81.967v-2.244h-35.276v2.244h2.924c3.382 0 5.852.987 7.402 2.972.96 1.299 1.46 4.414 1.46 9.35v53.2c0 4.16-.26 6.895-.78 8.266-.43.991-1.23 1.86-2.51 2.594a11.44 11.44 0 0 1-5.572 1.438h-2.924v2.272h35.276v-2.272h-2.97c-3.36 0-5.8-.957-7.37-2.963-.98-1.293-1.49-4.425-1.49-9.335v-53.2c0-4.157.25-6.937.79-8.278.41-.985 1.26-1.874 2.53-2.595 1.76-.987 3.59-1.449 5.54-1.449h2.97zm23.54 80.092h22.34l50.32-61.77v47.509c0 5.039-.57 8.199-1.66 9.467-1.54 1.69-3.89 2.522-7.12 2.522h-2.87v2.272h28.68v-2.272h-2.94c-3.49 0-5.93-1.028-7.39-3.133-.89-1.295-1.34-4.255-1.33-8.856v-69.404h-2.2l-54.28 66.287v-50.698c0-5.036.55-8.194 1.65-9.465 1.52-1.708 3.9-2.551 7.11-2.551h2.88v-2.244h-28.62v2.244h2.83c3.53 0 6.01 1.054 7.48 3.156.87 1.3 1.34 4.258 1.34 8.86v57.256c-2.4 2.808-4.21 4.629-5.45 5.532-1.25.887-3.05 1.722-5.45 2.513-1.15.334-2.94.503-5.32.503v2.272zm159.05 1.875c10.69 0 19.92-4.059 27.76-12.201 7.86-8.082 11.76-18.225 11.76-30.355 0-12.498-3.96-22.893-11.86-31.147-7.89-8.264-17.42-12.401-28.64-12.401-11.35 0-20.88 4.035-28.56 12.077-7.72 8.069-11.57 18.505-11.57 31.287 0 13.08 4.45 23.725 13.34 31.996 7.71 7.167 16.99 10.744 27.77 10.744zm-1.17-4.443c-7.36 0-13.28-2.72-17.72-8.179-5.56-6.8-8.32-16.771-8.32-29.892 0-13.428 2.89-23.768 8.61-30.992 4.4-5.516 10.26-8.282 17.49-8.295 7.75.013 14.15 3.023 19.15 9.056 5.03 6.052 7.59 15.535 7.59 28.538 0 14.079-2.8 24.588-8.34 31.512-4.46 5.507-10.6 8.252-18.46 8.252zm197.14 4.443l2.11-25.968h-2.11c-2.18 6.462-4.93 11.33-8.33 14.615-4.89 4.726-11.2 7.11-18.87 7.11-10.48 0-18.49-4.16-23.93-12.456-4.57-6.995-6.87-15.333-6.87-25.01 0-7.874 1.53-15.023 4.56-21.497 3.05-6.463 7.01-11.216 11.93-14.223 4.91-3.031 9.98-4.538 15.16-4.538a33.86 33.86 0 0 1 8.81 1.156c2.82.759 5.55 1.903 8.18 3.399v23.795c0 4.121-.31 6.841-.93 8.113-.63 1.269-1.64 2.254-2.93 2.913-1.31.688-3.64.996-6.95.996v2.286h31.87v-2.286h-1.51c-3.16 0-5.33-1.033-6.48-3.148-.84-1.494-1.22-4.456-1.22-8.874v-25.194c-4.67-2.484-9.27-4.372-13.81-5.527-4.52-1.174-9.55-1.766-15.08-1.766-15.93 0-28 5.124-36.27 15.292-6.19 7.675-9.3 16.473-9.3 26.476 0 7.268 1.74 14.195 5.24 20.85 4.12 7.887 9.79 13.936 16.98 18.201 6.06 3.524 13.18 5.285 21.37 5.285 3 0 5.75-.236 8.19-.715 2.44-.507 5.91-1.58 10.41-3.232 2.27-.863 3.78-1.282 4.57-1.282.75 0 1.41.368 1.96 1.07.53.706.86 2.106 1 4.159h2.25zm119.63-84.211h-21.98l-27.87 38.498-5.02-.118-1.73.017-1.86.101v-23.932c0-5.172.56-8.389 1.71-9.672 1.52-1.752 3.79-2.65 6.9-2.65h3.22v-2.244h-35.29v2.244h3.11c3.48 0 5.97 1.14 7.48 3.398.83 1.256 1.27 4.235 1.27 8.924v53.2c0 5.177-.58 8.379-1.7 9.663-1.6 1.75-3.93 2.635-7.05 2.635h-3.11v2.272h30.01c8.73 0 15.18-.644 19.34-1.916 4.15-1.298 7.66-3.64 10.55-7.049 2.9-3.419 4.36-7.497 4.36-12.247 0-5.048-1.65-9.443-4.98-13.17-3.29-3.701-8.38-6.341-15.32-7.895l17.01-23.596c3.87-5.437 7.24-9.03 10.02-10.821 2.78-1.776 6.43-2.936 10.93-3.398v-2.244zm-58.46 42.317l1.99-.009c.58-.027 1.02-.062 1.4-.062 7.83 0 13.77 1.709 17.75 5.117 4 3.393 5.99 7.737 5.99 12.985 0 5.148-1.62 9.322-4.83 12.525-3.24 3.23-7.5 4.853-12.79 4.853-2.33 0-5.51-.399-9.51-1.183v-34.226zm124.96 41.894c10.69 0 19.93-4.059 27.79-12.201 7.83-8.082 11.73-18.225 11.73-30.355 0-12.498-3.96-22.893-11.86-31.147-7.89-8.264-17.43-12.401-28.62-12.401-11.36 0-20.87 4.035-28.58 12.077-7.72 8.069-11.57 18.505-11.57 31.287 0 13.08 4.45 23.725 13.36 31.996 7.72 7.167 16.98 10.744 27.75 10.744zm-1.17-4.443c-7.35 0-13.26-2.72-17.73-8.179-5.53-6.8-8.33-16.771-8.33-29.892 0-13.428 2.91-23.768 8.63-30.992 4.43-5.516 10.25-8.282 17.5-8.295 7.76.013 14.13 3.023 19.15 9.056 5.03 6.052 7.58 15.535 7.58 28.538 0 14.079-2.79 24.588-8.35 31.512-4.43 5.507-10.58 8.252-18.45 8.252zm139.14 2.568l-54.11-77.359h33.76c5.19 0 9.18 1.144 11.94 3.402 2.76 2.27 5.22 6.855 7.36 13.781l2.03-.353-3.91-21.807h-67.01v2.244l52.82 75.185h-26.37c-4.35 0-7.53-.498-9.49-1.452-1.95-.945-3.46-2.317-4.5-4.104-1.01-1.807-1.96-5.192-2.82-10.146h-2.29l1.69 20.609h60.9zm-26.95 6.422h-11.17l-11.56 20.101h1.89l16.58-12.867 13.89 12.867h1.85l-11.48-20.101z"/><path d="M1797.39 624.185v-2.244h-35.3v2.244h2.94c3.39 0 5.87.987 7.38 2.972.99 1.299 1.48 4.414 1.48 9.35v53.2c0 4.16-.25 6.895-.79 8.266-.41.991-1.24 1.86-2.51 2.594-1.78.974-3.63 1.438-5.56 1.438h-2.94v2.272h35.3v-2.272h-2.99c-3.34 0-5.81-.957-7.35-2.963-1-1.293-1.52-4.425-1.52-9.335v-53.2c0-4.157.25-6.937.8-8.278.39-.985 1.27-1.874 2.52-2.595 1.74-.987 3.61-1.449 5.55-1.449h2.99zm70.65 81.967c10.68 0 19.9-4.059 27.76-12.201 7.84-8.082 11.76-18.225 11.76-30.355 0-12.498-3.96-22.893-11.87-31.147-7.88-8.264-17.43-12.401-28.62-12.401-11.38 0-20.87 4.035-28.59 12.077-7.71 8.069-11.56 18.505-11.56 31.287 0 13.08 4.45 23.725 13.35 31.996 7.71 7.167 16.97 10.744 27.77 10.744zm-1.17-4.443c-7.35 0-13.28-2.72-17.72-8.179-5.56-6.8-8.34-16.771-8.34-29.892 0-13.428 2.89-23.768 8.63-30.992 4.42-5.516 10.25-8.282 17.48-8.295 7.74.013 14.14 3.023 19.15 9.056 5.03 6.052 7.59 15.535 7.59 28.538 0 14.079-2.8 24.588-8.33 31.512-4.47 5.507-10.61 8.252-18.46 8.252zM591.698 475.37l30.326-30.172c5.007-4.981 9.24-8.378 12.782-10.186 3.523-1.775 7.052-2.807 10.563-3.06v-2.244h-39.148v2.244c2.344 0 4.024.392 5.048 1.195 1.034.793 1.552 1.668 1.552 2.639 0 .961-.178 1.834-.573 2.622-.381.723-1.633 2.202-3.808 4.28l-28.399 28.125v-26.535c0-4.16.27-6.94.789-8.281.411-.985 1.243-1.876 2.54-2.597 1.749-.983 3.583-1.448 5.547-1.448h2.781v-2.244h-35.087v2.244h2.89c3.416 0 5.885.988 7.422 2.974.956 1.298 1.453 4.412 1.453 9.352v53.196c0 4.16-.253 6.941-.777 8.311-.405.973-1.228 1.817-2.51 2.551a11.37 11.37 0 0 1-5.588 1.437h-2.89v2.274h35.087v-2.274h-2.781a11.54 11.54 0 0 1-5.547-1.365c-1.257-.678-2.114-1.62-2.624-2.938-.46-1.279-.705-3.974-.705-7.996v-25.22c.789.786 3.57 3.353 8.312 7.716 12.027 11.017 19.296 18.378 21.82 22.045 1.074 1.621 1.605 3.036 1.605 4.238 0 .971-.433 1.775-1.264 2.491-.832.703-2.289 1.029-4.293 1.029h-1.903v2.274h30.246v-2.274a17.48 17.48 0 0 1-4.867-.715c-1.465-.454-3.242-1.284-5.319-2.583-2.115-1.255-4.712-3.33-7.787-6.165-.89-.788-4.991-4.951-12.343-12.444l-12.55-12.496zm134.149 34.403v2.274h29.147v-2.274h-3.106c-3.246 0-5.727-1.325-7.482-4.031-.827-1.285-1.252-4.185-1.252-8.761v-33.394c0-8.251-.82-14.67-2.467-19.222-1.651-4.56-4.87-8.481-9.66-11.707-4.782-3.246-11.316-4.885-19.555-4.885-8.998 0-15.827 1.555-20.486 4.644-4.651 3.133-7.951 7.333-9.883 12.584-1.314 3.592-1.933 10.364-1.933 20.282v32.191c0 5.038-.719 8.366-2.116 9.962-1.41 1.561-3.655 2.337-6.744 2.337h-3.132v2.274h35.591v-2.274h-3.158c-3.403 0-5.826-1.056-7.313-3.199-.983-1.467-1.494-4.499-1.494-9.1v-35.893c0-3.181.295-6.862.861-10.982.623-4.121 1.679-7.335 3.203-9.676 1.552-2.298 3.766-4.176 6.66-5.7 2.893-1.481 6.447-2.254 10.663-2.254 5.358 0 10.17 1.192 14.447 3.539 4.229 2.354 7.137 5.346 8.704 9.028 1.564 3.651 2.337 9.847 2.337 18.605v33.333c0 5.137-.558 8.352-1.704 9.664-1.595 1.749-3.918 2.635-7.023 2.635h-3.105zm-30.979 19.257h38.747v-7.772h-38.747v7.772zm167.561-99.322h-21.997l-27.859 38.499-5.039-.116-1.702.015-1.875.101v-23.929c0-5.174.561-8.394 1.703-9.675 1.539-1.751 3.835-2.651 6.913-2.651h3.203v-2.244h-35.264v2.244h3.102c3.48 0 5.95 1.14 7.475 3.399.831 1.254 1.27 4.233 1.27 8.927v53.196c0 5.178-.59 8.381-1.707 9.664-1.565 1.749-3.922 2.635-7.038 2.635h-3.102v2.274h29.99c8.759 0 15.19-.647 19.355-1.918 4.144-1.3 7.657-3.639 10.562-7.049 2.879-3.42 4.317-7.498 4.317-12.249 0-5.047-1.623-9.44-4.937-13.171-3.287-3.7-8.39-6.337-15.336-7.893l16.988-23.595c3.889-5.436 7.248-9.029 10.04-10.821 2.783-1.776 6.454-2.934 10.938-3.399v-2.244zm-58.472 42.316l1.986-.008c.578-.028 1.042-.062 1.401-.062 7.837 0 13.774 1.707 17.771 5.118 3.979 3.394 5.981 7.736 5.981 12.984 0 5.148-1.609 9.324-4.823 12.525-3.217 3.231-7.492 4.855-12.799 4.855-2.337 0-5.527-.4-9.517-1.183v-34.229zm105.47 35.518v-32.54h18.113c4.683 0 7.803.72 9.401 2.146 2.111 1.821 3.268 5.118 3.523 9.79h2.229v-28.626h-2.229c-.565 4.005-1.132 6.56-1.678 7.692-.765 1.421-1.934 2.552-3.599 3.372-1.68.762-4.247 1.182-7.647 1.182h-18.113v-27.127c0-3.637.161-5.868.478-6.641.324-.793.904-1.439 1.724-1.892.804-.468 2.34-.707 4.601-.707h13.991c4.63 0 8.007.34 10.091.987 2.114.653 4.173 1.921 6.092 3.84 2.525 2.495 5.076 6.277 7.718 11.327h2.423l-7.11-20.637h-63.45v2.244h2.919c1.944 0 3.794.465 5.515 1.382 1.311.679 2.188 1.65 2.64 2.933.465 1.296.704 3.95.704 7.941v53.507c0 5.217-.523 8.438-1.555 9.638-1.477 1.615-3.907 2.42-7.304 2.42h-2.919v2.274h63.45l.918-18.056h-2.358c-.863 4.357-1.804 7.322-2.832 8.941-1.047 1.611-2.557 2.853-4.588 3.709-1.634.611-4.47.901-8.565.901h-22.583zm12.021 25.93c1.818 0 3.372-.646 4.67-1.956 1.299-1.285 1.958-2.837 1.958-4.673 0-1.818-.659-3.353-1.958-4.67a6.4 6.4 0 0 0-4.67-1.93c-1.822 0-3.373.646-4.679 1.93a6.4 6.4 0 0 0-1.923 4.67 6.39 6.39 0 0 0 1.902 4.673c1.285 1.31 2.853 1.956 4.7 1.956zm72.462-23.699v2.274h35.29v-2.274h-2.97c-3.38 0-5.82-.957-7.38-2.963-.97-1.292-1.44-4.426-1.44-9.336v-40.273c0-6.193-.68-11.202-2.03-15.054-1.37-3.862-3.69-7.193-6.99-10.054-3.33-2.838-7.37-4.278-12.063-4.278-3.781 0-6.787.946-8.974 2.85-2.189 1.88-3.286 4.023-3.286 6.449 0 1.99.521 3.496 1.538 4.499 1.323 1.269 2.891 1.876 4.684 1.876 1.281 0 2.45-.452 3.45-1.27 1.064-.858 2.362-3.115 3.958-6.8.941-2.174 2.114-3.288 3.593-3.3 1.06.012 2.09.678 3.05 2.002.94 1.342 1.42 3.712 1.42 7.113v56.24c0 4.16-.27 6.897-.79 8.268-.41.99-1.27 1.86-2.55 2.594-1.74.972-3.584 1.437-5.518 1.437h-2.992zm117.43 0v2.274h29.17v-2.274h-3.1c-3.25 0-5.72-1.325-7.48-4.031-.85-1.285-1.27-4.185-1.27-8.761v-33.394c0-8.251-.81-14.67-2.47-19.222-1.62-4.56-4.84-8.481-9.65-11.707-4.8-3.246-11.31-4.885-19.59-4.885-8.97 0-15.77 1.555-20.45 4.644-4.65 3.133-7.96 7.333-9.9 12.584-1.3 3.592-1.94 10.364-1.93 20.282v32.191c-.01 5.038-.7 8.366-2.1 9.962-1.4 1.561-3.65 2.337-6.77 2.337h-3.08v2.274h35.58v-2.274h-3.16c-3.41 0-5.84-1.056-7.32-3.199-.99-1.467-1.49-4.499-1.49-9.1v-35.893c0-3.181.29-6.862.86-10.982.6-4.121 1.67-7.335 3.19-9.676 1.56-2.298 3.76-4.176 6.66-5.7 2.88-1.481 6.45-2.254 10.64-2.254 5.4 0 10.23 1.192 14.49 3.539 4.21 2.354 7.13 5.346 8.69 9.028 1.55 3.651 2.34 9.847 2.34 18.605v33.333c0 5.137-.59 8.352-1.71 9.664-1.58 1.749-3.92 2.635-7.04 2.635h-3.11zm-1.75-76.439l-3.49-3.754c-1.2-1.286-2.27-2.639-3.24-4.006a24.31 24.31 0 0 1-2.43-4.274c-.65-1.482-.99-3.021-1.02-4.587-.09-2.111.43-3.863 1.6-5.285 1.16-1.399 2.74-2.103 4.75-2.103.79 0 1.64.109 2.63.406.96.298 1.86.646 2.67 1.161l.88-1.766c-1.59-1.608-3.26-2.922-4.97-3.937-1.7-1.013-3.6-1.536-5.8-1.536-1.5 0-2.88.24-4.08.747-1.21.521-2.25 1.24-3.1 2.118-.8.885-1.43 1.902-1.85 3.058-.41 1.159-.62 2.389-.57 3.67a13.09 13.09 0 0 0 1.26 5.108c.79 1.636 1.76 3.241 2.97 4.665.73.847 1.47 1.651 2.16 2.357l2.35 2.202c.86.76 1.83 1.604 2.98 2.492 1.1.896 2.5 1.996 4.18 3.264h2.12zm164.59 80.587v-28.465h-2.25c-.73 5.445-2.04 9.803-3.93 13.033-1.87 3.23-4.54 5.811-8 7.734-3.51 1.885-7.11 2.835-10.85 2.835-4.19 0-7.67-1.271-10.42-3.838-2.77-2.596-4.15-5.517-4.15-8.773 0-2.529.89-4.811 2.63-6.872 2.49-3.048 8.46-7.095 17.9-12.145 7.69-4.133 12.94-7.307 15.77-9.493 2.81-2.217 4.98-4.84 6.49-7.804 1.52-2.992 2.27-6.136 2.27-9.418 0-6.242-2.43-11.598-7.25-16.112-4.85-4.533-11.05-6.788-18.67-6.788-2.39 0-4.64.199-6.75.564-1.26.185-3.84.949-7.8 2.218-3.95 1.253-6.43 1.889-7.48 1.889-1.02 0-1.82-.281-2.4-.902-.59-.608-1.04-1.864-1.32-3.769h-2.25v28.244h2.25c1.06-5.921 2.48-10.325 4.26-13.262 1.78-2.962 4.49-5.405 8.16-7.334 3.67-1.917 7.68-2.89 12.07-2.905 5.04.015 9.04 1.322 11.98 4.019 2.94 2.636 4.41 5.812 4.41 9.467 0 2.002-.57 4.064-1.7 6.118-1.1 2.077-2.84 3.995-5.17 5.789-1.58 1.212-5.88 3.788-12.93 7.74-7.05 3.937-12.07 7.068-15.03 9.436-2.96 2.355-5.25 4.94-6.76 7.758-1.55 2.851-2.33 5.942-2.33 9.354 0 5.912 2.29 11.019 6.81 15.282 4.54 4.256 10.31 6.4 17.31 6.4 4.38 0 8.99-1.071 13.89-3.216 2.27-1.015 3.86-1.506 4.81-1.506 1.06 0 1.9.295 2.58.93.65.619 1.2 1.888 1.6 3.792h2.25zm106.18-1.874l.95-19.325h-2.35c-.4 3.411-1.01 5.822-1.8 7.308-1.24 2.325-2.93 4.062-5.01 5.19-2.09 1.083-4.8 1.648-8.22 1.648h-11.58v-62.902c0-5.031.53-8.19 1.62-9.461 1.55-1.708 3.93-2.553 7.11-2.553h2.85v-2.244h-34.92v2.244h2.92c3.5 0 5.96 1.055 7.43 3.157.87 1.301 1.33 4.259 1.33 8.857v62.902h-9.88c-3.84 0-6.61-.251-8.22-.845-2.11-.759-3.91-2.274-5.38-4.441-1.53-2.202-2.41-5.128-2.7-8.86h-2.3l.96 19.325h67.19zm85.5-2.274v2.274h29.13v-2.274h-3.09c-3.24 0-5.73-1.325-7.46-4.031-.86-1.285-1.29-4.185-1.29-8.761v-33.394c0-8.251-.81-14.67-2.47-19.222-1.64-4.56-4.85-8.481-9.62-11.707-4.84-3.246-11.36-4.885-19.62-4.885-8.97 0-15.78 1.555-20.44 4.644-4.67 3.133-7.97 7.333-9.91 12.584-1.27 3.592-1.95 10.364-1.93 20.282v32.191c-.02 5.038-.71 8.366-2.11 9.962-1.38 1.561-3.64 2.337-6.74 2.337h-3.11v2.274h35.6v-2.274h-3.16c-3.42 0-5.85-1.056-7.31-3.199-1.02-1.467-1.52-4.499-1.52-9.1v-35.893c0-3.181.3-6.862.88-10.982.59-4.121 1.67-7.335 3.21-9.676 1.52-2.298 3.73-4.176 6.65-5.7 2.87-1.481 6.45-2.254 10.62-2.254 5.41 0 10.2 1.192 14.48 3.539 4.25 2.354 7.15 5.346 8.7 9.028 1.55 3.651 2.34 9.847 2.34 18.605v33.333c0 5.137-.59 8.352-1.7 9.664-1.56 1.749-3.92 2.635-7.06 2.635h-3.07zm54.73-80.065v2.244h3.08c3.5 0 5.95 1.126 7.43 3.342.88 1.34 1.33 4.316 1.33 8.984v53.196c0 5.137-.56 8.352-1.71 9.664-1.58 1.749-3.93 2.635-7.05 2.635h-3.08v2.274h33.52c12.29 0 21.67-1.382 28.06-4.189 6.43-2.807 11.58-7.446 15.5-13.963 3.89-6.519 5.86-14.055 5.86-22.59 0-11.478-3.5-21.03-10.46-28.733-7.79-8.559-19.72-12.864-35.68-12.864h-36.8zm23.49 5.939c5.14-1.116 9.44-1.695 12.94-1.695 9.38 0 17.16 3.288 23.36 9.904 6.19 6.59 9.31 15.548 9.31 26.841 0 11.347-3.12 20.331-9.31 26.874-6.2 6.578-14.16 9.865-23.85 9.865-3.65 0-7.81-.597-12.45-1.779v-70.01zm124.68-3.695v-2.244h-35.3v2.244h2.95c3.37 0 5.85.988 7.36 2.974.99 1.298 1.48 4.412 1.48 9.352v53.196c0 4.16-.27 6.897-.79 8.268-.39.99-1.24 1.86-2.49 2.594-1.78.972-3.62 1.437-5.56 1.437h-2.95v2.274h35.3v-2.274h-2.97c-3.38 0-5.83-.957-7.38-2.963-1-1.292-1.49-4.426-1.49-9.336v-53.196c0-4.16.24-6.94.8-8.281.4-.985 1.26-1.876 2.52-2.597a11.08 11.08 0 0 1 5.55-1.448h2.97zm37.54 77.821v2.274h35.3v-2.274h-2.99c-3.38 0-5.79-.957-7.35-2.963-.99-1.292-1.45-4.426-1.45-9.336v-40.273c0-6.193-.68-11.202-2.03-15.054-1.37-3.862-3.72-7.193-7.02-10.054-3.33-2.838-7.33-4.278-12.05-4.278-3.78 0-6.78.946-8.95 2.85-2.22 1.88-3.28 4.023-3.28 6.449 0 1.99.49 3.496 1.5 4.499 1.33 1.269 2.91 1.876 4.7 1.876 1.28 0 2.44-.452 3.47-1.27 1.04-.858 2.36-3.115 3.92-6.8.95-2.174 2.13-3.288 3.6-3.3 1.09.012 2.12.678 3.04 2.002.97 1.342 1.43 3.712 1.43 7.113v56.24c0 4.16-.26 6.897-.79 8.268-.4.99-1.26 1.86-2.55 2.594a11.02 11.02 0 0 1-5.52 1.437h-2.98zm115.01-52.518h-31.89l-5.56-12.977c-1.39-3.203-2.06-5.586-2.06-7.164 0-1.239.58-2.371 1.8-3.288 1.18-.959 3.76-1.577 7.74-1.874v-2.244h-25.93v2.244c3.43.621 5.65 1.382 6.66 2.366 2.07 1.949 4.37 5.899 6.87 11.854l28.96 67.749h2.14l28.66-68.499c2.31-5.499 4.38-9.044 6.24-10.705 1.91-1.639 4.53-2.56 7.91-2.765v-2.244h-32.49v2.244c3.27.141 5.47.706 6.63 1.632 1.14.947 1.73 2.063 1.73 3.404 0 1.792-.81 4.613-2.42 8.434l-4.99 11.833zm-1.68 4.504l-13.97 33.289-14.32-33.289h28.29z"/></g></g></g></svg>