<?xml version="1.0" standalone="no"?>
<!DOCTYPE svg PUBLIC "-//W3C//DTD SVG 1.1//EN" "http://www.w3.org/Graphics/SVG/1.1/DTD/svg11.dtd">
<!--Generator: Xara Designer (www.xara.com), SVG filter version: 4.0.0.1-->
<svg stroke-width="0.501" stroke-linejoin="bevel" fill-rule="evenodd" xmlns:xlink="http://www.w3.org/1999/xlink" xmlns="http://www.w3.org/2000/svg" version="1.1" overflow="visible" width="2409.45pt" height="1508.32pt" viewBox="0 0 2409.45 1508.32">
 <defs>
  <marker id="DefaultArrow2" markerUnits="strokeWidth" viewBox="0 0 1 1" markerWidth="1" markerHeight="1" overflow="visible" orient="auto">
   <!-- REF_ARROW_STRAIGHT (-2) -->
   <g transform="scale(0.0092592592)">
    <!-- 1/108 -->
    <path d="M -9 54 L -9 -54 L 117 0 z"/>
   </g>
  </marker>
  <marker id="DefaultArrow3" markerUnits="strokeWidth" viewBox="0 0 1 1" markerWidth="1" markerHeight="1" overflow="visible" orient="auto">
   <!-- REF_ARROW_ANGLED -->
   <g transform="scale(0.0092592592)">
    <path d="M -27 54 L -9 0 L -27 -54 L 135 0 z"/>
   </g>
  </marker>
  <marker id="DefaultArrow4" markerUnits="strokeWidth" viewBox="0 0 1 1" markerWidth="1" markerHeight="1" overflow="visible" orient="auto">
   <!-- REF_ARROW_ROUNDED -->
   <g transform="scale(0.0092592592)">
    <path d="M -9,0 L -9,-45 C -9,-51.708 2.808,-56.580 9,-54 L 117,-9 C 120.916,-7.369 126.000,-4.242 126,0 C 126,4.242 120.916,7.369 117,9 L 9,54 C 2.808,56.580 -9,51.708 -9,45 z"/>
   </g>
  </marker>
  <marker id="DefaultArrow5" markerUnits="strokeWidth" viewBox="0 0 1 1" markerWidth="1" markerHeight="1" overflow="visible" orient="auto">
   <!-- REF_ARROW_SPOT -->
   <g transform="scale(0.0092592592)">
    <path d="M -54, 0 C -54,29.807 -29.807,54 0,54 C 29.807,54 54,29.807 54,0 C 54,-29.807 29.807,-54 0,-54 C -29.807,-54 -54,-29.807 -54,0 z"/>
   </g>
  </marker>
  <marker id="DefaultArrow6" markerUnits="strokeWidth" viewBox="0 0 1 1" markerWidth="1" markerHeight="1" overflow="visible" orient="auto">
   <!-- REF_ARROW_DIAMOND -->
   <g transform="scale(0.0092592592)">
    <path d="M -63,0 L 0,63 L 63,0 L 0,-63 z"/>
   </g>
  </marker>
  <marker id="DefaultArrow7" markerUnits="strokeWidth" viewBox="0 0 1 1" markerWidth="1" markerHeight="1" overflow="visible" orient="auto">
   <!-- REF_ARROW_FEATHER -->
   <g transform="scale(0.0092592592)">
    <path d="M 18,-54 L 108,-54 L 63,0 L 108,54 L 18, 54 L -36,0 z"/>
   </g>
  </marker>
  <marker id="DefaultArrow8" markerUnits="strokeWidth" viewBox="0 0 1 1" markerWidth="1" markerHeight="1" overflow="visible" orient="auto">
   <!-- REF_ARROW_FEATHER2 -->
   <g transform="scale(0.0092592592)">
    <path d="M -36,0 L 18,-54 L 54,-54 L 18,-18 L 27,-18 L 63,-54 L 99,-54 L 63,-18 L 72,-18 L 108,-54 L 144,-54 L 90,0 L 144,54 L 108,54 L 72,18 L 63,18 L 99,54 L 63,54 L 27,18 L 18,18 L 54,54 L 18,54 z"/>
   </g>
  </marker>
  <marker id="DefaultArrow9" markerUnits="strokeWidth" viewBox="0 0 1 1" markerWidth="1" markerHeight="1" overflow="visible" orient="auto">
   <!-- REF_ARROW_HOLLOWDIAMOND -->
   <g transform="scale(0.0092592592)">
    <path d="M 0,45 L -45,0 L 0, -45 L 45, 0 z M 0, 63 L-63, 0 L 0, -63 L 63, 0 z"/>
   </g>
  </marker>
  <filter id="StainedFilter">
   <feBlend mode="multiply" in2="BackgroundImage" in="SourceGraphic" result="blend"/>
   <feComposite in="blend" in2="SourceAlpha" operator="in" result="comp"/>
  </filter>
  <filter id="BleachFilter">
   <feBlend mode="screen" in2="BackgroundImage" in="SourceGraphic" result="blend"/>
   <feComposite in="blend" in2="SourceAlpha" operator="in" result="comp"/>
  </filter>
  <filter id="InvertTransparencyBitmapFilter">
   <feComponentTransfer>
    <feFuncR type="gamma" amplitude="1.055" exponent=".416666666" offset="-0.055"/>
    <feFuncG type="gamma" amplitude="1.055" exponent=".416666666" offset="-0.055"/>
    <feFuncB type="gamma" amplitude="1.055" exponent=".416666666" offset="-0.055"/>
   </feComponentTransfer>
   <feComponentTransfer>
    <feFuncR type="linear" slope="-1" intercept="1"/>
    <feFuncG type="linear" slope="-1" intercept="1"/>
    <feFuncB type="linear" slope="-1" intercept="1"/>
    <feFuncA type="linear" slope="1" intercept="0"/>
   </feComponentTransfer>
   <feComponentTransfer>
    <feFuncR type="gamma" amplitude="1" exponent="2.4" offset="0"/>
    <feFuncG type="gamma" amplitude="1" exponent="2.4" offset="0"/>
    <feFuncB type="gamma" amplitude="1" exponent="2.4" offset="0"/>
   </feComponentTransfer>
  </filter>
  <linearGradient id="LinearGradient" gradientUnits="userSpaceOnUse" x1="0" y1="0" x2="3432.363" y2="-1181.089" gradientTransform="translate(-158.713 1736.28)">
   <stop offset="0" stop-color="#9863cf"/>
   <stop offset="1" stop-color="#ff97b6"/>
  </linearGradient>
 </defs>
 <g id="Document" fill="none" stroke="black" font-family="Times New Roman" font-size="16" transform="scale(1 -1)">
  <g id="Spread" transform="translate(0 -1508.32)">
   <g id="Page background">
    <path d="M 0,1508.32 L 0,-0.001 L 2409.45,-0.001 L 2409.45,1508.32 L 0,1508.32 Z" stroke-linejoin="bevel" stroke="none" stroke-width="0" marker-start="none" marker-end="none" stroke-miterlimit="79.8403193612775"/>
   </g>
   <g id="Layer 1">
    <mask id="TranspMask">
     <rect x="-10%" y="-10%" width="120%" height="120%" fill="#d3d3d3" stroke="none"/>
    </mask>
    <g id="Group" fill-rule="nonzero" stroke-linejoin="round" stroke-linecap="round" stroke="none" stroke-width="32.483" stroke-miterlimit="79.8403193612775" mask="url(#TranspMask)" fill="url(#LinearGradient)">
     <g id="Group_1">
      <path d="M 335.62,299.173 C 325.751,301.776 316.533,306.003 308.051,311.885 C 299.58,317.778 290.864,325.685 281.914,335.572 C 255.136,364.313 236.844,395.877 227.143,430.278 C 217.413,464.695 213.14,501.187 214.309,539.642 C 215.324,622.839 221.39,705.413 232.494,787.471 C 243.614,869.499 257.431,951.104 274.101,1032.36 C 285.641,1090.1 298.068,1147.79 311.418,1205.41 C 324.721,1263.03 336.168,1321.04 345.726,1379.46 C 351.699,1414.52 356.222,1449.67 359.31,1484.91 C 359.983,1492.71 360.537,1500.53 360.974,1508.36 L 433.719,1508.36 C 433.546,1500.26 433.782,1492.18 434.414,1484.21 C 435.115,1475.46 437.577,1467.01 441.728,1458.78 C 444.654,1475.38 446.141,1491.9 446.185,1508.36 L 486.242,1508.36 C 486.998,1476.97 486.036,1445.71 483.351,1414.54 C 475.878,1340.55 466.102,1266.93 453.92,1193.71 C 441.742,1120.54 429.016,1047.23 415.7,973.844 C 405.969,919.933 396.924,865.93 388.626,811.848 C 380.315,757.732 372.907,703.435 366.421,648.836 C 365.952,644.234 365.187,639.493 364.16,634.738 C 363.038,629.918 360.37,625.538 356.05,621.56 L 356.05,622.854 C 356.411,631.2 357.003,639.543 357.844,647.87 C 358.656,656.23 357.625,665.193 354.769,674.865 C 347.954,642.442 343.777,610.411 342.154,578.801 C 340.566,547.236 339.582,515.533 339.288,483.766 C 338.677,475.999 338.583,468.423 338.927,460.967 C 339.334,453.593 339.863,445.997 340.566,438.245 C 341.189,431.132 342.496,425.88 344.416,422.496 C 346.381,419.128 348.969,417.427 352.197,417.443 C 354.085,417.443 356.411,418.115 359.108,419.408 C 361.819,420.702 365.127,422.636 368.993,425.273 C 400.557,446.434 432.605,472.835 465.088,504.584 C 497.649,536.29 529.868,571.174 561.822,609.209 C 593.773,647.216 624.696,686.325 654.657,726.436 C 684.581,766.578 712.776,805.611 739.18,843.566 C 765.641,881.553 789.566,916.284 811.007,947.862 C 867.241,1030.56 921.231,1114.44 973.038,1199.4 C 1024.84,1284.4 1076.62,1369.53 1128.27,1454.86 C 1139.25,1472.57 1150.08,1490.4 1160.79,1508.36 L 1201.05,1508.36 C 1195.9,1497.96 1190.7,1487.49 1185.47,1476.96 C 1182.71,1472.55 1180.1,1467.71 1177.65,1462.49 C 1175.22,1457.26 1173.94,1450.81 1173.76,1443.16 C 1178.75,1445.77 1182.44,1448.98 1184.81,1452.73 C 1187.2,1456.51 1189.57,1460.66 1191.95,1465.26 C 1199.07,1479.62 1206.26,1493.99 1213.51,1508.36 L 1300.79,1508.36 C 1267.91,1436.02 1234.23,1364.02 1199.77,1292.36 C 1144.67,1178.88 1082.92,1069.77 1014.47,965.078 C 946.059,860.376 873.9,758.451 798.018,659.283 C 768.093,620.222 737.199,582.246 705.368,545.333 C 673.494,508.42 640.667,472.726 606.858,438.245 C 591.872,422.731 575.389,406.713 557.441,390.152 C 539.522,373.62 520.464,358.23 500.254,343.897 C 480.073,329.598 459.053,318.012 437.221,309.107 C 415.402,300.219 393.088,295.648 370.287,295.382 C 357.094,295.352 345.522,296.601 335.62,299.173 Z M 333.423,329.225 C 334.079,330.147 334.715,330.956 335.372,331.688 C 334.715,334.246 333.735,335.913 332.458,336.693 C 331.162,337.505 329.523,337.518 327.573,336.849 C 326.826,336.787 325.999,336.304 325.11,335.384 C 324.234,334.524 323.737,333.732 323.659,332.982 C 323.737,330.469 324.533,328.957 326.095,328.445 C 327.636,327.883 329.428,327.663 331.472,327.804 C 332.114,327.868 332.782,328.35 333.423,329.225 Z M 506.554,380.719 C 525.641,396.718 543.062,414.153 558.748,433.052 C 537.789,419.595 517.641,405.248 498.32,389.997 C 478.968,374.759 461.407,357.497 445.641,338.159 C 467.148,350.557 487.496,364.733 506.554,380.719 Z M 384.651,340.279 C 388.768,340.885 392.744,342.214 396.581,344.274 C 400.403,346.332 405.049,349.513 410.506,353.755 C 430.265,366.168 449.275,379.61 467.551,394.19 C 485.812,408.741 504.448,422.806 523.413,436.376 C 542.392,449.926 562.852,461.388 584.759,470.745 C 586.053,471.509 587.365,472.632 588.659,474.174 C 589.968,475.72 591.263,477.203 592.575,478.558 C 623.901,510.871 653.844,544.087 682.431,578.175 C 710.998,612.267 737.415,648.414 761.587,686.559 C 788.972,730.724 816.123,774.966 843.038,819.315 C 869.925,863.653 896.094,908.239 921.528,953.056 C 926.408,961.338 931.29,969.775 936.154,978.413 C 941.02,987.005 943.936,996.752 944.934,1007.67 C 941.037,1003.11 937.419,998.578 934.035,994.008 C 930.648,989.471 927.345,984.932 924.115,980.361 C 897.497,939.66 868.256,895.916 836.332,849.038 C 804.38,802.163 770.308,754.582 734.096,706.286 C 697.901,657.989 660.037,611.301 620.549,566.276 C 581.049,521.241 540.41,480.212 498.663,443.173 C 456.932,406.135 414.561,375.462 371.584,351.165 C 370.162,350.587 369.102,349.448 368.354,347.735 C 367.589,346.066 367.808,343.29 368.993,339.483 C 375.326,339.374 380.563,339.672 384.651,340.279 Z M 324.468,406.557 C 326.702,410.705 327.761,416.07 327.573,422.636 C 327.636,452.578 328.464,482.443 330.04,512.194 C 331.536,541.965 333.328,571.486 335.372,600.775 C 342.233,695.603 352.431,789.936 365.952,883.862 C 379.473,977.711 393.899,1071.4 409.242,1164.97 C 415.277,1202.7 421.347,1240.65 427.379,1278.88 C 433.46,1317.08 438.235,1355.41 441.728,1393.73 C 442.537,1400.79 442.867,1408.19 442.708,1415.84 C 442.537,1423.56 440.903,1432.22 437.798,1441.84 C 434.084,1434.93 431.965,1428.29 431.436,1421.91 C 430.903,1415.56 430.826,1409.53 431.156,1403.71 C 431.481,1397.96 431.092,1392.47 429.982,1387.24 C 424.947,1369.06 421.032,1350.58 418.21,1331.94 C 415.386,1313.26 412.722,1294.53 410.192,1275.76 C 407.67,1256.93 404.316,1238.22 400.119,1219.55 C 390.716,1181.13 382.624,1142.28 375.808,1103.05 C 368.993,1063.79 361.554,1024.62 353.476,985.556 C 337.071,906.242 323.444,826.613 312.524,746.644 C 301.624,666.723 294.421,586.473 291.003,505.877 C 289.68,477.248 289.68,448.649 291.003,420.047 C 290.849,412.359 292.159,406.947 294.918,403.797 C 297.725,400.648 302.934,399.15 310.609,399.275 C 317.592,399.978 322.21,402.424 324.468,406.557 Z" marker-start="none" marker-end="none"/>
      <path d="M 1473.78,5.307 C 1460.4,10.764 1448.24,19.982 1437.21,32.785 C 1426.21,45.682 1418.76,60.65 1414.8,77.651 C 1410.84,94.729 1412.77,112.253 1420.59,130.315 C 1430.72,151.304 1444.9,173.963 1463.18,198.275 C 1481.42,222.588 1502.08,247.415 1525.12,272.756 C 1548.17,298.084 1571.93,322.767 1596.45,346.846 C 1620.93,370.939 1644.51,393.255 1667.14,413.842 C 1689.8,434.396 1709.84,452.017 1727.26,466.767 C 1735.19,473.006 1743.71,478.058 1752.76,481.881 C 1761.84,485.714 1770.67,489.785 1779.25,494.074 C 1780.54,495.322 1781.87,496.073 1783.32,496.366 C 1784.77,496.615 1786.42,496.725 1788.35,496.663 C 1790.94,496.586 1793.6,496.102 1796.32,495.213 C 1799.07,494.308 1802.03,493.515 1805.26,492.78 C 1803.18,485.825 1800.14,480.228 1796.17,476.016 C 1792.14,471.836 1787.79,467.875 1783.15,464.18 C 1764.48,445.17 1742.3,421.046 1716.65,391.788 C 1691.03,362.566 1664.88,331.127 1638.19,297.426 C 1611.57,263.759 1587.34,230.727 1565.63,198.4 C 1543.86,166.089 1527.57,137.317 1516.67,112.098 C 1514.11,106.891 1512.06,101.732 1510.51,96.677 C 1508.9,91.578 1507.53,86.774 1506.25,82.189 C 1505.44,78.899 1505.12,75.763 1505.28,72.768 C 1505.44,69.807 1507.07,67.281 1510.18,65.269 C 1510.86,64.675 1511.72,64.287 1512.77,64.148 C 1513.79,64.023 1514.67,63.975 1515.37,63.989 C 1517.26,63.989 1518.99,64.302 1520.56,64.958 C 1522.14,65.61 1523.85,66.565 1525.77,67.872 C 1565.18,90.235 1603.3,116.823 1640.11,147.563 C 1676.94,178.314 1712.05,211.732 1745.46,247.759 C 1778.89,283.828 1810.06,321.037 1839.09,359.382 C 1868.12,397.733 1894.57,435.674 1918.34,473.287 C 1961.77,540.969 1999.09,611.346 2030.28,684.361 C 2061.54,757.42 2087.46,832.665 2108.13,910.108 C 2108.17,910.685 2108.45,911.122 2108.93,911.401 C 2109.47,911.686 2110.09,912.12 2110.76,912.695 C 2114.13,910.044 2115.14,907.224 2113.81,904.26 C 2112.49,901.266 2111.9,898.429 2112.02,895.79 C 2111.9,892.548 2111.21,889.32 2109.92,886.06 C 2108.65,882.818 2107.63,879.573 2106.82,876.301 C 2104.55,869.859 2102.6,863.576 2100.97,857.461 C 2099.36,851.301 2100.01,845.047 2102.93,838.608 C 2115.53,868.519 2125.43,899.677 2132.67,932.052 C 2139.91,964.423 2146.89,997.876 2153.63,1032.34 C 2144.1,1027.66 2136.52,1022.36 2130.84,1016.39 C 2125.23,1010.43 2120.26,1004.49 2115.93,998.515 C 2050.41,924.922 1984.52,851.753 1918.18,778.942 C 1851.86,706.194 1784.32,634.645 1715.54,564.311 C 1689.75,537.133 1661.01,508.515 1629.35,478.543 C 1597.68,448.54 1563.84,420.281 1527.91,393.833 C 1491.95,367.353 1454.66,345.754 1416.02,329.082 C 1377.41,312.459 1338.2,303.834 1298.46,303.307 C 1265.78,303.382 1236.01,309.278 1209.14,320.957 C 1182.29,332.622 1159.55,349.652 1140.93,371.999 C 1122.25,394.395 1108.96,421.637 1100.96,453.793 C 1086.22,516.127 1080.3,577.992 1083.26,639.354 C 1086.22,700.751 1096.89,761.944 1115.27,822.981 C 1133.41,884.799 1155.59,944.852 1181.85,1003.09 C 1208.1,1061.31 1238.77,1117.42 1273.79,1171.43 C 1282.25,1185.68 1290.68,1199.75 1299.12,1213.67 C 1307.56,1227.58 1316.02,1241.68 1324.48,1255.92 C 1352.8,1298.44 1384.76,1337.56 1420.37,1373.25 C 1456.02,1408.96 1492.9,1443.51 1530.98,1476.91 C 1543.54,1487.5 1556.14,1497.98 1568.8,1508.36 L 1714.02,1508.36 C 1712.79,1507.42 1711.56,1506.47 1710.33,1505.53 C 1665.84,1471.19 1624.71,1436.06 1586.86,1400.23 C 1521.95,1338.42 1463.3,1271.93 1410.98,1200.84 C 1358.61,1129.76 1312.05,1054.5 1271.18,975.123 C 1270.07,973.048 1268.77,970.959 1267.31,968.746 C 1265.83,966.561 1263.25,964.785 1259.49,963.411 C 1263.75,978.833 1269.22,993.48 1275.9,1007.29 C 1282.59,1021.08 1288.35,1035.08 1293.29,1049.21 C 1286.63,1043.6 1278.67,1032.54 1269.38,1016.07 C 1260.09,999.622 1250.34,980.332 1240.16,958.217 C 1229.99,936.122 1220.28,913.773 1210.95,891.193 C 1201.64,868.61 1193.68,848.431 1187.06,830.562 C 1180.4,812.689 1175.97,799.776 1173.74,791.81 C 1163.88,756.11 1155.65,720.244 1149.04,684.251 C 1142.44,648.18 1138.12,611.676 1136.05,574.699 C 1134.7,544.819 1136.75,515.503 1142.22,486.776 C 1147.68,458.02 1156.9,429.671 1169.84,401.787 C 1179.27,383.384 1192.23,371.098 1208.64,364.875 C 1225.09,358.696 1242.92,355.812 1262.1,356.249 C 1286.13,356.388 1309.22,360.679 1331.47,369.083 C 1353.67,377.519 1375.17,389.294 1395.96,404.376 C 1432.78,431.789 1468.44,460.78 1502.9,491.297 C 1537.33,521.848 1571.42,553.133 1605.06,585.084 C 1660.23,636.564 1715,688.649 1769.33,741.42 C 1823.71,794.163 1878.15,846.919 1932.64,899.707 L 2080.83,1047.92 C 2087.27,1054.63 2094.24,1061.05 2101.78,1067.26 C 2109.39,1073.48 2117.96,1078.3 2127.63,1081.7 C 2135.49,1084.57 2142.22,1089.62 2147.77,1096.83 C 2153.35,1104.06 2157.45,1112.03 2160.11,1120.71 C 2161.6,1124.82 2164.59,1129.2 2169.08,1134.02 C 2173.58,1138.79 2178.6,1142.94 2184.12,1146.41 C 2189.59,1149.92 2194.64,1151.73 2199.14,1151.93 C 2203.02,1151.83 2206.64,1151.05 2210.03,1149.64 C 2213.42,1148.24 2216.71,1146.84 2219.91,1145.43 C 2223.6,1144.08 2225.47,1142.16 2225.47,1139.71 C 2225.43,1137.24 2224.8,1134.56 2223.48,1131.65 C 2222.2,1128.76 2221.45,1125.97 2221.23,1123.31 C 2222.68,1082.59 2220.47,1042.38 2214.62,1002.65 C 2208.76,962.929 2200.88,923.456 2190.98,884.301 C 2181.07,845.159 2170.82,806.076 2160.11,767.106 C 2154.92,747.565 2148.78,728.15 2141.76,708.937 C 2134.77,689.694 2127.02,670.933 2118.53,652.687 C 2099.89,609.679 2080.61,567.011 2060.68,524.797 C 2040.76,482.552 2018.86,441.568 1995.03,401.787 C 1949.35,328.613 1897.05,261.793 1838.07,201.302 C 1779.08,140.824 1714.4,85.916 1644.07,36.544 C 1628.07,25.066 1609.98,15.146 1589.79,6.773 C 1583.34,4.095 1576.91,1.825 1570.49,-0.038 L 1488.91,-0.038 C 1483.93,1.48 1478.88,3.264 1473.78,5.307 Z M 1525.77,41.736 C 1545.58,49.786 1564.44,59.532 1582.38,70.945 C 1600.3,82.424 1618.05,94.353 1635.53,106.796 C 1653.04,119.243 1671.04,131 1689.58,142.043 C 1687.36,135.164 1683.96,130.004 1679.32,126.57 C 1674.67,123.122 1670.32,119.617 1666.16,116.028 C 1662.1,111.632 1657.61,107.39 1652.67,103.319 C 1647.78,99.265 1643.59,94.399 1640.14,88.693 C 1638.8,88.052 1637.28,87.364 1635.62,86.569 C 1633.91,85.791 1632.41,84.777 1631.05,83.499 C 1629.62,82.112 1628.28,80.659 1626.98,79.101 C 1625.73,77.56 1625.33,76.42 1625.86,75.704 C 1626.5,74.999 1627.15,74.405 1627.82,73.894 C 1628.45,73.378 1629.12,73.127 1629.76,73.066 C 1631.1,73.175 1632.35,73.66 1633.5,74.514 C 1634.67,75.47 1635.61,76.295 1636.25,76.998 C 1637.49,78.276 1638.57,79.6 1639.51,81.052 C 1640.44,82.515 1641.5,84.17 1642.76,86.087 C 1652.39,88.927 1661.11,93.339 1668.92,99.265 C 1676.76,105.175 1684.5,111.228 1692.15,117.308 C 1748.57,164.154 1799.86,215.115 1846.04,270.214 C 1892.23,325.28 1934.1,384.305 1971.66,447.291 C 1975.1,451.753 1978.23,456.46 1981.06,461.419 C 1983.88,466.379 1985.08,472.039 1984.62,478.481 C 1985.98,479.168 1987.23,480.089 1988.36,481.207 C 1989.57,482.379 1990.46,483.657 1991.13,484.984 C 1992.69,487.024 1993.83,489.117 1994.55,491.297 C 1995.3,493.515 1994.14,495.277 1991.13,496.663 C 1989.15,497.162 1987.3,496.491 1985.61,494.731 C 1983.94,492.938 1982.74,490.987 1982.03,488.864 C 1982.03,487.51 1982.09,485.999 1982.2,484.357 C 1982.35,482.644 1982.73,481.133 1983.35,479.775 C 1980.01,480.009 1977.42,479.104 1975.54,477.03 C 1973.64,474.97 1971.66,472.914 1969.49,470.841 C 1967.31,468.751 1964.14,467.812 1959.94,468.08 C 1964.31,481.676 1969.19,494.745 1974.59,507.251 C 1979.92,519.713 1986.74,531.83 1995.03,543.512 C 1988.7,543.291 1983.82,541.421 1980.42,537.815 C 1977,534.213 1974.07,530.02 1971.66,525.294 C 1965.82,516.156 1960.24,507.08 1954.92,498.003 C 1949.59,488.864 1944.32,479.775 1939.14,470.681 C 1905.56,414.558 1866.83,360.412 1822.91,308.203 C 1778.98,256.022 1731.09,207.773 1679.27,163.483 C 1627.4,119.178 1572.79,80.832 1515.37,48.473 C 1517.26,45.154 1518.99,43.029 1520.56,42.111 C 1522.14,41.174 1523.85,41.036 1525.77,41.736 Z M 1468.09,57.845 C 1469.68,59.889 1470.72,61.949 1471.16,63.989 C 1478.05,94.897 1489.3,123.141 1504.8,148.685 C 1520.33,174.26 1537.7,198.914 1556.94,222.652 C 1584.41,259.001 1612.71,294.54 1641.95,329.301 C 1671.19,364.063 1700.48,398.62 1729.86,432.988 C 1733.42,437.311 1737.02,441.661 1740.59,445.966 C 1744.16,450.3 1745.8,455.946 1745.46,462.887 C 1734.35,456.181 1718.77,443.673 1698.73,425.286 C 1678.69,406.901 1656.74,385.444 1632.84,360.945 C 1609.03,336.397 1585.84,311.585 1563.32,286.463 C 1540.81,261.31 1521.56,238.601 1505.59,218.345 C 1489.55,198.121 1479.41,183.086 1475.06,173.263 C 1481.16,176.349 1486.55,180.545 1491.32,185.739 C 1496.1,191.008 1502.79,194.173 1511.47,195.347 C 1495.88,174.01 1483.56,151.692 1474.59,128.396 C 1465.61,105.082 1460.15,80.178 1458.16,53.621 C 1463.19,54.397 1466.5,55.787 1468.09,57.845 Z M 1329.66,348.468 C 1317.97,347.735 1306.26,346.926 1294.58,346.034 C 1282.89,345.161 1271.18,344.663 1259.49,344.583 C 1255,344.554 1250.65,344.602 1246.47,344.709 C 1242.32,344.866 1238.02,345.271 1233.5,345.845 C 1241.89,343.244 1250.12,341.091 1258.18,339.483 C 1266.26,337.816 1274.46,336.961 1282.89,336.911 C 1298.46,336.911 1314.07,340.747 1329.66,348.468 Z M 1580.34,503.338 C 1588.85,511.058 1597.54,518.338 1606.4,525.294 C 1612.71,529.333 1618.8,534.075 1624.67,539.532 C 1630.51,545.008 1637.09,550.217 1644.42,555.207 C 1651.68,560.241 1660.68,564.141 1671.36,566.901 C 1661.34,554.411 1651.46,543.291 1641.77,533.606 C 1632.1,523.847 1624.19,512.415 1618.05,499.267 C 1628.32,506.083 1642.76,518.325 1661.42,535.994 C 1680.08,553.66 1701.24,574.888 1724.87,599.68 C 1748.57,624.46 1773.03,650.972 1798.27,679.183 C 1823.5,707.393 1847.87,735.432 1871.3,763.33 C 1894.73,791.262 1915.58,817.133 1933.8,841.008 C 1952.04,864.883 1965.95,884.862 1975.54,901 C 1907.3,829.424 1837.74,759.042 1766.91,689.773 C 1696.07,620.44 1623.92,552.63 1550.46,486.292 C 1561.89,489.928 1571.86,495.604 1580.34,503.338 Z M 1996.48,554.615 C 1998.12,558.153 1999.76,561.865 2001.39,565.762 C 2003.02,569.553 2003.52,573.871 2002.83,578.599 C 1998.39,572.748 1995.61,566.901 1994.55,561.037 C 1993.5,555.191 1993.66,549.326 1995.03,543.512 C 1994.36,547.347 1994.83,551.043 1996.48,554.615 Z M 2100.33,821.687 C 2101.37,826.504 2102.23,830.842 2102.93,834.726 C 2097.46,831.652 2093.79,827.972 2092.03,823.651 C 2090.3,819.315 2092.2,813 2097.74,804.798 C 2098.44,811.24 2099.31,816.883 2100.33,821.687 Z M 1778.13,1187.85 C 1770.72,1189.1 1763.73,1190.1 1757.13,1190.94 C 1749.4,1191.31 1743.13,1194.77 1738.3,1201.34 C 1733.48,1207.89 1729.8,1215.23 1727.26,1223.42 C 1726.21,1227.8 1727.02,1231.05 1729.69,1233.17 C 1732.37,1235.29 1735.47,1237.24 1738.95,1239 C 1769.24,1255.05 1798.07,1273.35 1825.41,1293.95 C 1852.74,1314.52 1880.26,1334.82 1907.95,1354.76 C 1947,1380.18 1986.02,1407.84 2025.02,1437.68 C 2053.79,1459.72 2080.97,1483.27 2106.53,1508.36 L 2154.05,1508.36 C 2153.47,1507.6 2152.88,1506.69 2152.32,1505.54 C 2152.32,1504.26 2152.65,1503.56 2153.29,1503.42 C 2153.96,1503.28 2154.92,1503.56 2156.22,1504.23 C 2156.96,1504.94 2157.79,1505.81 2158.67,1506.85 C 2159.14,1507.4 2159.51,1507.9 2159.75,1508.36 L 2238.65,1508.36 C 2226.01,1493.21 2212.29,1478.35 2197.49,1463.76 C 2172.19,1438.8 2146.55,1415.83 2120.7,1394.87 C 2094.81,1373.96 2071.57,1356.24 2050.94,1341.72 C 2022.34,1321 1993.43,1300.69 1964.17,1280.8 C 1934.93,1260.86 1905.34,1240.9 1875.43,1220.81 C 1869.61,1216.71 1862.21,1211.94 1853.31,1206.52 C 1844.39,1201.1 1835.16,1196.33 1825.66,1192.21 C 1816.18,1188.12 1807.65,1185.95 1800.05,1185.76 C 1792.83,1185.84 1785.53,1186.54 1778.13,1187.85 Z" marker-start="none" marker-end="none"/>
      <path d="M 2306.36,921.664 C 2291.47,928.402 2278.43,938.023 2267.22,950.452 C 2264.63,953.634 2262.04,956.674 2259.44,959.557 C 2256.83,962.443 2254.22,965.467 2251.61,968.667 L 2238.62,981.703 L 2241.24,984.277 L 2223.07,1010.27 C 2213.67,1023.39 2207.79,1037.46 2205.37,1052.51 C 2202.97,1067.58 2201.92,1082.99 2202.27,1098.69 C 2202.45,1130.51 2206.68,1164.22 2214.92,1199.75 C 2223.16,1235.26 2234.46,1270.8 2248.74,1306.4 C 2263.01,1341.97 2279.37,1375.72 2297.69,1407.68 C 2316,1439.64 2335.3,1467.96 2355.64,1492.66 C 2356.82,1494.75 2358.67,1497.06 2361.15,1499.51 C 2363.64,1501.91 2367.45,1503.52 2372.53,1504.34 L 2384.26,1505.64 L 2382.95,1500.46 C 2384.79,1503.1 2386.64,1505.74 2388.5,1508.36 L 2409.45,1508.36 L 2409.45,1359.1 L 2409.45,1359.18 C 2392.68,1330.82 2377.6,1302.05 2364.19,1272.84 C 2345.88,1232.87 2331.75,1193.9 2321.83,1155.9 C 2318.18,1140.24 2315.05,1124.01 2312.54,1107.19 C 2310,1090.32 2309.14,1073.11 2309.89,1055.55 C 2310.67,1037.98 2314.22,1020.28 2320.54,1002.48 L 2321.83,1001.18 C 2321.85,999.902 2322.13,998.578 2322.66,997.111 C 2323.14,995.677 2323.77,994.008 2324.42,992.091 C 2324.22,982.092 2324.65,976.027 2325.73,973.844 C 2326.84,971.675 2329.85,970.82 2334.86,971.273 L 2343.93,971.273 C 2345.9,971.223 2347.83,971.273 2349.79,971.411 C 2351.76,971.553 2353.69,971.925 2355.64,972.566 C 2362.21,972.596 2368.57,972.503 2374.82,972.236 C 2381.06,971.973 2386.78,971.193 2392.04,969.96 C 2395.3,969.383 2398.53,968.244 2401.8,966.548 C 2404.36,965.187 2406.91,963.203 2409.45,960.556 L 2409.45,923.973 L 2409.45,923.897 C 2407.56,922.711 2405.44,921.633 2403.08,920.665 C 2394.82,917.236 2386.01,914.849 2376.68,913.446 C 2367.4,912.027 2359.93,911.357 2354.36,911.401 C 2337.29,911.466 2321.32,914.895 2306.36,921.664 Z M 2247.55,1001.35 C 2247.2,1006.44 2245.96,1011.55 2243.81,1016.76 C 2243.75,1018.1 2243.58,1019.36 2243.19,1020.66 C 2242.8,1021.98 2242.58,1023.28 2242.54,1024.57 C 2236.7,1047.92 2233.44,1071.45 2232.82,1095.26 C 2232.15,1119.08 2234.11,1143.64 2238.62,1168.9 C 2231.54,1142.31 2227.89,1116.49 2227.64,1091.38 C 2227.33,1066.24 2230.17,1041.39 2236.03,1016.76 L 2242.54,986.865 C 2246.26,991.465 2247.91,996.27 2247.55,1001.35 Z" marker-start="none" marker-end="none"/>
     </g>
    </g>
    <g id="Group_2" fill="#ffffff" fill-rule="nonzero" stroke-linejoin="round" stroke-linecap="round" stroke="none">
     <g id="Group_3" stroke-width="13.545" stroke-miterlimit="79.8403193612775">
      <g id="Group_4">
       <path d="M 945.409,1126.37 L 945.409,1117.84 C 934.329,1115.82 925.952,1112.3 920.27,1107.21 C 912.101,1099.69 904.877,1088.15 898.56,1072.62 L 789.439,806.366 L 780.925,806.366 L 663.701,1076.07 C 657.699,1089.92 653.48,1098.37 651.015,1101.45 C 647.151,1106.23 642.445,1109.94 636.828,1112.64 C 631.211,1115.33 623.645,1117.08 614.099,1117.84 L 614.099,1126.37 L 741.907,1126.37 L 741.907,1117.84 C 727.453,1116.45 718.083,1113.99 713.761,1110.45 C 709.468,1106.91 707.31,1102.38 707.31,1096.83 C 707.31,1089.13 710.832,1077.12 717.911,1060.84 L 797.518,877.441 L 871.35,1058.55 C 878.564,1076.39 882.185,1088.78 882.185,1095.69 C 882.185,1100.15 879.951,1104.41 875.497,1108.48 C 871.044,1112.56 863.501,1115.44 852.888,1117.16 C 852.137,1117.28 850.82,1117.52 848.96,1117.84 L 848.96,1126.37 L 945.409,1126.37 Z" marker-start="none" marker-end="none"/>
       <path d="M 1215.96,1133.51 L 1224.02,1034.77 L 1215.96,1034.77 C 1207.79,1059.38 1197.28,1077.93 1184.35,1090.38 C 1165.73,1108.37 1141.8,1117.38 1112.59,1117.38 C 1072.76,1117.38 1042.46,1101.61 1021.7,1070.08 C 1004.32,1043.47 995.632,1011.77 995.632,975.019 C 995.632,945.173 1001.39,917.953 1012.93,893.343 C 1024.47,868.731 1039.58,850.71 1058.28,839.249 C 1076.96,827.781 1096.14,822.055 1115.84,822.055 C 1127.38,822.055 1138.52,823.525 1149.3,826.436 C 1160.04,829.356 1170.44,833.66 1180.43,839.35 L 1180.43,929.802 C 1180.44,945.49 1179.24,955.763 1176.86,960.611 C 1174.47,965.444 1170.79,969.134 1165.77,971.686 C 1160.79,974.214 1151.97,975.487 1139.35,975.487 L 1139.35,984.243 L 1260.48,984.243 L 1260.48,975.487 L 1254.72,975.487 C 1242.73,975.487 1234.5,971.476 1230.05,963.476 C 1226.95,957.791 1225.41,946.559 1225.41,929.802 L 1225.41,834.054 C 1207.72,824.521 1190.28,817.527 1173.04,813.063 C 1155.82,808.6 1136.69,806.366 1115.6,806.366 C 1055.17,806.366 1009.26,825.76 977.866,864.521 C 954.33,893.566 942.57,927.1 942.56,965.117 C 942.57,992.623 949.175,1019 962.399,1044.23 C 978.08,1074.24 999.64,1097.3 1026.99,1113.43 C 1049.93,1126.83 1077,1133.51 1108.21,1133.51 C 1119.6,1133.51 1129.95,1132.62 1139.24,1130.75 C 1148.55,1128.89 1161.73,1124.83 1178.82,1118.51 C 1187.44,1115.27 1193.19,1113.68 1196.12,1113.68 C 1199.06,1113.68 1201.53,1115.02 1203.62,1117.72 C 1205.7,1120.42 1206.96,1125.68 1207.43,1133.51 L 1215.96,1133.51 Z" marker-start="none" marker-end="none"/>
       <path d="M 1383.14,987.024 L 1498.52,872.341 C 1517.42,853.437 1533.58,840.548 1546.96,833.706 C 1560.33,826.848 1573.72,822.977 1587.11,822.055 L 1587.11,813.516 L 1438.3,813.516 L 1438.3,822.055 C 1447.22,822.055 1453.63,823.547 1457.55,826.551 C 1461.48,829.548 1463.43,832.9 1463.43,836.607 C 1463.43,840.296 1462.7,843.597 1461.23,846.516 C 1459.79,849.447 1454.99,854.897 1446.83,862.893 L 1338.87,969.707 L 1338.87,868.893 C 1338.87,853.034 1339.85,842.6 1341.86,837.512 C 1343.4,833.66 1346.63,830.37 1351.54,827.597 C 1358.15,823.897 1365.16,822.055 1372.53,822.055 L 1383.14,822.055 L 1383.14,813.516 L 1249.79,813.516 L 1249.79,822.055 L 1260.87,822.055 C 1273.81,822.055 1283.19,825.823 1289.02,833.357 C 1292.71,838.296 1294.56,850.136 1294.56,868.893 L 1294.56,1070.99 C 1294.56,1086.84 1293.56,1097.37 1291.56,1102.61 C 1290.03,1106.3 1286.88,1109.53 1282.1,1112.3 C 1275.32,1115.98 1268.27,1117.84 1260.87,1117.84 L 1249.79,1117.84 L 1249.79,1126.37 L 1383.14,1126.37 L 1383.14,1117.84 L 1372.53,1117.84 C 1365.31,1117.84 1358.33,1116.07 1351.54,1112.52 C 1346.78,1110.07 1343.47,1106.37 1341.63,1101.45 C 1339.78,1096.53 1338.87,1086.38 1338.87,1070.99 L 1338.87,975.264 C 1341.94,978.172 1352.46,987.948 1370.47,1004.54 C 1416.14,1046.38 1443.76,1074.3 1453.28,1088.3 C 1457.44,1094.45 1459.53,1099.84 1459.52,1104.45 C 1459.53,1107.97 1457.91,1111.11 1454.68,1113.79 C 1451.44,1116.49 1445.99,1117.84 1438.3,1117.84 L 1431.14,1117.84 L 1431.14,1126.37 L 1546.05,1126.37 L 1546.05,1117.84 C 1539.26,1117.68 1533.12,1116.74 1527.58,1115.05 C 1522.05,1113.36 1515.28,1110.1 1507.29,1105.25 C 1499.27,1100.4 1489.43,1092.61 1477.75,1081.86 C 1474.36,1078.77 1458.76,1062.99 1430.92,1034.55 L 1383.14,987.024 Z" marker-start="none" marker-end="none"/>
       <path d="M 1774.61,1133.51 L 1774.61,1025.32 L 1766.07,1025.32 C 1763.3,1046.08 1758.34,1062.6 1751.19,1074.92 C 1744.02,1087.22 1733.85,1096.99 1720.61,1104.23 C 1707.39,1111.44 1693.7,1115.05 1679.55,1115.05 C 1663.54,1115.05 1650.33,1110.17 1639.86,1100.42 C 1629.41,1090.63 1624.17,1079.54 1624.17,1067.08 C 1624.17,1057.54 1627.5,1048.86 1634.1,1041.02 C 1643.62,1029.47 1666.31,1014.09 1702.16,994.845 C 1731.37,979.176 1751.33,967.135 1762.04,958.745 C 1772.73,950.367 1780.96,940.487 1786.71,929.104 C 1792.46,917.729 1795.36,905.815 1795.36,893.343 C 1795.36,869.662 1786.18,849.233 1767.81,832.094 C 1749.42,814.947 1725.78,806.366 1696.84,806.366 C 1687.78,806.366 1679.25,807.06 1671.23,808.452 C 1666.49,809.215 1656.59,812.012 1641.6,816.874 C 1626.6,821.697 1617.09,824.131 1613.1,824.131 C 1609.25,824.131 1606.22,822.968 1603.99,820.682 C 1601.76,818.375 1600.11,813.603 1599.03,806.366 L 1590.48,806.366 L 1590.48,913.636 L 1599.03,913.636 C 1603.05,891.18 1608.4,874.37 1615.18,863.22 C 1621.94,852.093 1632.29,842.821 1646.19,835.449 C 1660.13,828.043 1675.39,824.361 1692,824.361 C 1711.24,824.361 1726.42,829.449 1737.56,839.589 C 1748.72,849.732 1754.31,861.742 1754.31,875.588 C 1754.31,883.269 1752.18,891.057 1747.96,898.898 C 1743.72,906.714 1737.14,914.026 1728.23,920.807 C 1722.24,925.419 1705.85,935.217 1679.07,950.199 C 1652.33,965.201 1633.31,977.189 1621.98,986.095 C 1610.67,995.025 1602.11,1004.86 1596.25,1015.62 C 1590.42,1026.39 1587.48,1038.23 1587.48,1051.16 C 1587.48,1073.61 1596.1,1092.96 1613.34,1109.19 C 1630.55,1125.41 1652.46,1133.51 1679.07,1133.51 C 1695.7,1133.51 1713.3,1129.44 1731.92,1121.29 C 1740.53,1117.45 1746.62,1115.53 1750.15,1115.53 C 1754.15,1115.53 1757.42,1116.72 1759.95,1119.11 C 1762.48,1121.49 1764.52,1126.29 1766.07,1133.51 L 1774.61,1133.51 Z" marker-start="none" marker-end="none"/>
      </g>
     </g>
     <g id="Group_5" stroke-width="3.104" stroke-miterlimit="79.8403193612775">
      <g id="Group_6">
       <path d="M 589.082,704.277 L 589.082,702.005 C 586.195,701.502 584.005,700.567 582.484,699.233 C 580.341,697.237 578.436,694.206 576.752,690.116 L 548.063,620.048 L 545.807,620.048 L 514.981,691.035 C 513.376,694.654 512.275,696.888 511.624,697.702 C 510.61,698.964 509.384,699.963 507.901,700.655 C 506.423,701.358 504.421,701.807 501.893,702.005 L 501.893,704.277 L 535.553,704.277 L 535.553,702.005 C 531.741,701.655 529.274,701.021 528.15,700.091 C 527.013,699.14 526.439,697.973 526.439,696.507 C 526.439,694.491 527.383,691.33 529.227,687.03 L 550.164,638.756 L 569.603,686.421 C 571.524,691.106 572.469,694.388 572.469,696.211 C 572.469,697.366 571.875,698.484 570.719,699.568 C 569.533,700.641 567.545,701.375 564.764,701.836 C 564.552,701.88 564.229,701.951 563.723,702.005 L 563.723,704.277 L 589.082,704.277 Z" marker-start="none" marker-end="none"/>
       <path d="M 651.125,624.185 L 651.125,621.941 L 615.861,621.941 L 615.861,624.185 L 618.762,624.185 C 622.149,624.185 624.631,625.172 626.169,627.157 C 627.117,628.456 627.626,631.571 627.626,636.507 L 627.626,689.707 C 627.626,693.867 627.372,696.602 626.832,697.973 C 626.438,698.964 625.595,699.833 624.322,700.567 C 622.574,701.541 620.698,702.005 618.762,702.005 L 615.861,702.005 L 615.861,704.277 L 651.125,704.277 L 651.125,702.005 L 648.149,702.005 C 644.787,702.005 642.352,701.048 640.802,699.042 C 639.797,697.749 639.258,694.617 639.258,689.707 L 639.258,636.507 C 639.258,632.35 639.542,629.57 640.078,628.229 C 640.474,627.244 641.336,626.355 642.618,625.634 C 644.339,624.647 646.214,624.185 648.149,624.185 L 651.125,624.185 Z" marker-start="none" marker-end="none"/>
       <path d="M 733.296,706.152 L 733.296,677.688 L 731.052,677.688 C 730.333,683.132 729.018,687.493 727.134,690.72 C 725.253,693.951 722.59,696.532 719.116,698.456 C 715.606,700.341 712.024,701.291 708.254,701.291 C 704.096,701.291 700.583,700.02 697.861,697.452 C 695.09,694.857 693.712,691.935 693.712,688.68 C 693.712,686.15 694.583,683.868 696.337,681.807 C 698.83,678.758 704.796,674.711 714.242,669.662 C 721.929,665.531 727.16,662.354 730.022,660.169 C 732.787,657.953 734.973,655.327 736.497,652.367 C 738.007,649.373 738.77,646.229 738.77,642.946 C 738.77,636.706 736.341,631.349 731.503,626.835 C 726.668,622.304 720.456,620.048 712.842,620.048 C 710.443,620.048 708.201,620.248 706.084,620.612 C 704.83,620.797 702.246,621.56 698.296,622.828 C 694.348,624.083 691.849,624.719 690.806,624.719 C 689.805,624.719 688.986,624.436 688.409,623.817 C 687.833,623.211 687.376,621.953 687.085,620.048 L 684.867,620.048 L 684.867,648.291 L 687.085,648.291 C 688.158,642.369 689.561,637.966 691.354,635.028 C 693.135,632.067 695.857,629.624 699.513,627.695 C 703.162,625.777 707.201,624.804 711.555,624.789 C 716.603,624.804 720.628,626.113 723.564,628.811 C 726.494,631.445 727.961,634.621 727.961,638.277 C 727.961,640.28 727.398,642.339 726.273,644.393 C 725.17,646.47 723.417,648.389 721.107,650.182 C 719.54,651.395 715.227,653.975 708.171,657.926 C 701.118,661.86 696.109,664.99 693.146,667.362 C 690.169,669.715 687.9,672.301 686.376,675.117 C 684.824,677.97 684.064,681.058 684.064,684.47 C 684.064,690.385 686.335,695.49 690.845,699.753 C 695.389,704.009 701.162,706.152 708.171,706.152 C 712.544,706.152 717.158,705.083 722.068,702.937 C 724.342,701.923 725.919,701.429 726.849,701.429 C 727.934,701.429 728.784,701.726 729.457,702.361 C 730.123,702.979 730.657,704.248 731.052,706.152 L 733.296,706.152 Z" marker-start="none" marker-end="none"/>
       <path d="M 824.438,649.489 L 792.585,649.489 L 786.987,636.507 C 785.638,633.308 784.925,630.924 784.925,629.345 C 784.925,628.104 785.521,626.976 786.73,626.057 C 787.904,625.102 790.508,624.481 794.476,624.185 L 794.476,621.941 L 768.533,621.941 L 768.533,624.185 C 771.974,624.804 774.205,625.566 775.207,626.55 C 777.28,628.499 779.563,632.449 782.08,638.404 L 811.039,706.152 L 813.166,706.152 L 841.831,637.653 C 844.127,632.155 846.231,628.611 848.092,626.948 C 849.997,625.311 852.606,624.39 855.981,624.185 L 855.981,621.941 L 823.477,621.941 L 823.477,624.185 C 826.762,624.325 828.963,624.888 830.136,625.815 C 831.278,626.762 831.86,627.878 831.86,629.219 C 831.86,631.012 831.05,633.834 829.446,637.653 L 824.438,649.489 Z M 822.758,653.992 L 808.792,687.278 L 794.476,653.992 L 822.758,653.992 Z" marker-start="none" marker-end="none"/>
       <path d="M 955.798,706.152 L 957.941,680.184 L 955.798,680.184 C 953.655,686.646 950.874,691.514 947.5,694.799 C 942.579,699.525 936.304,701.909 928.599,701.909 C 918.12,701.909 910.15,697.749 904.694,689.453 C 900.121,682.458 897.821,674.12 897.821,664.443 C 897.821,656.569 899.355,649.42 902.391,642.946 C 905.438,636.483 909.384,631.73 914.294,628.723 C 919.221,625.692 924.284,624.185 929.458,624.185 C 932.505,624.185 935.428,624.576 938.277,625.341 C 941.099,626.1 943.819,627.244 946.459,628.74 L 946.459,652.535 C 946.459,656.656 946.15,659.376 945.541,660.648 C 944.889,661.917 943.905,662.902 942.595,663.561 C 941.283,664.249 938.954,664.557 935.65,664.557 L 935.65,666.843 L 967.522,666.843 L 967.522,664.557 L 966.011,664.557 C 962.848,664.557 960.693,663.524 959.518,661.409 C 958.703,659.915 958.289,656.953 958.289,652.535 L 958.289,627.341 C 953.655,624.857 949.038,622.969 944.496,621.814 C 939.982,620.64 934.931,620.048 929.422,620.048 C 913.49,620.048 901.418,625.172 893.166,635.34 C 886.974,643.015 883.854,651.813 883.854,661.816 C 883.854,669.084 885.603,676.011 889.089,682.666 C 893.208,690.553 898.875,696.602 906.083,700.867 C 912.127,704.391 919.246,706.152 927.456,706.152 C 930.447,706.152 933.185,705.916 935.625,705.437 C 938.049,704.93 941.551,703.857 946.02,702.205 C 948.293,701.342 949.817,700.923 950.594,700.923 C 951.337,700.923 952.02,701.291 952.567,701.993 C 953.103,702.699 953.441,704.099 953.571,706.152 L 955.798,706.152 Z" marker-start="none" marker-end="none"/>
       <path d="M 1029.78,624.185 L 1029.78,621.941 L 994.504,621.941 L 994.504,624.185 L 997.428,624.185 C 1000.81,624.185 1003.28,625.172 1004.83,627.157 C 1005.79,628.456 1006.29,631.571 1006.29,636.507 L 1006.29,689.707 C 1006.29,693.867 1006.03,696.602 1005.51,697.973 C 1005.08,698.964 1004.28,699.833 1003,700.567 C 1001.22,701.541 999.357,702.005 997.428,702.005 L 994.504,702.005 L 994.504,704.277 L 1029.78,704.277 L 1029.78,702.005 L 1026.81,702.005 C 1023.45,702.005 1021.01,701.048 1019.44,699.042 C 1018.46,697.749 1017.95,694.617 1017.95,689.707 L 1017.95,636.507 C 1017.95,632.35 1018.2,629.57 1018.74,628.229 C 1019.15,627.244 1020,626.355 1021.27,625.634 C 1023.03,624.647 1024.86,624.185 1026.81,624.185 L 1029.78,624.185 Z" marker-start="none" marker-end="none"/>
       <path d="M 1053.32,704.277 L 1075.66,704.277 L 1125.98,642.507 L 1125.98,690.016 C 1125.98,695.055 1125.41,698.215 1124.32,699.483 C 1122.78,701.173 1120.43,702.005 1117.2,702.005 L 1114.33,702.005 L 1114.33,704.277 L 1143.01,704.277 L 1143.01,702.005 L 1140.07,702.005 C 1136.58,702.005 1134.14,700.977 1132.68,698.872 C 1131.79,697.577 1131.34,694.617 1131.35,690.016 L 1131.35,620.612 L 1129.15,620.612 L 1074.87,686.899 L 1074.87,636.201 C 1074.87,631.165 1075.42,628.007 1076.52,626.736 C 1078.04,625.028 1080.42,624.185 1083.63,624.185 L 1086.51,624.185 L 1086.51,621.941 L 1057.89,621.941 L 1057.89,624.185 L 1060.72,624.185 C 1064.25,624.185 1066.73,625.239 1068.2,627.341 C 1069.07,628.641 1069.54,631.599 1069.54,636.201 L 1069.54,693.457 C 1067.14,696.265 1065.33,698.086 1064.09,698.989 C 1062.84,699.876 1061.04,700.711 1058.64,701.502 C 1057.49,701.836 1055.7,702.005 1053.32,702.005 L 1053.32,704.277 Z" marker-start="none" marker-end="none"/>
       <path d="M 1212.37,706.152 C 1223.06,706.152 1232.29,702.093 1240.13,693.951 C 1247.99,685.869 1251.89,675.726 1251.89,663.596 C 1251.89,651.098 1247.93,640.703 1240.03,632.449 C 1232.14,624.185 1222.61,620.048 1211.39,620.048 C 1200.04,620.048 1190.51,624.083 1182.83,632.125 C 1175.11,640.194 1171.26,650.63 1171.26,663.412 C 1171.26,676.492 1175.71,687.137 1184.6,695.408 C 1192.31,702.575 1201.59,706.152 1212.37,706.152 Z M 1211.2,701.709 C 1203.84,701.709 1197.92,698.989 1193.48,693.53 C 1187.92,686.73 1185.16,676.759 1185.16,663.638 C 1185.16,650.21 1188.05,639.87 1193.77,632.646 C 1198.17,627.13 1204.03,624.364 1211.26,624.351 C 1219.01,624.364 1225.41,627.374 1230.41,633.407 C 1235.44,639.459 1238,648.942 1238,661.945 C 1238,676.024 1235.2,686.533 1229.66,693.457 C 1225.2,698.964 1219.06,701.709 1211.2,701.709 Z" marker-start="none" marker-end="none"/>
       <path d="M 1408.34,706.152 L 1410.45,680.184 L 1408.34,680.184 C 1406.16,686.646 1403.41,691.514 1400.01,694.799 C 1395.12,699.525 1388.81,701.909 1381.14,701.909 C 1370.66,701.909 1362.65,697.749 1357.21,689.453 C 1352.64,682.458 1350.34,674.12 1350.34,664.443 C 1350.34,656.569 1351.87,649.42 1354.9,642.946 C 1357.95,636.483 1361.91,631.73 1366.83,628.723 C 1371.74,625.692 1376.81,624.185 1381.99,624.185 C 1385.02,624.185 1387.94,624.576 1390.8,625.341 C 1393.62,626.1 1396.35,627.244 1398.98,628.74 L 1398.98,652.535 C 1398.98,656.656 1398.67,659.376 1398.05,660.648 C 1397.42,661.917 1396.41,662.902 1395.12,663.561 C 1393.81,664.249 1391.48,664.557 1388.17,664.557 L 1388.17,666.843 L 1420.04,666.843 L 1420.04,664.557 L 1418.53,664.557 C 1415.37,664.557 1413.2,663.524 1412.05,661.409 C 1411.21,659.915 1410.83,656.953 1410.83,652.535 L 1410.83,627.341 C 1406.16,624.857 1401.56,622.969 1397.02,621.814 C 1392.5,620.64 1387.47,620.048 1381.94,620.048 C 1366.01,620.048 1353.94,625.172 1345.67,635.34 C 1339.48,643.015 1336.37,651.813 1336.37,661.816 C 1336.37,669.084 1338.11,676.011 1341.61,682.666 C 1345.73,690.553 1351.4,696.602 1358.59,700.867 C 1364.65,704.391 1371.77,706.152 1379.96,706.152 C 1382.96,706.152 1385.71,705.916 1388.15,705.437 C 1390.59,704.93 1394.06,703.857 1398.56,702.205 C 1400.83,701.342 1402.34,700.923 1403.13,700.923 C 1403.88,700.923 1404.54,701.291 1405.09,701.993 C 1405.62,702.699 1405.95,704.099 1406.09,706.152 L 1408.34,706.152 Z" marker-start="none" marker-end="none"/>
       <path d="M 1527.97,621.941 L 1505.99,621.941 L 1478.12,660.439 C 1476.06,660.366 1474.37,660.321 1473.1,660.321 C 1472.55,660.321 1471.97,660.321 1471.37,660.338 C 1470.78,660.366 1470.15,660.389 1469.51,660.439 L 1469.51,636.507 C 1469.51,631.335 1470.07,628.118 1471.22,626.835 C 1472.74,625.083 1475.01,624.185 1478.12,624.185 L 1481.34,624.185 L 1481.34,621.941 L 1446.05,621.941 L 1446.05,624.185 L 1449.16,624.185 C 1452.64,624.185 1455.13,625.325 1456.64,627.583 C 1457.47,628.839 1457.91,631.818 1457.91,636.507 L 1457.91,689.707 C 1457.91,694.884 1457.33,698.086 1456.21,699.37 C 1454.61,701.12 1452.28,702.005 1449.16,702.005 L 1446.05,702.005 L 1446.05,704.277 L 1476.06,704.277 C 1484.79,704.277 1491.24,703.633 1495.4,702.361 C 1499.55,701.063 1503.06,698.721 1505.95,695.312 C 1508.85,691.893 1510.31,687.815 1510.31,683.065 C 1510.31,678.017 1508.66,673.622 1505.33,669.895 C 1502.04,666.194 1496.95,663.554 1490.01,662 L 1507.02,638.404 C 1510.89,632.967 1514.26,629.374 1517.04,627.583 C 1519.82,625.807 1523.47,624.647 1527.97,624.185 L 1527.97,621.941 Z M 1469.51,664.258 C 1470.26,664.258 1470.94,664.249 1471.5,664.249 C 1472.08,664.222 1472.52,664.187 1472.9,664.187 C 1480.73,664.187 1486.67,665.896 1490.65,669.304 C 1494.65,672.697 1496.64,677.041 1496.64,682.289 C 1496.64,687.437 1495.02,691.611 1491.81,694.814 C 1488.57,698.044 1484.31,699.667 1479.02,699.667 C 1476.69,699.667 1473.51,699.268 1469.51,698.484 L 1469.51,664.258 Z" marker-start="none" marker-end="none"/>
       <path d="M 1594.47,706.152 C 1605.16,706.152 1614.4,702.093 1622.26,693.951 C 1630.09,685.869 1633.99,675.726 1633.99,663.596 C 1633.99,651.098 1630.03,640.703 1622.13,632.449 C 1614.24,624.185 1604.7,620.048 1593.51,620.048 C 1582.15,620.048 1572.64,624.083 1564.93,632.125 C 1557.21,640.194 1553.36,650.63 1553.36,663.412 C 1553.36,676.492 1557.81,687.137 1566.72,695.408 C 1574.44,702.575 1583.7,706.152 1594.47,706.152 Z M 1593.3,701.709 C 1585.95,701.709 1580.04,698.989 1575.57,693.53 C 1570.04,686.73 1567.24,676.759 1567.24,663.638 C 1567.24,650.21 1570.15,639.87 1575.87,632.646 C 1580.3,627.13 1586.12,624.364 1593.37,624.351 C 1601.13,624.364 1607.5,627.374 1612.52,633.407 C 1617.55,639.459 1620.1,648.942 1620.1,661.945 C 1620.1,676.024 1617.31,686.533 1611.75,693.457 C 1607.32,698.964 1601.17,701.709 1593.3,701.709 Z" marker-start="none" marker-end="none"/>
       <path d="M 1732.44,704.277 L 1678.33,626.918 L 1712.09,626.918 C 1717.28,626.918 1721.27,628.062 1724.03,630.32 C 1726.79,632.59 1729.25,637.175 1731.39,644.101 L 1733.42,643.748 L 1729.51,621.941 L 1662.5,621.941 L 1662.5,624.185 L 1715.32,699.37 L 1688.95,699.37 C 1684.6,699.37 1681.42,698.872 1679.46,697.918 C 1677.51,696.973 1676,695.601 1674.96,693.814 C 1673.95,692.007 1673,688.622 1672.14,683.668 L 1669.85,683.668 L 1671.54,704.277 L 1732.44,704.277 Z M 1705.49,710.699 L 1694.32,710.699 L 1682.76,730.8 L 1684.65,730.8 L 1701.23,717.933 L 1715.12,730.8 L 1716.97,730.8 L 1705.49,710.699 Z" marker-start="none" marker-end="none"/>
       <path d="M 1797.39,624.185 L 1797.39,621.941 L 1762.09,621.941 L 1762.09,624.185 L 1765.03,624.185 C 1768.42,624.185 1770.9,625.172 1772.41,627.157 C 1773.4,628.456 1773.89,631.571 1773.89,636.507 L 1773.89,689.707 C 1773.89,693.867 1773.64,696.602 1773.1,697.973 C 1772.69,698.964 1771.86,699.833 1770.59,700.567 C 1768.81,701.541 1766.96,702.005 1765.03,702.005 L 1762.09,702.005 L 1762.09,704.277 L 1797.39,704.277 L 1797.39,702.005 L 1794.4,702.005 C 1791.06,702.005 1788.59,701.048 1787.05,699.042 C 1786.05,697.749 1785.53,694.617 1785.53,689.707 L 1785.53,636.507 C 1785.53,632.35 1785.78,629.57 1786.33,628.229 C 1786.72,627.244 1787.6,626.355 1788.85,625.634 C 1790.59,624.647 1792.46,624.185 1794.4,624.185 L 1797.39,624.185 Z" marker-start="none" marker-end="none"/>
       <path d="M 1868.04,706.152 C 1878.72,706.152 1887.94,702.093 1895.8,693.951 C 1903.64,685.869 1907.56,675.726 1907.56,663.596 C 1907.56,651.098 1903.6,640.703 1895.69,632.449 C 1887.81,624.185 1878.26,620.048 1867.07,620.048 C 1855.69,620.048 1846.2,624.083 1838.48,632.125 C 1830.77,640.194 1826.92,650.63 1826.92,663.412 C 1826.92,676.492 1831.37,687.137 1840.27,695.408 C 1847.98,702.575 1857.24,706.152 1868.04,706.152 Z M 1866.87,701.709 C 1859.52,701.709 1853.59,698.989 1849.15,693.53 C 1843.59,686.73 1840.81,676.759 1840.81,663.638 C 1840.81,650.21 1843.7,639.87 1849.44,632.646 C 1853.86,627.13 1859.69,624.364 1866.92,624.351 C 1874.66,624.364 1881.06,627.374 1886.07,633.407 C 1891.1,639.459 1893.66,648.942 1893.66,661.945 C 1893.66,676.024 1890.86,686.533 1885.33,693.457 C 1880.86,698.964 1874.72,701.709 1866.87,701.709 Z" marker-start="none" marker-end="none"/>
      </g>
      <path d="M 591.698,475.37 L 622.024,445.198 C 627.031,440.217 631.264,436.82 634.806,435.012 C 638.329,433.237 641.858,432.205 645.369,431.952 L 645.369,429.708 L 606.221,429.708 L 606.221,431.952 C 608.565,431.952 610.245,432.344 611.269,433.147 C 612.303,433.94 612.821,434.815 612.821,435.786 C 612.821,436.747 612.643,437.62 612.248,438.408 C 611.867,439.131 610.615,440.61 608.44,442.688 L 580.041,470.813 L 580.041,444.278 C 580.041,440.118 580.311,437.338 580.83,435.997 C 581.241,435.012 582.073,434.121 583.37,433.4 C 585.119,432.417 586.953,431.952 588.917,431.952 L 591.698,431.952 L 591.698,429.708 L 556.611,429.708 L 556.611,431.952 L 559.501,431.952 C 562.917,431.952 565.386,432.94 566.923,434.926 C 567.879,436.224 568.376,439.338 568.376,444.278 L 568.376,497.474 C 568.376,501.634 568.123,504.415 567.599,505.785 C 567.194,506.758 566.371,507.602 565.089,508.336 C 563.328,509.308 561.465,509.773 559.501,509.773 L 556.611,509.773 L 556.611,512.047 L 591.698,512.047 L 591.698,509.773 L 588.917,509.773 C 586.98,509.773 585.145,509.354 583.37,508.408 C 582.113,507.73 581.256,506.788 580.746,505.47 C 580.286,504.191 580.041,501.496 580.041,497.474 L 580.041,472.254 C 580.83,473.04 583.611,475.607 588.353,479.97 C 600.38,490.987 607.649,498.348 610.173,502.015 C 611.247,503.636 611.778,505.051 611.778,506.253 C 611.778,507.224 611.345,508.028 610.514,508.744 C 609.682,509.447 608.225,509.773 606.221,509.773 L 604.318,509.773 L 604.318,512.047 L 634.564,512.047 L 634.564,509.773 C 632.801,509.762 631.166,509.494 629.697,509.058 C 628.232,508.604 626.455,507.774 624.378,506.475 C 622.263,505.22 619.666,503.145 616.591,500.31 C 615.701,499.522 611.6,495.359 604.248,487.866 L 591.698,475.37 Z" marker-start="none" marker-end="none"/>
      <path d="M 725.847,509.773 L 725.847,512.047 L 754.994,512.047 L 754.994,509.773 L 751.888,509.773 C 748.642,509.773 746.161,508.448 744.406,505.742 C 743.579,504.457 743.154,501.557 743.154,496.981 L 743.154,463.587 C 743.154,455.336 742.334,448.917 740.687,444.365 C 739.036,439.805 735.817,435.884 731.027,432.658 C 726.245,429.412 719.711,427.773 711.472,427.773 C 702.474,427.773 695.645,429.328 690.986,432.417 C 686.335,435.55 683.035,439.75 681.103,445.001 C 679.789,448.593 679.17,455.365 679.17,465.283 L 679.17,497.474 C 679.17,502.512 678.451,505.84 677.054,507.436 C 675.644,508.997 673.399,509.773 670.31,509.773 L 667.178,509.773 L 667.178,512.047 L 702.769,512.047 L 702.769,509.773 L 699.611,509.773 C 696.208,509.773 693.785,508.717 692.298,506.574 C 691.315,505.107 690.804,502.075 690.804,497.474 L 690.804,461.581 C 690.804,458.4 691.099,454.719 691.665,450.599 C 692.288,446.478 693.344,443.264 694.868,440.923 C 696.42,438.625 698.634,436.747 701.528,435.223 C 704.421,433.742 707.975,432.969 712.191,432.969 C 717.549,432.969 722.361,434.161 726.638,436.508 C 730.867,438.862 733.775,441.854 735.342,445.536 C 736.906,449.187 737.679,455.383 737.679,464.141 L 737.679,497.474 C 737.679,502.611 737.121,505.826 735.975,507.138 C 734.38,508.887 732.057,509.773 728.952,509.773 L 725.847,509.773 Z M 694.868,529.03 L 733.615,529.03 L 733.615,521.258 L 694.868,521.258 L 694.868,529.03 Z" marker-start="none" marker-end="none"/>
      <path d="M 862.429,429.708 L 840.432,429.708 L 812.573,468.207 C 810.502,468.132 808.832,468.091 807.534,468.091 C 807.015,468.091 806.439,468.091 805.832,468.106 C 805.223,468.132 804.574,468.158 803.957,468.207 L 803.957,444.278 C 803.957,439.104 804.518,435.884 805.66,434.603 C 807.199,432.852 809.495,431.952 812.573,431.952 L 815.776,431.952 L 815.776,429.708 L 780.512,429.708 L 780.512,431.952 L 783.614,431.952 C 787.094,431.952 789.564,433.092 791.089,435.351 C 791.92,436.605 792.359,439.584 792.359,444.278 L 792.359,497.474 C 792.359,502.652 791.769,505.855 790.652,507.138 C 789.087,508.887 786.73,509.773 783.614,509.773 L 780.512,509.773 L 780.512,512.047 L 810.502,512.047 C 819.261,512.047 825.692,511.4 829.857,510.129 C 834.001,508.829 837.514,506.49 840.419,503.08 C 843.298,499.66 844.736,495.582 844.736,490.831 C 844.736,485.784 843.113,481.391 839.799,477.66 C 836.512,473.96 831.409,471.323 824.463,469.767 L 841.451,446.172 C 845.34,440.736 848.699,437.143 851.491,435.351 C 854.274,433.575 857.945,432.417 862.429,431.952 L 862.429,429.708 Z M 803.957,472.024 C 804.704,472.024 805.394,472.016 805.943,472.016 C 806.521,471.988 806.985,471.954 807.344,471.954 C 815.181,471.954 821.118,473.661 825.115,477.072 C 829.094,480.466 831.096,484.808 831.096,490.056 C 831.096,495.204 829.487,499.38 826.273,502.581 C 823.056,505.812 818.781,507.436 813.474,507.436 C 811.137,507.436 807.947,507.036 803.957,506.253 L 803.957,472.024 Z" marker-start="none" marker-end="none"/>
      <path d="M 909.427,507.542 L 909.427,475.002 L 927.54,475.002 C 932.223,475.002 935.343,475.722 936.941,477.148 C 939.052,478.969 940.209,482.266 940.464,486.938 L 942.693,486.938 L 942.693,458.312 L 940.464,458.312 C 939.899,462.317 939.332,464.872 938.786,466.004 C 938.021,467.425 936.852,468.556 935.187,469.376 C 933.507,470.138 930.94,470.558 927.54,470.558 L 909.427,470.558 L 909.427,443.431 C 909.427,439.794 909.588,437.563 909.905,436.79 C 910.229,435.997 910.809,435.351 911.629,434.898 C 912.433,434.43 913.969,434.191 916.23,434.191 L 930.221,434.191 C 934.851,434.191 938.228,434.531 940.312,435.178 C 942.426,435.831 944.485,437.099 946.404,439.018 C 948.929,441.513 951.48,445.295 954.122,450.345 L 956.545,450.345 L 949.435,429.708 L 885.985,429.708 L 885.985,431.952 L 888.904,431.952 C 890.848,431.952 892.698,432.417 894.419,433.334 C 895.73,434.013 896.607,434.984 897.059,436.267 C 897.524,437.563 897.763,440.217 897.763,444.208 L 897.763,497.715 C 897.763,502.932 897.24,506.153 896.208,507.353 C 894.731,508.968 892.301,509.773 888.904,509.773 L 885.985,509.773 L 885.985,512.047 L 949.435,512.047 L 950.353,493.991 L 947.995,493.991 C 947.132,498.348 946.191,501.313 945.163,502.932 C 944.116,504.543 942.606,505.785 940.575,506.641 C 938.941,507.252 936.105,507.542 932.01,507.542 L 909.427,507.542 Z M 921.448,533.472 C 923.266,533.472 924.82,532.826 926.118,531.516 C 927.417,530.231 928.076,528.679 928.076,526.843 C 928.076,525.025 927.417,523.49 926.118,522.173 C 924.82,520.889 923.266,520.243 921.448,520.243 C 919.626,520.243 918.075,520.889 916.769,522.173 C 915.479,523.49 914.846,525.025 914.846,526.843 C 914.846,528.679 915.479,530.231 916.748,531.516 C 918.033,532.826 919.601,533.472 921.448,533.472 Z" marker-start="none" marker-end="none"/>
      <path d="M 993.91,509.773 L 993.91,512.047 L 1029.2,512.047 L 1029.2,509.773 L 1026.23,509.773 C 1022.85,509.773 1020.41,508.816 1018.85,506.81 C 1017.88,505.518 1017.41,502.384 1017.41,497.474 L 1017.41,457.201 C 1017.41,451.008 1016.73,445.999 1015.38,442.147 C 1014.01,438.285 1011.69,434.954 1008.39,432.093 C 1005.06,429.255 1001.02,427.815 996.327,427.815 C 992.546,427.815 989.54,428.761 987.353,430.665 C 985.164,432.545 984.067,434.688 984.067,437.114 C 984.067,439.104 984.588,440.61 985.605,441.613 C 986.928,442.882 988.496,443.489 990.289,443.489 C 991.57,443.489 992.739,443.037 993.739,442.219 C 994.803,441.361 996.101,439.104 997.697,435.419 C 998.638,433.245 999.811,432.131 1001.29,432.119 C 1002.35,432.131 1003.38,432.797 1004.34,434.121 C 1005.28,435.463 1005.76,437.833 1005.76,441.234 L 1005.76,497.474 C 1005.76,501.634 1005.49,504.371 1004.97,505.742 C 1004.56,506.732 1003.7,507.602 1002.42,508.336 C 1000.68,509.308 998.836,509.773 996.902,509.773 L 993.91,509.773 Z" marker-start="none" marker-end="none"/>
      <path d="M 1111.34,509.773 L 1111.34,512.047 L 1140.51,512.047 L 1140.51,509.773 L 1137.41,509.773 C 1134.16,509.773 1131.69,508.448 1129.93,505.742 C 1129.08,504.457 1128.66,501.557 1128.66,496.981 L 1128.66,463.587 C 1128.66,455.336 1127.85,448.917 1126.19,444.365 C 1124.57,439.805 1121.35,435.884 1116.54,432.658 C 1111.74,429.412 1105.23,427.773 1096.95,427.773 C 1087.98,427.773 1081.18,429.328 1076.5,432.417 C 1071.85,435.55 1068.54,439.75 1066.6,445.001 C 1065.3,448.593 1064.66,455.365 1064.67,465.283 L 1064.67,497.474 C 1064.66,502.512 1063.97,505.84 1062.57,507.436 C 1061.17,508.997 1058.92,509.773 1055.8,509.773 L 1052.72,509.773 L 1052.72,512.047 L 1088.3,512.047 L 1088.3,509.773 L 1085.14,509.773 C 1081.73,509.773 1079.3,508.717 1077.82,506.574 C 1076.83,505.107 1076.33,502.075 1076.33,497.474 L 1076.33,461.581 C 1076.33,458.4 1076.62,454.719 1077.19,450.599 C 1077.79,446.478 1078.86,443.264 1080.38,440.923 C 1081.94,438.625 1084.14,436.747 1087.04,435.223 C 1089.92,433.742 1093.49,432.969 1097.68,432.969 C 1103.08,432.969 1107.91,434.161 1112.17,436.508 C 1116.38,438.862 1119.3,441.854 1120.86,445.536 C 1122.41,449.187 1123.2,455.383 1123.2,464.141 L 1123.2,497.474 C 1123.2,502.611 1122.61,505.826 1121.49,507.138 C 1119.91,508.887 1117.57,509.773 1114.45,509.773 L 1111.34,509.773 Z M 1109.59,433.334 C 1108.45,432.119 1107.29,430.878 1106.1,429.58 C 1104.9,428.294 1103.83,426.941 1102.86,425.574 C 1101.9,424.22 1101.08,422.781 1100.43,421.3 C 1099.78,419.818 1099.44,418.279 1099.41,416.713 C 1099.32,414.602 1099.84,412.85 1101.01,411.428 C 1102.17,410.029 1103.75,409.325 1105.76,409.325 C 1106.55,409.325 1107.4,409.434 1108.39,409.731 C 1109.35,410.029 1110.25,410.377 1111.06,410.892 L 1111.94,409.126 C 1110.35,407.518 1108.68,406.204 1106.97,405.189 C 1105.27,404.176 1103.37,403.653 1101.17,403.653 C 1099.67,403.653 1098.29,403.893 1097.09,404.4 C 1095.88,404.921 1094.84,405.64 1093.99,406.518 C 1093.19,407.403 1092.56,408.42 1092.14,409.576 C 1091.73,410.735 1091.52,411.965 1091.57,413.246 C 1091.64,414.993 1092.05,416.702 1092.83,418.354 C 1093.62,419.99 1094.59,421.595 1095.8,423.019 C 1096.53,423.866 1097.27,424.67 1097.96,425.376 C 1098.68,426.065 1099.46,426.803 1100.31,427.578 C 1101.17,428.338 1102.14,429.182 1103.29,430.07 C 1104.39,430.966 1105.79,432.066 1107.47,433.334 L 1109.59,433.334 Z" marker-start="none" marker-end="none"/>
      <path d="M 1274.18,513.921 L 1274.18,485.456 L 1271.93,485.456 C 1271.2,490.901 1269.89,495.259 1268,498.489 C 1266.13,501.719 1263.46,504.3 1260,506.223 C 1256.49,508.108 1252.89,509.058 1249.15,509.058 C 1244.96,509.058 1241.48,507.787 1238.73,505.22 C 1235.96,502.624 1234.58,499.703 1234.58,496.447 C 1234.58,493.918 1235.47,491.636 1237.21,489.575 C 1239.7,486.527 1245.67,482.48 1255.11,477.43 C 1262.8,473.297 1268.05,470.123 1270.88,467.937 C 1273.69,465.72 1275.86,463.097 1277.37,460.133 C 1278.89,457.141 1279.64,453.997 1279.64,450.715 C 1279.64,444.473 1277.21,439.117 1272.39,434.603 C 1267.54,430.07 1261.34,427.815 1253.72,427.815 C 1251.33,427.815 1249.08,428.014 1246.97,428.379 C 1245.71,428.564 1243.13,429.328 1239.17,430.597 C 1235.22,431.85 1232.74,432.486 1231.69,432.486 C 1230.67,432.486 1229.87,432.205 1229.29,431.584 C 1228.7,430.976 1228.25,429.72 1227.97,427.815 L 1225.72,427.815 L 1225.72,456.059 L 1227.97,456.059 C 1229.03,450.138 1230.45,445.734 1232.23,442.797 C 1234.01,439.835 1236.72,437.392 1240.39,435.463 C 1244.06,433.546 1248.07,432.573 1252.46,432.558 C 1257.5,432.573 1261.5,433.88 1264.44,436.577 C 1267.38,439.213 1268.85,442.389 1268.85,446.044 C 1268.85,448.046 1268.28,450.108 1267.15,452.162 C 1266.05,454.239 1264.31,456.157 1261.98,457.951 C 1260.4,459.163 1256.1,461.739 1249.05,465.691 C 1242,469.628 1236.98,472.759 1234.02,475.127 C 1231.06,477.482 1228.77,480.067 1227.26,482.885 C 1225.71,485.736 1224.93,488.827 1224.93,492.239 C 1224.93,498.151 1227.22,503.258 1231.74,507.521 C 1236.28,511.777 1242.05,513.921 1249.05,513.921 C 1253.43,513.921 1258.04,512.85 1262.94,510.705 C 1265.21,509.69 1266.8,509.199 1267.75,509.199 C 1268.81,509.199 1269.65,509.494 1270.33,510.129 C 1270.98,510.748 1271.53,512.017 1271.93,513.921 L 1274.18,513.921 Z" marker-start="none" marker-end="none"/>
      <path d="M 1380.36,512.047 L 1381.31,492.722 L 1378.96,492.722 C 1378.56,496.133 1377.95,498.544 1377.16,500.03 C 1375.92,502.355 1374.23,504.092 1372.15,505.22 C 1370.06,506.303 1367.35,506.868 1363.93,506.868 L 1352.35,506.868 L 1352.35,443.966 C 1352.35,438.935 1352.88,435.776 1353.97,434.505 C 1355.52,432.797 1357.9,431.952 1361.08,431.952 L 1363.93,431.952 L 1363.93,429.708 L 1329.01,429.708 L 1329.01,431.952 L 1331.93,431.952 C 1335.43,431.952 1337.89,433.007 1339.36,435.109 C 1340.23,436.41 1340.69,439.368 1340.69,443.966 L 1340.69,506.868 L 1330.81,506.868 C 1326.97,506.868 1324.2,506.617 1322.59,506.023 C 1320.48,505.264 1318.68,503.749 1317.21,501.582 C 1315.68,499.38 1314.8,496.454 1314.51,492.722 L 1312.21,492.722 L 1313.17,512.047 L 1380.36,512.047 Z" marker-start="none" marker-end="none"/>
      <path d="M 1465.86,509.773 L 1465.86,512.047 L 1494.99,512.047 L 1494.99,509.773 L 1491.9,509.773 C 1488.66,509.773 1486.17,508.448 1484.44,505.742 C 1483.58,504.457 1483.15,501.557 1483.15,496.981 L 1483.15,463.587 C 1483.15,455.336 1482.34,448.917 1480.68,444.365 C 1479.04,439.805 1475.83,435.884 1471.06,432.658 C 1466.22,429.412 1459.7,427.773 1451.44,427.773 C 1442.47,427.773 1435.66,429.328 1431,432.417 C 1426.33,435.55 1423.03,439.75 1421.09,445.001 C 1419.82,448.593 1419.14,455.365 1419.16,465.283 L 1419.16,497.474 C 1419.14,502.512 1418.45,505.84 1417.05,507.436 C 1415.67,508.997 1413.41,509.773 1410.31,509.773 L 1407.2,509.773 L 1407.2,512.047 L 1442.8,512.047 L 1442.8,509.773 L 1439.64,509.773 C 1436.22,509.773 1433.79,508.717 1432.33,506.574 C 1431.31,505.107 1430.81,502.075 1430.81,497.474 L 1430.81,461.581 C 1430.81,458.4 1431.11,454.719 1431.69,450.599 C 1432.28,446.478 1433.36,443.264 1434.9,440.923 C 1436.42,438.625 1438.63,436.747 1441.55,435.223 C 1444.42,433.742 1448,432.969 1452.17,432.969 C 1457.58,432.969 1462.37,434.161 1466.65,436.508 C 1470.9,438.862 1473.8,441.854 1475.35,445.536 C 1476.9,449.187 1477.69,455.383 1477.69,464.141 L 1477.69,497.474 C 1477.69,502.611 1477.1,505.826 1475.99,507.138 C 1474.43,508.887 1472.07,509.773 1468.93,509.773 L 1465.86,509.773 Z" marker-start="none" marker-end="none"/>
      <path d="M 1520.59,429.708 L 1520.59,431.952 L 1523.67,431.952 C 1527.17,431.952 1529.62,433.078 1531.1,435.294 C 1531.98,436.634 1532.43,439.61 1532.43,444.278 L 1532.43,497.474 C 1532.43,502.611 1531.87,505.826 1530.72,507.138 C 1529.14,508.887 1526.79,509.773 1523.67,509.773 L 1520.59,509.773 L 1520.59,512.047 L 1554.11,512.047 C 1566.4,512.047 1575.78,510.665 1582.17,507.858 C 1588.6,505.051 1593.75,500.412 1597.67,493.895 C 1601.56,487.376 1603.53,479.84 1603.53,471.305 C 1603.53,459.827 1600.03,450.275 1593.07,442.572 C 1585.28,434.013 1573.35,429.708 1557.39,429.708 L 1520.59,429.708 Z M 1544.08,435.647 C 1549.22,434.531 1553.52,433.952 1557.02,433.952 C 1566.4,433.952 1574.18,437.24 1580.38,443.856 C 1586.57,450.446 1589.69,459.404 1589.69,470.697 C 1589.69,482.044 1586.57,491.028 1580.38,497.571 C 1574.18,504.149 1566.22,507.436 1556.53,507.436 C 1552.88,507.436 1548.72,506.839 1544.08,505.657 L 1544.08,435.647 Z" marker-start="none" marker-end="none"/>
      <path d="M 1668.76,431.952 L 1668.76,429.708 L 1633.46,429.708 L 1633.46,431.952 L 1636.41,431.952 C 1639.78,431.952 1642.26,432.94 1643.77,434.926 C 1644.76,436.224 1645.25,439.338 1645.25,444.278 L 1645.25,497.474 C 1645.25,501.634 1644.98,504.371 1644.46,505.742 C 1644.07,506.732 1643.22,507.602 1641.97,508.336 C 1640.19,509.308 1638.35,509.773 1636.41,509.773 L 1633.46,509.773 L 1633.46,512.047 L 1668.76,512.047 L 1668.76,509.773 L 1665.79,509.773 C 1662.41,509.773 1659.96,508.816 1658.41,506.81 C 1657.41,505.518 1656.92,502.384 1656.92,497.474 L 1656.92,444.278 C 1656.92,440.118 1657.16,437.338 1657.72,435.997 C 1658.12,435.012 1658.98,434.121 1660.24,433.4 C 1661.98,432.417 1663.83,431.952 1665.79,431.952 L 1668.76,431.952 Z" marker-start="none" marker-end="none"/>
      <path d="M 1706.3,509.773 L 1706.3,512.047 L 1741.6,512.047 L 1741.6,509.773 L 1738.61,509.773 C 1735.23,509.773 1732.82,508.816 1731.26,506.81 C 1730.27,505.518 1729.81,502.384 1729.81,497.474 L 1729.81,457.201 C 1729.81,451.008 1729.13,445.999 1727.78,442.147 C 1726.41,438.285 1724.06,434.954 1720.76,432.093 C 1717.43,429.255 1713.43,427.815 1708.71,427.815 C 1704.93,427.815 1701.93,428.761 1699.76,430.665 C 1697.54,432.545 1696.48,434.688 1696.48,437.114 C 1696.48,439.104 1696.97,440.61 1697.98,441.613 C 1699.31,442.882 1700.89,443.489 1702.68,443.489 C 1703.96,443.489 1705.12,443.037 1706.15,442.219 C 1707.19,441.361 1708.51,439.104 1710.07,435.419 C 1711.02,433.245 1712.2,432.131 1713.67,432.119 C 1714.76,432.131 1715.79,432.797 1716.71,434.121 C 1717.68,435.463 1718.14,437.833 1718.14,441.234 L 1718.14,497.474 C 1718.14,501.634 1717.88,504.371 1717.35,505.742 C 1716.95,506.732 1716.09,507.602 1714.8,508.336 C 1713.08,509.308 1711.24,509.773 1709.28,509.773 L 1706.3,509.773 Z" marker-start="none" marker-end="none"/>
      <path d="M 1821.31,457.255 L 1789.42,457.255 L 1783.86,444.278 C 1782.47,441.075 1781.8,438.692 1781.8,437.114 C 1781.8,435.875 1782.38,434.743 1783.6,433.826 C 1784.78,432.867 1787.36,432.249 1791.34,431.952 L 1791.34,429.708 L 1765.41,429.708 L 1765.41,431.952 C 1768.84,432.573 1771.06,433.334 1772.07,434.318 C 1774.14,436.267 1776.44,440.217 1778.94,446.172 L 1807.9,513.921 L 1810.04,513.921 L 1838.7,445.422 C 1841.01,439.923 1843.08,436.378 1844.94,434.717 C 1846.85,433.078 1849.47,432.157 1852.85,431.952 L 1852.85,429.708 L 1820.36,429.708 L 1820.36,431.952 C 1823.63,432.093 1825.83,432.658 1826.99,433.584 C 1828.13,434.531 1828.72,435.647 1828.72,436.988 C 1828.72,438.78 1827.91,441.601 1826.3,445.422 L 1821.31,457.255 Z M 1819.63,461.759 L 1805.66,495.048 L 1791.34,461.759 L 1819.63,461.759 Z" marker-start="none" marker-end="none"/>
     </g>
    </g>
   </g>
  </g>
 </g>
</svg>
