<svg xmlns="http://www.w3.org/2000/svg" stroke-width=".501" stroke-linejoin="bevel" fill-rule="evenodd" overflow="visible" width="192" height="192" viewBox="0 0 144 144" xmlns:v="https://vecta.io/nano"><style><![CDATA[.B{stroke:none}.C{fill:#000}.D{fill:#0d0d0d}]]></style><g transform="matrix(1 0 0 -1 0 144)" fill="none" stroke="#000"><mask id="A"><path d="M-14.4-14.4h172.8v172.8H-14.4z" class="B D"/></mask><g mask="url(#A)" class="B C"><path d="M83.21 77.439l5.525 20.947H76.873v7.372h13.649l4.411 17.958h-18.06v7.372h19.848L99.874 144h8.94l-3.154-12.912h18.773L127.587 144h9l-3.154-12.912h10.31v-7.372h-12.098l-4.47-17.959h16.568v-7.371h-18.356l-5.185-21.076h-8.939l5.124 21.076H97.674L92.488 77.31l-9.278.129zm34.965 28.318l4.47 17.959h-18.772l-4.411-17.959h18.713z"/></g><mask id="B"><path d="M-14.4-14.4h172.8v172.8H-14.4z" class="B D"/></mask><g mask="url(#B)" class="B C"><path d="M69.833 41.911l2.282 9.274h-4.432v3.244h5.218l1.941 7.901h-7.159v3.244h7.946l2.281 9.339h3.934l-2.282-9.339h8.26l2.282 9.339h3.96l-2.281-9.339h4.536V62.33h-5.323l-1.967-7.902h7.29v-3.243h-8.077l-2.281-9.274h-3.934l2.255 9.274h-8.234l-2.282-9.274h-3.933zm15.236 12.517l1.967 7.902h-8.26l-1.941-7.902h8.234z"/></g><mask id="C"><path fill="#151515" d="M-14.4-14.4h172.8v172.8H-14.4z" class="B"/></mask><g mask="url(#C)" class="B C"><path d="M37.779 92.61l3.112 12.646h-6.043v4.424h7.115l2.646 10.774h-9.761v4.423h10.835l3.111 12.735h5.364l-3.112-12.735h11.263l3.113 12.735h5.4l-3.112-12.735h6.186v-4.423h-7.258l-2.682-10.776h9.94v-4.422H62.882l-3.11-12.646h-5.364l3.074 12.646H46.255L43.142 92.61h-5.363zm20.777 17.068l2.682 10.776H49.975l-2.647-10.776h11.228z"/></g><mask id="D"><path fill="#191919" d="M-14.4-14.4h172.8v172.8H-14.4z" class="B"/></mask><g mask="url(#D)" class="B C"><path d="M97.751 35.01l.954 3.879h-1.854v1.356h2.183l.812 3.304h-2.995v1.357h3.323l.955 3.906h1.645l-.954-3.906h3.455l.955 3.906h1.655l-.954-3.906h1.898v-1.357h-2.227l-.823-3.304h3.05v-1.356h-3.378l-.955-3.879h-1.645l.944 3.879h-3.445l-.955-3.879h-1.644zm6.372 5.235l.823 3.304h-3.455l-.811-3.304h3.443z"/></g><mask id="E"><path d="M-14.4-14.4h172.8v172.8H-14.4z" class="B D"/></mask><g mask="url(#E)" class="B C"><path d="M53.452 70.56l1.245 5.059h-2.418v1.769h2.847l1.059 4.31h-3.906v1.77h4.334l1.245 5.094h2.146l-1.245-5.094h4.507l1.245 5.094h2.159l-1.244-5.094h2.475v-1.77h-2.904l-1.074-4.31h3.978v-1.769h-4.406L62.25 70.56h-2.146l1.231 5.059h-4.493l-1.245-5.059h-2.145zm8.311 6.828l1.074 4.31H58.33l-1.057-4.31h4.49z"/></g><mask id="F"><path d="M-14.4-14.4h172.8v172.8H-14.4z" class="B D"/></mask><g mask="url(#F)" class="B C"><path d="M10.687 105.81l1.868 7.588H8.928v2.654h4.27l1.589 6.464H8.928v2.655h6.501l1.867 7.641h3.219l-1.867-7.641h6.76l1.867 7.641h3.239l-1.866-7.641h3.712v-2.655h-4.356l-1.611-6.464h5.967v-2.654h-6.609l-1.867-7.588h-3.219l1.846 7.588h-6.739l-1.867-7.588h-3.218zm12.466 10.242l1.611 6.464h-6.76l-1.585-6.464h6.734z"/></g><mask id="G"><path fill="#202020" d="M-14.4-14.4h172.8v172.8H-14.4z" class="B"/></mask><g mask="url(#G)" class="B C"><path d="M116.766 52.935l1.608 6.534h-3.123v2.285h3.677l1.368 5.567h-5.045v2.286h5.598l1.608 6.58h2.772l-1.608-6.58h5.821l1.608 6.58h2.789l-1.607-6.58h3.197v-2.286h-3.751l-1.387-5.567h5.138v-2.285h-5.691l-1.608-6.534h-2.772l1.59 6.534h-5.803l-1.608-6.534h-2.771zm10.735 8.819l1.387 5.567h-5.821l-1.366-5.567h5.8z"/></g><mask id="H"><path d="M-14.4-14.4h172.8v172.8H-14.4z" class="B D"/></mask><g mask="url(#H)" class="B C"><path d="M56.768 34.072l.694 2.825h-1.35v.988h1.59l.591 2.406h-2.181v.988h2.42l.696 2.845h1.198l-.695-2.845h2.516l.696 2.845h1.205l-.695-2.845h1.383v-.988h-1.622l-.6-2.406h2.222v-.988h-2.46l-.696-2.825h-1.198l.688 2.825h-2.509l-.696-2.825h-1.197zm4.64 3.813l.6 2.406h-2.516l-.591-2.406h2.507z"/></g><mask id="I"><path d="M-14.4-14.4h172.8v172.8H-14.4z" class="B D"/></mask><g mask="url(#I)" class="B C"><path d="M127.658 24.004l.954 3.879h-1.854v1.356h2.183l.812 3.304h-2.995V33.9h3.323l.955 3.906h1.645l-.954-3.906h3.455l.955 3.906h1.655l-.954-3.906h1.898v-1.357h-2.227l-.823-3.304h3.05v-1.356h-3.378l-.955-3.879h-1.645l.944 3.879h-3.445l-.955-3.879h-1.644zm6.372 5.235l.823 3.304h-3.455l-.811-3.304h3.443z"/></g><mask id="J"><path d="M-14.4-14.4h172.8v172.8H-14.4z" class="B D"/></mask><g mask="url(#J)" class="B C"><path d="M2.151 129.941l.694 2.825h-1.35v.988h1.59l.591 2.406H1.495v.988h2.42l.696 2.845h1.198l-.695-2.845H7.63l.696 2.845h1.205l-.695-2.845h1.383v-.988H8.597l-.6-2.406h2.222v-.988h-2.46l-.696-2.825H5.865l.688 2.825H4.044l-.696-2.825H2.151zm4.64 3.813l.6 2.406H4.875l-.591-2.406h2.507z"/></g><mask id="K"><path d="M-14.4-14.4h172.8v172.8H-14.4z" class="B D"/></mask><g mask="url(#K)" class="B C"><path d="M29.876 71.91l.954 3.879h-1.854v1.356h2.183l.812 3.304h-2.995v1.357h3.323l.955 3.906h1.645l-.954-3.906H37.4l.955 3.906h1.655l-.954-3.906h1.898v-1.357h-2.227l-.823-3.304h3.05v-1.356h-3.378l-.955-3.879h-1.645l.944 3.879h-3.445l-.955-3.879h-1.644zm6.372 5.235l.823 3.304h-3.455l-.811-3.304h3.443z"/></g></g></svg>