<?xml version="1.0" standalone="no"?>
<!DOCTYPE svg PUBLIC "-//W3C//DTD SVG 1.1//EN" "http://www.w3.org/Graphics/SVG/1.1/DTD/svg11.dtd">
<!--Generator: Xara Designer (www.xara.com), SVG filter version: 4.0.0.1-->
<svg stroke-width="0.501" stroke-linejoin="bevel" fill-rule="evenodd" xmlns:xlink="http://www.w3.org/1999/xlink" xmlns="http://www.w3.org/2000/svg" version="1.1" overflow="visible" width="552.75pt" height="252pt" viewBox="0 0 552.75 252">
 <defs>
  <marker id="DefaultArrow2" markerUnits="strokeWidth" viewBox="0 0 1 1" markerWidth="1" markerHeight="1" overflow="visible" orient="auto">
   <!-- REF_ARROW_STRAIGHT (-2) -->
   <g transform="scale(0.0092592592)">
    <!-- 1/108 -->
    <path d="M -9 54 L -9 -54 L 117 0 z"/>
   </g>
  </marker>
  <marker id="DefaultArrow3" markerUnits="strokeWidth" viewBox="0 0 1 1" markerWidth="1" markerHeight="1" overflow="visible" orient="auto">
   <!-- REF_ARROW_ANGLED -->
   <g transform="scale(0.0092592592)">
    <path d="M -27 54 L -9 0 L -27 -54 L 135 0 z"/>
   </g>
  </marker>
  <marker id="DefaultArrow4" markerUnits="strokeWidth" viewBox="0 0 1 1" markerWidth="1" markerHeight="1" overflow="visible" orient="auto">
   <!-- REF_ARROW_ROUNDED -->
   <g transform="scale(0.0092592592)">
    <path d="M -9,0 L -9,-45 C -9,-51.708 2.808,-56.580 9,-54 L 117,-9 C 120.916,-7.369 126.000,-4.242 126,0 C 126,4.242 120.916,7.369 117,9 L 9,54 C 2.808,56.580 -9,51.708 -9,45 z"/>
   </g>
  </marker>
  <marker id="DefaultArrow5" markerUnits="strokeWidth" viewBox="0 0 1 1" markerWidth="1" markerHeight="1" overflow="visible" orient="auto">
   <!-- REF_ARROW_SPOT -->
   <g transform="scale(0.0092592592)">
    <path d="M -54, 0 C -54,29.807 -29.807,54 0,54 C 29.807,54 54,29.807 54,0 C 54,-29.807 29.807,-54 0,-54 C -29.807,-54 -54,-29.807 -54,0 z"/>
   </g>
  </marker>
  <marker id="DefaultArrow6" markerUnits="strokeWidth" viewBox="0 0 1 1" markerWidth="1" markerHeight="1" overflow="visible" orient="auto">
   <!-- REF_ARROW_DIAMOND -->
   <g transform="scale(0.0092592592)">
    <path d="M -63,0 L 0,63 L 63,0 L 0,-63 z"/>
   </g>
  </marker>
  <marker id="DefaultArrow7" markerUnits="strokeWidth" viewBox="0 0 1 1" markerWidth="1" markerHeight="1" overflow="visible" orient="auto">
   <!-- REF_ARROW_FEATHER -->
   <g transform="scale(0.0092592592)">
    <path d="M 18,-54 L 108,-54 L 63,0 L 108,54 L 18, 54 L -36,0 z"/>
   </g>
  </marker>
  <marker id="DefaultArrow8" markerUnits="strokeWidth" viewBox="0 0 1 1" markerWidth="1" markerHeight="1" overflow="visible" orient="auto">
   <!-- REF_ARROW_FEATHER2 -->
   <g transform="scale(0.0092592592)">
    <path d="M -36,0 L 18,-54 L 54,-54 L 18,-18 L 27,-18 L 63,-54 L 99,-54 L 63,-18 L 72,-18 L 108,-54 L 144,-54 L 90,0 L 144,54 L 108,54 L 72,18 L 63,18 L 99,54 L 63,54 L 27,18 L 18,18 L 54,54 L 18,54 z"/>
   </g>
  </marker>
  <marker id="DefaultArrow9" markerUnits="strokeWidth" viewBox="0 0 1 1" markerWidth="1" markerHeight="1" overflow="visible" orient="auto">
   <!-- REF_ARROW_HOLLOWDIAMOND -->
   <g transform="scale(0.0092592592)">
    <path d="M 0,45 L -45,0 L 0, -45 L 45, 0 z M 0, 63 L-63, 0 L 0, -63 L 63, 0 z"/>
   </g>
  </marker>
  <filter id="StainedFilter">
   <feBlend mode="multiply" in2="BackgroundImage" in="SourceGraphic" result="blend"/>
   <feComposite in="blend" in2="SourceAlpha" operator="in" result="comp"/>
  </filter>
  <filter id="BleachFilter">
   <feBlend mode="screen" in2="BackgroundImage" in="SourceGraphic" result="blend"/>
   <feComposite in="blend" in2="SourceAlpha" operator="in" result="comp"/>
  </filter>
  <filter id="InvertTransparencyBitmapFilter">
   <feComponentTransfer>
    <feFuncR type="gamma" amplitude="1.055" exponent=".416666666" offset="-0.055"/>
    <feFuncG type="gamma" amplitude="1.055" exponent=".416666666" offset="-0.055"/>
    <feFuncB type="gamma" amplitude="1.055" exponent=".416666666" offset="-0.055"/>
   </feComponentTransfer>
   <feComponentTransfer>
    <feFuncR type="linear" slope="-1" intercept="1"/>
    <feFuncG type="linear" slope="-1" intercept="1"/>
    <feFuncB type="linear" slope="-1" intercept="1"/>
    <feFuncA type="linear" slope="1" intercept="0"/>
   </feComponentTransfer>
   <feComponentTransfer>
    <feFuncR type="gamma" amplitude="1" exponent="2.4" offset="0"/>
    <feFuncG type="gamma" amplitude="1" exponent="2.4" offset="0"/>
    <feFuncB type="gamma" amplitude="1" exponent="2.4" offset="0"/>
   </feComponentTransfer>
  </filter>
  <linearGradient id="LinearGradient" gradientUnits="userSpaceOnUse" x1="0" y1="0" x2="505.157" y2="0" gradientTransform="translate(5.889 191.185) rotate(-15.643) skewX(0.657582)">
   <stop offset="0" stop-color="#6a22ff"/>
   <stop offset="1" stop-color="#ff0000"/>
  </linearGradient>
  <linearGradient id="LinearGradient_1" gradientUnits="userSpaceOnUse" x1="0" y1="0" x2="505.157" y2="0" gradientTransform="translate(5.889 191.185) rotate(-15.643) skewX(0.657582)">
   <stop offset="0" stop-color="#6a22ff"/>
   <stop offset="1" stop-color="#ff0000"/>
  </linearGradient>
  <linearGradient id="LinearGradient_2" gradientUnits="userSpaceOnUse" x1="0" y1="0" x2="505.157" y2="0" gradientTransform="translate(5.889 191.185) rotate(-15.643) skewX(0.657582)">
   <stop offset="0" stop-color="#6a22ff"/>
   <stop offset="1" stop-color="#ff0000"/>
  </linearGradient>
  <linearGradient id="LinearGradient_3" gradientUnits="userSpaceOnUse" x1="0" y1="0" x2="505.157" y2="0" gradientTransform="translate(5.889 191.185) rotate(-15.643) skewX(0.657582)">
   <stop offset="0" stop-color="#6a22ff"/>
   <stop offset="1" stop-color="#ff0000"/>
  </linearGradient>
 </defs>
 <g id="Document" fill="none" stroke="black" font-family="Times New Roman" font-size="16" transform="scale(1 -1)">
  <g id="Spread" transform="translate(0 -252)">
   <g id="SVG Document">
    <path d="M 0.055,126.511 C 0.139,125.738 0.348,124.797 0.7,123.687 C 1.049,122.586 1.522,121.489 2.113,120.401 C 2.711,119.313 3.408,118.399 4.207,117.672 C 5.014,116.941 5.917,116.559 6.895,116.528 C 7.115,116.526 7.373,116.569 7.661,116.653 C 7.954,116.741 8.278,116.894 8.644,117.101 C 9.474,117.679 9.852,118.303 9.796,118.973 C 9.727,119.642 9.489,120.3 9.078,120.948 C 8.375,122.803 8.074,124.623 8.171,126.424 C 8.263,128.222 8.62,130.013 9.226,131.792 C 10.097,134.142 11.087,136.428 12.213,138.656 C 13.338,140.884 14.62,143.062 16.077,145.197 C 18.31,148.418 20.507,151.672 22.671,154.953 C 24.834,158.226 27.107,161.443 29.483,164.594 C 30.93,166.422 32.696,168.494 34.794,170.804 C 36.893,173.124 39.185,175.391 41.674,177.625 C 44.168,179.855 46.722,181.764 49.352,183.345 C 51.976,184.934 54.539,185.898 57.04,186.272 C 58.543,186.321 59.706,186.145 60.511,185.732 C 61.321,185.321 61.965,184.362 62.442,182.844 C 62.939,181.631 63.323,180.386 63.579,179.124 C 63.844,177.857 64.044,176.578 64.172,175.288 C 64.373,171.374 64.306,167.475 63.964,163.613 C 63.62,159.744 63.113,155.891 62.442,152.042 C 61.371,145.632 60.085,139.273 58.593,132.947 C 57.096,126.625 55.709,120.3 54.412,113.965 C 52.544,105.05 50.997,96.098 49.746,87.098 C 48.501,78.097 47.823,69.037 47.708,59.911 C 47.578,55.696 48.056,51.688 49.15,47.912 C 50.236,44.14 52.284,40.68 55.29,37.521 C 56.29,36.438 57.268,35.571 58.214,34.926 C 59.173,34.277 60.203,33.816 61.308,33.53 C 62.42,33.247 63.719,33.115 65.196,33.115 C 67.751,33.143 70.254,33.642 72.697,34.619 C 75.148,35.595 77.505,36.868 79.763,38.437 C 82.034,40.01 84.169,41.698 86.175,43.512 C 88.19,45.325 90.036,47.086 91.715,48.787 C 95.508,52.568 99.19,56.488 102.763,60.535 C 106.327,64.587 109.795,68.749 113.15,73.035 C 121.655,83.918 129.746,95.096 137.417,106.585 C 145.091,118.07 152.014,130.037 158.192,142.486 C 163.828,153.954 169.273,165.501 174.53,177.124 C 179.783,188.751 184.686,200.535 189.232,212.5 C 191,217.203 192.634,221.979 194.131,226.826 C 195.628,231.681 196.86,236.601 197.832,241.584 C 198.352,243.796 198.288,245.764 197.647,247.491 C 197,249.213 195.705,250.72 193.748,252 C 193.593,251.854 193.466,251.686 193.346,251.503 C 193.234,251.314 193.167,251.151 193.167,251 C 192.647,248.157 191.955,245.366 191.099,242.626 C 190.245,239.883 189.434,237.126 188.677,234.373 C 187.914,231.615 187.424,228.789 187.192,225.899 C 187.112,225.477 187.007,225.077 186.88,224.688 C 186.751,224.303 186.607,223.901 186.461,223.475 C 185.663,221.544 184.858,219.592 184.037,217.63 C 183.22,215.663 182.383,213.719 181.504,211.781 C 178.876,206.221 176.233,200.658 173.584,195.086 C 170.931,189.512 168.328,183.911 165.767,178.283 C 164.439,175.373 163.052,172.529 161.594,169.757 C 160.142,167 158.718,164.228 157.318,161.456 C 157.046,160.953 156.781,160.497 156.512,160.08 C 156.248,159.671 155.833,159.317 155.276,159.029 C 155.291,159.871 155.437,160.575 155.71,161.155 C 155.988,161.723 156.274,162.254 156.585,162.74 C 157.671,164.873 158.742,166.985 159.796,169.067 C 160.849,171.15 161.912,173.223 162.996,175.288 C 163.213,175.767 163.396,176.253 163.555,176.737 C 163.71,177.229 163.71,177.702 163.561,178.163 C 163.409,178.621 162.981,179.038 162.275,179.425 C 161.714,179.061 161.267,178.62 160.94,178.087 C 160.617,177.563 160.28,177.006 159.944,176.431 C 158.34,173.715 156.731,171.013 155.112,168.318 C 153.491,165.624 151.85,162.957 150.173,160.317 C 144.384,150.952 138.58,141.613 132.776,132.289 C 126.966,122.971 120.911,113.765 114.604,104.695 C 112.199,101.235 109.522,97.422 106.552,93.251 C 103.594,89.088 100.432,84.804 97.076,80.404 C 93.719,76.002 90.251,71.712 86.668,67.539 C 83.087,63.369 79.479,59.544 75.821,56.068 C 72.179,52.581 68.588,49.684 65.052,47.366 C 64.617,47.073 64.244,46.865 63.943,46.721 C 63.639,46.581 63.379,46.506 63.169,46.506 C 62.801,46.506 62.515,46.693 62.294,47.061 C 62.08,47.435 61.934,48.005 61.861,48.787 C 61.784,49.635 61.724,50.473 61.679,51.279 C 61.644,52.099 61.651,52.925 61.721,53.78 C 61.752,57.266 61.861,60.748 62.042,64.208 C 62.222,67.68 62.693,71.188 63.453,74.749 C 63.773,73.686 63.893,72.7 63.801,71.785 C 63.704,70.872 63.639,69.956 63.599,69.039 C 63.599,69.039 63.599,69.039 63.599,69.039 L 63.599,68.896 C 64.086,69.334 64.384,69.814 64.513,70.345 C 64.62,70.867 64.71,71.388 64.76,71.889 C 65.489,77.88 66.321,83.838 67.257,89.771 C 68.181,95.708 69.198,101.631 70.284,107.546 C 71.781,115.595 73.207,123.636 74.574,131.661 C 75.938,139.695 77.036,147.775 77.869,155.891 C 78.206,159.678 78.303,163.486 78.159,167.301 C 78.023,171.122 77.387,174.931 76.265,178.706 C 75.492,181.541 74.265,184.076 72.57,186.34 C 70.873,188.601 68.512,190.284 65.489,191.404 C 64.543,191.751 63.668,192.159 62.857,192.619 C 62.046,193.075 61.276,193.62 60.552,194.258 C 59.421,195.122 58.025,195.806 56.346,196.31 C 54.675,196.828 52.911,197.084 51.056,197.092 C 49.52,197.094 48.047,196.879 46.647,196.462 C 45.25,196.032 44.004,195.393 42.895,194.546 C 38.313,190.893 34.113,187.237 30.294,183.564 C 26.464,179.894 22.97,176.064 19.795,172.085 C 16.615,168.094 13.704,163.8 11.048,159.205 C 8.398,154.605 5.947,149.563 3.698,144.055 C 2.498,141.275 1.547,138.426 0.844,135.495 C 0.139,132.581 -0.126,129.585 0.055,126.511 Z M 56.305,56.208 C 56.69,65.047 57.492,73.852 58.719,82.623 C 59.939,91.39 61.472,100.132 63.311,108.83 C 64.216,113.114 65.052,117.408 65.812,121.719 C 66.581,126.024 67.485,130.285 68.54,134.501 C 69.009,136.549 69.385,138.602 69.667,140.666 C 69.959,142.731 70.25,144.778 70.572,146.832 C 70.88,148.874 71.321,150.902 71.888,152.896 C 72.011,153.47 72.056,154.072 72.02,154.704 C 71.983,155.339 71.989,156.003 72.048,156.697 C 72.11,157.399 72.347,158.13 72.761,158.882 C 73.116,157.831 73.295,156.882 73.314,156.033 C 73.333,155.194 73.295,154.382 73.204,153.61 C 72.815,149.405 72.278,145.199 71.594,141.01 C 70.919,136.817 70.239,132.652 69.562,128.515 C 67.841,118.245 66.227,107.97 64.71,97.674 C 63.192,87.371 62.05,77.02 61.279,66.618 C 61.051,63.405 60.85,60.165 60.681,56.899 C 60.506,53.638 60.408,50.357 60.407,47.073 C 60.427,46.357 60.309,45.766 60.057,45.31 C 59.805,44.859 59.287,44.59 58.507,44.512 C 57.642,44.497 57.061,44.665 56.745,45.009 C 56.436,45.353 56.288,45.945 56.305,46.792 C 56.158,49.929 56.158,53.066 56.305,56.208 Z M 65.341,39.235 C 70.159,41.898 74.91,45.261 79.587,49.329 C 84.268,53.393 88.823,57.894 93.252,62.834 C 97.678,67.773 101.927,72.895 105.981,78.192 C 110.042,83.496 113.862,88.713 117.446,93.853 C 121.025,98.998 124.302,103.794 127.288,108.26 C 127.648,108.761 128.017,109.26 128.397,109.759 C 128.774,110.26 129.187,110.757 129.619,111.256 C 129.509,110.06 129.177,108.987 128.634,108.047 C 128.089,107.095 127.544,106.174 126.998,105.267 C 124.145,100.347 121.212,95.453 118.197,90.593 C 115.18,85.727 112.135,80.875 109.07,76.03 C 106.353,71.844 103.394,67.881 100.194,64.141 C 96.986,60.401 93.627,56.755 90.115,53.209 C 89.967,53.058 89.825,52.897 89.678,52.729 C 89.534,52.559 89.386,52.436 89.24,52.355 C 86.784,51.327 84.492,50.071 82.363,48.585 C 80.23,47.093 78.144,45.547 76.101,43.951 C 74.049,42.355 71.921,40.88 69.704,39.521 C 69.093,39.053 68.57,38.706 68.142,38.48 C 67.712,38.251 67.267,38.106 66.805,38.038 C 66.347,37.975 65.762,37.939 65.052,37.952 C 64.919,38.367 64.891,38.678 64.978,38.861 C 65.06,39.046 65.179,39.171 65.341,39.235 Z M 71.013,177.991 C 72.381,175.212 73.228,172.372 73.531,169.479 C 73.845,166.581 73.733,163.671 73.204,160.744 C 72.74,161.646 72.465,162.575 72.385,163.536 C 72.306,164.482 72.28,165.447 72.318,166.413 C 72.347,167.38 72.301,168.338 72.177,169.297 C 72.033,170.795 71.852,172.266 71.65,173.701 C 71.45,175.141 71.235,176.576 71.013,177.991 Z M 73.649,37.807 C 75.413,39.926 77.381,41.822 79.55,43.495 C 81.713,45.17 83.974,46.744 86.324,48.218 C 84.563,46.147 82.61,44.229 80.473,42.474 C 78.335,40.725 76.052,39.166 73.649,37.807 Z M 57.913,193.684 L 48.436,193.684 C 49.305,194.118 50.146,194.467 50.95,194.721 C 51.754,194.978 52.516,195.112 53.245,195.114 C 53.969,195.118 54.707,195.007 55.472,194.774 C 56.225,194.546 57.044,194.179 57.913,193.684 Z M 60.407,37.665 C 60.629,37.737 60.807,37.737 60.952,37.644 C 61.1,37.562 61.205,37.379 61.279,37.096 C 61.205,37.02 61.136,36.928 61.066,36.827 C 60.993,36.732 60.917,36.679 60.846,36.672 C 60.61,36.657 60.408,36.679 60.238,36.743 C 60.064,36.797 59.98,36.96 59.965,37.24 C 59.98,37.321 60.033,37.412 60.132,37.506 C 60.229,37.603 60.324,37.659 60.407,37.665 Z" fill-rule="nonzero" stroke-linejoin="round" stroke-linecap="round" stroke="none" stroke-opacity="0.247059" stroke-width="3.389" marker-start="none" marker-end="none" stroke-miterlimit="79.8403193612775" fill-opacity="0.247059" fill="url(#LinearGradient)"/>
    <path d="M 147.119,50.49 C 148.008,46.966 149.5,43.977 151.594,41.521 C 153.684,39.065 156.228,37.197 159.243,35.92 C 162.254,34.64 165.591,33.991 169.258,33.984 C 173.711,34.044 178.106,34.99 182.439,36.812 C 186.768,38.638 190.948,41.009 194.984,43.917 C 199.01,46.818 202.799,49.916 206.354,53.209 C 209.902,56.496 213.123,59.638 216.015,62.619 C 223.726,70.334 231.298,78.181 238.734,86.165 C 246.17,94.149 253.554,102.177 260.903,110.254 C 261.388,110.905 261.95,111.557 262.58,112.215 C 263.21,112.866 264.061,113.451 265.13,113.961 C 264.377,110.183 263.592,106.514 262.78,102.96 C 261.972,99.409 260.855,95.988 259.446,92.709 C 259.122,93.412 259.048,94.1 259.226,94.777 C 259.406,95.448 259.627,96.139 259.885,96.844 C 259.971,97.205 260.088,97.562 260.23,97.915 C 260.372,98.27 260.453,98.626 260.463,98.984 C 260.453,99.272 260.519,99.586 260.665,99.913 C 260.818,100.237 260.702,100.545 260.325,100.839 C 260.249,100.773 260.182,100.727 260.117,100.693 C 260.064,100.665 260.034,100.613 260.027,100.556 C 257.711,92.055 254.804,83.802 251.299,75.789 C 247.806,67.779 243.62,60.059 238.755,52.63 C 236.087,48.503 233.121,44.342 229.864,40.136 C 226.615,35.932 223.118,31.847 219.366,27.888 C 215.622,23.937 211.693,20.273 207.558,16.902 C 203.427,13.528 199.156,10.612 194.741,8.156 C 194.522,8.012 194.335,7.907 194.154,7.836 C 193.982,7.764 193.783,7.726 193.576,7.726 C 193.499,7.726 193.402,7.735 193.284,7.749 C 193.167,7.762 193.068,7.808 192.989,7.871 C 192.645,8.088 192.46,8.371 192.445,8.694 C 192.424,9.022 192.46,9.369 192.553,9.726 C 192.696,10.227 192.845,10.758 193.026,11.319 C 193.208,11.868 193.436,12.439 193.72,13.007 C 194.941,15.772 196.769,18.932 199.206,22.477 C 201.642,26.023 204.36,29.649 207.341,33.339 C 210.336,37.04 213.267,40.485 216.138,43.691 C 219.015,46.899 221.507,49.549 223.595,51.632 C 224.116,52.036 224.602,52.475 225.058,52.927 C 225.498,53.393 225.84,54.008 226.073,54.77 C 225.714,54.851 225.384,54.939 225.071,55.038 C 224.763,55.135 224.47,55.187 224.176,55.198 C 223.965,55.202 223.774,55.193 223.619,55.163 C 223.451,55.135 223.301,55.051 223.157,54.912 C 222.198,54.441 221.211,53.995 220.185,53.576 C 219.174,53.155 218.219,52.602 217.329,51.912 C 215.374,50.299 213.13,48.366 210.586,46.112 C 208.054,43.852 205.408,41.405 202.664,38.762 C 199.918,36.119 197.251,33.41 194.664,30.632 C 192.086,27.853 189.768,25.129 187.721,22.464 C 185.674,19.796 184.086,17.31 182.945,15.007 C 182.071,13.024 181.854,11.1 182.3,9.231 C 182.743,7.363 183.581,5.72 184.813,4.305 C 186.045,2.902 187.411,1.89 188.91,1.294 C 189.996,0.866 191.064,0.544 192.101,0.328 C 193.139,0.12 194.165,0.006 195.18,0.006 C 197.4,0.049 199.649,0.53 201.917,1.453 C 204.182,2.371 206.21,3.462 208.003,4.722 C 215.888,10.136 223.14,16.16 229.754,22.793 C 236.368,29.432 242.228,36.76 247.35,44.79 C 250.019,49.153 252.475,53.651 254.707,58.281 C 256.946,62.915 259.105,67.597 261.191,72.308 C 262.147,74.316 263.014,76.374 263.799,78.488 C 264.584,80.594 265.272,82.724 265.857,84.864 C 267.057,89.137 268.211,93.431 269.317,97.719 C 270.43,102.02 271.31,106.349 271.974,110.707 C 272.622,115.064 272.875,119.474 272.71,123.943 C 272.733,124.231 272.818,124.541 272.961,124.855 C 273.108,125.177 273.181,125.47 273.185,125.738 C 273.185,126.009 272.977,126.222 272.562,126.369 C 272.205,126.523 271.835,126.676 271.456,126.829 C 271.074,126.984 270.667,127.068 270.233,127.083 C 269.73,127.059 269.164,126.865 268.551,126.474 C 267.928,126.096 267.368,125.638 266.865,125.115 C 266.36,124.584 266.026,124.106 265.857,123.659 C 265.558,122.707 265.096,121.829 264.472,121.034 C 263.852,120.247 263.098,119.69 262.216,119.375 C 261.134,119.003 260.167,118.477 259.319,117.793 C 258.471,117.111 257.694,116.406 256.969,115.67 L 240.357,99.412 C 234.246,93.623 228.143,87.832 222.047,82.051 C 215.955,76.261 209.811,70.541 203.629,64.896 C 199.857,61.395 196.036,57.957 192.178,54.606 C 188.312,51.258 184.316,48.08 180.188,45.072 C 177.857,43.418 175.45,42.125 172.956,41.199 C 170.464,40.276 167.873,39.807 165.18,39.796 C 163.028,39.745 161.034,40.061 159.187,40.736 C 157.347,41.422 155.897,42.77 154.833,44.79 C 153.385,47.843 152.355,50.953 151.74,54.114 C 151.125,57.264 150.895,60.479 151.042,63.756 C 151.28,67.812 151.766,71.813 152.508,75.774 C 153.244,79.727 154.17,83.656 155.274,87.574 C 155.525,88.447 156.022,89.864 156.76,91.825 C 157.508,93.788 158.402,96.001 159.445,98.482 C 160.488,100.953 161.576,103.407 162.716,105.83 C 163.862,108.256 164.95,110.372 165.997,112.178 C 167.036,113.985 167.929,115.197 168.673,115.81 C 168.122,114.264 167.475,112.731 166.726,111.213 C 165.978,109.699 165.367,108.095 164.886,106.402 C 165.307,106.551 165.598,106.746 165.763,106.983 C 165.929,107.228 166.073,107.454 166.197,107.686 C 170.778,116.397 176.001,124.652 181.872,132.445 C 187.734,140.247 194.312,147.539 201.591,154.319 C 205.835,158.252 210.446,162.108 215.432,165.875 C 220.421,169.641 225.686,173.058 231.225,176.128 C 236.773,179.193 242.501,181.638 248.417,183.465 C 254.339,185.289 260.342,186.222 266.444,186.272 C 267.986,186.158 269.239,185.781 270.196,185.14 C 271.157,184.515 271.747,183.465 271.977,181.99 C 269.594,177.347 266.549,173.075 262.835,169.183 C 259.13,165.292 255.09,161.704 250.711,158.428 C 246.342,155.158 241.96,152.121 237.586,149.333 C 234.485,147.145 231.397,144.916 228.337,142.662 C 225.268,140.402 222.034,138.394 218.639,136.635 C 218.25,136.439 217.903,136.224 217.602,135.994 C 217.301,135.761 217.211,135.405 217.329,134.927 C 217.613,134.03 218.026,133.218 218.566,132.506 C 219.107,131.785 219.811,131.405 220.677,131.36 C 221.421,131.267 222.202,131.16 223.032,131.022 C 223.86,130.873 224.679,130.8 225.49,130.792 C 226.344,130.813 227.296,131.048 228.361,131.504 C 229.425,131.953 230.459,132.473 231.461,133.073 C 232.461,133.667 233.289,134.19 233.941,134.635 C 237.293,136.845 240.611,139.028 243.891,141.219 C 247.17,143.402 250.411,145.63 253.617,147.9 C 255.928,149.496 258.535,151.438 261.436,153.736 C 264.339,156.031 267.211,158.551 270.046,161.295 C 272.888,164.034 275.376,166.862 277.518,169.785 C 279.643,172.707 281.111,175.588 281.89,178.425 C 282.473,180.722 282.363,182.766 281.561,184.556 C 280.761,186.355 279.268,187.824 277.08,188.973 C 276.426,189.256 275.764,189.529 275.093,189.787 C 274.426,190.045 273.725,190.243 273,190.387 C 272.347,190.532 271.725,190.708 271.127,190.921 C 270.527,191.136 269.938,191.381 269.357,191.671 C 268.629,191.454 267.867,191.306 267.078,191.226 C 266.295,191.144 265.502,191.101 264.689,191.101 C 264.326,191.108 263.934,191.129 263.528,191.174 C 263.119,191.218 262.73,191.233 262.36,191.247 C 261.709,191.306 261.078,191.347 260.463,191.374 C 259.857,191.381 259.221,191.381 258.578,191.381 C 254.015,191.359 249.61,190.856 245.349,189.878 C 241.099,188.899 236.94,187.594 232.881,185.97 C 228.817,184.341 224.804,182.539 220.826,180.567 C 220.75,180.567 220.649,180.595 220.518,180.655 C 220.387,180.711 220.252,180.777 220.095,180.853 C 220.851,181.734 221.716,182.392 222.699,182.816 C 223.692,183.235 224.666,183.674 225.64,184.132 C 228.816,185.826 232.22,187.45 235.844,189.001 C 239.463,190.557 243.17,191.83 246.957,192.83 C 250.746,193.83 254.47,194.35 258.139,194.387 C 260.105,194.387 262.028,194.166 263.926,193.725 C 265.818,193.277 267.684,192.594 269.499,191.671 C 268.54,192.706 267.291,193.516 265.74,194.099 C 264.192,194.688 262.569,195.092 260.881,195.331 C 259.182,195.561 257.634,195.671 256.245,195.667 C 254.857,195.667 253.503,195.591 252.18,195.436 C 250.853,195.28 249.529,195.021 248.221,194.665 C 243.549,193.406 239.007,191.925 234.59,190.22 C 230.173,188.514 225.954,186.463 221.929,184.061 C 217.901,181.665 214.136,178.78 210.628,175.434 C 208.201,173.172 205.689,171.019 203.083,168.976 C 200.479,166.933 197.89,164.852 195.322,162.732 C 191.052,159.071 186.921,155.282 182.923,151.364 C 178.934,147.446 175.345,143.157 172.171,138.492 C 171.225,136.925 170.273,135.381 169.33,133.856 C 168.384,132.329 167.442,130.785 166.486,129.222 C 162.563,123.3 159.119,117.141 156.183,110.75 C 153.239,104.36 150.758,97.775 148.721,90.995 C 146.657,84.299 145.461,77.585 145.13,70.852 C 144.797,64.119 145.461,57.333 147.119,50.49 Z M 194.741,5.29 C 194.522,5.212 194.335,5.229 194.154,5.332 C 193.982,5.431 193.783,5.668 193.576,6.027 C 200.012,9.58 206.134,13.786 211.951,18.646 C 217.757,23.503 223.126,28.791 228.057,34.52 C 232.979,40.248 237.319,46.188 241.086,52.346 C 241.661,53.344 242.256,54.344 242.856,55.344 C 243.45,56.341 244.075,57.335 244.727,58.337 C 245,58.855 245.327,59.315 245.712,59.713 C 246.09,60.107 246.639,60.311 247.35,60.335 C 247.194,60.974 247.181,61.619 247.293,62.257 C 247.415,62.902 247.723,63.545 248.221,64.19 C 248.303,63.664 248.245,63.193 248.064,62.778 C 247.88,62.352 247.699,61.943 247.514,61.55 C 247.325,61.163 247.269,60.756 247.35,60.335 C 246.419,59.055 245.658,57.728 245.056,56.359 C 244.454,54.987 243.904,53.553 243.418,52.062 C 243.888,52.034 244.241,52.135 244.482,52.363 C 244.727,52.591 244.949,52.819 245.166,53.043 C 245.376,53.267 245.665,53.37 246.041,53.344 C 245.97,53.492 245.935,53.654 245.91,53.847 C 245.895,54.024 245.89,54.191 245.89,54.344 C 245.97,54.572 246.106,54.787 246.293,54.983 C 246.482,55.174 246.688,55.251 246.912,55.198 C 247.25,55.047 247.379,54.851 247.293,54.606 C 247.217,54.368 247.09,54.14 246.912,53.918 C 246.839,53.772 246.74,53.626 246.602,53.499 C 246.477,53.378 246.336,53.281 246.179,53.204 C 246.235,52.497 246.099,51.877 245.783,51.329 C 245.465,50.783 245.118,50.271 244.727,49.779 C 240.521,42.87 235.827,36.392 230.648,30.356 C 225.468,24.314 219.716,18.721 213.392,13.581 C 212.532,12.915 211.671,12.25 210.79,11.599 C 209.913,10.949 208.936,10.468 207.857,10.154 C 207.715,9.945 207.594,9.758 207.489,9.603 C 207.388,9.442 207.263,9.296 207.124,9.156 C 207.053,9.078 206.953,8.988 206.82,8.887 C 206.691,8.79 206.547,8.739 206.395,8.722 C 206.326,8.736 206.253,8.762 206.182,8.818 C 206.108,8.874 206.033,8.937 205.962,9.014 C 205.906,9.096 205.947,9.218 206.087,9.384 C 206.229,9.556 206.381,9.721 206.543,9.874 C 206.695,10.009 206.865,10.123 207.053,10.205 C 207.24,10.295 207.414,10.371 207.562,10.442 C 207.951,11.067 208.42,11.599 208.969,12.046 C 209.523,12.489 210.026,12.955 210.482,13.439 C 210.949,13.833 211.435,14.216 211.955,14.596 C 212.476,14.97 212.861,15.538 213.102,16.289 C 211.028,15.082 209.011,13.79 207.044,12.426 C 205.085,11.061 203.096,9.754 201.083,8.494 C 199.079,7.238 196.961,6.171 194.741,5.29 Z M 197.507,54.056 C 205.743,61.337 213.83,68.779 221.772,76.383 C 229.717,83.983 237.513,91.704 245.166,99.551 C 244.09,97.786 242.529,95.594 240.484,92.971 C 238.441,90.354 236.102,87.516 233.476,84.453 C 230.851,81.391 228.12,78.314 225.292,75.22 C 222.458,72.127 219.716,69.214 217.062,66.496 C 214.415,63.777 212.039,61.449 209.949,59.511 C 207.857,57.574 206.235,56.23 205.085,55.479 C 205.773,56.922 206.661,58.18 207.739,59.251 C 208.831,60.311 209.936,61.533 211.069,62.902 C 209.865,62.601 208.857,62.173 208.039,61.619 C 207.216,61.072 206.483,60.503 205.833,59.903 C 205.171,59.303 204.489,58.782 203.782,58.337 C 202.788,57.574 201.812,56.774 200.857,55.926 C 199.905,55.081 198.793,54.456 197.507,54.056 Z M 193.139,22.14 C 192.165,22.007 191.415,21.665 190.879,21.084 C 190.342,20.518 189.735,20.054 189.054,19.719 C 189.54,20.794 190.679,22.447 192.477,24.662 C 194.269,26.886 196.427,29.378 198.948,32.137 C 201.474,34.892 204.076,37.614 206.743,40.306 C 209.424,42.992 211.884,45.349 214.125,47.366 C 216.377,49.383 218.127,50.753 219.366,51.492 C 219.408,50.729 219.226,50.11 218.824,49.634 C 218.422,49.161 218.021,48.684 217.624,48.207 C 214.332,44.441 211.044,40.652 207.762,36.833 C 204.489,33.023 201.315,29.124 198.232,25.137 C 196.079,22.531 194.126,19.828 192.387,17.024 C 190.651,14.222 189.391,11.123 188.617,7.726 C 188.568,7.504 188.452,7.279 188.277,7.055 C 188.09,6.831 187.727,6.677 187.161,6.591 C 187.377,9.506 187.991,12.24 189,14.796 C 190.009,17.351 191.393,19.802 193.139,22.14 Z M 269.79,171.578 C 270.19,172.924 270.641,174.26 271.127,175.595 C 271.611,176.918 271.949,178.291 272.123,179.707 C 272.131,180.137 272.123,180.53 272.104,180.889 C 272.093,181.244 272.052,181.566 271.977,181.855 C 272.131,182.218 272.304,182.547 272.508,182.827 C 272.716,183.115 272.923,183.263 273.146,183.274 C 273.286,183.287 273.439,183.197 273.602,183.024 C 273.768,182.85 273.955,182.554 274.163,182.139 C 274.389,181.706 274.531,181.28 274.585,180.853 C 274.649,180.422 274.6,179.999 274.456,179.564 C 274.039,178.606 273.647,177.64 273.284,176.668 C 272.914,175.702 272.471,174.778 271.94,173.909 C 271.417,173.028 270.702,172.258 269.79,171.578 Z M 161.968,38.652 C 162.482,38.588 162.961,38.541 163.421,38.526 C 163.892,38.513 164.382,38.511 164.886,38.511 C 166.197,38.524 167.509,38.575 168.821,38.674 C 170.128,38.769 171.444,38.861 172.754,38.938 C 171.004,38.093 169.258,37.666 167.509,37.666 C 166.561,37.678 165.649,37.765 164.739,37.952 C 163.836,38.132 162.914,38.366 161.968,38.652 Z M 259.446,92.283 C 259.367,91.857 259.272,91.382 259.153,90.851 C 259.038,90.326 258.945,89.703 258.864,89.001 C 258.243,89.898 258.031,90.593 258.222,91.066 C 258.423,91.541 258.831,91.948 259.446,92.283 Z M 264.982,165.875 C 265.054,166.019 265.13,166.125 265.205,166.215 C 265.272,166.307 265.347,166.379 265.422,166.441 C 265.579,166.516 265.704,166.553 265.807,166.533 C 265.906,166.516 265.926,166.441 265.857,166.307 C 265.852,166.224 265.794,166.135 265.693,166.019 C 265.597,165.903 265.506,165.809 265.422,165.729 C 265.272,165.656 265.171,165.624 265.093,165.643 C 265.02,165.656 264.982,165.733 264.982,165.875 Z" fill-rule="nonzero" stroke-linejoin="round" stroke-linecap="round" stroke="none" stroke-opacity="0.247059" stroke-width="3.389" marker-start="none" marker-end="none" stroke-miterlimit="79.8403193612775" fill-opacity="0.247059" fill="url(#LinearGradient_1)"/>
    <path d="M 287.776,164.46 C 285.498,161.751 283.331,158.644 281.281,155.138 C 279.226,151.635 277.394,147.932 275.791,144.028 C 274.191,140.122 272.929,136.224 272.003,132.329 C 271.08,128.431 270.603,124.734 270.583,121.242 C 270.544,119.517 270.661,117.829 270.934,116.176 C 271.205,114.524 271.86,112.982 272.914,111.54 L 274.953,108.688 L 274.658,108.411 L 276.12,106.977 C 276.406,106.626 276.699,106.293 276.993,105.977 C 277.284,105.661 277.574,105.327 277.867,104.977 C 279.122,103.613 280.583,102.562 282.253,101.82 C 283.931,101.078 285.722,100.699 287.633,100.693 C 288.262,100.685 289.098,100.764 290.136,100.917 C 291.184,101.076 292.169,101.336 293.1,101.712 C 294.027,102.084 294.629,102.601 294.921,103.261 C 295.048,103.762 295.012,104.231 294.814,104.656 C 294.609,105.08 294.356,105.473 294.046,105.832 C 293.683,106.254 293.321,106.555 292.956,106.746 C 292.586,106.931 292.227,107.056 291.863,107.12 C 291.268,107.25 290.629,107.342 289.93,107.368 C 289.225,107.398 288.517,107.411 287.776,107.404 C 287.56,107.329 287.343,107.293 287.124,107.278 C 286.902,107.265 286.689,107.258 286.468,107.265 L 285.451,107.265 C 284.888,107.215 284.548,107.306 284.427,107.546 C 284.305,107.781 284.258,108.447 284.277,109.546 C 284.202,109.759 284.135,109.938 284.081,110.094 C 284.021,110.26 283.989,110.408 283.989,110.542 L 283.847,110.688 C 283.133,112.64 282.735,114.58 282.653,116.511 C 282.565,118.436 282.658,120.32 282.95,122.173 C 283.227,124.02 283.58,125.801 283.989,127.517 C 285.102,131.686 286.683,135.957 288.735,140.346 C 290.794,144.728 293.201,149.023 295.966,153.227 C 298.725,157.431 301.723,161.351 304.961,164.991 C 308.2,168.623 311.559,171.774 315.04,174.444 C 316.767,175.735 318.988,177.255 321.702,179.001 C 324.414,180.754 327.351,182.468 330.49,184.16 C 333.639,185.854 336.724,187.265 339.728,188.385 C 342.735,189.506 345.386,190.093 347.698,190.136 C 347.919,190.142 348.164,190.136 348.448,190.119 C 348.723,190.106 349.009,190.063 349.302,189.994 C 351.381,189.805 352.943,189.22 353.986,188.25 C 355.029,187.274 355.745,185.758 356.157,183.711 C 356.452,182.302 356.626,180.782 356.659,179.154 C 356.704,177.524 356.581,175.717 356.302,173.735 C 355.633,167.836 354.486,162.046 352.846,156.362 C 351.212,150.678 349.287,145.075 347.064,139.563 C 344.842,134.045 342.533,128.606 340.118,123.236 C 338.133,118.75 336.206,114.178 334.322,109.523 C 332.447,104.873 330.727,100.119 329.181,95.276 C 328.962,94.491 328.631,93.78 328.183,93.158 C 327.725,92.528 327.134,91.999 326.407,91.569 C 325.76,91.143 325.13,90.711 324.517,90.283 C 323.906,89.86 323.272,89.431 322.627,89.001 C 320.736,87.709 318.82,86.447 316.885,85.223 C 314.941,83.998 312.92,82.882 310.812,81.867 C 309.86,81.456 309.111,81.013 308.555,80.555 C 307.998,80.093 307.682,79.581 307.604,79.02 C 307.458,78.465 307.527,77.895 307.808,77.312 C 308.088,76.719 308.552,76.005 309.215,75.172 C 309.496,74.79 309.832,74.441 310.228,74.119 C 310.623,73.792 311.111,73.622 311.688,73.601 C 311.905,73.601 312.128,73.629 312.344,73.693 C 312.559,73.747 312.778,73.807 313.002,73.889 C 313.072,73.951 313.144,73.996 313.214,74.015 C 313.29,74.024 313.365,74.03 313.438,74.028 C 313.802,73.596 314.169,73.252 314.554,72.994 C 314.926,72.736 315.335,72.609 315.769,72.601 C 316.208,72.622 316.644,72.725 317.064,72.923 C 317.481,73.119 317.889,73.3 318.249,73.456 C 318.328,73.596 318.427,73.708 318.554,73.796 C 318.687,73.882 318.831,73.96 318.973,74.028 L 319.414,74.17 C 319.919,74.392 320.41,74.59 320.889,74.759 C 321.369,74.925 321.898,75.015 322.474,75.028 L 322.911,75.028 C 322.915,75.028 322.911,74.988 322.895,74.919 C 322.885,74.848 322.837,74.742 322.769,74.603 C 322.695,74.456 322.627,74.308 322.549,74.149 C 322.474,73.996 322.405,73.807 322.328,73.601 L 321.893,72.743 C 318.489,64.865 315.489,57.518 312.909,50.712 C 310.322,43.902 308.021,37.414 306,31.242 L 305.854,30.672 C 305.71,30.184 305.563,29.705 305.419,29.251 C 305.269,28.789 305.129,28.313 304.981,27.823 C 304.836,27.026 304.946,26.335 305.29,25.742 C 305.643,25.14 306.224,24.69 307.024,24.4 C 307.307,24.266 307.57,24.185 307.808,24.15 C 308.041,24.122 308.266,24.112 308.481,24.116 C 308.993,24.112 309.455,24.221 309.883,24.451 C 310.301,24.682 310.666,25.043 310.963,25.542 C 311.111,25.894 311.286,26.223 311.468,26.54 C 311.658,26.858 311.829,27.182 311.986,27.542 C 313.591,31.756 315.285,35.937 317.064,40.106 C 318.842,44.267 320.64,48.353 322.474,52.35 C 323.063,53.772 323.67,55.174 324.3,56.559 C 324.923,57.939 325.527,59.344 326.121,60.771 C 326.274,61.128 326.437,61.509 326.631,61.905 C 326.822,62.305 326.983,62.685 327.144,63.046 C 327.716,64.478 328.319,65.891 328.947,67.289 C 329.572,68.687 330.29,70.026 331.08,71.321 C 331.51,71.166 331.921,70.93 332.299,70.622 C 332.68,70.308 333.049,69.977 333.407,69.607 C 339.365,62.986 345.575,56.613 352.046,50.482 C 358.527,44.342 364.985,38.366 371.442,32.528 C 372.535,31.535 373.616,30.561 374.7,29.606 C 375.775,28.649 376.827,27.669 377.85,26.681 L 378.143,26.54 C 378.571,26.099 379.029,25.69 379.508,25.312 C 379.997,24.925 380.558,24.623 381.201,24.4 C 381.491,24.325 381.784,24.26 382.099,24.202 C 382.403,24.148 382.74,24.12 383.097,24.116 C 383.545,24.116 383.966,24.221 384.368,24.436 C 384.785,24.651 385.134,24.972 385.431,25.4 C 385.886,26.114 385.99,26.752 385.74,27.305 C 385.491,27.86 385.192,28.318 384.848,28.679 L 384.409,29.109 C 384.338,29.182 384.265,29.281 384.192,29.389 C 384.119,29.505 384.044,29.6 383.968,29.677 L 383.68,29.967 C 382.442,31.309 381.201,32.674 379.962,34.047 C 378.723,35.41 377.485,36.81 376.244,38.233 C 373.468,41.377 370.64,44.538 367.756,47.718 C 364.882,50.897 361.978,54.056 359.062,57.2 C 357.835,58.419 356.658,59.688 355.534,61.016 C 354.413,62.345 353.31,63.681 352.214,65.047 C 349.844,67.863 347.373,70.637 344.801,73.385 C 342.227,76.131 339.356,78.622 336.183,80.869 C 336.03,80.944 335.901,81.015 335.78,81.09 C 335.667,81.161 335.606,81.23 335.598,81.297 C 335.673,81.514 335.742,81.729 335.798,81.946 C 335.856,82.155 335.886,82.372 335.886,82.585 C 336.159,83.544 336.458,84.443 336.782,85.298 C 337.103,86.146 337.587,86.763 338.223,87.146 C 338.726,87.436 339.18,87.75 339.593,88.092 C 340,88.436 340.419,88.786 340.842,89.143 C 341.279,89.431 341.688,89.715 342.085,89.997 C 342.477,90.283 342.892,90.569 343.324,90.851 C 346.539,92.782 349.695,94.777 352.783,96.833 C 355.869,98.883 358.835,100.985 361.68,103.123 L 362.409,103.553 C 363.183,104.106 363.931,104.751 364.666,105.499 C 365.395,106.235 365.858,107.215 366.045,108.411 C 366.118,108.613 366.258,108.802 366.462,108.974 C 366.669,109.148 366.914,109.342 367.21,109.546 C 367.288,109.617 367.385,109.686 367.503,109.759 C 367.615,109.832 367.713,109.905 367.791,109.974 L 371.001,112.54 C 373.109,114.111 375.197,115.683 377.266,117.242 C 379.338,118.823 381.427,120.384 383.534,121.952 C 383.758,122.165 384.001,122.354 384.265,122.519 C 384.527,122.693 384.766,122.887 384.99,123.096 L 385.431,123.524 L 386.013,123.096 L 385.869,122.242 L 386.592,122.519 L 387.461,121.81 L 387.607,122.952 C 388.49,123.384 389.314,123.84 390.086,124.324 C 390.856,124.809 391.538,125.302 392.127,125.801 C 395.896,128.787 399.836,132.168 403.95,135.934 C 408.065,139.703 412.1,143.763 416.067,148.107 C 420.037,152.45 423.692,156.979 427.023,161.689 C 430.363,166.4 433.149,171.182 435.367,176.053 C 437.592,180.915 439.013,185.753 439.641,190.56 C 439.732,191.282 439.732,192.082 439.641,192.944 C 439.545,193.811 439.257,194.673 438.762,195.544 C 438.175,196.402 437.452,196.828 436.575,196.828 C 436.424,196.828 436.25,196.819 436.068,196.806 C 435.878,196.787 435.711,196.752 435.556,196.682 C 435.332,196.611 435.128,196.507 434.939,196.361 C 434.752,196.217 434.616,196.043 434.536,195.828 C 434.309,196.245 434.066,196.615 433.807,196.935 C 433.547,197.247 433.304,197.54 433.079,197.815 C 432.707,198.236 432.328,198.684 431.956,199.157 C 431.578,199.632 431.266,200.178 431.042,200.808 L 430.014,203.092 L 429.436,200.668 C 429.365,200.313 429.29,199.985 429.219,199.688 C 429.143,199.387 429.068,199.097 428.999,198.817 C 428.931,198.393 428.855,197.989 428.765,197.63 C 428.674,197.254 428.558,196.892 428.414,196.54 C 427.195,192.564 425.918,188.846 424.593,185.373 C 423.275,181.898 421.677,178.578 419.8,175.402 C 417.929,172.228 415.559,169.101 412.682,166.028 C 412.381,165.671 412.061,165.316 411.732,164.959 C 411.398,164.602 411.076,164.248 410.783,163.891 C 408.579,161.336 406.251,158.882 403.799,156.549 C 401.36,154.203 398.93,151.894 396.498,149.627 C 394.004,147.352 391.522,145.015 389.054,142.623 C 386.577,140.221 384.203,137.707 381.934,135.076 C 380.377,133.297 378.676,131.575 376.827,129.925 C 374.984,128.265 373.137,126.655 371.292,125.091 L 370.709,124.666 C 367.503,121.949 364.269,119.247 361.007,116.552 C 357.753,113.858 354.474,111.189 351.196,108.546 C 351.125,108.467 351.048,108.372 350.956,108.26 C 350.876,108.148 350.754,108.05 350.612,107.974 C 350.382,107.748 350.121,107.523 349.835,107.293 C 349.541,107.077 349.319,106.92 349.158,106.832 C 348.87,107.043 348.603,107.192 348.352,107.278 C 348.108,107.364 347.838,107.404 347.549,107.404 C 347.048,107.372 346.636,107.187 346.334,106.832 C 346.025,106.48 345.801,106.149 345.657,105.832 C 345.649,105.759 345.627,105.695 345.584,105.641 C 345.539,105.583 345.511,105.549 345.511,105.549 C 345.664,106.327 345.866,107.12 346.134,107.921 C 346.392,108.725 346.672,109.548 346.971,110.4 C 347.113,110.623 347.229,110.856 347.315,111.114 C 347.399,111.368 347.478,111.61 347.549,111.828 C 348.203,113.55 348.87,115.281 349.541,117.017 C 350.209,118.75 350.906,120.446 351.627,122.096 L 352.214,123.524 C 353.166,125.956 354.007,128.433 354.755,130.957 C 355.493,133.478 356.157,135.998 356.736,138.503 C 357.099,139.791 357.437,141.066 357.757,142.335 C 358.08,143.599 358.409,144.842 358.776,146.059 C 359.278,147.631 359.766,149.231 360.209,150.859 C 360.663,152.483 361.105,154.115 361.54,155.758 C 362.699,160.643 363.501,165.11 363.948,169.152 C 364.404,173.195 364.52,177.053 364.297,180.722 C 364.292,181.141 364.241,181.547 364.138,181.913 C 364.039,182.289 363.946,182.646 363.864,183.001 C 363.795,183.212 363.722,183.399 363.651,183.569 C 363.574,183.747 363.501,183.936 363.424,184.143 C 363.791,183.437 364.081,182.676 364.297,181.876 C 364.516,181.078 364.662,180.221 364.733,179.298 C 365.025,175.963 365.025,172.427 364.737,168.682 C 364.443,164.944 363.864,160.871 362.989,156.472 C 362.701,155.332 362.406,154.186 362.12,153.05 C 362.045,152.698 361.978,152.336 361.897,151.964 C 361.824,151.586 361.757,151.193 361.68,150.763 L 360.078,143.638 L 362.847,149.051 C 365.613,154.338 367.466,159.714 368.399,165.179 C 369.324,170.64 369.322,176.152 368.376,181.721 C 368.299,182.078 368.202,182.427 368.079,182.771 C 367.972,183.115 367.873,183.429 367.791,183.711 L 367.791,183.857 C 366.858,186.56 365.597,188.82 364.009,190.632 C 362.421,192.441 360.434,193.845 358.052,194.834 C 357.396,195.114 356.732,195.439 356.065,195.793 C 355.392,196.148 354.693,196.54 353.971,196.967 C 352.633,197.806 351.39,198.423 350.248,198.808 C 349.108,199.195 347.939,199.438 346.75,199.539 C 345.565,199.643 344.229,199.683 342.745,199.671 C 335,198.729 328.016,196.69 321.799,193.559 C 315.584,190.422 309.948,186.441 304.88,181.605 C 299.815,176.778 295.132,171.348 290.84,165.316 L 290.988,165.888 L 289.67,165.746 C 289.098,165.652 288.676,165.477 288.395,165.211 C 288.119,164.944 287.913,164.692 287.776,164.46 Z M 274.368,112.251 C 273.712,114.956 273.392,117.681 273.43,120.44 C 273.458,123.192 273.867,126.029 274.658,128.945 C 274.155,126.173 273.934,123.478 274.007,120.866 C 274.078,118.255 274.447,115.67 275.099,113.109 C 275.105,112.965 275.127,112.828 275.174,112.683 C 275.217,112.54 275.235,112.4 275.243,112.251 C 275.482,111.682 275.621,111.122 275.664,110.566 C 275.701,110.008 275.51,109.475 275.099,108.974 L 274.368,112.251 Z M 320.294,83.869 C 321.158,84.44 322.01,85.006 322.857,85.574 C 323.71,86.152 324.599,86.72 325.538,87.286 C 325.622,87.371 325.742,87.455 325.904,87.554 C 326.059,87.658 326.183,87.709 326.265,87.72 L 326.265,87.574 C 326.413,87.425 326.484,87.223 326.469,86.987 C 326.45,86.742 326.332,86.516 326.121,86.288 C 325.581,85.496 324.734,84.871 323.586,84.404 C 322.44,83.935 321.199,83.66 319.853,83.582 L 320.294,83.869 Z M 361.54,106.121 C 361.54,106.125 361.568,106.149 361.622,106.194 C 361.68,106.23 361.75,106.256 361.824,106.263 L 361.978,106.263 L 361.978,105.691 L 361.824,105.691 C 361.763,105.695 361.714,105.719 361.68,105.766 C 361.65,105.804 361.602,105.83 361.54,105.832 L 361.54,106.121 Z" fill-rule="nonzero" stroke-linejoin="round" stroke-linecap="round" stroke="none" stroke-opacity="0.247059" stroke-width="3.389" marker-start="none" marker-end="none" stroke-miterlimit="79.8403193612775" fill-opacity="0.247059" fill="url(#LinearGradient_2)"/>
    <path d="M 499.598,115.258 C 498.009,114.165 496.441,113.002 494.898,111.77 C 493.345,110.531 491.702,109.366 489.973,108.267 C 489.502,108.062 489.098,107.74 488.775,107.306 C 488.44,106.88 488.406,106.349 488.662,105.704 C 488.857,105.174 489.119,104.701 489.446,104.28 C 489.771,103.858 490.289,103.669 491.001,103.706 C 491.136,103.714 491.253,103.742 491.36,103.779 C 491.461,103.822 491.582,103.841 491.724,103.854 C 491.87,103.858 492.01,103.805 492.139,103.689 C 492.27,103.575 492.38,103.345 492.455,102.992 C 492.455,102.426 492.599,101.992 492.891,101.695 C 493.182,101.392 493.62,101.214 494.207,101.14 C 494.353,101.138 494.526,101.112 494.711,101.069 C 494.898,101.029 495.069,101.005 495.22,101.001 C 495.523,100.994 495.831,101.041 496.151,101.127 C 496.467,101.214 496.74,101.357 496.971,101.575 C 500.85,103.863 505.086,106.832 509.677,110.456 C 514.27,114.083 518.862,118.06 523.468,122.392 C 528.073,126.719 532.333,131.091 536.256,135.495 C 540.172,139.91 543.389,144.051 545.934,147.918 C 547.706,150.543 549.184,153.272 550.373,156.117 C 551.562,158.953 552.313,161.974 552.637,165.166 C 552.818,167.112 552.773,168.998 552.5,170.817 C 552.233,172.642 551.498,174.275 550.298,175.722 C 548.264,178.158 546.141,180.53 543.948,182.84 C 541.744,185.14 539.447,187.33 537.051,189.402 C 535.738,190.542 534.101,191.501 532.127,192.282 C 530.149,193.063 528.035,193.699 525.77,194.174 C 523.513,194.65 521.294,194.994 519.119,195.211 C 516.943,195.426 515.01,195.533 513.296,195.525 C 508.552,195.51 503.643,195.075 498.573,194.224 C 493.495,193.377 488.489,192.241 483.544,190.802 C 478.604,189.368 473.951,187.764 469.586,185.986 C 464.764,184.11 459.705,181.939 454.432,179.463 C 449.15,176.984 443.932,174.191 438.775,171.066 C 433.61,167.944 428.799,164.465 424.32,160.639 C 419.849,156.814 416.004,152.614 412.787,148.031 C 409.573,143.455 407.268,138.469 405.868,133.082 C 404.713,128.513 404.45,124.042 405.093,119.677 C 405.734,115.32 407.257,111.135 409.663,107.131 C 411.659,103.927 414.144,101.209 417.097,98.964 C 420.058,96.724 423.361,94.93 427.029,93.582 C 431.851,91.9 436.745,90.416 441.714,89.143 C 446.677,87.87 451.654,86.642 456.617,85.453 C 462.973,84.079 469.286,82.658 475.561,81.176 C 481.843,79.697 488.014,77.845 494.068,75.617 C 495.538,75.116 497.013,74.545 498.478,73.889 C 499.953,73.226 501.347,72.476 502.669,71.622 C 503.74,70.891 504.492,70.04 504.931,69.065 C 505.365,68.093 505.477,67.1 505.254,66.093 C 505.03,65.092 504.462,64.175 503.544,63.348 C 501.663,61.561 499.702,59.903 497.68,58.38 C 495.654,56.856 493.478,55.516 491.16,54.368 C 485.352,51.63 479.251,49.144 472.863,46.932 C 466.474,44.729 459.965,42.97 453.341,41.657 C 446.712,40.354 440.128,39.693 433.593,39.653 C 431.109,39.653 428.632,39.771 426.156,39.997 C 423.675,40.225 421.2,40.584 418.72,41.082 C 416.893,41.48 415.843,42.224 415.572,43.315 C 415.293,44.413 415.811,45.616 417.116,46.942 C 418.443,48.202 420.331,49.385 422.78,50.495 C 425.225,51.607 427.982,52.617 431.048,53.527 C 434.111,54.438 437.229,55.219 440.405,55.873 C 443.579,56.537 446.553,57.041 449.338,57.393 C 452.116,57.754 454.449,57.931 456.324,57.939 C 456.623,57.929 456.868,57.984 457.074,58.103 C 457.277,58.217 457.421,58.447 457.494,58.789 C 457.543,59.135 457.408,59.384 457.107,59.541 C 456.808,59.7 456.5,59.877 456.182,60.073 C 454.576,60.982 452.937,61.619 451.258,61.98 C 449.583,62.337 447.875,62.507 446.123,62.496 C 444.194,62.496 441.886,62.403 439.196,62.208 C 436.506,62.012 433.644,61.711 430.608,61.296 C 427.569,60.875 424.572,60.331 421.604,59.658 C 418.635,58.993 415.912,58.189 413.43,57.238 C 410.949,56.292 408.913,55.193 407.332,53.942 C 405.741,52.694 404.749,51.372 404.356,49.976 C 403.965,48.585 404.139,46.904 404.866,44.938 C 405.771,42.517 407.113,40.47 408.885,38.799 C 410.665,37.126 412.719,35.82 415.045,34.877 C 417.372,33.935 419.815,33.345 422.363,33.115 C 426.156,32.744 429.978,32.416 433.825,32.13 C 437.668,31.849 441.527,31.702 445.392,31.692 C 452.369,31.702 459.324,32.401 466.265,33.786 C 473.194,35.171 479.948,37.162 486.509,39.751 C 493.078,42.343 499.289,45.45 505.14,49.082 C 507.206,50.284 509.124,51.699 510.894,53.331 C 512.668,54.961 514.154,56.873 515.346,59.077 C 516.369,61.003 516.831,62.887 516.726,64.727 C 516.625,66.562 515.914,68.339 514.612,70.055 C 512.761,72.327 510.455,74.321 507.682,76.039 C 504.914,77.751 501.99,79.23 498.915,80.467 C 495.833,81.709 492.911,82.752 490.139,83.6 C 484.23,85.374 478.297,86.999 472.317,88.483 C 466.345,89.969 460.33,91.384 454.286,92.732 C 452.598,93.126 450.901,93.539 449.219,93.973 C 447.525,94.41 445.916,95.042 444.374,95.866 C 448.241,95.218 452.129,94.623 456.034,94.061 C 459.937,93.507 463.829,93.012 467.693,92.588 C 465.717,93.412 463.689,94.072 461.631,94.56 C 459.56,95.051 457.5,95.534 455.451,96.007 C 450.927,96.906 446.419,97.822 441.932,98.758 C 437.444,99.684 433.008,100.813 428.632,102.142 C 425.812,103.015 423.683,104.402 422.249,106.293 C 420.819,108.189 419.933,110.458 419.594,113.124 C 419.252,115.477 419.279,117.788 419.686,120.053 C 420.088,122.321 420.738,124.526 421.634,126.668 C 423.699,131.422 426.348,135.677 429.571,139.43 C 432.806,143.182 436.474,146.584 440.579,149.627 C 446.022,153.661 452.094,157.571 458.786,161.357 C 465.48,165.14 472.506,168.55 479.862,171.591 C 487.219,174.619 494.601,177.032 502.024,178.825 C 509.445,180.61 516.607,181.526 523.502,181.569 C 525.555,181.58 527.583,181.453 529.596,181.199 C 531.594,180.932 533.561,180.494 535.456,179.855 C 537.249,179.347 538.402,178.657 538.922,177.81 C 539.434,176.956 539.496,175.595 539.103,173.726 C 538.426,170.598 537.2,167.316 535.421,163.873 C 533.637,160.437 531.501,156.962 529.011,153.47 C 526.525,149.973 523.88,146.563 521.078,143.253 C 518.284,139.942 515.533,136.845 512.825,133.977 C 510.118,131.101 507.649,128.57 505.43,126.381 C 504.245,125.261 503.062,124.115 501.871,122.958 C 500.676,121.797 499.631,120.517 498.73,119.103 C 499.394,119.401 500.016,119.747 500.592,120.143 C 501.177,120.541 501.725,120.958 502.235,121.395 C 507.634,126.128 512.831,131.147 517.828,136.447 C 522.823,141.746 527.297,147.408 531.222,153.444 C 535.157,159.467 538.223,165.944 540.417,172.871 C 540.427,173.191 540.436,173.546 540.428,173.939 C 540.427,174.331 540.765,174.548 541.434,174.587 C 541.834,173.862 541.993,173.124 541.909,172.372 C 541.821,171.619 541.664,170.879 541.414,170.165 C 540.285,166.946 539.055,163.789 537.705,160.695 C 536.353,157.601 534.68,154.627 532.673,151.767 C 532.151,151.07 531.634,150.354 531.129,149.614 C 530.618,148.859 530.209,147.967 529.906,146.913 C 531.245,147.975 532.424,149.139 533.441,150.403 C 534.464,151.666 535.454,152.958 536.43,154.27 C 537.391,155.586 538.475,156.85 539.664,158.042 C 539.154,155.908 537.873,153.227 535.813,150.001 C 533.751,146.78 531.207,143.322 528.179,139.639 C 525.147,135.951 521.913,132.347 518.481,128.828 C 515.051,125.309 511.694,122.188 508.432,119.461 C 505.176,116.733 502.284,114.711 499.751,113.404 C 499.588,113.593 499.54,113.784 499.624,113.98 C 499.701,114.178 499.772,114.378 499.843,114.595 C 499.906,114.799 499.83,115.021 499.609,115.258 L 499.598,115.258 Z M 426.883,152.623 C 428.431,154.736 430.178,156.566 432.109,158.134 C 434.044,159.691 436.044,161.136 438.098,162.465 C 443.837,166.163 449.882,169.626 456.23,172.871 C 462.58,176.113 469.127,178.963 475.886,181.44 C 482.642,183.917 489.504,185.854 496.467,187.257 C 503.434,188.663 510.406,189.379 517.378,189.402 C 518.328,189.405 519.268,189.402 520.218,189.387 C 521.166,189.372 522.112,189.33 523.06,189.261 C 525.001,189.071 526.833,188.57 528.545,187.768 C 530.25,186.97 531.97,186.183 533.692,185.424 C 532.314,185.424 530.957,185.454 529.618,185.51 C 528.274,185.57 526.91,185.633 525.53,185.704 C 525.029,185.713 524.543,185.732 524.081,185.781 C 523.614,185.818 523.125,185.842 522.62,185.852 C 519.854,185.829 517.115,185.633 514.393,185.25 C 511.671,184.87 508.95,184.426 506.234,183.932 C 503.51,183.418 500.768,182.967 498.007,182.571 C 494.911,182.066 491.894,181.356 488.952,180.435 C 486.029,179.517 483.118,178.528 480.238,177.477 C 477.351,176.431 474.434,175.464 471.48,174.587 C 464.281,172.589 457.214,169.982 450.292,166.778 C 443.362,163.564 436.921,159.755 430.958,155.332 C 430.307,154.904 429.647,154.47 428.974,154.031 C 428.305,153.588 427.608,153.119 426.883,152.623 Z M 413.91,111.122 C 413.91,112.251 413.91,113.453 413.91,114.726 C 413.91,115.995 413.91,117.408 413.91,118.969 C 414.579,117.475 414.919,116.103 414.917,114.847 C 414.912,113.593 414.919,112.4 414.932,111.264 C 414.777,111.196 414.605,111.157 414.424,111.142 C 414.231,111.127 414.059,111.122 413.91,111.122 Z M 508.032,65.775 C 508.06,65.539 508.053,65.297 508.002,65.06 C 507.955,64.823 507.724,64.732 507.305,64.777 C 507.232,64.79 507.163,64.902 507.103,65.113 C 507.047,65.322 507.019,65.545 507.019,65.775 C 506.94,65.993 506.94,66.192 507.019,66.364 C 507.088,66.526 507.232,66.618 507.452,66.625 C 507.738,66.618 507.933,66.526 508.019,66.364 C 508.109,66.192 508.109,65.993 508.032,65.775 Z M 411.413,43.943 C 411.538,44.517 411.659,44.973 411.783,45.317 C 411.908,45.652 412.177,45.867 412.594,45.94 C 412.672,45.916 412.766,45.787 412.869,45.547 C 412.972,45.31 413.028,45.108 413.035,44.938 C 413.08,44.691 413.106,44.401 413.112,44.082 C 413.115,43.762 412.848,43.622 412.308,43.656 C 412.093,43.671 411.908,43.714 411.76,43.798 C 411.614,43.88 411.504,43.928 411.431,43.943 L 411.413,43.943 Z" fill-rule="nonzero" stroke-linejoin="round" stroke-linecap="round" stroke="none" stroke-opacity="0.247059" stroke-width="3.389" marker-start="none" marker-end="none" stroke-miterlimit="79.8403193612775" fill-opacity="0.247059" fill="url(#LinearGradient_3)"/>
    <g id="Group" fill-rule="nonzero" stroke-linejoin="round" stroke-linecap="round" stroke="none" stroke-width="2.831" fill="#000000" stroke-miterlimit="79.8403193612775">
     <g id="Group_1">
      <path d="M 218.216,171.379 L 218.216,169.507 C 215.729,169.064 213.853,168.293 212.572,167.178 C 210.746,165.526 209.123,162.99 207.716,159.578 L 183.227,101.149 L 181.326,101.149 L 155.038,160.341 C 153.691,163.38 152.743,165.24 152.184,165.914 C 151.324,166.963 150.271,167.777 149.009,168.366 C 147.747,168.962 146.053,169.346 143.914,169.507 L 143.914,171.379 L 172.578,171.379 L 172.578,169.507 C 169.333,169.206 167.231,168.662 166.263,167.889 C 165.302,167.11 164.815,166.118 164.815,164.9 C 164.815,163.21 165.606,160.577 167.19,156.994 L 185.045,116.753 L 201.602,156.494 C 203.222,160.413 204.033,163.122 204.033,164.649 C 204.033,165.623 203.53,166.562 202.535,167.455 C 201.531,168.351 199.844,168.982 197.46,169.358 C 197.297,169.387 197.001,169.433 196.585,169.507 L 196.585,171.379 L 218.216,171.379 Z" marker-start="none" marker-end="none"/>
      <path d="M 278.893,172.948 L 280.704,151.278 L 278.893,151.278 C 277.062,156.684 274.701,160.752 271.803,163.484 C 267.63,167.428 262.265,169.411 255.703,169.411 C 246.78,169.411 239.978,165.952 235.325,159.027 C 231.427,153.187 229.478,146.235 229.478,138.166 C 229.478,131.61 230.767,125.643 233.359,120.243 C 235.941,114.841 239.336,110.885 243.531,108.369 C 247.719,105.851 252.024,104.595 256.436,104.595 C 259.029,104.595 261.524,104.92 263.946,105.562 C 266.357,106.202 268.681,107.143 270.919,108.397 L 270.919,128.243 C 270.927,131.679 270.659,133.94 270.125,135.004 C 269.592,136.061 268.763,136.876 267.641,137.436 C 266.521,137.989 264.539,138.272 261.707,138.272 L 261.707,140.188 L 288.874,140.188 L 288.874,138.272 L 287.583,138.272 C 284.903,138.272 283.051,137.387 282.051,135.638 C 281.353,134.386 281.009,131.916 281.009,128.243 L 281.009,107.228 C 277.046,105.139 273.13,103.606 269.264,102.621 C 265.4,101.642 261.114,101.149 256.382,101.149 C 242.829,101.149 232.538,105.41 225.497,113.914 C 220.219,120.287 217.576,127.651 217.576,135.992 C 217.576,142.029 219.06,147.817 222.024,153.357 C 225.539,159.94 230.375,165.002 236.506,168.541 C 241.653,171.482 247.729,172.948 254.723,172.948 C 257.278,172.948 259.604,172.755 261.69,172.346 C 263.777,171.928 266.734,171.045 270.561,169.658 C 272.501,168.944 273.796,168.597 274.443,168.597 C 275.1,168.597 275.661,168.891 276.127,169.488 C 276.592,170.077 276.879,171.233 276.981,172.948 L 278.893,172.948 Z" marker-start="none" marker-end="none"/>
      <path d="M 316.384,140.804 L 342.264,115.631 C 346.507,111.483 350.129,108.652 353.13,107.153 C 356.124,105.648 359.13,104.8 362.135,104.595 L 362.135,102.726 L 328.757,102.726 L 328.757,104.595 C 330.759,104.595 332.196,104.929 333.077,105.58 C 333.958,106.245 334.396,106.975 334.396,107.785 C 334.396,108.604 334.23,109.321 333.893,109.972 C 333.576,110.608 332.497,111.806 330.672,113.562 L 306.458,136.998 L 306.458,114.874 C 306.458,111.398 306.677,109.104 307.133,107.995 C 307.474,107.143 308.201,106.419 309.301,105.811 C 310.778,105.001 312.356,104.595 314.01,104.595 L 316.384,104.595 L 316.384,102.726 L 286.48,102.726 L 286.48,104.595 L 288.964,104.595 C 291.869,104.595 293.968,105.428 295.28,107.074 C 296.103,108.165 296.522,110.76 296.522,114.874 L 296.522,159.228 C 296.522,162.706 296.289,165.02 295.848,166.165 C 295.504,166.978 294.8,167.686 293.723,168.293 C 292.201,169.107 290.624,169.507 288.964,169.507 L 286.48,169.507 L 286.48,171.379 L 316.384,171.379 L 316.384,169.507 L 314.01,169.507 C 312.383,169.507 310.821,169.119 309.301,168.34 C 308.233,167.808 307.483,166.995 307.077,165.914 C 306.665,164.831 306.458,162.607 306.458,159.228 L 306.458,138.215 C 307.151,138.855 309.509,140.999 313.546,144.643 C 323.788,153.829 329.982,159.955 332.119,163.025 C 333.05,164.376 333.521,165.554 333.521,166.573 C 333.521,167.343 333.162,168.033 332.43,168.622 C 331.712,169.213 330.485,169.507 328.757,169.507 L 327.149,169.507 L 327.149,171.379 L 352.921,171.379 L 352.921,169.507 C 351.396,169.476 350.024,169.27 348.784,168.898 C 347.538,168.529 346.023,167.817 344.231,166.743 C 342.433,165.682 340.221,163.974 337.605,161.613 C 336.85,160.928 333.351,157.47 327.108,151.229 L 316.384,140.804 Z" marker-start="none" marker-end="none"/>
      <path d="M 404.183,172.948 L 404.183,149.204 L 402.272,149.204 C 401.646,153.764 400.533,157.387 398.93,160.09 C 397.325,162.789 395.043,164.938 392.07,166.525 C 389.104,168.107 386.037,168.898 382.865,168.898 C 379.272,168.898 376.313,167.829 373.962,165.682 C 371.62,163.543 370.443,161.099 370.443,158.366 C 370.443,156.28 371.189,154.372 372.67,152.652 C 374.802,150.116 379.898,146.739 387.936,142.514 C 394.486,139.076 398.965,136.436 401.364,134.592 C 403.757,132.753 405.608,130.587 406.898,128.088 C 408.19,125.588 408.837,122.979 408.837,120.243 C 408.837,115.047 406.781,110.561 402.665,106.798 C 398.533,103.036 393.233,101.149 386.744,101.149 C 384.711,101.149 382.792,101.307 381.003,101.61 C 379.94,101.779 377.719,102.393 374.355,103.461 C 370.988,104.518 368.855,105.052 367.96,105.052 C 367.097,105.052 366.421,104.797 365.915,104.296 C 365.419,103.787 365.053,102.741 364.807,101.149 L 362.888,101.149 L 362.888,124.688 L 364.807,124.688 C 365.701,119.768 366.916,116.077 368.43,113.634 C 369.939,111.186 372.263,109.163 375.379,107.538 C 378.504,105.913 381.928,105.101 385.652,105.101 C 389.971,105.101 393.375,106.217 395.873,108.445 C 398.377,110.673 399.63,113.304 399.63,116.347 C 399.63,118.029 399.152,119.744 398.205,121.465 C 397.256,123.177 395.78,124.779 393.788,126.265 C 392.438,127.278 388.762,129.435 382.76,132.718 C 376.76,136.01 372.494,138.643 369.957,140.591 C 367.421,142.555 365.499,144.715 364.181,147.076 C 362.88,149.439 362.216,152.044 362.216,154.877 C 362.216,159.806 364.149,164.052 368.016,167.609 C 371.882,171.17 376.789,172.948 382.76,172.948 C 386.493,172.948 390.435,172.053 394.608,170.263 C 396.543,169.422 397.903,169.005 398.7,169.005 C 399.595,169.005 400.328,169.267 400.898,169.79 C 401.466,170.307 401.921,171.362 402.272,172.948 L 404.183,172.948 Z" marker-start="none" marker-end="none"/>
     </g>
    </g>
    <g id="Group_2" fill-rule="nonzero" stroke-linejoin="round" stroke-linecap="round" stroke="none" stroke-width="0.484" fill="#000000" stroke-miterlimit="79.8403193612775">
     <g id="Group_3">
      <path d="M 172.823,81.246 L 172.823,80.872 C 172.338,80.787 171.971,80.637 171.711,80.414 C 171.352,80.093 171.036,79.59 170.745,78.916 L 165.927,67.383 L 165.538,67.383 L 160.356,79.067 C 160.087,79.667 159.91,80.031 159.792,80.168 C 159.626,80.372 159.42,80.539 159.171,80.647 C 158.918,80.767 158.584,80.842 158.155,80.872 L 158.155,81.246 L 163.819,81.246 L 163.819,80.872 C 163.18,80.817 162.762,80.712 162.576,80.559 C 162.381,80.407 162.282,80.207 162.282,79.97 C 162.282,79.637 162.448,79.109 162.757,78.405 L 166.277,70.461 L 169.548,78.309 C 169.87,79.079 170.025,79.617 170.025,79.918 C 170.025,80.108 169.929,80.285 169.736,80.472 C 169.541,80.645 169.196,80.772 168.727,80.844 C 168.699,80.854 168.643,80.863 168.558,80.872 L 168.558,81.246 L 172.823,81.246 Z" marker-start="none" marker-end="none"/>
      <path d="M 183.257,68.065 L 183.257,67.698 L 177.326,67.698 L 177.326,68.065 L 177.818,68.065 C 178.389,68.065 178.803,68.226 179.06,68.558 C 179.224,68.767 179.312,69.282 179.312,70.093 L 179.312,78.848 C 179.312,79.532 179.261,79.981 179.173,80.207 C 179.104,80.372 178.963,80.515 178.753,80.637 C 178.458,80.799 178.145,80.872 177.818,80.872 L 177.326,80.872 L 177.326,81.246 L 183.257,81.246 L 183.257,80.872 L 182.76,80.872 C 182.191,80.872 181.782,80.712 181.525,80.382 C 181.354,80.174 181.265,79.661 181.265,78.848 L 181.265,70.093 C 181.265,69.409 181.315,68.95 181.399,68.731 C 181.471,68.565 181.611,68.419 181.83,68.303 C 182.114,68.143 182.428,68.065 182.76,68.065 L 183.257,68.065 Z" marker-start="none" marker-end="none"/>
      <path d="M 197.084,81.556 L 197.084,76.867 L 196.701,76.867 C 196.587,77.769 196.362,78.487 196.048,79.014 C 195.726,79.544 195.281,79.97 194.699,80.285 C 194.103,80.605 193.496,80.751 192.867,80.751 C 192.166,80.751 191.583,80.545 191.122,80.125 C 190.652,79.695 190.417,79.214 190.417,78.68 C 190.417,78.26 190.575,77.888 190.857,77.547 C 191.284,77.047 192.289,76.381 193.876,75.546 C 195.175,74.868 196.051,74.348 196.528,73.987 C 196.995,73.618 197.362,73.193 197.621,72.705 C 197.872,72.21 197.999,71.691 197.999,71.152 C 197.999,70.129 197.591,69.239 196.782,68.498 C 195.963,67.761 194.919,67.383 193.645,67.383 C 193.233,67.383 192.863,67.413 192.498,67.477 C 192.297,67.509 191.86,67.631 191.19,67.838 C 190.528,68.049 190.111,68.151 189.933,68.151 C 189.764,68.151 189.626,68.106 189.525,68.001 C 189.429,67.899 189.356,67.7 189.309,67.383 L 188.935,67.383 L 188.935,72.03 L 189.309,72.03 C 189.486,71.06 189.725,70.329 190.029,69.852 C 190.324,69.361 190.781,68.962 191.395,68.641 C 192.014,68.325 192.687,68.168 193.428,68.162 C 194.276,68.168 194.95,68.378 195.445,68.825 C 195.928,69.264 196.186,69.779 196.186,70.385 C 196.186,70.71 196.088,71.051 195.894,71.39 C 195.717,71.737 195.422,72.048 195.033,72.339 C 194.77,72.542 194.04,72.968 192.852,73.615 C 191.665,74.265 190.819,74.782 190.324,75.171 C 189.83,75.565 189.448,75.98 189.186,76.447 C 188.928,76.918 188.801,77.422 188.801,77.984 C 188.801,78.963 189.18,79.8 189.934,80.503 C 190.71,81.205 191.679,81.556 192.852,81.556 C 193.589,81.556 194.366,81.376 195.188,81.029 C 195.578,80.861 195.842,80.778 195.993,80.778 C 196.182,80.778 196.319,80.834 196.432,80.932 C 196.552,81.032 196.638,81.243 196.701,81.556 L 197.084,81.556 Z" marker-start="none" marker-end="none"/>
      <path d="M 212.412,72.227 L 207.053,72.227 L 206.104,70.093 C 205.886,69.569 205.763,69.175 205.763,68.916 C 205.763,68.707 205.864,68.52 206.066,68.372 C 206.27,68.218 206.7,68.107 207.368,68.065 L 207.368,67.698 L 203.005,67.698 L 203.005,68.065 C 203.583,68.168 203.956,68.296 204.126,68.457 C 204.484,68.778 204.864,69.425 205.287,70.404 L 210.161,81.556 L 210.516,81.556 L 215.335,70.275 C 215.723,69.376 216.077,68.792 216.391,68.52 C 216.706,68.25 217.15,68.098 217.721,68.065 L 217.721,67.698 L 212.251,67.698 L 212.251,68.065 C 212.802,68.089 213.173,68.174 213.368,68.335 C 213.566,68.494 213.657,68.67 213.657,68.895 C 213.657,69.181 213.527,69.652 213.255,70.275 L 212.412,72.227 Z M 212.132,72.968 L 209.781,78.451 L 207.368,72.968 L 212.132,72.968 Z" marker-start="none" marker-end="none"/>
      <path d="M 234.506,81.556 L 234.869,77.277 L 234.506,77.277 C 234.143,78.347 233.674,79.145 233.118,79.689 C 232.283,80.469 231.228,80.854 229.936,80.854 C 228.168,80.854 226.821,80.174 225.908,78.803 C 225.138,77.663 224.753,76.284 224.753,74.69 C 224.753,73.397 225.019,72.219 225.522,71.152 C 226.034,70.091 226.697,69.306 227.525,68.809 C 228.353,68.308 229.202,68.065 230.072,68.065 C 230.589,68.065 231.077,68.13 231.562,68.258 C 232.038,68.378 232.492,68.565 232.932,68.809 L 232.932,72.733 C 232.932,73.411 232.885,73.853 232.784,74.065 C 232.674,74.27 232.504,74.435 232.285,74.538 C 232.066,74.662 231.669,74.708 231.121,74.708 L 231.121,75.079 L 236.479,75.079 L 236.479,74.708 L 236.225,74.708 C 235.694,74.708 235.331,74.538 235.134,74.193 C 234.996,73.949 234.927,73.456 234.927,72.733 L 234.927,68.579 C 234.143,68.174 233.369,67.862 232.605,67.669 C 231.85,67.479 230.999,67.383 230.07,67.383 C 227.393,67.383 225.359,68.226 223.973,69.898 C 222.927,71.165 222.405,72.609 222.405,74.259 C 222.405,75.465 222.696,76.596 223.288,77.684 C 223.983,78.983 224.931,79.981 226.148,80.683 C 227.16,81.269 228.36,81.556 229.738,81.556 C 230.242,81.556 230.706,81.516 231.115,81.438 C 231.523,81.351 232.109,81.175 232.861,80.91 C 233.237,80.761 233.502,80.693 233.634,80.693 C 233.762,80.693 233.869,80.751 233.966,80.872 C 234.051,80.988 234.11,81.217 234.135,81.556 L 234.506,81.556 Z" marker-start="none" marker-end="none"/>
      <path d="M 246.954,68.065 L 246.954,67.698 L 241.02,67.698 L 241.02,68.065 L 241.51,68.065 C 242.069,68.065 242.493,68.226 242.76,68.558 C 242.913,68.767 243.002,69.282 243.002,70.093 L 243.002,78.848 C 243.002,79.532 242.961,79.981 242.87,80.207 C 242.798,80.372 242.666,80.515 242.441,80.637 C 242.146,80.799 241.836,80.872 241.51,80.872 L 241.02,80.872 L 241.02,81.246 L 246.954,81.246 L 246.954,80.872 L 246.453,80.872 C 245.886,80.872 245.473,80.712 245.212,80.382 C 245.045,80.174 244.963,79.661 244.963,78.848 L 244.963,70.093 C 244.963,69.409 245.006,68.95 245.097,68.731 C 245.163,68.565 245.308,68.419 245.523,68.303 C 245.82,68.143 246.124,68.065 246.453,68.065 L 246.954,68.065 Z" marker-start="none" marker-end="none"/>
      <path d="M 250.907,81.246 L 254.672,81.246 L 263.132,71.078 L 263.132,78.898 C 263.132,79.732 263.043,80.245 262.848,80.457 C 262.593,80.731 262.2,80.872 261.659,80.872 L 261.172,80.872 L 261.172,81.246 L 265.996,81.246 L 265.996,80.872 L 265.505,80.872 C 264.915,80.872 264.505,80.708 264.261,80.36 C 264.108,80.144 264.035,79.661 264.035,78.898 L 264.035,67.477 L 263.662,67.477 L 254.534,78.385 L 254.534,70.045 C 254.534,69.213 254.628,68.693 254.811,68.487 C 255.066,68.2 255.471,68.065 256.011,68.065 L 256.499,68.065 L 256.499,67.698 L 251.675,67.698 L 251.675,68.065 L 252.154,68.065 C 252.749,68.065 253.165,68.239 253.411,68.579 C 253.563,68.792 253.639,69.282 253.639,70.045 L 253.639,79.468 C 253.239,79.932 252.933,80.226 252.719,80.376 C 252.51,80.515 252.209,80.664 251.807,80.787 C 251.608,80.844 251.311,80.872 250.907,80.872 L 250.907,81.246 Z" marker-start="none" marker-end="none"/>
      <path d="M 277.665,81.556 C 279.463,81.556 281.015,80.886 282.336,79.544 C 283.655,78.215 284.312,76.548 284.312,74.548 C 284.312,72.497 283.648,70.777 282.315,69.425 C 280.991,68.065 279.383,67.383 277.501,67.383 C 275.582,67.383 273.989,68.049 272.696,69.371 C 271.403,70.701 270.743,72.417 270.743,74.526 C 270.743,76.672 271.497,78.425 272.992,79.788 C 274.291,80.968 275.848,81.556 277.665,81.556 Z M 277.466,80.819 C 276.237,80.819 275.233,80.376 274.484,79.476 C 273.55,78.354 273.086,76.715 273.086,74.558 C 273.086,72.35 273.57,70.643 274.541,69.457 C 275.274,68.545 276.257,68.095 277.48,68.089 C 278.781,68.095 279.861,68.583 280.695,69.584 C 281.547,70.575 281.977,72.136 281.977,74.28 C 281.977,76.596 281.504,78.326 280.574,79.468 C 279.823,80.372 278.787,80.819 277.466,80.819 Z" marker-start="none" marker-end="none"/>
      <path d="M 310.626,81.556 L 310.982,77.277 L 310.626,77.277 C 310.258,78.347 309.8,79.145 309.221,79.689 C 308.405,80.469 307.342,80.854 306.055,80.854 C 304.284,80.854 302.945,80.174 302.025,78.803 C 301.264,77.663 300.869,76.284 300.869,74.69 C 300.869,73.397 301.125,72.219 301.639,71.152 C 302.151,70.091 302.818,69.306 303.644,68.809 C 304.474,68.308 305.32,68.065 306.192,68.065 C 306.701,68.065 307.197,68.13 307.681,68.258 C 308.151,68.378 308.606,68.565 309.053,68.809 L 309.053,72.733 C 309.053,73.411 309.004,73.853 308.897,74.065 C 308.787,74.27 308.614,74.435 308.405,74.538 C 308.176,74.662 307.791,74.708 307.238,74.708 L 307.238,75.079 L 312.593,75.079 L 312.593,74.708 L 312.344,74.708 C 311.813,74.708 311.443,74.538 311.248,74.193 C 311.111,73.949 311.045,73.456 311.045,72.733 L 311.045,68.579 C 310.258,68.174 309.488,67.862 308.727,67.669 C 307.966,67.479 307.113,67.383 306.181,67.383 C 303.505,67.383 301.476,68.226 300.086,69.898 C 299.048,71.165 298.517,72.609 298.517,74.259 C 298.517,75.465 298.817,76.596 299.407,77.684 C 300.091,78.983 301.05,79.981 302.252,80.683 C 303.277,81.269 304.475,81.556 305.852,81.556 C 306.36,81.556 306.817,81.516 307.229,81.438 C 307.637,81.351 308.224,81.175 308.978,80.91 C 309.36,80.761 309.619,80.693 309.752,80.693 C 309.87,80.693 309.984,80.751 310.077,80.872 C 310.173,80.988 310.22,81.217 310.247,81.556 L 310.626,81.556 Z" marker-start="none" marker-end="none"/>
      <path d="M 330.751,67.698 L 327.051,67.698 L 322.369,74.031 C 322.017,74.016 321.731,74.014 321.522,74.014 C 321.426,74.014 321.327,74.014 321.223,74.014 C 321.135,74.016 321.023,74.027 320.919,74.031 L 320.919,70.093 C 320.919,69.239 321.008,68.71 321.202,68.498 C 321.457,68.218 321.841,68.065 322.369,68.065 L 322.902,68.065 L 322.902,67.698 L 316.974,67.698 L 316.974,68.065 L 317.495,68.065 C 318.083,68.065 318.491,68.25 318.75,68.621 C 318.892,68.83 318.96,69.323 318.96,70.093 L 318.96,78.848 C 318.96,79.704 318.866,80.226 318.681,80.44 C 318.407,80.731 318.017,80.872 317.495,80.872 L 316.974,80.872 L 316.974,81.246 L 322.017,81.246 C 323.489,81.246 324.574,81.136 325.27,80.932 C 325.971,80.712 326.557,80.335 327.045,79.772 C 327.528,79.205 327.783,78.534 327.783,77.751 C 327.783,76.921 327.497,76.206 326.947,75.58 C 326.385,74.975 325.531,74.538 324.358,74.287 L 327.227,70.404 C 327.873,69.513 328.441,68.916 328.912,68.621 C 329.38,68.33 329.996,68.143 330.751,68.065 L 330.751,67.698 Z M 320.919,74.662 C 321.041,74.662 321.155,74.662 321.251,74.662 C 321.345,74.652 321.414,74.65 321.488,74.65 C 322.795,74.65 323.803,74.931 324.476,75.496 C 325.145,76.049 325.475,76.766 325.475,77.632 C 325.475,78.476 325.212,79.161 324.66,79.689 C 324.12,80.218 323.405,80.486 322.514,80.486 C 322.121,80.486 321.584,80.419 320.919,80.285 L 320.919,74.662 Z" marker-start="none" marker-end="none"/>
      <path d="M 341.93,81.556 C 343.733,81.556 345.291,80.886 346.613,79.544 C 347.926,78.215 348.587,76.548 348.587,74.548 C 348.587,72.497 347.917,70.777 346.592,69.425 C 345.258,68.065 343.652,67.383 341.774,67.383 C 339.859,67.383 338.264,68.049 336.963,69.371 C 335.66,70.701 335.017,72.417 335.017,74.526 C 335.017,76.672 335.762,78.425 337.268,79.788 C 338.565,80.968 340.123,81.556 341.93,81.556 Z M 341.738,80.819 C 340.504,80.819 339.51,80.376 338.751,79.476 C 337.824,78.354 337.353,76.715 337.353,74.558 C 337.353,72.35 337.846,70.643 338.807,69.457 C 339.554,68.545 340.527,68.095 341.75,68.089 C 343.054,68.095 344.122,68.583 344.972,69.584 C 345.816,70.575 346.245,72.136 346.245,74.28 C 346.245,76.596 345.778,78.326 344.844,79.468 C 344.095,80.372 343.063,80.819 341.738,80.819 Z" marker-start="none" marker-end="none"/>
      <path d="M 365.138,81.246 L 356.04,68.512 L 361.717,68.512 C 362.593,68.512 363.261,68.704 363.723,69.072 C 364.19,69.446 364.605,70.203 364.965,71.346 L 365.302,71.282 L 364.651,67.698 L 353.379,67.698 L 353.379,68.065 L 362.264,80.44 L 357.823,80.44 C 357.09,80.44 356.561,80.36 356.231,80.201 C 355.899,80.044 355.65,79.816 355.476,79.528 C 355.304,79.228 355.147,78.669 355,77.853 L 354.615,77.853 L 354.899,81.246 L 365.138,81.246 Z M 360.609,82.302 L 358.729,82.302 L 356.781,85.614 L 357.103,85.614 L 359.894,83.498 L 362.228,85.614 L 362.537,85.614 L 360.609,82.302 Z" marker-start="none" marker-end="none"/>
      <path d="M 376.067,68.065 L 376.067,67.698 L 370.132,67.698 L 370.132,68.065 L 370.622,68.065 C 371.194,68.065 371.614,68.226 371.866,68.558 C 372.029,68.767 372.113,69.282 372.113,70.093 L 372.113,78.848 C 372.113,79.532 372.071,79.981 371.979,80.207 C 371.915,80.372 371.769,80.515 371.558,80.637 C 371.256,80.799 370.951,80.872 370.622,80.872 L 370.132,80.872 L 370.132,81.246 L 376.067,81.246 L 376.067,80.872 L 375.561,80.872 C 375.005,80.872 374.588,80.712 374.333,80.382 C 374.163,80.174 374.07,79.661 374.07,78.848 L 374.07,70.093 C 374.07,69.409 374.115,68.95 374.204,68.731 C 374.27,68.565 374.42,68.419 374.63,68.303 C 374.924,68.143 375.236,68.065 375.561,68.065 L 376.067,68.065 Z" marker-start="none" marker-end="none"/>
      <path d="M 387.949,81.556 C 389.744,81.556 391.298,80.886 392.62,79.544 C 393.939,78.215 394.595,76.548 394.595,74.548 C 394.595,72.497 393.932,70.777 392.599,69.425 C 391.272,68.065 389.674,67.383 387.787,67.383 C 385.875,67.383 384.273,68.049 382.976,69.371 C 381.686,70.701 381.032,72.417 381.032,74.526 C 381.032,76.672 381.784,78.425 383.282,79.788 C 384.575,80.968 386.13,81.556 387.949,81.556 Z M 387.75,80.819 C 386.521,80.819 385.518,80.376 384.773,79.476 C 383.835,78.354 383.366,76.715 383.366,74.558 C 383.366,72.35 383.854,70.643 384.828,69.457 C 385.564,68.545 386.542,68.095 387.759,68.089 C 389.068,68.095 390.141,68.583 390.986,69.584 C 391.83,70.575 392.257,72.136 392.257,74.28 C 392.257,76.596 391.786,78.326 390.862,79.468 C 390.105,80.372 389.075,80.819 387.75,80.819 Z" marker-start="none" marker-end="none"/>
     </g>
    </g>
    <g id="Group_4" fill-rule="nonzero" stroke-linejoin="round" stroke-linecap="round" stroke="none" stroke-width="0.484" fill="#000000" stroke-miterlimit="79.8403193612775">
     <path d="M 173.263,47.758 L 178.364,42.785 C 179.204,41.974 179.916,41.414 180.514,41.114 C 181.109,40.825 181.696,40.654 182.29,40.614 L 182.29,40.247 L 175.702,40.247 L 175.702,40.614 C 176.104,40.614 176.382,40.678 176.561,40.809 C 176.73,40.94 176.812,41.082 176.812,41.244 C 176.812,41.396 176.784,41.548 176.715,41.681 C 176.66,41.793 176.441,42.038 176.079,42.377 L 171.299,47.007 L 171.299,42.642 C 171.299,41.958 171.349,41.498 171.433,41.28 C 171.502,41.114 171.643,40.967 171.863,40.851 C 172.162,40.689 172.466,40.614 172.79,40.614 L 173.263,40.614 L 173.263,40.247 L 167.358,40.247 L 167.358,40.614 L 167.841,40.614 C 168.416,40.614 168.836,40.775 169.098,41.107 C 169.255,41.315 169.335,41.831 169.335,42.642 L 169.335,51.396 C 169.335,52.081 169.296,52.541 169.206,52.766 C 169.136,52.924 169.002,53.064 168.785,53.186 C 168.491,53.348 168.177,53.42 167.841,53.42 L 167.358,53.42 L 167.358,53.794 L 173.263,53.794 L 173.263,53.42 L 172.79,53.42 C 172.468,53.42 172.165,53.348 171.863,53.193 C 171.651,53.087 171.502,52.929 171.415,52.716 C 171.337,52.501 171.299,52.057 171.299,51.396 L 171.299,47.247 C 171.433,47.376 171.9,47.796 172.702,48.52 C 174.719,50.327 175.945,51.542 176.366,52.148 C 176.551,52.414 176.64,52.645 176.64,52.833 C 176.64,52.997 176.563,53.135 176.429,53.256 C 176.286,53.366 176.041,53.42 175.702,53.42 L 175.383,53.42 L 175.383,53.794 L 180.47,53.794 L 180.47,53.42 C 180.174,53.42 179.899,53.382 179.651,53.299 C 179.41,53.23 179.11,53.093 178.76,52.882 C 178.406,52.673 177.969,52.326 177.449,51.862 C 177.304,51.733 176.609,51.044 175.381,49.812 L 173.263,47.758 Z" marker-start="none" marker-end="none"/>
     <path d="M 195.828,53.42 L 195.828,53.794 L 200.734,53.794 L 200.734,53.42 L 200.207,53.42 C 199.665,53.42 199.246,53.2 198.947,52.754 C 198.81,52.549 198.738,52.062 198.738,51.313 L 198.738,45.82 C 198.738,44.461 198.603,43.409 198.326,42.651 C 198.043,41.907 197.511,41.259 196.701,40.721 C 195.897,40.197 194.797,39.926 193.409,39.926 C 191.902,39.926 190.744,40.18 189.965,40.689 C 189.185,41.205 188.624,41.896 188.295,42.762 C 188.079,43.353 187.974,44.463 187.974,46.097 L 187.974,51.396 C 187.974,52.224 187.851,52.767 187.615,53.034 C 187.381,53.294 187.005,53.42 186.489,53.42 L 185.96,53.42 L 185.96,53.794 L 191.943,53.794 L 191.943,53.42 L 191.41,53.42 C 190.839,53.42 190.434,53.25 190.184,52.891 C 190.013,52.656 189.931,52.151 189.931,51.396 L 189.931,45.491 C 189.931,44.966 189.984,44.361 190.078,43.683 C 190.179,43.007 190.356,42.475 190.612,42.087 C 190.878,41.712 191.25,41.396 191.736,41.148 C 192.219,40.908 192.818,40.777 193.53,40.777 C 194.439,40.777 195.238,40.975 195.963,41.358 C 196.671,41.749 197.159,42.242 197.422,42.848 C 197.683,43.45 197.82,44.466 197.82,45.91 L 197.82,51.396 C 197.82,52.244 197.721,52.767 197.531,52.989 C 197.26,53.28 196.874,53.42 196.35,53.42 L 195.828,53.42 Z M 190.612,56.588 L 197.131,56.588 L 197.131,55.309 L 190.612,55.309 L 190.612,56.588 Z" marker-start="none" marker-end="none"/>
     <path d="M 218.806,40.247 L 215.097,40.247 L 210.413,46.579 C 210.071,46.565 209.783,46.561 209.571,46.561 C 209.471,46.561 209.375,46.561 209.279,46.561 C 209.175,46.565 209.068,46.574 208.961,46.579 L 208.961,42.642 C 208.961,41.787 209.062,41.259 209.252,41.046 C 209.506,40.766 209.897,40.614 210.413,40.614 L 210.95,40.614 L 210.95,40.247 L 205.014,40.247 L 205.014,40.614 L 205.545,40.614 C 206.126,40.614 206.547,40.797 206.801,41.169 C 206.934,41.379 207.011,41.871 207.011,42.642 L 207.011,51.396 C 207.011,52.252 206.914,52.775 206.722,52.989 C 206.466,53.28 206.075,53.42 205.545,53.42 L 205.014,53.42 L 205.014,53.794 L 210.071,53.794 C 211.541,53.794 212.622,53.685 213.32,53.481 C 214.011,53.261 214.612,52.882 215.097,52.32 C 215.581,51.753 215.825,51.083 215.825,50.298 C 215.825,49.469 215.553,48.753 214.988,48.129 C 214.444,47.523 213.582,47.087 212.418,46.836 L 215.272,42.952 C 215.93,42.062 216.489,41.462 216.956,41.169 C 217.427,40.878 218.042,40.689 218.806,40.614 L 218.806,40.247 Z M 208.961,47.21 C 209.086,47.21 209.212,47.21 209.301,47.21 C 209.4,47.2 209.471,47.198 209.539,47.198 C 210.854,47.198 211.852,47.478 212.521,48.043 C 213.194,48.597 213.527,49.315 213.527,50.18 C 213.527,51.024 213.257,51.71 212.719,52.237 C 212.176,52.766 211.458,53.034 210.562,53.034 C 210.174,53.034 209.635,52.967 208.961,52.833 L 208.961,47.21 Z" marker-start="none" marker-end="none"/>
     <path d="M 226.711,53.055 L 226.711,47.695 L 229.754,47.695 C 230.542,47.695 231.064,47.815 231.333,48.054 C 231.687,48.356 231.881,48.891 231.926,49.661 L 232.305,49.661 L 232.305,44.95 L 231.926,44.95 C 231.83,45.611 231.741,46.031 231.644,46.22 C 231.513,46.455 231.321,46.636 231.041,46.772 C 230.758,46.897 230.326,46.968 229.754,46.968 L 226.711,46.968 L 226.711,42.505 C 226.711,41.899 226.739,41.53 226.787,41.412 C 226.841,41.28 226.938,41.169 227.076,41.093 C 227.214,41.022 227.474,40.978 227.851,40.978 L 230.21,40.978 C 230.979,40.978 231.548,41.042 231.902,41.148 C 232.254,41.253 232.603,41.46 232.924,41.777 C 233.35,42.191 233.78,42.81 234.224,43.644 L 234.628,43.644 L 233.431,40.247 L 222.771,40.247 L 222.771,40.614 L 223.255,40.614 C 223.58,40.614 223.892,40.689 224.179,40.844 C 224.405,40.95 224.547,41.109 224.624,41.327 C 224.699,41.53 224.743,41.974 224.743,42.631 L 224.743,51.432 C 224.743,52.293 224.653,52.824 224.48,53.023 C 224.238,53.29 223.825,53.42 223.255,53.42 L 222.771,53.42 L 222.771,53.794 L 233.431,53.794 L 233.595,50.823 L 233.193,50.823 C 233.049,51.542 232.888,52.027 232.716,52.293 C 232.545,52.556 232.29,52.766 231.946,52.909 C 231.673,53.005 231.196,53.055 230.506,53.055 L 226.711,53.055 Z M 228.724,57.324 C 229.032,57.324 229.295,57.219 229.514,56.996 C 229.728,56.785 229.848,56.538 229.848,56.224 C 229.848,55.929 229.728,55.679 229.514,55.463 C 229.295,55.247 229.032,55.141 228.724,55.141 C 228.423,55.141 228.159,55.247 227.942,55.463 C 227.719,55.679 227.616,55.929 227.616,56.224 C 227.616,56.538 227.719,56.785 227.936,56.996 C 228.154,57.219 228.421,57.324 228.724,57.324 Z" marker-start="none" marker-end="none"/>
     <path d="M 240.917,53.42 L 240.917,53.794 L 246.851,53.794 L 246.851,53.42 L 246.356,53.42 C 245.786,53.42 245.377,53.261 245.114,52.929 C 244.947,52.721 244.874,52.21 244.874,51.396 L 244.874,44.767 C 244.874,43.751 244.751,42.923 244.532,42.29 C 244.298,41.653 243.901,41.109 243.35,40.638 C 242.79,40.166 242.113,39.93 241.323,39.93 C 240.683,39.93 240.184,40.091 239.811,40.4 C 239.443,40.71 239.26,41.06 239.26,41.462 C 239.26,41.787 239.355,42.038 239.524,42.201 C 239.746,42.411 240.008,42.513 240.314,42.513 C 240.523,42.513 240.722,42.441 240.888,42.3 C 241.064,42.156 241.282,41.787 241.554,41.186 C 241.711,40.827 241.911,40.643 242.16,40.638 C 242.332,40.643 242.513,40.748 242.665,40.967 C 242.828,41.19 242.916,41.578 242.916,42.138 L 242.916,51.396 C 242.916,52.081 242.86,52.528 242.776,52.754 C 242.709,52.921 242.559,53.064 242.348,53.186 C 242.056,53.348 241.744,53.42 241.42,53.42 L 240.917,53.42 Z" marker-start="none" marker-end="none"/>
     <path d="M 260.665,53.42 L 260.665,53.794 L 265.574,53.794 L 265.574,53.42 L 265.053,53.42 C 264.512,53.42 264.095,53.2 263.797,52.754 C 263.655,52.549 263.578,52.062 263.578,51.313 L 263.578,45.82 C 263.578,44.461 263.45,43.409 263.163,42.651 C 262.89,41.907 262.354,41.259 261.547,40.721 C 260.738,40.197 259.641,39.926 258.25,39.926 C 256.735,39.926 255.599,40.18 254.811,40.689 C 254.023,41.205 253.467,41.896 253.142,42.762 C 252.924,43.353 252.82,44.463 252.82,46.097 L 252.82,51.396 C 252.82,52.224 252.701,52.767 252.466,53.034 C 252.229,53.294 251.852,53.42 251.324,53.42 L 250.81,53.42 L 250.81,53.794 L 256.79,53.794 L 256.79,53.42 L 256.26,53.42 C 255.686,53.42 255.281,53.25 255.029,52.891 C 254.864,52.656 254.776,52.151 254.776,51.396 L 254.776,45.491 C 254.776,44.966 254.832,44.361 254.922,43.683 C 255.029,43.007 255.201,42.475 255.455,42.087 C 255.722,41.712 256.093,41.396 256.582,41.148 C 257.064,40.908 257.666,40.777 258.374,40.777 C 259.279,40.777 260.087,40.975 260.813,41.358 C 261.517,41.749 262.012,42.242 262.271,42.848 C 262.527,43.45 262.661,44.466 262.661,45.91 L 262.661,51.396 C 262.661,52.244 262.565,52.767 262.373,52.989 C 262.112,53.28 261.716,53.42 261.19,53.42 L 260.665,53.42 Z M 260.373,40.844 C 260.181,40.638 259.988,40.439 259.79,40.217 C 259.583,40.009 259.405,39.788 259.248,39.56 C 259.086,39.345 258.937,39.105 258.833,38.857 C 258.727,38.615 258.667,38.364 258.66,38.106 C 258.65,37.756 258.734,37.465 258.929,37.232 C 259.124,36.998 259.39,36.884 259.734,36.884 C 259.861,36.884 260.007,36.909 260.173,36.951 C 260.335,36.998 260.485,37.062 260.618,37.147 L 260.765,36.856 C 260.498,36.586 260.219,36.376 259.933,36.211 C 259.646,36.039 259.332,35.949 258.959,35.949 C 258.71,35.949 258.472,35.997 258.272,36.077 C 258.068,36.163 257.891,36.282 257.755,36.42 C 257.618,36.571 257.51,36.741 257.439,36.929 C 257.368,37.117 257.334,37.322 257.347,37.53 C 257.358,37.82 257.426,38.106 257.548,38.376 C 257.69,38.641 257.851,38.912 258.059,39.143 C 258.178,39.278 258.302,39.418 258.415,39.528 C 258.536,39.645 258.671,39.762 258.816,39.893 C 258.959,40.024 259.119,40.159 259.31,40.308 C 259.502,40.448 259.735,40.627 260.018,40.844 L 260.373,40.844 Z" marker-start="none" marker-end="none"/>
     <path d="M 288.062,54.104 L 288.062,49.416 L 287.685,49.416 C 287.559,50.317 287.34,51.036 287.025,51.561 C 286.706,52.093 286.257,52.519 285.676,52.833 C 285.09,53.154 284.483,53.299 283.854,53.299 C 283.141,53.299 282.56,53.093 282.096,52.673 C 281.632,52.244 281.401,51.762 281.401,51.228 C 281.401,50.809 281.548,50.436 281.839,50.096 C 282.26,49.593 283.264,48.929 284.853,48.094 C 286.142,47.416 287.025,46.897 287.503,46.536 C 287.977,46.166 288.344,45.742 288.595,45.254 C 288.857,44.758 288.978,44.237 288.978,43.701 C 288.978,42.678 288.574,41.787 287.759,41.046 C 286.943,40.308 285.899,39.93 284.62,39.93 C 284.217,39.93 283.836,39.961 283.484,40.024 C 283.269,40.058 282.836,40.18 282.172,40.387 C 281.507,40.595 281.092,40.699 280.908,40.699 C 280.735,40.699 280.603,40.654 280.502,40.549 C 280.411,40.448 280.331,40.249 280.289,39.93 L 279.904,39.93 L 279.904,44.578 L 280.289,44.578 C 280.463,43.608 280.697,42.878 281.003,42.4 C 281.305,41.909 281.764,41.51 282.375,41.19 C 282.998,40.874 283.664,40.716 284.405,40.71 C 285.256,40.716 285.927,40.927 286.42,41.374 C 286.923,41.813 287.162,42.327 287.162,42.934 C 287.162,43.258 287.065,43.6 286.88,43.939 C 286.693,44.285 286.402,44.595 286.009,44.888 C 285.737,45.09 285.022,45.517 283.829,46.164 C 282.655,46.812 281.802,47.331 281.305,47.719 C 280.806,48.111 280.424,48.527 280.172,48.996 C 279.904,49.467 279.772,49.97 279.772,50.533 C 279.772,51.511 280.16,52.349 280.927,53.052 C 281.684,53.751 282.656,54.104 283.829,54.104 C 284.57,54.104 285.337,53.925 286.171,53.577 C 286.552,53.409 286.817,53.326 286.978,53.326 C 287.157,53.326 287.299,53.382 287.409,53.481 C 287.523,53.581 287.609,53.79 287.685,54.104 L 288.062,54.104 Z" marker-start="none" marker-end="none"/>
     <path d="M 305.92,53.794 L 306.08,50.618 L 305.681,50.618 C 305.611,51.177 305.512,51.57 305.38,51.817 C 305.171,52.197 304.892,52.488 304.541,52.673 C 304.189,52.854 303.734,52.945 303.158,52.945 L 301.204,52.945 L 301.204,42.592 C 301.204,41.762 301.297,41.241 301.478,41.034 C 301.742,40.748 302.141,40.614 302.672,40.614 L 303.158,40.614 L 303.158,40.247 L 297.278,40.247 L 297.278,40.614 L 297.769,40.614 C 298.362,40.614 298.77,40.786 299.026,41.127 C 299.17,41.341 299.243,41.831 299.243,42.592 L 299.243,52.945 L 297.589,52.945 C 296.935,52.945 296.471,52.901 296.203,52.798 C 295.847,52.681 295.546,52.427 295.298,52.074 C 295.041,51.71 294.889,51.231 294.839,50.618 L 294.459,50.618 L 294.61,53.794 L 305.92,53.794 Z" marker-start="none" marker-end="none"/>
     <path d="M 320.302,53.42 L 320.302,53.794 L 325.199,53.794 L 325.199,53.42 L 324.684,53.42 C 324.134,53.42 323.713,53.2 323.427,52.754 C 323.279,52.549 323.209,52.062 323.209,51.313 L 323.209,45.82 C 323.209,44.461 323.072,43.409 322.8,42.651 C 322.517,41.907 321.978,41.259 321.171,40.721 C 320.363,40.197 319.261,39.926 317.873,39.926 C 316.365,39.926 315.222,40.18 314.436,40.689 C 313.652,41.205 313.096,41.896 312.771,42.762 C 312.559,43.353 312.439,44.463 312.446,46.097 L 312.446,51.396 C 312.439,52.224 312.328,52.767 312.094,53.034 C 311.861,53.294 311.479,53.42 310.957,53.42 L 310.436,53.42 L 310.436,53.794 L 316.424,53.794 L 316.424,53.42 L 315.889,53.42 C 315.316,53.42 314.908,53.25 314.658,52.891 C 314.488,52.656 314.405,52.151 314.405,51.396 L 314.405,45.491 C 314.405,44.966 314.455,44.361 314.556,43.683 C 314.65,43.007 314.83,42.475 315.09,42.087 C 315.351,41.712 315.724,41.396 316.209,41.148 C 316.695,40.908 317.295,40.777 318.003,40.777 C 318.908,40.777 319.716,40.975 320.43,41.358 C 321.143,41.749 321.635,42.242 321.896,42.848 C 322.158,43.45 322.291,44.466 322.291,45.91 L 322.291,51.396 C 322.291,52.244 322.197,52.767 322.004,52.989 C 321.74,53.28 321.342,53.42 320.816,53.42 L 320.302,53.42 Z" marker-start="none" marker-end="none"/>
     <path d="M 329.51,40.247 L 329.51,40.614 L 330.019,40.614 C 330.612,40.614 331.029,40.797 331.272,41.163 C 331.422,41.379 331.501,41.871 331.501,42.642 L 331.501,51.396 C 331.501,52.244 331.4,52.767 331.208,52.989 C 330.94,53.28 330.549,53.42 330.019,53.42 L 329.51,53.42 L 329.51,53.794 L 335.145,53.794 C 337.212,53.794 338.788,53.567 339.865,53.106 C 340.946,52.645 341.813,51.881 342.474,50.809 C 343.13,49.729 343.456,48.498 343.456,47.087 C 343.456,45.202 342.87,43.626 341.696,42.361 C 340.389,40.95 338.379,40.247 335.699,40.247 L 329.51,40.247 Z M 333.46,41.217 C 334.325,41.042 335.048,40.94 335.635,40.94 C 337.212,40.94 338.516,41.484 339.567,42.575 C 340.605,43.657 341.134,45.132 341.134,46.988 C 341.134,48.861 340.605,50.334 339.567,51.415 C 338.516,52.493 337.178,53.034 335.551,53.034 C 334.944,53.034 334.237,52.941 333.46,52.746 L 333.46,41.217 Z" marker-start="none" marker-end="none"/>
     <path d="M 354.425,40.614 L 354.425,40.247 L 348.497,40.247 L 348.497,40.614 L 348.986,40.614 C 349.552,40.614 349.974,40.775 350.222,41.107 C 350.396,41.315 350.475,41.831 350.475,42.642 L 350.475,51.396 C 350.475,52.081 350.428,52.528 350.343,52.754 C 350.277,52.921 350.133,53.064 349.922,53.186 C 349.617,53.348 349.31,53.42 348.986,53.42 L 348.497,53.42 L 348.497,53.794 L 354.425,53.794 L 354.425,53.42 L 353.937,53.42 C 353.365,53.42 352.947,53.261 352.689,52.929 C 352.518,52.721 352.441,52.21 352.441,51.396 L 352.441,42.642 C 352.441,41.958 352.477,41.498 352.575,41.28 C 352.641,41.114 352.786,40.967 353,40.851 C 353.289,40.689 353.599,40.614 353.937,40.614 L 354.425,40.614 Z" marker-start="none" marker-end="none"/>
     <path d="M 360.747,53.42 L 360.747,53.794 L 366.681,53.794 L 366.681,53.42 L 366.176,53.42 C 365.611,53.42 365.202,53.261 364.942,52.929 C 364.776,52.721 364.7,52.21 364.7,51.396 L 364.7,44.767 C 364.7,43.751 364.58,42.923 364.358,42.29 C 364.125,41.653 363.729,41.109 363.174,40.638 C 362.616,40.166 361.942,39.93 361.15,39.93 C 360.514,39.93 360.012,40.091 359.651,40.4 C 359.27,40.71 359.09,41.06 359.09,41.462 C 359.09,41.787 359.176,42.038 359.339,42.201 C 359.569,42.411 359.838,42.513 360.135,42.513 C 360.348,42.513 360.544,42.441 360.715,42.3 C 360.896,42.156 361.117,41.787 361.378,41.186 C 361.536,40.827 361.737,40.643 361.98,40.638 C 362.168,40.643 362.34,40.748 362.502,40.967 C 362.654,41.19 362.74,41.578 362.74,42.138 L 362.74,51.396 C 362.74,52.081 362.686,52.528 362.608,52.754 C 362.537,52.921 362.39,53.064 362.172,53.186 C 361.886,53.348 361.579,53.42 361.246,53.42 L 360.747,53.42 Z" marker-start="none" marker-end="none"/>
     <path d="M 380.089,44.776 L 374.722,44.776 L 373.789,42.642 C 373.554,42.118 373.443,41.723 373.443,41.462 C 373.443,41.255 373.539,41.069 373.744,40.921 C 373.945,40.766 374.38,40.656 375.05,40.614 L 375.05,40.247 L 370.689,40.247 L 370.689,40.614 C 371.263,40.716 371.636,40.844 371.81,41.006 C 372.153,41.327 372.547,41.974 372.962,42.952 L 377.837,54.104 L 378.194,54.104 L 383.015,42.824 C 383.401,41.925 383.751,41.341 384.061,41.069 C 384.383,40.797 384.824,40.645 385.392,40.614 L 385.392,40.247 L 379.928,40.247 L 379.928,40.614 C 380.479,40.638 380.849,40.721 381.048,40.882 C 381.235,41.042 381.335,41.217 381.335,41.443 C 381.335,41.73 381.204,42.201 380.925,42.824 L 380.089,44.776 Z M 379.809,45.517 L 377.458,51 L 375.05,45.517 L 379.809,45.517 Z" marker-start="none" marker-end="none"/>
    </g>
   </g>
  </g>
 </g>
</svg>
