<svg xmlns="http://www.w3.org/2000/svg" stroke-width=".501" stroke-linejoin="bevel" fill-rule="evenodd" overflow="visible" width="737" height="336" viewBox="0 0 552.75 252" xmlns:v="https://vecta.io/nano"><defs><linearGradient id="A" gradientUnits="userSpaceOnUse" x1="0" y1="0" x2="505.157" y2="0" gradientTransform="translate(5.889 191.185) rotate(-15.643) skewX(0.657582)"><stop offset="0" stop-color="#6a22ff"/><stop offset="1" stop-color="red"/></linearGradient></defs><g transform="matrix(1 0 0 -1 0 252)" fill-rule="nonzero" stroke="none"><path d="M.055 126.511c.084-.773.293-1.714.645-2.824.349-1.101.822-2.198 1.413-3.286.598-1.088 1.295-2.002 2.094-2.729.807-.731 1.71-1.113 2.688-1.144.22-.002.478.041.766.125.293.088.617.241.983.448.83.578 1.208 1.202 1.152 1.872-.069.669-.307 1.327-.718 1.975-.703 1.855-1.004 3.675-.907 5.476a19.73 19.73 0 0 0 1.055 5.368c.871 2.35 1.861 4.636 2.987 6.864s2.407 4.406 3.864 6.541l6.594 9.756a190.14 190.14 0 0 0 6.812 9.641l5.311 6.21c2.099 2.32 4.391 4.587 6.88 6.821 2.494 2.23 5.048 4.139 7.678 5.72 2.624 1.589 5.187 2.553 7.688 2.927 1.503.049 2.666-.127 3.471-.54s1.454-1.37 1.931-2.888a20.65 20.65 0 0 0 1.137-3.72 36.18 36.18 0 0 0 .593-3.836c.201-3.914.134-7.813-.208-11.675a138.98 138.98 0 0 0-1.522-11.571c-1.071-6.41-2.357-12.769-3.849-19.095l-4.181-18.982c-1.868-8.915-3.415-17.867-4.666-26.867a218.28 218.28 0 0 1-2.038-27.187c-.13-4.215.348-8.223 1.442-11.999 1.086-3.772 3.134-7.232 6.14-10.391 1-1.083 1.978-1.95 2.924-2.595.959-.649 1.989-1.11 3.094-1.396 1.112-.283 2.411-.415 3.888-.415 2.555.028 5.058.527 7.501 1.504 2.451.976 4.808 2.249 7.066 3.818a63.13 63.13 0 0 1 6.412 5.075c2.015 1.813 3.861 3.574 5.54 5.275a253.18 253.18 0 0 1 11.048 11.748c3.564 4.052 7.032 8.214 10.387 12.5a554.55 554.55 0 0 1 24.267 33.55c7.674 11.485 14.597 23.452 20.775 35.901 5.636 11.468 11.081 23.015 16.338 34.638s10.156 23.411 14.702 35.376c1.768 4.703 3.402 9.479 4.899 14.326 1.497 4.855 2.729 9.775 3.701 14.758.52 2.212.456 4.18-.185 5.907-.647 1.722-1.942 3.229-3.899 4.509-.155-.146-.282-.314-.402-.497-.112-.189-.179-.352-.179-.503-.52-2.843-1.212-5.634-2.068-8.374a257.18 257.18 0 0 1-2.422-8.253c-.763-2.758-1.253-5.584-1.485-8.474-.08-.422-.185-.822-.312-1.211l-.419-1.213-2.424-5.845c-.817-1.967-1.654-3.911-2.533-5.849l-7.92-16.695-7.817-16.803a169.31 169.31 0 0 0-4.173-8.526l-4.276-8.301c-.272-.503-.537-.959-.806-1.376-.264-.409-.679-.763-1.236-1.051.015.842.161 1.546.434 2.126a15.95 15.95 0 0 0 .875 1.585l3.211 6.327 3.2 6.221a14.39 14.39 0 0 1 .559 1.449c.155.492.155.965.006 1.426s-.58.875-1.286 1.262a4.23 4.23 0 0 1-1.335-1.338l-.996-1.656-4.832-8.113-4.939-8.001-17.397-28.028c-5.81-9.318-11.865-18.524-18.172-27.594l-8.052-11.444c-2.958-4.163-6.12-8.447-9.476-12.847s-6.825-8.692-10.408-12.865-7.189-7.995-10.847-11.471c-3.642-3.487-7.233-6.384-10.769-8.702-.435-.293-.808-.501-1.109-.645s-.564-.215-.774-.215c-.368 0-.654.187-.875.555-.214.374-.36.944-.433 1.726a72.11 72.11 0 0 0-.182 2.492c-.035.82-.028 1.646.042 2.501a240.74 240.74 0 0 0 .321 10.428c.18 3.472.651 6.98 1.411 10.541.32-1.063.44-2.049.348-2.964-.097-.913-.162-1.829-.202-2.746v-.143c.487.438.785.918.914 1.449.107.522.197 1.043.247 1.544.729 5.991 1.561 11.949 2.497 17.882l3.027 17.775 4.29 24.115c1.364 8.034 2.462 16.114 3.295 24.23.337 3.787.434 7.595.29 11.41-.136 3.821-.772 7.63-1.894 11.405-.773 2.835-2 5.37-3.695 7.634s-4.058 3.944-7.081 5.064a17.62 17.62 0 0 0-2.632 1.215c-.811.456-1.581 1.001-2.305 1.639-1.131.864-2.527 1.548-4.206 2.052-1.671.518-3.435.774-5.29.782-1.536.002-3.009-.213-4.409-.63a11.87 11.87 0 0 1-3.752-1.916c-4.582-3.653-8.782-7.309-12.601-10.982-3.83-3.67-7.324-7.5-10.499-11.479-3.18-3.991-6.091-8.285-8.747-12.88-2.65-4.6-5.101-9.642-7.35-15.15-1.2-2.78-2.151-5.629-2.854-8.56-.705-2.914-.97-5.91-.789-8.984zm56.25-70.303c.385 8.839 1.187 17.644 2.414 26.415 1.22 8.767 2.753 17.509 4.592 26.207a389.62 389.62 0 0 1 2.501 12.889c.769 4.305 1.673 8.566 2.728 12.782a70.11 70.11 0 0 1 1.127 6.165l.905 6.166c.308 2.042.749 4.07 1.316 6.064.123.574.168 1.176.132 1.808s-.031 1.299.028 1.993c.062.702.299 1.433.713 2.185.355-1.051.534-2 .553-2.849a17.38 17.38 0 0 0-.11-2.423 182.59 182.59 0 0 0-1.61-12.6l-2.032-12.495-4.852-30.841c-1.518-10.303-2.66-20.654-3.431-31.056l-.598-9.719a184.53 184.53 0 0 1-.274-9.826c.02-.716-.098-1.307-.35-1.763s-.77-.72-1.55-.798c-.865-.015-1.446.153-1.762.497-.309.344-.457.936-.44 1.783a100.58 100.58 0 0 0 0 9.416zm9.036-16.973c4.818 2.663 9.569 6.026 14.246 10.094s9.236 8.565 13.665 13.505a257.7 257.7 0 0 1 12.729 15.358c4.061 5.304 7.881 10.521 11.465 15.661l9.842 14.407 1.109 1.499c.377.501.79.998 1.222 1.497-.11-1.196-.442-2.269-.985-3.209l-1.636-2.78a574.83 574.83 0 0 0-8.801-14.674L109.07 76.03c-2.717-4.186-5.676-8.149-8.876-11.889-3.208-3.74-6.567-7.386-10.079-10.932a11.53 11.53 0 0 1-.437-.48c-.144-.17-.292-.293-.438-.374-2.456-1.028-4.748-2.284-6.877-3.77-2.133-1.492-4.219-3.038-6.262-4.634a69.94 69.94 0 0 0-6.397-4.43c-.611-.468-1.134-.815-1.562-1.041s-.875-.374-1.337-.442a11.52 11.52 0 0 0-1.753-.086c-.133.415-.161.726-.074.909s.201.31.363.374zm5.672 138.756c1.368-2.779 2.215-5.619 2.518-8.512a30.43 30.43 0 0 0-.327-8.735c-.464.902-.739 1.831-.819 2.792a23.53 23.53 0 0 0-.067 2.877 18.17 18.17 0 0 1-.141 2.884c-.144 1.498-.325 2.969-.527 4.404l-.637 4.29zm2.636-140.184c1.764 2.119 3.732 4.015 5.901 5.688 2.163 1.675 4.424 3.249 6.774 4.723-1.761-2.071-3.714-3.989-5.851-5.744-2.138-1.749-4.421-3.308-6.824-4.667zM57.913 193.684h-9.477c.869.434 1.71.783 2.514 1.037s1.566.391 2.295.393 1.462-.107 2.227-.34c.753-.228 1.572-.595 2.441-1.09zm2.494-156.019c.222.072.4.072.545-.021.148-.082.253-.265.327-.548-.074-.076-.143-.168-.213-.269-.073-.095-.149-.148-.22-.155a1.46 1.46 0 0 0-.608.071c-.174.054-.258.217-.273.497.015.081.068.172.167.266s.192.153.275.159z" fill-opacity=".247" fill="url(#A)"/><path d="M147.119 50.49c.889-3.524 2.381-6.513 4.475-8.969s4.634-4.324 7.649-5.601 6.348-1.929 10.015-1.936c4.453.06 8.848 1.006 13.181 2.828s8.509 4.197 12.545 7.105c4.026 2.901 7.815 5.999 11.37 9.292 3.548 3.287 6.769 6.429 9.661 9.41a927.74 927.74 0 0 1 22.719 23.546l22.169 24.089c.485.651 1.047 1.303 1.677 1.961.63.651 1.481 1.236 2.55 1.746l-2.35-11.001c-.808-3.551-1.925-6.972-3.334-10.251-.324.703-.398 1.391-.22 2.068.18.671.401 1.362.659 2.067a7.58 7.58 0 0 0 .345 1.071c.142.355.223.711.233 1.069a2.11 2.11 0 0 0 .202.929c.153.324.037.632-.34.926a1.08 1.08 0 0 0-.208-.146c-.053-.028-.083-.08-.09-.137-2.316-8.501-5.223-16.754-8.728-24.767-3.493-8.01-7.679-15.73-12.544-23.159-2.668-4.127-5.634-8.288-8.891-12.494-3.249-4.204-6.746-8.289-10.498-12.248-3.744-3.951-7.673-7.615-11.808-10.986s-8.402-6.29-12.817-8.746c-.219-.144-.406-.249-.587-.32-.172-.072-.371-.11-.578-.11-.077 0-.174.009-.292.023a.57.57 0 0 0-.295.122c-.344.217-.529.5-.544.823a3.27 3.27 0 0 0 .108 1.032l.473 1.593c.182.549.41 1.12.694 1.688 1.221 2.765 3.049 5.925 5.486 9.47s5.154 7.172 8.135 10.862a272.01 272.01 0 0 0 8.797 10.352c2.877 3.208 5.369 5.858 7.457 7.941.521.404 1.007.843 1.463 1.295.44.466.782 1.081 1.015 1.843-.359.081-.689.169-1.002.268s-.601.149-.895.16c-.211.004-.402-.005-.557-.035-.168-.028-.318-.112-.462-.251-.959-.471-1.946-.917-2.972-1.336a12.47 12.47 0 0 1-2.856-1.664c-1.955-1.613-4.199-3.546-6.743-5.8-2.532-2.26-5.178-4.707-7.922-7.35a208.51 208.51 0 0 1-8-8.13c-2.578-2.779-4.896-5.503-6.943-8.168s-3.635-5.154-4.776-7.457c-.874-1.983-1.091-3.907-.645-5.776s1.281-3.511 2.513-4.926c1.232-1.403 2.598-2.415 4.097-3.011 1.086-.428 2.154-.75 3.191-.966a15.66 15.66 0 0 1 3.079-.322c2.22.043 4.469.524 6.737 1.447 2.265.918 4.293 2.009 6.086 3.269 7.885 5.414 15.137 11.438 21.751 18.071 6.614 6.639 12.474 13.967 17.596 21.997a153.98 153.98 0 0 1 7.357 13.491c2.239 4.634 4.398 9.316 6.484 14.027.956 2.008 1.823 4.066 2.608 6.18.785 2.106 1.473 4.236 2.058 6.376l3.46 12.855a129.89 129.89 0 0 1 2.657 12.988c.648 4.357.901 8.767.736 13.236.023.288.108.598.251.912.147.322.22.615.224.883s-.208.484-.623.631l-1.106.46a3.55 3.55 0 0 1-1.223.254c-.503-.024-1.069-.218-1.682-.609a8.34 8.34 0 0 1-1.686-1.359c-.505-.531-.839-1.009-1.008-1.456a8.21 8.21 0 0 0-1.385-2.625c-.62-.787-1.374-1.344-2.256-1.659a9.48 9.48 0 0 1-2.897-1.582c-.848-.682-1.625-1.387-2.35-2.123l-16.612-16.258-18.31-17.361-18.418-17.155a467.36 467.36 0 0 0-11.451-10.29 182.33 182.33 0 0 0-11.99-9.534c-2.331-1.654-4.738-2.947-7.232-3.873s-5.083-1.392-7.776-1.403c-2.152-.051-4.146.265-5.993.94-1.84.686-3.29 2.034-4.354 4.054-1.448 3.053-2.478 6.163-3.093 9.324-.615 3.15-.845 6.365-.698 9.642.238 4.056.724 8.057 1.466 12.018.736 3.953 1.662 7.882 2.766 11.8.251.873.748 2.29 1.486 4.251.748 1.963 1.642 4.176 2.685 6.657 1.043 2.471 2.131 4.925 3.271 7.348 1.146 2.426 2.234 4.542 3.281 6.348 1.039 1.807 1.932 3.019 2.676 3.632-.551-1.546-1.198-3.079-1.947-4.597a28.28 28.28 0 0 1-1.84-4.811c.421.149.712.344.877.581a7.87 7.87 0 0 1 .434.703c4.581 8.711 9.804 16.966 15.675 24.759 5.862 7.802 12.44 15.094 19.719 21.874 4.244 3.933 8.855 7.789 13.841 11.556s10.254 7.183 15.793 10.253c5.548 3.065 11.276 5.51 17.192 7.337 5.922 1.824 11.925 2.757 18.027 2.807 1.542-.114 2.795-.491 3.752-1.132.961-.625 1.551-1.675 1.781-3.15-2.383-4.643-5.428-8.915-9.142-12.807-3.705-3.891-7.745-7.479-12.124-10.755-4.369-3.27-8.751-6.307-13.125-9.095l-9.249-6.671c-3.069-2.26-6.303-4.268-9.698-6.027-.389-.196-.736-.411-1.037-.641s-.391-.589-.273-1.067a7.95 7.95 0 0 1 1.237-2.421c.541-.721 1.245-1.101 2.111-1.146.744-.093 1.525-.2 2.355-.338a14.66 14.66 0 0 1 2.458-.23c.854.021 1.806.256 2.871.712a24.76 24.76 0 0 1 3.1 1.569c1 .594 1.828 1.117 2.48 1.562l9.95 6.584a410.57 410.57 0 0 1 9.726 6.681c2.311 1.596 4.918 3.538 7.819 5.836s5.775 4.815 8.61 7.559c2.842 2.739 5.33 5.567 7.472 8.49 2.125 2.922 3.593 5.803 4.372 8.64.583 2.297.473 4.341-.329 6.131-.8 1.799-2.293 3.268-4.481 4.417-.654.283-1.316.556-1.987.814s-1.368.456-2.093.6c-.653.145-1.275.321-1.873.534s-1.189.46-1.77.75c-.728-.217-1.49-.365-2.279-.445a22.87 22.87 0 0 0-2.389-.125 12.8 12.8 0 0 0-1.161.073 16.59 16.59 0 0 1-1.168.073 40.81 40.81 0 0 1-1.897.127l-1.885.007c-4.563-.022-8.968-.525-13.229-1.503-4.25-.979-8.409-2.284-12.468-3.908a167.14 167.14 0 0 1-12.055-5.403.79.79 0 0 0-.308.088c-.131.056-.266.122-.423.198.756.881 1.621 1.539 2.604 1.963.993.419 1.967.858 2.941 1.316 3.176 1.694 6.58 3.318 10.204 4.869s7.326 2.829 11.113 3.829 7.513 1.52 11.182 1.557c1.966 0 3.889-.221 5.787-.662a24.98 24.98 0 0 0 5.573-2.054c-.959 1.035-2.208 1.845-3.759 2.428-1.548.589-3.171.993-4.859 1.232-1.699.23-3.247.34-4.636.336s-2.742-.076-4.065-.231a27.16 27.16 0 0 1-3.959-.771c-4.672-1.259-9.214-2.74-13.631-4.445a83.02 83.02 0 0 1-12.661-6.159c-4.028-2.396-7.793-5.281-11.301-8.627a116.32 116.32 0 0 0-7.545-6.458l-7.761-6.244c-4.27-3.661-8.401-7.45-12.399-11.368a85.11 85.11 0 0 1-10.752-12.872l-2.841-4.636-2.844-4.634c-3.923-5.922-7.367-12.081-10.303-18.472-2.944-6.39-5.425-12.975-7.462-19.755-2.064-6.696-3.26-13.41-3.591-20.143s.331-13.519 1.989-20.362zm47.622-45.2c-.219-.078-.406-.061-.587.042-.172.099-.371.336-.578.695 6.436 3.553 12.558 7.759 18.375 12.619 5.806 4.857 11.175 10.145 16.106 15.874 4.922 5.728 9.262 11.668 13.029 17.826l1.77 2.998c.594.997 1.219 1.991 1.871 2.993a5.96 5.96 0 0 0 .985 1.376c.378.394.927.598 1.638.622a4.65 4.65 0 0 0-.057 1.922c.122.645.43 1.288.928 1.933.082-.526.024-.997-.157-1.412l-.55-1.228a1.89 1.89 0 0 1-.164-1.215c-.931-1.28-1.692-2.607-2.294-3.976s-1.152-2.806-1.638-4.297c.47-.028.823.073 1.064.301a18.34 18.34 0 0 1 .684.68c.21.224.499.327.875.301a1.62 1.62 0 0 0-.131.503c-.015.177-.02.344-.02.497.08.228.216.443.403.639s.395.268.619.215c.338-.151.467-.347.381-.592-.076-.238-.203-.466-.381-.688-.073-.146-.172-.292-.31-.419a1.64 1.64 0 0 0-.423-.295c.056-.707-.08-1.327-.396-1.875a12.94 12.94 0 0 0-1.056-1.55 147.78 147.78 0 0 0-14.079-19.423c-5.18-6.042-10.932-11.635-17.256-16.775l-2.602-1.982c-.877-.65-1.854-1.131-2.933-1.445l-.368-.551c-.101-.161-.226-.307-.365-.447-.071-.078-.171-.168-.304-.269a.85.85 0 0 0-.425-.165.49.49 0 0 0-.213.096 1.64 1.64 0 0 0-.22.196c-.056.082-.015.204.125.37a5.42 5.42 0 0 0 .456.49c.152.135.322.249.51.331l.509.237a6.43 6.43 0 0 0 1.407 1.604 14.62 14.62 0 0 1 1.513 1.393c.467.394.953.777 1.473 1.157.521.374.906.942 1.147 1.693-2.074-1.207-4.091-2.499-6.058-3.863a144.83 144.83 0 0 0-5.961-3.932c-2.004-1.256-4.122-2.323-6.342-3.204zm2.766 48.766c8.236 7.281 16.323 14.723 24.265 22.327s15.741 15.321 23.394 23.168c-1.076-1.765-2.637-3.957-4.682-6.58-2.043-2.617-4.382-5.455-7.008-8.518a388.26 388.26 0 0 0-8.184-9.233l-8.23-8.724c-2.647-2.719-5.023-5.047-7.113-6.985s-3.714-3.281-4.864-4.032a13.4 13.4 0 0 0 2.654 3.772c1.092 1.06 2.197 2.282 3.33 3.651-1.204-.301-2.212-.729-3.03-1.283a17.6 17.6 0 0 1-2.206-1.716c-.662-.6-1.344-1.121-2.051-1.566a53 53 0 0 1-2.925-2.411 9 9 0 0 0-3.35-1.87zm-4.368-31.916c-.974-.133-1.724-.475-2.26-1.056-.537-.566-1.144-1.03-1.825-1.365.486 1.075 1.625 2.728 3.423 4.943 1.792 2.224 3.95 4.716 6.471 7.475s5.128 5.477 7.795 8.169c2.681 2.686 5.141 5.043 7.382 7.06 2.252 2.017 4.002 3.387 5.241 4.126.042-.763-.14-1.382-.542-1.858l-1.2-1.427-9.862-11.374a292.88 292.88 0 0 1-9.53-11.696c-2.153-2.606-4.106-5.309-5.845-8.113s-2.996-5.901-3.77-9.298c-.049-.222-.165-.447-.34-.671-.187-.224-.55-.378-1.116-.464.216 2.915.83 5.649 1.839 8.205s2.393 5.006 4.139 7.344zm76.651 149.438c.4 1.346.851 2.682 1.337 4.017.484 1.323.822 2.696.996 4.112.008.43 0 .823-.019 1.182-.011.355-.052.677-.127.966.154.363.327.692.531.972.208.288.415.436.638.447.14.013.293-.077.456-.25s.353-.47.561-.885c.226-.433.368-.859.422-1.286.064-.431.015-.854-.129-1.289-.417-.958-.809-1.924-1.172-2.896-.37-.966-.813-1.89-1.344-2.759-.523-.881-1.238-1.651-2.15-2.331zM161.968 38.652c.514-.064.993-.111 1.453-.126.471-.013.961-.015 1.465-.015 1.311.013 2.623.064 3.935.163l3.933.264c-1.75-.845-3.496-1.272-5.245-1.272-.948.012-1.86.099-2.77.286-.903.18-1.825.414-2.771.7zm97.478 53.631c-.079-.426-.174-.901-.293-1.432a19.11 19.11 0 0 1-.289-1.85c-.621.897-.833 1.592-.642 2.065.201.475.609.882 1.224 1.217zm5.536 73.592a1.71 1.71 0 0 0 .223.34c.067.092.142.164.217.226.157.075.282.112.385.092s.119-.092.05-.226c-.005-.083-.063-.172-.164-.288a3.31 3.31 0 0 0-.271-.29c-.15-.073-.251-.105-.329-.086-.073.013-.111.09-.111.232z" fill-opacity=".247" fill="url(#A)"/><path d="M287.776 164.46c-2.278-2.709-4.445-5.816-6.495-9.322s-3.887-7.206-5.49-11.11-2.862-7.804-3.788-11.699-1.4-7.595-1.42-11.087a27.24 27.24 0 0 1 .351-5.066c.271-1.652.926-3.194 1.98-4.636l2.039-2.852-.295-.277 1.462-1.434c.286-.351.579-.684.873-1a28.17 28.17 0 0 0 .874-1c1.255-1.364 2.716-2.415 4.386-3.157 1.678-.742 3.469-1.121 5.38-1.127.629-.008 1.465.071 2.503.224 1.048.159 2.033.419 2.964.795s1.529.889 1.821 1.549c.127.501.091.97-.107 1.395a5.35 5.35 0 0 1-.768 1.176c-.363.422-.725.723-1.09.914a3.97 3.97 0 0 1-1.093.374c-.595.13-1.234.222-1.933.248a41.15 41.15 0 0 1-2.154.036c-.216-.075-.433-.111-.652-.126s-.435-.02-.656-.013h-1.017c-.563-.05-.903.041-1.024.281-.122.235-.169.901-.15 2l-.196.548c-.06.166-.092.314-.092.448l-.142.146c-.714 1.952-1.112 3.892-1.194 5.823a28.03 28.03 0 0 0 .297 5.662 63.93 63.93 0 0 0 1.039 5.344c1.113 4.169 2.694 8.44 4.746 12.829 2.059 4.382 4.466 8.677 7.231 12.881 2.759 4.204 5.757 8.124 8.995 11.764 3.239 3.632 6.598 6.783 10.079 9.453 1.727 1.291 3.948 2.811 6.662 4.557 2.712 1.753 5.649 3.467 8.788 5.159 3.149 1.694 6.234 3.105 9.238 4.225s5.658 1.708 7.97 1.751c.221.006.466 0 .75-.017a4.71 4.71 0 0 0 .854-.125c2.079-.189 3.641-.774 4.684-1.744 1.043-.976 1.759-2.492 2.171-4.539.295-1.409.469-2.929.502-4.557.045-1.63-.078-3.437-.357-5.419-.669-5.899-1.816-11.689-3.456-17.373-1.634-5.684-3.559-11.287-5.782-16.799-2.222-5.518-4.531-10.957-6.946-16.327-1.985-4.486-3.912-9.058-5.796-13.713-1.875-4.65-3.595-9.404-5.141-14.247-.219-.785-.55-1.496-.998-2.118-.458-.63-1.049-1.159-1.776-1.589-.647-.426-1.277-.858-1.89-1.286l-1.89-1.282c-1.891-1.292-3.807-2.554-5.742-3.778a61.04 61.04 0 0 0-6.073-3.356c-.952-.411-1.701-.854-2.257-1.312s-.873-.974-.951-1.535c-.146-.555-.077-1.125.204-1.708.28-.593.744-1.307 1.407-2.14a5.74 5.74 0 0 1 1.013-1.053c.395-.327.883-.497 1.46-.518.217 0 .44.028.656.092.215.054.434.114.658.196.07.062.142.107.212.126.076.009.151.015.224.013.364-.432.731-.776 1.116-1.034.372-.258.781-.385 1.215-.393a3.4 3.4 0 0 1 1.295.322 42.9 42.9 0 0 0 1.185.533 1 1 0 0 0 .305.34c.133.086.277.164.419.232l.441.142c.505.222.996.42 1.475.589s1.009.256 1.585.269h.437c.004 0 0-.04-.016-.109-.01-.071-.058-.177-.126-.316-.074-.147-.142-.295-.22-.454-.075-.153-.144-.342-.221-.548l-.435-.858c-3.404-7.878-6.404-15.225-8.984-22.031-2.587-6.81-4.888-13.298-6.909-19.47l-.146-.57-.435-1.421c-.15-.462-.29-.938-.438-1.428-.145-.797-.035-1.488.309-2.081.353-.602.934-1.052 1.734-1.342.283-.134.546-.215.784-.25a4.88 4.88 0 0 1 .673-.034c.512-.004.974.105 1.402.335.418.231.783.592 1.08 1.091.148.352.323.681.505.998.19.318.361.642.518 1.002 1.605 4.214 3.299 8.395 5.078 12.564l5.41 12.244a134.07 134.07 0 0 0 1.826 4.209 155.05 155.05 0 0 1 1.821 4.212c.153.357.316.738.51 1.134s.352.78.513 1.141a109.28 109.28 0 0 0 1.803 4.243c.625 1.398 1.343 2.737 2.133 4.032a4.18 4.18 0 0 0 1.219-.699c.381-.314.75-.645 1.108-1.015a335.25 335.25 0 0 1 18.639-19.125l19.396-17.954 3.258-2.922c1.075-.957 2.127-1.937 3.15-2.925l.293-.141c.428-.441.886-.85 1.365-1.228.489-.387 1.05-.689 1.693-.912a12.82 12.82 0 0 1 .898-.198c.304-.054.641-.082.998-.086.448 0 .869.105 1.271.32.417.215.766.536 1.063.964.455.714.559 1.352.309 1.905s-.548 1.013-.892 1.374l-.439.43c-.071.073-.144.172-.217.28-.073.116-.148.211-.224.288l-.288.29-3.718 4.08-3.718 4.186-8.488 9.485-8.694 9.482c-1.227 1.219-2.404 2.488-3.528 3.816l-3.32 4.031c-2.37 2.816-4.841 5.59-7.413 8.338s-5.445 5.237-8.618 7.484a4.57 4.57 0 0 0-.403.221c-.113.071-.174.14-.182.207a8.47 8.47 0 0 1 .2.649 2.4 2.4 0 0 1 .088.639c.273.959.572 1.858.896 2.713.321.848.805 1.465 1.441 1.848a9.85 9.85 0 0 1 1.37.946l1.249 1.051c.437.288.846.572 1.243.854s.807.572 1.239.854a240.64 240.64 0 0 1 9.459 5.982 187.59 187.59 0 0 1 8.897 6.29l.729.43a17.12 17.12 0 0 1 2.257 1.946c.729.736 1.192 1.716 1.379 2.912.073.202.213.391.417.563s.452.368.748.572a1.99 1.99 0 0 0 .293.213c.112.073.21.146.288.215l3.21 2.566 6.265 4.702 6.268 4.71a4.58 4.58 0 0 0 .731.567c.262.174.501.368.725.577l.441.428.582-.428-.144-.854.723.277.869-.709.146 1.142a26.97 26.97 0 0 1 2.479 1.372c.77.485 1.452.978 2.041 1.477 3.769 2.986 7.709 6.367 11.823 10.133s8.15 7.829 12.117 12.173a139.6 139.6 0 0 1 10.956 13.582c3.34 4.711 6.126 9.493 8.344 14.364 2.225 4.862 3.646 9.7 4.274 14.507.091.722.091 1.522 0 2.384-.096.867-.384 1.729-.879 2.6-.587.858-1.31 1.284-2.187 1.284a7.36 7.36 0 0 1-.507-.022 1.61 1.61 0 0 1-.512-.124c-.224-.071-.428-.175-.617-.321s-.323-.318-.403-.533a7.32 7.32 0 0 1-.729 1.107l-.728.88c-.372.421-.751.869-1.123 1.342-.378.475-.69 1.021-.914 1.651l-1.028 2.284-.578-2.424c-.071-.355-.146-.683-.217-.98l-.22-.871a14.27 14.27 0 0 0-.234-1.187 7.57 7.57 0 0 0-.351-1.09c-1.219-3.976-2.496-7.694-3.821-11.167-1.318-3.475-2.916-6.795-4.793-9.971-1.871-3.174-4.241-6.301-7.118-9.374-.301-.357-.621-.712-.95-1.069a22.2 22.2 0 0 1-.949-1.068 102.94 102.94 0 0 0-6.984-7.342l-7.301-6.922a338.01 338.01 0 0 1-7.444-7.004c-2.477-2.402-4.851-4.916-7.12-7.547-1.557-1.779-3.258-3.501-5.107-5.151-1.843-1.66-3.69-3.27-5.535-4.834l-.583-.425-9.702-8.114-9.811-8.006c-.071-.079-.148-.174-.24-.286-.08-.112-.202-.21-.344-.286a10.49 10.49 0 0 0-.777-.681c-.294-.216-.516-.373-.677-.461-.288.211-.555.36-.806.446a2.41 2.41 0 0 1-.803.126c-.501-.032-.913-.217-1.215-.572-.309-.352-.533-.683-.677-1a.36.36 0 0 0-.073-.191l-.073-.092a19.04 19.04 0 0 0 .623 2.372l.837 2.479a3.2 3.2 0 0 1 .344.714l.234.714 1.992 5.189a124.75 124.75 0 0 0 2.086 5.079l.587 1.428c.952 2.432 1.793 4.909 2.541 7.433a135.53 135.53 0 0 1 1.981 7.546l1.021 3.832c.323 1.264.652 2.507 1.019 3.724.502 1.572.99 3.172 1.433 4.8l1.331 4.899c1.159 4.885 1.961 9.352 2.408 13.394.456 4.043.572 7.901.349 11.57-.005.419-.056.825-.159 1.191l-.274 1.088c-.069.211-.142.398-.213.568-.077.178-.15.367-.227.574.367-.706.657-1.467.873-2.267s.365-1.655.436-2.578c.292-3.335.292-6.871.004-10.616-.294-3.738-.873-7.811-1.748-12.21l-.869-3.422-.223-1.086-.217-1.201-1.602-7.125 2.769 5.413c2.766 5.287 4.619 10.663 5.552 16.128.925 5.461.923 10.973-.023 16.542a8.31 8.31 0 0 1-.297 1.05l-.288.94v.146c-.933 2.703-2.194 4.963-3.782 6.775s-3.575 3.213-5.957 4.202c-.656.28-1.32.605-1.987.959a49.44 49.44 0 0 0-2.094 1.174c-1.338.839-2.581 1.456-3.723 1.841s-2.309.63-3.498.731-2.521.144-4.005.132c-7.745-.942-14.729-2.981-20.946-6.112-6.215-3.137-11.851-7.118-16.919-11.954-5.065-4.827-9.748-10.257-14.04-16.289l.148.572-1.318-.142c-.572-.094-.994-.269-1.275-.535-.276-.267-.482-.519-.619-.751zm-13.408-52.209c-.656 2.705-.976 5.43-.938 8.189.028 2.752.437 5.589 1.228 8.505-.503-2.772-.724-5.467-.651-8.079s.44-5.196 1.092-7.757a1.56 1.56 0 0 1 .075-.426c.043-.143.061-.283.069-.432.239-.569.378-1.129.421-1.685.037-.558-.154-1.091-.565-1.592l-.731 3.277zm45.926-28.382l2.563 1.705a59.8 59.8 0 0 0 2.681 1.712c.084.085.204.169.366.268.155.104.279.155.361.166v-.146c.148-.149.219-.351.204-.587-.019-.245-.137-.471-.348-.699-.54-.792-1.387-1.417-2.535-1.884s-2.387-.744-3.733-.822l.441.287zm41.246 22.252a.6.6 0 0 0 .082.073.47.47 0 0 0 .202.069h.154v-.572h-.154c-.061.004-.11.028-.144.075-.03.038-.078.064-.14.066v.289z" fill-opacity=".247" fill="url(#A)"/><path d="M499.598 115.258l-4.7-3.488a56.38 56.38 0 0 0-4.925-3.503 2.95 2.95 0 0 1-1.198-.961c-.335-.426-.369-.957-.113-1.602.195-.53.457-1.003.784-1.424s.843-.611 1.555-.574a1.32 1.32 0 0 1 .359.073c.101.043.222.062.364.075.146.004.286-.049.415-.165s.241-.344.316-.697c0-.566.144-1 .436-1.297.291-.303.729-.481 1.316-.555.146-.002.319-.028.504-.071a2.84 2.84 0 0 1 .509-.068c.303-.007.611.04.931.126s.589.23.82.448c3.879 2.288 8.115 5.257 12.706 8.881s9.185 7.604 13.791 11.936 8.865 8.699 12.788 13.103c3.916 4.415 7.133 8.556 9.678 12.423 1.772 2.625 3.25 5.354 4.439 8.199 1.189 2.836 1.94 5.857 2.264 9.049.181 1.946.136 3.832-.137 5.651-.267 1.825-1.002 3.458-2.202 4.905-2.034 2.436-4.157 4.808-6.35 7.118a101.59 101.59 0 0 1-6.897 6.562c-1.313 1.14-2.95 2.099-4.924 2.88a39.14 39.14 0 0 1-6.357 1.892 62.12 62.12 0 0 1-6.651 1.037c-2.176.215-4.109.322-5.823.314-4.744-.015-9.653-.45-14.723-1.301-5.078-.847-10.084-1.983-15.029-3.422-4.94-1.434-9.593-3.038-13.958-4.816-4.822-1.876-9.881-4.047-15.154-6.523a167.55 167.55 0 0 1-15.657-8.397c-5.165-3.122-9.976-6.601-14.455-10.427-4.471-3.825-8.316-8.025-11.533-12.608-3.214-4.576-5.519-9.562-6.919-14.949-1.155-4.569-1.418-9.04-.775-13.405.641-4.357 2.164-8.542 4.57-12.546 1.996-3.204 4.481-5.922 7.434-8.167 2.961-2.24 6.264-4.034 9.932-5.382a180.83 180.83 0 0 1 14.685-4.439l14.903-3.69 18.944-4.277c6.282-1.479 12.453-3.331 18.507-5.559 1.47-.501 2.945-1.072 4.41-1.728 1.475-.663 2.869-1.413 4.191-2.267 1.071-.731 1.823-1.582 2.262-2.557s.546-1.965.323-2.972c-.224-1.001-.792-1.918-1.71-2.745a67.35 67.35 0 0 0-5.864-4.968c-2.026-1.524-4.202-2.864-6.52-4.012a184.36 184.36 0 0 0-18.297-7.436 148.26 148.26 0 0 0-19.522-5.275c-6.629-1.303-13.213-1.964-19.748-2.004-2.484 0-4.961.118-7.437.344s-4.956.587-7.436 1.085c-1.827.398-2.877 1.142-3.148 2.233-.279 1.098.239 2.301 1.544 3.627 1.327 1.26 3.215 2.443 5.664 3.553s5.202 2.122 8.268 3.032 6.181 1.692 9.357 2.346c3.174.664 6.148 1.168 8.933 1.52 2.778.361 5.111.538 6.986.546.299-.01.544.045.75.164.203.114.347.344.42.686a.67.67 0 0 1-.387.752c-.299.159-.607.336-.925.532-1.606.909-3.245 1.546-4.924 1.907s-3.383.527-5.135.516c-1.929 0-4.237-.093-6.927-.288s-5.552-.497-8.588-.912c-3.039-.421-6.036-.965-9.004-1.638-2.969-.665-5.692-1.469-8.174-2.42-2.481-.946-4.517-2.045-6.098-3.296-1.591-1.248-2.583-2.57-2.976-3.966-.391-1.391-.217-3.072.51-5.038.905-2.421 2.247-4.468 4.019-6.139 1.78-1.673 3.834-2.979 6.16-3.922s4.77-1.532 7.318-1.762l11.462-.985a164.47 164.47 0 0 1 11.567-.438c6.977.01 13.932.709 20.873 2.094a118.17 118.17 0 0 1 20.244 5.965c6.569 2.592 12.78 5.699 18.631 9.331 2.066 1.202 3.984 2.617 5.754 4.249a21.85 21.85 0 0 1 4.452 5.746c1.023 1.926 1.485 3.81 1.38 5.65-.101 1.835-.812 3.612-2.114 5.328-1.851 2.272-4.157 4.266-6.93 5.984a57.28 57.28 0 0 1-8.767 4.428c-3.082 1.242-6.004 2.285-8.776 3.133a381.43 381.43 0 0 1-17.822 4.883l-18.031 4.249-5.067 1.241a21.77 21.77 0 0 0-4.845 1.893l11.66-1.805 11.659-1.473a39.34 39.34 0 0 1-6.062 1.972l-6.18 1.447-13.519 2.751a150.21 150.21 0 0 0-13.3 3.384c-2.82.873-4.949 2.26-6.383 4.151s-2.316 4.165-2.655 6.831c-.342 2.353-.315 4.664.092 6.929s1.052 4.473 1.948 6.615c2.065 4.754 4.714 9.009 7.937 12.762 3.235 3.752 6.903 7.154 11.008 10.197 5.443 4.034 11.515 7.944 18.207 11.73s13.72 7.193 21.076 10.234c7.357 3.028 14.739 5.441 22.162 7.234 7.421 1.785 14.583 2.701 21.478 2.744 2.053.011 4.081-.116 6.094-.37 1.998-.267 3.965-.705 5.86-1.344 1.793-.508 2.946-1.198 3.466-2.045.512-.854.574-2.215.181-4.084-.677-3.128-1.903-6.41-3.682-9.853-1.784-3.436-3.92-6.911-6.41-10.403a153.17 153.17 0 0 0-7.933-10.217c-2.794-3.311-5.545-6.408-8.253-9.276-2.707-2.876-5.176-5.407-7.395-7.596l-3.559-3.423a21.33 21.33 0 0 1-3.141-3.855c.664.298 1.286.644 1.862 1.04a18.61 18.61 0 0 1 1.643 1.252 227.98 227.98 0 0 1 15.593 15.052c4.995 5.299 9.469 10.961 13.394 16.997 3.935 6.023 7.001 12.5 9.195 19.427a20.23 20.23 0 0 1 .011 1.068c-.001.392.337.609 1.006.648.4-.725.559-1.463.475-2.215s-.245-1.493-.495-2.207c-1.129-3.219-2.359-6.376-3.709-9.47s-3.025-6.068-5.032-8.928c-.522-.697-1.039-1.413-1.544-2.153-.511-.755-.92-1.647-1.223-2.701 1.339 1.062 2.518 2.226 3.535 3.49 1.023 1.263 2.013 2.555 2.989 3.867.961 1.316 2.045 2.58 3.234 3.772-.51-2.134-1.791-4.815-3.851-8.041s-4.606-6.679-7.634-10.362c-3.032-3.688-6.266-7.292-9.698-10.811s-6.787-6.64-10.049-9.367c-3.256-2.728-6.148-4.75-8.681-6.057-.163.189-.211.38-.127.576a11.81 11.81 0 0 1 .219.615c.063.204-.013.426-.234.663h-.011zm-72.715 37.365c1.548 2.113 3.295 3.943 5.226 5.511 1.935 1.557 3.935 3.002 5.989 4.331 5.739 3.698 11.784 7.161 18.132 10.406s12.897 6.092 19.656 8.569a140.11 140.11 0 0 0 20.581 5.817c6.967 1.406 13.939 2.122 20.911 2.145l2.84-.015c.948-.015 1.894-.057 2.842-.126 1.941-.19 3.773-.691 5.485-1.493l5.147-2.344c-1.378 0-2.735.03-4.074.086l-4.088.194c-.501.009-.987.028-1.449.077a24.75 24.75 0 0 1-1.461.071 62.68 62.68 0 0 1-8.227-.602 200.63 200.63 0 0 1-8.159-1.318c-2.724-.514-5.466-.965-8.227-1.361-3.096-.505-6.113-1.215-9.055-2.136-2.923-.918-5.834-1.907-8.714-2.958-2.887-1.046-5.804-2.013-8.758-2.89-7.199-1.998-14.266-4.605-21.188-7.809-6.93-3.214-13.371-7.023-19.334-11.446l-1.984-1.301-2.091-1.408zm-12.973-41.501v3.604 4.243c.669-1.494 1.009-2.866 1.007-4.122l.015-3.583a1.59 1.59 0 0 0-.508-.122c-.193-.015-.365-.02-.514-.02zm94.122-45.347a2.18 2.18 0 0 0-.03-.715c-.047-.237-.278-.328-.697-.283-.073.013-.142.125-.202.336a2.56 2.56 0 0 0-.084.662c-.079.218-.079.417 0 .589.069.162.213.254.433.261.286-.007.481-.099.567-.261.09-.172.09-.371.013-.589zm-96.619-21.832c.125.574.246 1.03.37 1.374.125.335.394.55.811.623.078-.024.172-.153.275-.393s.159-.439.166-.609c.045-.247.071-.537.077-.856s-.264-.46-.804-.426c-.215.015-.4.058-.548.142s-.256.13-.329.145h-.018z" fill-opacity=".247" fill="url(#A)"/><g fill="#000"><path d="M218.216 171.379v-1.872c-2.487-.443-4.363-1.214-5.644-2.329-1.826-1.652-3.449-4.188-4.856-7.6l-24.489-58.429h-1.901l-26.288 59.192c-1.347 3.039-2.295 4.899-2.854 5.573a8.91 8.91 0 0 1-3.175 2.452c-1.262.596-2.956.98-5.095 1.141v1.872h28.664v-1.872c-3.245-.301-5.347-.845-6.315-1.618-.961-.779-1.448-1.771-1.448-2.989 0-1.69.791-4.323 2.375-7.906l17.855-40.241 16.557 39.741c1.62 3.919 2.431 6.628 2.431 8.155 0 .974-.503 1.913-1.498 2.806-1.004.896-2.691 1.527-5.075 1.903l-.875.149v1.872h21.631zm60.677 1.569l1.811-21.67h-1.811c-1.831 5.406-4.192 9.474-7.09 12.206-4.173 3.944-9.538 5.927-16.1 5.927-8.923 0-15.725-3.459-20.378-10.384-3.898-5.84-5.847-12.792-5.847-20.861 0-6.556 1.289-12.523 3.881-17.923 2.582-5.402 5.977-9.358 10.172-11.874 4.188-2.518 8.493-3.774 12.905-3.774a29.14 29.14 0 0 1 7.51.967 29.91 29.91 0 0 1 6.973 2.835v19.846c.008 3.436-.26 5.697-.794 6.761-.533 1.057-1.362 1.872-2.484 2.432-1.12.553-3.102.836-5.934.836v1.916h27.167v-1.916h-1.291c-2.68 0-4.532-.885-5.532-2.634-.698-1.252-1.042-3.722-1.042-7.395v-21.015c-3.963-2.089-7.879-3.622-11.745-4.607-3.864-.979-8.15-1.472-12.882-1.472-13.553 0-23.844 4.261-30.885 12.765-5.278 6.373-7.921 13.737-7.921 22.078 0 6.037 1.484 11.825 4.448 17.365 3.515 6.583 8.351 11.645 14.482 15.184 5.147 2.941 11.223 4.407 18.217 4.407 2.555 0 4.881-.193 6.967-.602 2.087-.418 5.044-1.301 8.871-2.688 1.94-.714 3.235-1.061 3.882-1.061.657 0 1.218.294 1.684.891.465.589.752 1.745.854 3.46h1.912zm37.491-32.144l25.88-25.173c4.243-4.148 7.865-6.979 10.866-8.478 2.994-1.505 6-2.353 9.005-2.558v-1.869h-33.378v1.869c2.002 0 3.439.334 4.32.985.881.665 1.319 1.395 1.319 2.205 0 .819-.166 1.536-.503 2.187-.317.636-1.396 1.834-3.221 3.59l-24.214 23.436v-22.124c0-3.476.219-5.77.675-6.879.341-.852 1.068-1.576 2.168-2.184a9.67 9.67 0 0 1 4.709-1.216h2.374v-1.869H286.48v1.869h2.484c2.905 0 5.004.833 6.316 2.479.823 1.091 1.242 3.686 1.242 7.8v44.354c0 3.478-.233 5.792-.674 6.937-.344.813-1.048 1.521-2.125 2.128-1.522.814-3.099 1.214-4.759 1.214h-2.484v1.872h29.904v-1.872h-2.374c-1.627 0-3.189-.388-4.709-1.167-1.068-.532-1.818-1.345-2.224-2.426-.412-1.083-.619-3.307-.619-6.686v-21.013l7.088 6.428c10.242 9.186 16.436 15.312 18.573 18.382.931 1.351 1.402 2.529 1.402 3.548 0 .77-.359 1.46-1.091 2.049-.718.591-1.945.885-3.673.885h-1.608v1.872h25.772v-1.872c-1.525-.031-2.897-.237-4.137-.609-1.246-.369-2.761-1.081-4.553-2.155-1.798-1.061-4.01-2.769-6.626-5.13-.755-.685-4.254-4.143-10.497-10.384l-10.724-10.425zm87.799 32.144v-23.744h-1.911c-.626 4.56-1.739 8.183-3.342 10.886s-3.887 4.848-6.86 6.435c-2.966 1.582-6.033 2.373-9.205 2.373-3.593 0-6.552-1.069-8.903-3.216-2.342-2.139-3.519-4.583-3.519-7.316 0-2.086.746-3.994 2.227-5.714 2.132-2.536 7.228-5.913 15.266-10.138 6.55-3.438 11.029-6.078 13.428-7.922 2.393-1.839 4.244-4.005 5.534-6.504s1.939-5.109 1.939-7.845c0-5.196-2.056-9.682-6.172-13.445-4.132-3.762-9.432-5.649-15.921-5.649-2.033 0-3.952.158-5.741.461-1.063.169-3.284.783-6.648 1.851-3.367 1.057-5.5 1.591-6.395 1.591-.863 0-1.539-.255-2.045-.756-.496-.509-.862-1.555-1.108-3.147h-1.919v23.539h1.919c.894-4.92 2.109-8.611 3.623-11.054s3.833-4.471 6.949-6.096c3.125-1.625 6.549-2.437 10.273-2.437 4.319 0 7.723 1.116 10.221 3.344 2.504 2.228 3.757 4.859 3.757 7.902 0 1.682-.478 3.397-1.425 5.118-.949 1.712-2.425 3.314-4.417 4.8-1.35 1.013-5.026 3.17-11.028 6.453-6 3.292-10.266 5.925-12.803 7.873-2.536 1.964-4.458 4.124-5.776 6.485-1.301 2.363-1.965 4.968-1.965 7.801 0 4.929 1.933 9.175 5.8 12.732s8.773 5.339 14.744 5.339c3.733 0 7.675-.895 11.848-2.685 1.935-.841 3.295-1.258 4.092-1.258.895 0 1.628.262 2.198.785.568.517 1.023 1.572 1.374 3.158h1.911zm-231.36-91.702v-.374c-.485-.085-.852-.235-1.112-.458-.359-.321-.675-.824-.966-1.498l-4.818-11.533h-.389l-5.182 11.684c-.269.6-.446.964-.564 1.101a1.64 1.64 0 0 1-.621.479c-.253.12-.587.195-1.016.225v.374h5.664v-.374c-.639-.055-1.057-.16-1.243-.313a.72.72 0 0 1-.294-.589c0-.333.166-.861.475-1.565l3.52-7.944 3.271 7.848c.322.77.477 1.308.477 1.609 0 .19-.096.367-.289.554-.195.173-.54.3-1.009.372-.028.01-.084.019-.169.028v.374h4.265zm10.434-13.181v-.367h-5.931v.367h.492c.571 0 .985.161 1.242.493.164.209.252.724.252 1.535v8.755c0 .684-.051 1.133-.139 1.359-.069.165-.21.308-.42.43a1.91 1.91 0 0 1-.935.235h-.492v.374h5.931v-.374h-.497c-.569 0-.978-.16-1.235-.49-.171-.208-.26-.721-.26-1.534v-8.755c0-.684.05-1.143.134-1.362.072-.166.212-.312.431-.428a1.87 1.87 0 0 1 .93-.238h.497zm13.827 13.491v-4.689h-.383c-.114.902-.339 1.62-.653 2.147-.322.53-.767.956-1.349 1.271a3.8 3.8 0 0 1-1.832.466c-.701 0-1.284-.206-1.745-.626-.47-.43-.705-.911-.705-1.445 0-.42.158-.792.44-1.133.427-.5 1.432-1.166 3.019-2.001 1.299-.678 2.175-1.198 2.652-1.559a4.06 4.06 0 0 0 1.093-1.282c.251-.495.378-1.014.378-1.553 0-1.023-.408-1.913-1.217-2.654-.819-.737-1.863-1.115-3.137-1.115-.412 0-.782.03-1.147.094-.201.032-.638.154-1.308.361-.662.211-1.079.313-1.257.313-.169 0-.307-.045-.408-.15s-.169-.301-.216-.618h-.374v4.647h.374c.177-.97.416-1.701.72-2.178.295-.491.752-.89 1.366-1.211a4.47 4.47 0 0 1 2.033-.479c.848.006 1.522.216 2.017.663.483.439.741.954.741 1.56 0 .325-.098.666-.292 1.005-.177.347-.472.658-.861.949-.263.203-.993.629-2.181 1.276s-2.033 1.167-2.528 1.556-.876.809-1.138 1.276a3.07 3.07 0 0 0-.385 1.537c0 .979.379 1.816 1.133 2.519.776.702 1.745 1.053 2.918 1.053.737 0 1.514-.18 2.336-.527.39-.168.654-.251.805-.251.189 0 .326.056.439.154.12.1.206.311.269.624h.383zm15.328-9.329h-5.359l-.949-2.134c-.218-.524-.341-.918-.341-1.177 0-.209.101-.396.303-.544.204-.154.634-.265 1.302-.307v-.367h-4.363v.367c.578.103.951.231 1.121.392.358.321.738.968 1.161 1.947l4.874 11.152h.355l4.819-11.281c.388-.899.742-1.483 1.056-1.755s.759-.422 1.33-.455v-.367h-5.47v.367c.551.024.922.109 1.117.27s.289.335.289.56c0 .286-.13.757-.402 1.38l-.843 1.952zm-.28.741l-2.351 5.483-2.413-5.483h4.764zm22.374 8.588l.363-4.279h-.363c-.363 1.07-.832 1.868-1.388 2.412-.835.78-1.89 1.165-3.182 1.165-1.768 0-3.115-.68-4.028-2.051-.77-1.14-1.155-2.519-1.155-4.113 0-1.293.266-2.471.769-3.538.512-1.061 1.175-1.846 2.003-2.343s1.677-.744 2.547-.744c.517 0 1.005.065 1.49.193a5.68 5.68 0 0 1 1.37.551v3.924c0 .678-.047 1.12-.148 1.332-.11.205-.28.37-.499.473-.219.124-.616.17-1.164.17v.371h5.358v-.371h-.254c-.531 0-.894-.17-1.091-.515-.138-.244-.207-.737-.207-1.46v-4.154c-.784-.405-1.558-.717-2.322-.91-.755-.19-1.606-.286-2.535-.286-2.677 0-4.711.843-6.097 2.515-1.046 1.267-1.568 2.711-1.568 4.361a7.03 7.03 0 0 0 .883 3.425c.695 1.299 1.643 2.297 2.86 2.999 1.012.586 2.212.873 3.59.873.504 0 .968-.04 1.377-.118.408-.087.994-.263 1.746-.528.376-.149.641-.217.773-.217s.235.058.332.179c.085.116.144.345.169.684h.371zm12.448-13.491v-.367h-5.934v.367h.49c.559 0 .983.161 1.25.493.153.209.242.724.242 1.535v8.755c0 .684-.041 1.133-.132 1.359-.072.165-.204.308-.429.43-.295.162-.605.235-.931.235h-.49v.374h5.934v-.374h-.501c-.567 0-.98-.16-1.241-.49-.167-.208-.249-.721-.249-1.534v-8.755c0-.684.043-1.143.134-1.362.066-.166.211-.312.426-.428.297-.16.601-.238.93-.238h.501zm3.953 13.181h3.765l8.46-10.168v7.82c0 .834-.089 1.347-.284 1.559-.255.274-.648.415-1.189.415h-.487v.374h4.824v-.374h-.491c-.59 0-1-.164-1.244-.512-.153-.216-.226-.699-.226-1.462V67.477h-.373l-9.128 10.908v-8.34c0-.832.094-1.352.277-1.558.255-.287.66-.422 1.2-.422h.488v-.367h-4.824v.367h.479c.595 0 1.011.174 1.257.514.152.213.228.703.228 1.466v9.423c-.4.464-.706.758-.92.908-.209.139-.51.288-.912.411-.199.057-.496.085-.9.085v.374zm26.758.31c1.798 0 3.35-.67 4.671-2.012 1.319-1.329 1.976-2.996 1.976-4.996 0-2.051-.664-3.771-1.997-5.123-1.324-1.36-2.932-2.042-4.814-2.042-1.919 0-3.512.666-4.805 1.988-1.293 1.33-1.953 3.046-1.953 5.155 0 2.146.754 3.899 2.249 5.262 1.299 1.18 2.856 1.768 4.673 1.768zm-.199-.737c-1.229 0-2.233-.443-2.982-1.343-.934-1.122-1.398-2.761-1.398-4.918 0-2.208.484-3.915 1.455-5.101.733-.912 1.716-1.362 2.939-1.368 1.301.006 2.381.494 3.215 1.495.852.991 1.282 2.552 1.282 4.696 0 2.316-.473 4.046-1.403 5.188-.751.904-1.787 1.351-3.108 1.351zm33.16.737l.356-4.279h-.356c-.368 1.07-.826 1.868-1.405 2.412-.816.78-1.879 1.165-3.166 1.165-1.771 0-3.11-.68-4.03-2.051-.761-1.14-1.156-2.519-1.156-4.113 0-1.293.256-2.471.77-3.538.512-1.061 1.179-1.846 2.005-2.343s1.676-.744 2.548-.744a5.8 5.8 0 0 1 1.489.193c.47.12.925.307 1.372.551v3.924c0 .678-.049 1.12-.156 1.332a1.12 1.12 0 0 1-.492.473c-.229.124-.614.17-1.167.17v.371h5.355v-.371h-.249c-.531 0-.901-.17-1.096-.515-.137-.244-.203-.737-.203-1.46v-4.154c-.787-.405-1.557-.717-2.318-.91s-1.614-.286-2.546-.286c-2.676 0-4.705.843-6.095 2.515-1.038 1.267-1.569 2.711-1.569 4.361a7.06 7.06 0 0 0 .89 3.425c.684 1.299 1.643 2.297 2.845 2.999 1.025.586 2.223.873 3.6.873a7.41 7.41 0 0 0 1.377-.118c.408-.087.995-.263 1.749-.528.382-.149.641-.217.774-.217.118 0 .232.058.325.179s.143.345.17.684h.379zm20.125-13.858h-3.7l-4.682 6.333-.847-.017h-.299l-.304.017v-3.938c0-.854.089-1.383.283-1.595.255-.28.639-.433 1.167-.433h.533v-.367h-5.928v.367h.521c.588 0 .996.185 1.255.556.142.209.21.702.21 1.472v8.755c0 .856-.094 1.378-.279 1.592-.274.291-.664.432-1.186.432h-.521v.374h5.043c1.472 0 2.557-.11 3.253-.314a3.79 3.79 0 0 0 1.775-1.16 3.02 3.02 0 0 0 .738-2.021c0-.83-.286-1.545-.836-2.171-.562-.605-1.416-1.042-2.589-1.293l2.869-3.883c.646-.891 1.214-1.488 1.685-1.783s1.084-.478 1.839-.556v-.367zm-9.832 6.964h.332c.094-.01.163-.012.237-.012 1.307 0 2.315.281 2.988.846.669.553.999 1.27.999 2.136 0 .844-.263 1.529-.815 2.057-.54.529-1.255.797-2.146.797-.393 0-.93-.067-1.595-.201v-5.623zm21.011 6.894c1.803 0 3.361-.67 4.683-2.012 1.313-1.329 1.974-2.996 1.974-4.996 0-2.051-.67-3.771-1.995-5.123-1.334-1.36-2.94-2.042-4.818-2.042-1.915 0-3.51.666-4.811 1.988-1.303 1.33-1.946 3.046-1.946 5.155 0 2.146.745 3.899 2.251 5.262 1.297 1.18 2.855 1.768 4.662 1.768zm-.192-.737c-1.234 0-2.228-.443-2.987-1.343-.927-1.122-1.398-2.761-1.398-4.918 0-2.208.493-3.915 1.454-5.101.747-.912 1.72-1.362 2.943-1.368 1.304.006 2.372.494 3.222 1.495.844.991 1.273 2.552 1.273 4.696 0 2.316-.467 4.046-1.401 5.188-.749.904-1.781 1.351-3.106 1.351zm23.4.427l-9.098-12.734h5.677c.876 0 1.544.192 2.006.56.467.374.882 1.131 1.242 2.274l.337-.064-.651-3.584h-11.272v.367l8.885 12.375h-4.441c-.733 0-1.262-.08-1.592-.239a1.74 1.74 0 0 1-.755-.673c-.172-.3-.329-.859-.476-1.675h-.385l.284 3.393h10.239zm-4.529 1.056h-1.88l-1.948 3.312h.322l2.791-2.116 2.334 2.116h.309l-1.928-3.312z"/><path d="M376.067 68.065v-.367h-5.935v.367h.49c.572 0 .992.161 1.244.493.163.209.247.724.247 1.535v8.755c0 .684-.042 1.133-.134 1.359-.064.165-.21.308-.421.43-.302.162-.607.235-.936.235h-.49v.374h5.935v-.374h-.506c-.556 0-.973-.16-1.228-.49-.17-.208-.263-.721-.263-1.534v-8.755c0-.684.045-1.143.134-1.362.066-.166.216-.312.426-.428a1.92 1.92 0 0 1 .931-.238h.506zm11.882 13.491c1.795 0 3.349-.67 4.671-2.012 1.319-1.329 1.975-2.996 1.975-4.996 0-2.051-.663-3.771-1.996-5.123-1.327-1.36-2.925-2.042-4.812-2.042-1.912 0-3.514.666-4.811 1.988-1.29 1.33-1.944 3.046-1.944 5.155 0 2.146.752 3.899 2.25 5.262 1.293 1.18 2.848 1.768 4.667 1.768zm-.199-.737c-1.229 0-2.232-.443-2.977-1.343-.938-1.122-1.407-2.761-1.407-4.918 0-2.208.488-3.915 1.462-5.101.736-.912 1.714-1.362 2.931-1.368 1.309.006 2.382.494 3.227 1.495.844.991 1.271 2.552 1.271 4.696 0 2.316-.471 4.046-1.395 5.188-.757.904-1.787 1.351-3.112 1.351zM173.263 47.758l5.101-4.973c.84-.811 1.552-1.371 2.15-1.671.595-.289 1.182-.46 1.776-.5v-.367h-6.588v.367c.402 0 .68.064.859.195.169.131.251.273.251.435 0 .152-.028.304-.097.437-.055.112-.274.357-.636.696l-4.78 4.63v-4.365c0-.684.05-1.144.134-1.362.069-.166.21-.313.43-.429a1.9 1.9 0 0 1 .927-.237h.473v-.367h-5.905v.367h.483c.575 0 .995.161 1.257.493.157.208.237.724.237 1.535v8.754c0 .685-.039 1.145-.129 1.37-.07.158-.204.298-.421.42-.294.162-.608.234-.944.234h-.483v.374h5.905v-.374h-.473c-.322 0-.625-.072-.927-.227a.9.9 0 0 1-.448-.477c-.078-.215-.116-.659-.116-1.32v-4.149l1.403 1.273 3.664 3.628c.185.266.274.497.274.685 0 .164-.077.302-.211.423-.143.11-.388.164-.727.164h-.319v.374h5.087v-.374c-.296 0-.571-.038-.819-.121-.241-.069-.541-.206-.891-.417s-.791-.556-1.311-1.02c-.145-.129-.84-.818-2.068-2.05l-2.118-2.054zm22.565 5.662v.374h4.906v-.374h-.527c-.542 0-.961-.22-1.26-.666-.137-.205-.209-.692-.209-1.441V45.82c0-1.359-.135-2.411-.412-3.169-.283-.744-.815-1.392-1.625-1.93-.804-.524-1.904-.795-3.292-.795-1.507 0-2.665.254-3.444.763-.78.516-1.341 1.207-1.67 2.073-.216.591-.321 1.701-.321 3.335v5.299c0 .828-.123 1.371-.359 1.638-.234.26-.61.386-1.126.386h-.529v.374h5.983v-.374h-.533c-.571 0-.976-.17-1.226-.529-.171-.235-.253-.74-.253-1.495v-5.905c0-.525.053-1.13.147-1.808.101-.676.278-1.208.534-1.596.266-.375.638-.691 1.124-.939.483-.24 1.082-.371 1.794-.371.909 0 1.708.198 2.433.581.708.391 1.196.884 1.459 1.49s.398 1.618.398 3.062v5.486c0 .848-.099 1.371-.289 1.593-.271.291-.657.431-1.181.431h-.522zm-5.216 3.168h6.519v-1.279h-6.519v1.279zm28.194-16.341h-3.709l-4.684 6.332-.842-.018h-.292l-.318.018v-3.937c0-.855.101-1.383.291-1.596.254-.28.645-.432 1.161-.432h.537v-.367h-5.936v.367h.531c.581 0 1.002.183 1.256.555.133.21.21.702.21 1.473v8.754c0 .856-.097 1.379-.289 1.593-.256.291-.647.431-1.177.431h-.531v.374h5.057c1.47 0 2.551-.109 3.249-.313.691-.22 1.292-.599 1.777-1.161s.728-1.237.728-2.022a3.11 3.11 0 0 0-.837-2.169c-.544-.606-1.406-1.042-2.57-1.293l2.854-3.884c.658-.89 1.217-1.49 1.684-1.783s1.086-.48 1.85-.555v-.367zm-9.845 6.963h.34c.099-.01.17-.012.238-.012 1.315 0 2.313.28 2.982.845.673.554 1.006 1.272 1.006 2.137 0 .844-.27 1.53-.808 2.057s-1.261.797-2.157.797c-.388 0-.927-.067-1.601-.201V47.21zm17.75 5.845v-5.36h3.043c.788 0 1.31.12 1.579.359.354.302.548.837.593 1.607h.379V44.95h-.379c-.096.661-.185 1.081-.282 1.27-.131.235-.323.416-.603.552-.283.125-.715.196-1.287.196h-3.043v-4.463c0-.606.028-.975.076-1.093.054-.132.151-.243.289-.319s.398-.115.775-.115h2.359c.769 0 1.338.064 1.692.17s.701.312 1.022.629c.426.414.856 1.033 1.3 1.867h.404l-1.197-3.397h-10.66v.367h.484c.325 0 .637.075.924.23a.81.81 0 0 1 .445.483c.075.203.119.647.119 1.304v8.801c0 .861-.09 1.392-.263 1.591-.242.267-.655.397-1.225.397h-.484v.374h10.66l.164-2.971h-.402c-.144.719-.305 1.204-.477 1.47s-.426.473-.77.616c-.273.096-.75.146-1.44.146h-3.795zm2.013 4.269a1.06 1.06 0 0 0 .79-.328c.214-.211.334-.458.334-.772 0-.295-.12-.545-.334-.761a1.08 1.08 0 0 0-.79-.322 1.07 1.07 0 0 0-.782.322 1.01 1.01 0 0 0-.326.761c0 .314.103.561.32.772a1.06 1.06 0 0 0 .788.328zm12.193-3.904v.374h5.934v-.374h-.495c-.57 0-.979-.159-1.242-.491-.167-.208-.24-.719-.24-1.533v-6.629c0-1.016-.123-1.844-.342-2.477-.234-.637-.631-1.181-1.182-1.652-.56-.472-1.237-.708-2.027-.708-.64 0-1.139.161-1.512.47s-.551.66-.551 1.062c0 .325.095.576.264.739.222.21.484.312.79.312.209 0 .408-.072.574-.213.176-.144.394-.513.666-1.114.157-.359.357-.543.606-.548.172.005.353.11.505.329.163.223.251.611.251 1.171v9.258c0 .685-.056 1.132-.14 1.358-.067.167-.217.31-.428.432-.292.162-.604.234-.928.234h-.503zm19.748 0v.374h4.909v-.374h-.521a1.42 1.42 0 0 1-1.256-.666c-.142-.205-.219-.692-.219-1.441V45.82c0-1.359-.128-2.411-.415-3.169-.273-.744-.809-1.392-1.616-1.93-.809-.524-1.906-.795-3.297-.795-1.515 0-2.651.254-3.439.763-.788.516-1.344 1.207-1.669 2.073-.218.591-.322 1.701-.322 3.335v5.299c0 .828-.119 1.371-.354 1.638-.237.26-.614.386-1.142.386h-.514v.374h5.98v-.374h-.53c-.574 0-.979-.17-1.231-.529-.165-.235-.253-.74-.253-1.495v-5.905c0-.525.056-1.13.146-1.808.107-.676.279-1.208.533-1.596.267-.375.638-.691 1.127-.939.482-.24 1.084-.371 1.792-.371.905 0 1.713.198 2.439.581.704.391 1.199.884 1.458 1.49s.39 1.618.39 3.062v5.486c0 .848-.096 1.371-.288 1.593-.261.291-.657.431-1.183.431h-.525zm-.292-12.576l-.583-.627c-.207-.208-.385-.429-.542-.657-.162-.215-.311-.455-.415-.703-.106-.242-.166-.493-.173-.751-.01-.35.074-.641.269-.874s.461-.348.805-.348a1.84 1.84 0 0 1 .439.067c.162.047.312.111.445.196l.147-.291c-.267-.27-.546-.48-.832-.645-.287-.172-.601-.262-.974-.262a1.87 1.87 0 0 0-.687.128 1.6 1.6 0 0 0-.517.343c-.137.151-.245.321-.316.509a1.45 1.45 0 0 0-.092.601 2.26 2.26 0 0 0 .201.846c.142.265.303.536.511.767l.356.385.401.365.494.415.708.536h.355zm27.689 13.26v-4.688h-.377c-.126.901-.345 1.62-.66 2.145a3.45 3.45 0 0 1-1.349 1.272c-.586.321-1.193.466-1.822.466-.713 0-1.294-.206-1.758-.626-.464-.429-.695-.911-.695-1.445 0-.419.147-.792.438-1.132.421-.503 1.425-1.167 3.014-2.002l2.65-1.558c.474-.37.841-.794 1.092-1.282a3.28 3.28 0 0 0 .383-1.553c0-1.023-.404-1.914-1.219-2.655s-1.86-1.116-3.139-1.116c-.403 0-.784.031-1.136.094-.215.034-.648.156-1.312.363s-1.08.312-1.264.312c-.173 0-.305-.045-.406-.15-.091-.101-.171-.3-.213-.619h-.385v4.648h.385c.174-.97.408-1.7.714-2.178.302-.491.761-.89 1.372-1.21a4.47 4.47 0 0 1 2.03-.48c.851.006 1.522.217 2.015.664.503.439.742.953.742 1.56 0 .324-.097.666-.282 1.005-.187.346-.478.656-.871.949-.272.202-.987.629-2.18 1.276l-2.524 1.555c-.499.392-.881.808-1.133 1.277-.268.471-.4.974-.4 1.537 0 .978.388 1.816 1.155 2.519.757.699 1.729 1.052 2.902 1.052.741 0 1.508-.179 2.342-.527.381-.168.646-.251.807-.251a.62.62 0 0 1 .431.155c.114.1.2.309.276.623h.377zm17.858-.31l.16-3.176h-.399c-.07.559-.169.952-.301 1.199-.209.38-.488.671-.839.856s-.807.272-1.383.272h-1.954V42.592c0-.83.093-1.351.274-1.558.264-.286.663-.42 1.194-.42h.486v-.367h-5.88v.367h.491c.593 0 1.001.172 1.257.513.144.214.217.704.217 1.465v10.353h-1.654c-.654 0-1.118-.044-1.386-.147-.356-.117-.657-.371-.905-.724-.257-.364-.409-.843-.459-1.456h-.38l.151 3.176h11.31zm14.382-.374v.374h4.897v-.374h-.515c-.55 0-.971-.22-1.257-.666-.148-.205-.218-.692-.218-1.441V45.82c0-1.359-.137-2.411-.409-3.169-.283-.744-.822-1.392-1.629-1.93-.808-.524-1.91-.795-3.298-.795-1.508 0-2.651.254-3.437.763a4.19 4.19 0 0 0-1.665 2.073c-.212.591-.332 1.701-.325 3.335v5.299c-.007.828-.118 1.371-.352 1.638-.233.26-.615.386-1.137.386h-.521v.374h5.988v-.374h-.535c-.573 0-.981-.17-1.231-.529-.17-.235-.253-.74-.253-1.495v-5.905c0-.525.05-1.13.151-1.808.094-.676.274-1.208.534-1.596.261-.375.634-.691 1.119-.939.486-.24 1.086-.371 1.794-.371.905 0 1.713.198 2.427.581.713.391 1.205.884 1.466 1.49s.395 1.618.395 3.062v5.486c0 .848-.094 1.371-.287 1.593-.264.291-.662.431-1.188.431h-.514zm9.208-13.173v.367h.509c.593 0 1.01.183 1.253.549.15.216.229.708.229 1.479v8.754c0 .848-.101 1.371-.293 1.593-.268.291-.659.431-1.189.431h-.509v.374h5.635c2.067 0 3.643-.227 4.72-.688s1.948-1.225 2.609-2.297c.656-1.08.982-2.311.982-3.722 0-1.885-.586-3.461-1.76-4.726-1.307-1.411-3.317-2.114-5.997-2.114h-6.189zm3.95.97c.865-.175 1.588-.277 2.175-.277 1.577 0 2.881.544 3.932 1.635 1.038 1.082 1.567 2.557 1.567 4.413 0 1.873-.529 3.346-1.567 4.427-1.051 1.078-2.389 1.619-4.016 1.619-.607 0-1.314-.093-2.091-.288V41.217zm20.965-.603v-.367h-5.928v.367h.489c.566 0 .988.161 1.236.493.174.208.253.724.253 1.535v8.754c0 .685-.047 1.132-.132 1.358-.066.167-.21.31-.421.432a1.95 1.95 0 0 1-.936.234h-.489v.374h5.928v-.374h-.488c-.572 0-.99-.159-1.248-.491-.171-.208-.248-.719-.248-1.533v-8.754c0-.684.036-1.144.134-1.362.066-.166.211-.313.425-.429.289-.162.599-.237.937-.237h.488zm6.322 12.806v.374h5.934v-.374h-.505c-.565 0-.974-.159-1.234-.491-.166-.208-.242-.719-.242-1.533v-6.629c0-1.016-.12-1.844-.342-2.477-.233-.637-.629-1.181-1.184-1.652s-1.232-.708-2.024-.708c-.636 0-1.138.161-1.499.47-.381.31-.561.66-.561 1.062 0 .325.086.576.249.739a1.15 1.15 0 0 0 .796.312c.213 0 .409-.072.58-.213.181-.144.402-.513.663-1.114.158-.359.359-.543.602-.548.188.005.36.11.522.329.152.223.238.611.238 1.171v9.258c0 .685-.054 1.132-.132 1.358-.071.167-.218.31-.436.432-.286.162-.593.234-.926.234h-.499zm19.342-8.644h-5.367l-.933-2.134c-.235-.524-.346-.919-.346-1.18 0-.207.096-.393.301-.541.201-.155.636-.265 1.306-.307v-.367h-4.361v.367c.574.102.947.23 1.121.392.343.321.737.968 1.152 1.946l4.875 11.152h.357l4.821-11.28c.386-.899.736-1.483 1.046-1.755.322-.272.763-.424 1.331-.455v-.367h-5.464v.367c.551.024.921.107 1.12.268.187.16.287.335.287.561 0 .287-.131.758-.41 1.381l-.836 1.952zm-.28.741L377.458 51l-2.408-5.483h4.759z"/></g></g></svg>