<svg xmlns="http://www.w3.org/2000/svg" stroke-width=".501" stroke-linejoin="bevel" fill-rule="evenodd" overflow="visible" width="438.048" height="438.048" viewBox="0 0 328.536 328.536" xmlns:v="https://vecta.io/nano"><defs><radialGradient id="A" gradientUnits="userSpaceOnUse" cx="0" cy="0" r="357.97" gradientTransform="translate(63.245 1.774) scale(1 0.999994)"><stop offset="0" stop-color="#09f"/><stop offset=".61" stop-color="#a033ff"/><stop offset=".935" stop-color="#ff5280"/><stop offset="1" stop-color="#ff7061"/></radialGradient></defs><g stroke="none" transform="matrix(1 0 0 -1 0 328.536)" fill="none"><clipPath id="B"><path d="M.002.002v328.533h328.533V.002H.002z"/></clipPath><g clip-path="url(#B)"><path d="M164.269 328.535C71.745 328.535.002 260.734.002 169.197c0-47.884 19.63-89.28 51.58-117.862 2.669-2.381 4.312-5.749 4.394-9.364l.903-29.238c.287-9.323 9.898-15.4 18.44-11.622l32.605 14.373c2.753 1.232 5.873 1.438 8.789.656 14.99-4.106 30.924-6.323 47.556-6.323 92.523 0 164.266 67.801 164.266 159.338s-71.743 159.38-164.266 159.38z" fill="url(#A)"/><path d="M65.626 122.586l48.253 76.548c7.68 12.197 24.107 15.195 35.646 6.571l38.397-28.788c3.533-2.628 8.378-2.628 11.868.04l51.827 39.343c6.9 5.256 15.933-3.039 11.334-10.39l-48.293-76.507c-7.68-12.197-24.107-15.195-35.647-6.571l-38.397 28.789c-3.532 2.627-8.377 2.627-11.868-.041L76.92 112.237c-6.9-5.256-15.934 2.997-11.294 10.349z" fill="#fff"/></g></g></svg>