<svg xmlns="http://www.w3.org/2000/svg" stroke-width=".501" stroke-linejoin="bevel" fill-rule="evenodd" overflow="visible" width="438.048" height="438.048" viewBox="0 0 328.536 328.536" xmlns:v="https://vecta.io/nano"><defs><linearGradient id="A" gradientUnits="userSpaceOnUse" x1="164.057" y1="328.536" x2="164.057" y2=".003"><stop offset="0" stop-color="#c981af"/><stop offset="1" stop-color="#9056b0"/></linearGradient></defs><g stroke="none"><path d="M0 254.287V74.252C0 33.267 33.264.003 74.249.003h179.617c40.985 0 74.249 33.264 74.249 74.249v180.035c0 40.985-33.264 74.249-74.249 74.249H74.249C33.264 328.536 0 295.272 0 254.287z" fill="url(#A)" transform="matrix(1 0 0 -1 0 328.536)"/><path d="M101.105 59.593l28.359 44.765c1.603 3.002 2.414 6.004.449 9.006l-13.594 25.407c-.505 2.468-.49 4.938 1.031 7.406 12.2 18.169 35.755 42.138 63.271 64.123 2.414 1.748 5.335 1.978 8.614 1.128l21.875-11.644c4.602-1.822 8.888-1.212 14.1 1.425 13.152 7.678 25.343 15.451 36.525 23.325 5.992 4.075 8.908 8.381 7.128 14.594-4.044 7.704-8.682 15.355-16.289 22.735-14.332 9.7-32.109 7.347-51.445-.469-27.652-14.174-46.01-27.731-59.641-40.97-37.005-33.455-62.26-65.501-74.625-96-7.576-22.001-10.499-42.193 5.008-55.218 10.861-7.92 23.672-15.234 29.234-9.613z" fill="#fff"/></g></svg>