<?xml version="1.0" standalone="no"?>
<!DOCTYPE svg PUBLIC "-//W3C//DTD SVG 1.1//EN" "http://www.w3.org/Graphics/SVG/1.1/DTD/svg11.dtd">
<!--Generator: Xara Designer (www.xara.com), SVG filter version: 4.0.0.1-->
<svg stroke-width="0.501" stroke-linejoin="bevel" fill-rule="evenodd" xmlns:xlink="http://www.w3.org/1999/xlink" xmlns="http://www.w3.org/2000/svg" version="1.1" overflow="visible" width="2409.45pt" height="1508.32pt" viewBox="0 0 2409.45 1508.32">
 <defs>
  <marker id="DefaultArrow2" markerUnits="strokeWidth" viewBox="0 0 1 1" markerWidth="1" markerHeight="1" overflow="visible" orient="auto">
   <!-- REF_ARROW_STRAIGHT (-2) -->
   <g transform="scale(0.0092592592)">
    <!-- 1/108 -->
    <path d="M -9 54 L -9 -54 L 117 0 z"/>
   </g>
  </marker>
  <marker id="DefaultArrow3" markerUnits="strokeWidth" viewBox="0 0 1 1" markerWidth="1" markerHeight="1" overflow="visible" orient="auto">
   <!-- REF_ARROW_ANGLED -->
   <g transform="scale(0.0092592592)">
    <path d="M -27 54 L -9 0 L -27 -54 L 135 0 z"/>
   </g>
  </marker>
  <marker id="DefaultArrow4" markerUnits="strokeWidth" viewBox="0 0 1 1" markerWidth="1" markerHeight="1" overflow="visible" orient="auto">
   <!-- REF_ARROW_ROUNDED -->
   <g transform="scale(0.0092592592)">
    <path d="M -9,0 L -9,-45 C -9,-51.708 2.808,-56.580 9,-54 L 117,-9 C 120.916,-7.369 126.000,-4.242 126,0 C 126,4.242 120.916,7.369 117,9 L 9,54 C 2.808,56.580 -9,51.708 -9,45 z"/>
   </g>
  </marker>
  <marker id="DefaultArrow5" markerUnits="strokeWidth" viewBox="0 0 1 1" markerWidth="1" markerHeight="1" overflow="visible" orient="auto">
   <!-- REF_ARROW_SPOT -->
   <g transform="scale(0.0092592592)">
    <path d="M -54, 0 C -54,29.807 -29.807,54 0,54 C 29.807,54 54,29.807 54,0 C 54,-29.807 29.807,-54 0,-54 C -29.807,-54 -54,-29.807 -54,0 z"/>
   </g>
  </marker>
  <marker id="DefaultArrow6" markerUnits="strokeWidth" viewBox="0 0 1 1" markerWidth="1" markerHeight="1" overflow="visible" orient="auto">
   <!-- REF_ARROW_DIAMOND -->
   <g transform="scale(0.0092592592)">
    <path d="M -63,0 L 0,63 L 63,0 L 0,-63 z"/>
   </g>
  </marker>
  <marker id="DefaultArrow7" markerUnits="strokeWidth" viewBox="0 0 1 1" markerWidth="1" markerHeight="1" overflow="visible" orient="auto">
   <!-- REF_ARROW_FEATHER -->
   <g transform="scale(0.0092592592)">
    <path d="M 18,-54 L 108,-54 L 63,0 L 108,54 L 18, 54 L -36,0 z"/>
   </g>
  </marker>
  <marker id="DefaultArrow8" markerUnits="strokeWidth" viewBox="0 0 1 1" markerWidth="1" markerHeight="1" overflow="visible" orient="auto">
   <!-- REF_ARROW_FEATHER2 -->
   <g transform="scale(0.0092592592)">
    <path d="M -36,0 L 18,-54 L 54,-54 L 18,-18 L 27,-18 L 63,-54 L 99,-54 L 63,-18 L 72,-18 L 108,-54 L 144,-54 L 90,0 L 144,54 L 108,54 L 72,18 L 63,18 L 99,54 L 63,54 L 27,18 L 18,18 L 54,54 L 18,54 z"/>
   </g>
  </marker>
  <marker id="DefaultArrow9" markerUnits="strokeWidth" viewBox="0 0 1 1" markerWidth="1" markerHeight="1" overflow="visible" orient="auto">
   <!-- REF_ARROW_HOLLOWDIAMOND -->
   <g transform="scale(0.0092592592)">
    <path d="M 0,45 L -45,0 L 0, -45 L 45, 0 z M 0, 63 L-63, 0 L 0, -63 L 63, 0 z"/>
   </g>
  </marker>
  <filter id="StainedFilter">
   <feBlend mode="multiply" in2="BackgroundImage" in="SourceGraphic" result="blend"/>
   <feComposite in="blend" in2="SourceAlpha" operator="in" result="comp"/>
  </filter>
  <filter id="BleachFilter">
   <feBlend mode="screen" in2="BackgroundImage" in="SourceGraphic" result="blend"/>
   <feComposite in="blend" in2="SourceAlpha" operator="in" result="comp"/>
  </filter>
  <filter id="InvertTransparencyBitmapFilter">
   <feComponentTransfer>
    <feFuncR type="gamma" amplitude="1.055" exponent=".416666666" offset="-0.055"/>
    <feFuncG type="gamma" amplitude="1.055" exponent=".416666666" offset="-0.055"/>
    <feFuncB type="gamma" amplitude="1.055" exponent=".416666666" offset="-0.055"/>
   </feComponentTransfer>
   <feComponentTransfer>
    <feFuncR type="linear" slope="-1" intercept="1"/>
    <feFuncG type="linear" slope="-1" intercept="1"/>
    <feFuncB type="linear" slope="-1" intercept="1"/>
    <feFuncA type="linear" slope="1" intercept="0"/>
   </feComponentTransfer>
   <feComponentTransfer>
    <feFuncR type="gamma" amplitude="1" exponent="2.4" offset="0"/>
    <feFuncG type="gamma" amplitude="1" exponent="2.4" offset="0"/>
    <feFuncB type="gamma" amplitude="1" exponent="2.4" offset="0"/>
   </feComponentTransfer>
  </filter>
  <linearGradient id="LinearGradient" gradientUnits="userSpaceOnUse" x1="0" y1="0" x2="4212.343" y2="0" gradientTransform="translate(-588.299 1704.16) rotate(-17.985) skewX(2.0543)">
   <stop offset="0" stop-color="#9863cf"/>
   <stop offset="1" stop-color="#ff97b6"/>
  </linearGradient>
 </defs>
 <g id="Document" fill="none" stroke="black" font-family="Times New Roman" font-size="16" transform="scale(1 -1)">
  <g id="Spread" transform="translate(0 -1508.32)">
   <g id="Page background">
    <path d="M 0,1508.32 L 0,-0.001 L 2409.45,-0.001 L 2409.45,1508.32 L 0,1508.32 Z" stroke-linejoin="bevel" stroke="none" stroke-width="0" marker-start="none" marker-end="none" stroke-miterlimit="79.8403193612775"/>
   </g>
   <g id="Layer 1">
    <mask id="TranspMask">
     <rect x="-10%" y="-10%" width="120%" height="120%" fill="#b2b2b2" stroke="none"/>
    </mask>
    <g id="Group" fill-rule="nonzero" stroke-linejoin="round" stroke-linecap="round" stroke="none" stroke-width="41.644" mask="url(#TranspMask)" fill="url(#LinearGradient)">
     <path d="M 231.335,38.941 C 254.818,102.152 282.032,170.317 312.947,243.402 L 316.901,251.356 C 317.6,253.31 318.235,255.026 318.918,256.485 C 319.585,257.946 320.222,259.311 320.902,260.645 C 321.537,261.961 321.936,262.931 322.046,263.614 C 322.188,264.265 322.253,264.598 322.188,264.598 L 318.235,264.598 C 313.027,264.504 308.199,263.661 303.834,262.122 C 299.451,260.549 295.005,258.707 290.448,256.675 L 286.447,255.34 C 285.13,254.692 283.844,253.992 282.653,253.182 C 281.46,252.371 280.542,251.325 279.842,250.022 C 276.54,248.546 272.919,246.896 269.092,245.053 C 265.265,243.244 261.329,242.274 257.343,242.099 C 253.406,242.163 249.689,243.385 246.277,245.719 C 242.815,248.102 239.448,251.309 236.162,255.34 C 235.511,255.357 234.844,255.295 234.129,255.183 C 233.51,255.026 232.827,254.627 232.161,254.009 C 230.177,253.31 228.208,252.69 226.222,252.197 C 224.253,251.658 222.269,251.389 220.285,251.356 C 215.028,251.531 210.63,253.151 207.043,256.169 C 203.438,259.169 200.359,262.408 197.785,265.916 C 191.798,273.698 187.544,280.318 185.035,285.794 C 182.494,291.225 181.891,296.529 183.21,301.658 C 183.909,306.896 186.781,311.645 191.813,315.883 C 196.849,320.138 203.676,324.219 212.312,328.126 C 231.446,337.51 249.818,347.863 267.458,359.246 C 285.049,370.583 302.406,382.302 319.585,394.289 C 325.49,398.273 331.207,402.244 336.765,406.198 C 342.321,410.199 348.101,414.152 353.975,418.124 C 360.565,422.106 365.933,427.014 370.061,432.857 C 374.158,438.652 377.159,445.242 379.143,452.561 C 393.195,497.528 408.771,541.621 425.839,584.761 C 442.892,627.934 460.422,670.36 478.444,712.039 C 500.355,761.879 521.378,812.388 541.558,863.56 C 561.707,914.72 579.221,966.722 594.083,1019.47 C 608.929,1072.26 619.407,1125.97 625.425,1180.69 C 627.98,1199.11 629.125,1215.88 628.696,1231.01 C 628.347,1246.11 626.822,1260.22 624.107,1273.32 C 620.425,1292.31 613.882,1306.37 604.387,1315.4 C 594.938,1324.43 580.76,1329.85 561.851,1331.6 C 559.198,1332.25 556.609,1332.66 554.085,1332.75 C 551.561,1332.91 549.307,1332.96 547.289,1332.91 C 526.314,1332.55 502.213,1327.1 474.902,1316.7 C 447.576,1306.27 419.632,1293.2 391.052,1277.5 C 362.487,1261.76 335.859,1245.84 311.216,1229.61 C 286.527,1213.4 266.395,1199.27 250.739,1187.3 C 219.11,1162.49 188.592,1133.25 159.187,1099.54 C 129.795,1065.78 102.564,1029.41 77.463,990.395 C 52.359,951.351 30.51,911.496 11.838,870.835 C 7.679,861.755 3.733,852.726 -0.002,843.75 L -0.002,1090.8 C 1.04,1092.09 2.088,1093.37 3.138,1094.65 C 4.343,1096.78 6.218,1099.13 8.743,1101.62 C 11.283,1104.07 15.157,1105.7 20.333,1106.54 L 32.274,1107.86 L 30.94,1102.59 C 69.936,1158.56 112.442,1208.95 158.423,1253.78 C 204.455,1298.63 255.676,1335.6 312.122,1364.67 C 368.568,1393.77 431.969,1412.7 502.307,1421.42 C 515.772,1421.53 527.903,1421.15 538.716,1420.21 C 549.497,1419.26 560.103,1417.02 570.439,1413.41 C 580.793,1409.83 592.081,1404.11 604.244,1396.33 C 610.819,1392.38 617.169,1388.74 623.282,1385.44 C 629.346,1382.17 635.365,1379.15 641.302,1376.53 C 662.976,1367.32 680.999,1354.33 695.431,1337.52 C 709.849,1320.72 721.297,1299.78 729.791,1274.66 L 729.791,1273.32 C 730.522,1270.67 731.393,1267.75 732.41,1264.59 C 733.491,1261.41 734.397,1258.14 735.094,1254.83 C 743.685,1203.14 743.7,1151.95 735.268,1101.25 C 726.805,1050.59 710.006,1000.73 684.873,951.651 L 659.768,901.366 L 674.297,967.529 C 674.981,971.499 675.631,975.169 676.281,978.644 C 676.965,982.09 677.6,985.457 678.268,988.728 C 680.886,999.333 683.554,1009.91 686.189,1020.5 C 694.096,1061.34 699.369,1099.13 702.02,1133.85 C 704.64,1168.58 704.64,1201.38 702.004,1232.33 C 701.338,1240.88 700.051,1248.87 698.067,1256.32 C 696.082,1263.72 693.43,1270.73 690.159,1277.31 C 690.826,1275.4 691.476,1273.64 692.16,1272 C 692.795,1270.42 693.463,1268.67 694.112,1266.72 C 694.859,1263.43 695.685,1260.1 696.589,1256.62 C 697.526,1253.19 698.003,1249.47 698.083,1245.55 C 700.083,1211.51 699.003,1175.7 694.908,1138.19 C 690.826,1100.65 683.522,1059.19 672.962,1013.89 C 669.042,998.635 665.041,983.456 660.944,968.371 C 656.848,953.271 652.48,938.442 647.907,923.865 C 644.604,912.56 641.572,901.05 638.636,889.252 C 635.731,877.502 632.649,865.658 629.379,853.701 C 624.123,830.457 618.105,807.099 611.341,783.697 C 604.577,760.293 596.941,737.285 588.319,714.707 L 583.031,701.465 C 576.443,686.142 570.107,670.423 564.025,654.323 C 557.961,638.173 551.895,622.122 545.958,606.148 C 545.322,604.1 544.591,601.908 543.828,599.529 C 543.019,597.147 541.955,594.956 540.652,592.906 C 537.954,585.015 535.446,577.346 533.063,569.9 C 530.68,562.467 528.823,555.117 527.458,547.893 C 527.474,547.893 527.712,548.194 528.093,548.718 C 528.491,549.211 528.697,549.845 528.776,550.513 C 530.061,553.45 532.078,556.529 534.874,559.802 C 537.667,563.057 541.352,564.818 545.958,565.103 C 548.56,565.103 551.022,564.74 553.26,563.929 C 555.515,563.12 557.961,561.77 560.564,559.802 C 562.009,560.58 564.057,562.04 566.693,564.103 C 569.296,566.199 571.677,568.311 573.774,570.407 C 575.076,571.106 576.139,572.011 576.935,573.057 C 577.728,574.091 578.427,574.98 579.061,575.711 C 608.896,600.225 638.604,624.996 668.183,650.019 C 697.798,675.011 727.155,700.115 756.274,725.297 L 761.562,729.25 C 778.329,743.763 795.097,758.721 811.848,774.106 C 828.646,789.443 844.08,805.416 858.212,821.944 C 878.82,846.334 900.367,869.675 922.85,891.936 C 945.302,914.197 967.848,935.854 990.491,956.939 C 1012.55,978.009 1034.65,999.413 1056.81,1021.18 C 1079.04,1042.9 1100.16,1065.62 1120.21,1089.36 C 1122.88,1092.65 1125.77,1095.95 1128.82,1099.27 C 1131.84,1102.59 1134.73,1105.87 1137.42,1109.19 C 1163.56,1137.71 1185.09,1166.72 1202.11,1196.19 C 1219.13,1225.64 1233.63,1256.49 1245.63,1288.72 C 1257.67,1320.96 1269.23,1355.48 1280.34,1392.38 C 1281.63,1395.61 1282.68,1399 1283.52,1402.44 C 1284.31,1405.86 1285.03,1409.56 1285.64,1413.49 C 1286.3,1416.11 1286.96,1418.8 1287.63,1421.59 C 1288.28,1424.36 1288.95,1427.39 1289.6,1430.69 L 1294.9,1453.17 L 1304.17,1432.01 C 1306.26,1426.13 1309.05,1421.04 1312.46,1416.65 C 1315.88,1412.27 1319.31,1408.13 1322.69,1404.24 C 1324.74,1401.67 1326.93,1398.92 1329.31,1396.01 C 1331.68,1393.09 1333.87,1389.66 1335.95,1385.77 C 1336.66,1387.74 1337.88,1389.37 1339.58,1390.71 C 1341.3,1392.04 1343.17,1393.04 1345.2,1393.69 C 1346.6,1394.31 1348.11,1394.68 1349.84,1394.84 C 1351.54,1394.96 1353.08,1395.03 1354.48,1395.03 C 1362.4,1395.03 1369.02,1391.06 1374.31,1383.12 C 1378.8,1375.07 1381.45,1367.03 1382.25,1358.98 C 1383.09,1351 1383.09,1343.58 1382.25,1336.87 C 1376.6,1292.23 1363.65,1247.33 1343.49,1202.22 C 1323.29,1157.05 1298.06,1112.62 1267.72,1068.9 C 1237.42,1025.2 1204.27,983.17 1168.23,942.856 C 1132.18,902.526 1095.52,864.894 1058.18,829.899 C 1020.82,794.922 985.044,763.562 950.796,735.856 C 945.445,731.218 939.268,726.629 932.266,722.137 C 925.264,717.643 917.753,713.388 909.752,709.387 L 908.433,698.796 L 900.526,705.416 L 893.952,702.798 L 895.255,710.721 L 889.982,714.707 L 885.997,710.721 C 883.949,708.799 881.76,707.021 879.377,705.416 C 876.996,703.829 874.804,702.084 872.741,700.13 C 853.622,685.584 834.664,671.041 815.849,656.435 C 797.034,641.906 778.076,627.344 758.91,612.754 L 729.791,588.953 C 729.091,588.285 728.188,587.619 727.155,586.952 C 726.091,586.269 725.217,585.634 724.503,584.983 C 721.819,583.046 719.582,581.268 717.708,579.665 C 715.85,578.077 714.612,576.299 713.914,574.409 C 712.213,563.326 708.022,554.291 701.369,547.401 C 694.717,540.478 687.92,534.461 680.918,529.347 L 674.297,525.379 C 648.448,505.483 621.52,486 593.478,466.962 C 565.422,447.893 536.778,429.396 507.596,411.5 C 503.657,408.85 499.91,406.198 496.305,403.578 C 492.716,400.91 489.018,398.273 485.049,395.64 C 481.175,392.288 477.395,389.034 473.679,385.859 C 469.933,382.683 465.803,379.762 461.232,377.11 C 455.484,373.504 451.117,367.788 448.181,359.898 C 445.211,352.007 442.511,343.623 440.035,334.731 C 440.019,332.747 439.749,330.762 439.225,328.793 C 438.717,326.791 438.097,324.824 437.416,322.839 C 437.463,322.156 438.049,321.505 439.049,320.87 C 440.131,320.188 441.321,319.52 442.702,318.854 C 471.538,298.007 497.623,274.856 520.994,249.372 C 544.337,223.888 566.805,198.102 588.319,171.983 C 598.226,159.327 608.261,146.864 618.455,134.543 C 628.663,122.253 639.351,110.455 650.529,99.167 C 676.965,69.998 703.323,40.623 729.474,11.14 C 732.766,7.423 736.052,3.71 739.333,0 L 624.983,0 C 612.258,12.2 599.529,24.465 586.794,36.797 C 527.997,93.705 471.6,152.897 417.535,214.313 C 414.264,217.711 410.914,220.808 407.454,223.729 C 404.025,226.604 400.339,228.764 396.371,230.191 C 389.162,218.203 382.699,205.755 376.984,192.783 C 371.3,179.841 365.821,166.712 360.598,153.423 C 359.247,150.088 357.691,146.532 356.009,142.831 C 354.262,139.131 352.738,135.608 351.355,132.24 C 345.973,119.062 340.464,106.026 334.795,93.212 C 329.111,80.368 323.585,67.331 318.235,54.137 C 310.224,36.267 302.28,18.22 294.393,0 L 217.066,0 C 221.712,12.855 226.468,25.834 231.335,38.941 Z M 328.332,351.625 C 338.749,355.96 346.417,361.802 351.355,369.154 C 353.278,371.219 354.341,373.346 354.501,375.601 C 354.627,377.823 353.991,379.666 352.674,381.064 L 352.674,382.396 C 351.88,382.302 350.783,381.825 349.371,380.887 C 347.926,379.984 346.799,379.158 346.069,378.411 C 337.526,373.14 329.429,367.836 321.728,362.518 C 314.011,357.247 306.232,351.959 298.403,346.64 L 294.433,344.004 C 306.629,344.734 317.933,347.276 328.332,351.625 Z M -0.001,502.85 L -0.001,564.294 C 1.045,564.492 2.089,564.76 3.138,565.103 C 9.822,565.136 16.3,565.041 22.669,564.77 C 29.017,564.5 34.846,563.708 40.196,562.452 C 43.516,561.867 46.802,560.707 50.135,558.976 C 53.455,557.213 56.757,554.417 60.059,550.513 C 62.871,547.194 65.19,543.557 67.015,539.605 C 68.841,535.634 69.159,531.299 67.999,526.696 C 65.379,520.567 59.87,515.724 51.438,512.262 C 43.024,508.769 34.052,506.34 24.558,504.911 C 15.109,503.465 7.504,502.782 1.835,502.83 C 1.222,502.833 0.609,502.839 -0.001,502.85 Z M 676.965,549.195 L 676.965,554.497 L 675.631,554.497 C 674.933,554.465 674.297,554.229 673.79,553.845 C 673.28,553.45 672.979,553.227 672.962,553.179 L 672.962,550.513 C 673.582,550.496 674.027,550.258 674.297,549.877 C 674.584,549.48 675.013,549.244 675.631,549.195 L 676.965,549.195 Z" marker-start="none" marker-end="none"/>
     <path d="M 1061.83,32.099 C 1065.42,45.055 1074.41,57.312 1088.86,68.888 C 1103.24,80.525 1121.72,90.736 1144.25,99.515 C 1166.78,108.311 1191.55,115.807 1218.47,121.983 C 1245.41,128.207 1272.66,133.241 1300.25,137.131 C 1327.8,141.021 1353.82,143.814 1378.23,145.627 C 1402.68,147.437 1423.64,148.31 1441.15,148.31 C 1457.05,148.42 1472.58,146.831 1487.79,143.498 C 1503.05,140.163 1517.92,134.273 1532.5,125.825 C 1535.4,124.014 1538.21,122.348 1540.93,120.872 C 1543.68,119.394 1544.84,117.094 1544.39,113.917 C 1543.72,110.71 1542.45,108.598 1540.6,107.502 C 1538.74,106.423 1536.52,105.93 1533.78,106.011 C 1516.75,105.962 1495.6,104.281 1470.34,100.961 C 1445.09,97.691 1418.07,92.991 1389.23,86.876 C 1360.4,80.764 1332.06,73.494 1304.22,65.077 C 1276.41,56.599 1251.36,47.246 1229.15,36.925 C 1206.91,26.636 1189.77,15.633 1177.74,3.948 C 1176.45,2.618 1175.25,1.303 1174.14,0 L 1062.12,0 C 1059.37,12.091 1059.26,22.798 1061.83,32.099 Z M 1683.99,3.869 C 1742.02,24.413 1797.39,47.436 1850.14,72.874 C 1871.2,83.542 1890.94,95.959 1909.38,110.121 C 1927.76,124.237 1945.53,139.623 1962.62,156.232 C 1970.97,163.915 1976.14,172.411 1978.18,181.701 C 1980.19,191.068 1979.21,200.245 1975.21,209.28 C 1971.24,218.33 1964.41,226.205 1954.69,233.018 C 1942.67,240.925 1929.99,247.895 1916.63,254.009 C 1903.31,260.105 1889.96,265.424 1876.59,270.061 C 1821.59,290.734 1765.56,307.93 1708.52,321.679 C 1651.5,335.413 1594.15,348.625 1536.49,361.376 C 1491.36,372.378 1446.22,383.793 1401.11,395.64 C 1356,407.437 1311.56,421.186 1267.77,436.826 C 1234.45,449.338 1204.44,465.995 1177.58,486.779 C 1150.73,507.595 1128.2,532.856 1110.04,562.563 C 1088.17,599.718 1074.33,638.539 1068.51,679.012 C 1062.69,719.518 1065.07,760.991 1075.61,803.415 C 1088.28,853.416 1109.21,899.684 1138.42,942.173 C 1167.62,984.677 1202.55,1023.68 1243.16,1059.16 C 1283.8,1094.68 1327.53,1126.93 1374.4,1155.92 C 1421.26,1184.93 1468.65,1210.89 1516.61,1233.88 C 1564.51,1256.84 1610.43,1277.02 1654.25,1294.44 C 1693.9,1310.92 1736.12,1325.82 1781.01,1339.11 C 1825.91,1352.44 1871.38,1363 1917.46,1370.91 C 1963.52,1378.77 2008.12,1382.8 2051.22,1382.96 C 2066.74,1382.99 2084.32,1382.02 2104.07,1380.05 C 2123.82,1378.05 2143.96,1374.86 2164.49,1370.42 C 2185.05,1365.97 2204.26,1360.13 2222.2,1352.87 C 2240.13,1345.6 2255.02,1336.69 2266.88,1326.15 C 2288.68,1306.91 2309.56,1286.6 2329.56,1265.19 C 2349.51,1243.77 2368.76,1221.77 2387.24,1199.17 C 2398.13,1185.74 2404.8,1170.56 2407.26,1153.67 C 2409.72,1136.77 2410.12,1119.28 2408.42,1101.22 C 2405.53,1071.55 2398.72,1043.54 2387.91,1017.2 C 2377.11,990.807 2363.66,965.45 2347.56,941.093 C 2324.54,905.178 2295.24,866.785 2259.68,825.836 C 2224.09,784.935 2185.38,744.366 2143.59,704.195 C 2101.79,663.961 2060.06,627.059 2018.33,593.415 C 1976.65,559.785 1938.16,532.252 1902.93,510.96 C 1900.85,508.976 1898.36,507.611 1895.48,506.815 C 1892.58,506.023 1889.77,505.609 1887.05,505.657 C 1885.67,505.688 1884.13,505.927 1882.42,506.309 C 1880.72,506.705 1879.16,506.928 1877.8,506.976 C 1872.51,507.611 1868.52,509.292 1865.87,512.104 C 1863.24,514.867 1861.92,518.899 1861.92,524.171 C 1861.22,527.395 1860.27,529.521 1859.08,530.633 C 1857.89,531.682 1856.63,532.189 1855.3,532.142 C 1853.99,532.063 1852.9,531.839 1851.98,531.457 C 1851.04,531.078 1849.94,530.84 1848.68,530.792 C 1842.23,530.411 1837.55,532.173 1834.61,536.096 C 1831.64,540.001 1829.26,544.415 1827.48,549.305 C 1825.18,555.29 1825.49,560.229 1828.49,564.199 C 1831.45,568.184 1835.08,571.17 1839.39,573.138 C 1855.12,583.284 1870,594.081 1884.08,605.594 C 1898.14,617.041 1912.36,627.855 1926.76,637.983 L 1926.91,637.983 C 1928.91,635.791 1929.61,633.713 1929.02,631.791 C 1928.4,629.839 1927.73,627.934 1927,626.155 C 1926.26,624.313 1926.68,622.535 1928.21,620.787 C 1951.17,632.919 1977.45,651.671 2007.04,676.981 C 2036.67,702.274 2067.09,731.283 2098.29,763.943 C 2129.43,796.621 2158.8,830.059 2186.34,864.275 C 2213.87,898.461 2236.97,930.567 2255.66,960.465 C 2274.35,990.395 2286.02,1015.26 2290.67,1035.06 C 2279.86,1023.95 2270.04,1012.27 2261.25,1000.06 C 2252.4,987.885 2243.4,975.882 2234.13,964.194 C 2224.89,952.43 2214.22,941.632 2202.04,931.82 C 2204.82,941.554 2208.5,949.889 2213.14,956.814 C 2217.73,963.72 2222.41,970.389 2227.17,976.818 C 2245.39,1003.38 2260.6,1030.99 2272.86,1059.7 C 2285.1,1088.39 2296.31,1117.7 2306.55,1147.54 C 2308.79,1154.21 2310.28,1161.07 2311.06,1168.07 C 2311.82,1175.06 2310.37,1181.9 2306.72,1188.6 C 2300.66,1188.25 2297.59,1186.25 2297.62,1182.61 C 2297.66,1178.96 2297.59,1175.67 2297.48,1172.69 C 2277.54,1108.41 2249.75,1048.3 2214.01,992.378 C 2178.33,936.393 2137.77,883.854 2092.35,834.632 C 2046.96,785.458 1999.77,738.887 1950.71,694.937 C 1946.12,690.89 1941.13,687.029 1935.85,683.332 C 1930.56,679.647 1924.94,676.457 1918.95,673.726 C 1927.13,686.793 1936.59,698.701 1947.41,709.483 C 1958.23,720.199 1969,730.822 1979.76,741.222 C 1999.91,761.545 2022.32,785.028 2046.9,811.72 C 2071.49,838.365 2096.51,867.087 2121.9,897.81 C 2147.32,928.564 2171.35,960.163 2193.92,992.633 C 2216.54,1025.09 2235.94,1057.29 2252.1,1089.2 C 2268.28,1121.13 2279.45,1151.6 2285.54,1180.63 C 2289.13,1197.98 2288.57,1210.6 2283.89,1218.53 C 2279.2,1226.45 2268.73,1232.79 2252.45,1237.52 C 2235.21,1243.42 2217.41,1247.55 2199.18,1249.98 C 2180.94,1252.37 2162.5,1253.52 2143.91,1253.43 C 2081.27,1253.05 2016.24,1244.54 1948.82,1227.96 C 1881.43,1211.34 1814.33,1188.96 1747.54,1160.78 C 1680.73,1132.58 1616.95,1100.95 1556.16,1065.83 C 1495.38,1030.66 1440.25,994.396 1390.81,956.956 C 1353.52,928.71 1320.23,897.158 1290.88,862.323 C 1261.54,827.472 1237.52,788 1218.75,743.905 C 1210.62,723.995 1204.73,703.544 1201.05,682.522 C 1197.36,661.466 1197.13,639.999 1200.22,618.151 C 1203.3,593.446 1211.35,572.344 1224.36,554.799 C 1237.39,537.206 1256.7,524.377 1282.31,516.248 C 1322.08,503.943 1362.34,493.447 1403.09,484.809 C 1443.85,476.141 1484.77,467.661 1525.86,459.325 C 1544.49,454.911 1563.19,450.45 1581.96,445.908 C 1600.74,441.367 1619.1,435.255 1637.04,427.569 C 1601.92,431.554 1566.64,436.113 1531.18,441.273 C 1495.71,446.464 1460.38,451.973 1425.29,458.006 C 1439.28,450.324 1453.92,444.479 1469.27,440.445 C 1484.58,436.445 1499.96,432.571 1515.3,428.904 C 1570.19,416.423 1624.8,403.292 1679.05,389.494 C 1733.34,375.712 1787.24,360.629 1840.88,344.162 C 1866.06,336.287 1892.61,326.618 1920.57,315.106 C 1948.52,303.594 1975.08,289.876 2000.23,273.998 C 2025.38,258.072 2046.36,239.543 2063.16,218.457 C 2075,202.531 2081.42,186.05 2082.35,169.013 C 2083.29,151.944 2079.1,134.448 2069.78,116.584 C 2058.96,96.134 2045.52,78.367 2029.41,63.267 C 2013.31,48.102 1995.9,34.957 1977.14,23.828 C 1964.16,15.592 1950.98,7.651 1937.62,0 L 1672.88,0 C 1676.59,1.272 1680.29,2.56 1683.99,3.869 Z M 2003.11,172.094 C 2003.57,174.301 2003.68,176.539 2003.42,178.747 C 2004.12,180.78 2004.09,182.638 2003.29,184.21 C 2002.5,185.748 2000.74,186.576 1998.13,186.653 C 1996.14,186.576 1994.82,185.748 1994.16,184.21 C 1993.48,182.638 1993.48,180.78 1994.16,178.747 C 1994.16,176.603 1994.45,174.555 1994.98,172.618 C 1995.5,170.664 1996.12,169.618 1996.8,169.474 C 2000.58,169.031 2002.69,169.903 2003.11,172.094 Z M 1153.25,599.782 C 1154.95,599.907 1156.48,600.306 1157.92,600.941 C 1157.75,611.467 1157.72,622.535 1157.73,634.173 C 1157.75,645.811 1154.73,658.577 1148.62,672.423 C 1148.62,657.958 1148.62,644.829 1148.62,633.047 C 1148.62,621.233 1148.62,610.088 1148.62,599.622 C 1149.98,599.59 1151.52,599.637 1153.25,599.782 Z M 1285.44,997.841 C 1291.54,1001.92 1297.54,1005.96 1303.44,1009.91 C 1357.59,1050.94 1416.08,1086.33 1479.02,1116.12 C 1541.91,1145.89 1606.06,1170.07 1671.45,1188.6 C 1698.26,1196.76 1724.76,1205.71 1750.96,1215.45 C 1777.13,1225.18 1803.55,1234.33 1830.15,1242.89 C 1856.81,1251.44 1884.21,1258.05 1912.35,1262.72 C 1937.43,1266.38 1962.31,1270.61 1987.04,1275.32 C 2011.73,1279.97 2036.43,1284.07 2061.15,1287.6 C 2085.86,1291.14 2110.79,1292.96 2135.86,1293.15 C 2140.46,1293.09 2144.9,1292.89 2149.13,1292.49 C 2153.36,1292.07 2157.76,1291.87 2162.33,1291.8 C 2174.86,1291.14 2187.22,1290.52 2199.42,1289.99 C 2211.58,1289.47 2223.92,1289.22 2236.45,1289.2 C 2220.79,1296.25 2205.17,1303.54 2189.65,1310.97 C 2174.13,1318.4 2157.5,1323.02 2139.86,1324.83 C 2131.27,1325.45 2122.66,1325.83 2114.04,1325.99 C 2105.44,1326.13 2096.88,1326.17 2088.27,1326.15 C 2024.95,1325.91 1961.63,1319.27 1898.39,1306.22 C 1835.12,1293.2 1772.81,1275.21 1711.44,1252.22 C 1650.09,1229.25 1590.6,1202.76 1532.94,1172.69 C 1475.28,1142.58 1420.43,1110.42 1368.3,1076.1 C 1349.6,1063.78 1331.45,1050.35 1313.89,1035.9 C 1296.32,1021.4 1280.48,1004.38 1266.39,984.774 C 1272.99,989.347 1279.34,993.712 1285.44,997.841 Z" marker-start="none" marker-end="none"/>
    </g>
    <g id="Group_1" fill-rule="nonzero" stroke-linejoin="round" stroke-linecap="round" stroke="none" stroke-width="15.828" fill="#ffffff" stroke-miterlimit="79.8403193612775">
     <g id="Group_2">
      <g id="Group_3">
       <path d="M 674,783.318 L 674,773.342 C 661.053,770.99 651.264,766.874 644.624,760.929 C 635.078,752.136 626.636,738.65 619.254,720.499 L 491.739,409.368 L 481.79,409.368 L 344.806,724.529 C 337.792,740.716 332.862,750.592 329.981,754.189 C 325.466,759.779 319.967,764.118 313.403,767.27 C 306.839,770.41 297.998,772.453 286.843,773.342 L 286.843,783.318 L 436.195,783.318 L 436.195,773.342 C 419.304,771.722 408.355,768.851 403.304,764.708 C 398.288,760.568 395.766,755.275 395.766,748.799 C 395.766,739.8 399.882,725.767 408.154,706.738 L 501.18,492.424 L 587.458,704.057 C 595.888,724.904 600.119,739.382 600.119,747.464 C 600.119,752.668 597.508,757.651 592.304,762.411 C 587.1,767.171 578.285,770.546 565.883,772.548 C 565.006,772.694 563.467,772.972 561.293,773.342 L 561.293,783.318 L 674,783.318 Z" marker-start="none" marker-end="none"/>
       <path d="M 990.154,791.661 L 999.581,676.277 L 990.154,676.277 C 980.615,705.034 968.329,726.706 953.221,741.255 C 931.463,762.275 903.495,772.809 869.364,772.809 C 822.814,772.809 787.407,754.375 763.15,717.533 C 742.838,686.44 732.689,649.397 732.689,606.45 C 732.689,571.573 739.412,539.765 752.903,511.006 C 766.393,482.246 784.046,461.187 805.892,447.794 C 827.725,434.393 850.137,427.702 873.157,427.702 C 886.647,427.702 899.668,429.419 912.262,432.821 C 924.813,436.233 936.964,441.263 948.632,447.912 L 948.632,553.611 C 948.649,571.944 947.25,583.948 944.47,589.614 C 941.675,595.261 937.373,599.573 931.51,602.555 C 925.69,605.51 915.378,606.997 900.628,606.997 L 900.628,617.229 L 1042.18,617.229 L 1042.18,606.997 L 1035.45,606.997 C 1021.44,606.997 1011.82,602.31 1006.62,592.962 C 1003.01,586.318 1001.2,573.193 1001.2,553.611 L 1001.2,441.723 C 980.531,430.583 960.149,422.41 940.007,417.194 C 919.879,411.979 897.524,409.368 872.874,409.368 C 802.258,409.368 748.609,432.031 711.929,477.326 C 684.425,511.267 670.683,550.454 670.671,594.879 C 670.683,627.022 678.401,657.844 693.854,687.329 C 712.179,722.393 737.373,749.341 769.332,768.197 C 796.137,783.847 827.771,791.661 864.247,791.661 C 877.559,791.661 889.651,790.612 900.501,788.434 C 911.385,786.26 926.786,781.51 946.754,774.13 C 956.83,770.345 963.555,768.481 966.972,768.481 C 970.406,768.481 973.298,770.051 975.736,773.206 C 978.169,776.356 979.644,782.514 980.184,791.661 L 990.154,791.661 Z" marker-start="none" marker-end="none"/>
       <path d="M 1185.52,620.479 L 1320.35,486.464 C 1342.44,464.374 1361.32,449.312 1376.95,441.317 C 1392.58,433.303 1408.22,428.779 1423.87,427.702 L 1423.87,417.723 L 1249.97,417.723 L 1249.97,427.702 C 1260.4,427.702 1267.89,429.445 1272.48,432.956 C 1277.06,436.458 1279.35,440.375 1279.35,444.707 C 1279.35,449.017 1278.49,452.875 1276.78,456.286 C 1275.09,459.711 1269.48,466.08 1259.95,475.424 L 1133.79,600.243 L 1133.79,482.435 C 1133.79,463.903 1134.93,451.71 1137.27,445.764 C 1139.08,441.263 1142.86,437.418 1148.6,434.178 C 1156.31,429.854 1164.51,427.702 1173.11,427.702 L 1185.52,427.702 L 1185.52,417.723 L 1029.69,417.723 L 1029.69,427.702 L 1042.63,427.702 C 1057.76,427.702 1068.72,432.105 1075.53,440.909 C 1079.85,446.68 1082.01,460.516 1082.01,482.435 L 1082.01,718.595 C 1082.01,737.115 1080.84,749.428 1078.5,755.55 C 1076.71,759.864 1073.03,763.637 1067.45,766.874 C 1059.52,771.176 1051.29,773.342 1042.63,773.342 L 1029.69,773.342 L 1029.69,783.318 L 1185.52,783.318 L 1185.52,773.342 L 1173.11,773.342 C 1164.68,773.342 1156.52,771.278 1148.6,767.134 C 1143.03,764.263 1139.16,759.939 1137.02,754.189 C 1134.85,748.442 1133.79,736.584 1133.79,718.595 L 1133.79,606.737 C 1137.37,610.135 1149.67,621.559 1170.71,640.943 C 1224.08,689.84 1256.36,722.467 1267.48,738.823 C 1272.34,746.018 1274.79,752.312 1274.78,757.699 C 1274.79,761.818 1272.9,765.479 1269.11,768.616 C 1265.33,771.771 1258.97,773.342 1249.97,773.342 L 1241.61,773.342 L 1241.61,783.318 L 1375.89,783.318 L 1375.89,773.342 C 1367.96,773.157 1360.78,772.067 1354.31,770.089 C 1347.84,768.112 1339.93,764.306 1330.6,758.63 C 1321.23,752.965 1309.72,743.866 1296.08,731.295 C 1292.12,727.684 1273.88,709.248 1241.35,676.019 L 1185.52,620.479 Z" marker-start="none" marker-end="none"/>
       <path d="M 1642.98,791.661 L 1642.98,665.225 L 1633,665.225 C 1629.76,689.495 1623.96,708.792 1615.61,723.194 C 1607.22,737.56 1595.34,748.984 1579.87,757.44 C 1564.42,765.873 1548.43,770.089 1531.89,770.089 C 1513.19,770.089 1497.75,764.387 1485.51,752.992 C 1473.3,741.554 1467.17,728.585 1467.17,714.032 C 1467.17,702.879 1471.07,692.733 1478.78,683.571 C 1489.91,670.083 1516.43,652.111 1558.31,629.618 C 1592.45,611.308 1615.78,597.237 1628.28,587.433 C 1640.78,577.643 1650.4,566.097 1657.12,552.796 C 1663.84,539.503 1667.22,525.581 1667.22,511.006 C 1667.22,483.334 1656.5,459.461 1635.03,439.433 C 1613.54,419.395 1585.91,409.368 1552.09,409.368 C 1541.51,409.368 1531.54,410.179 1522.17,411.806 C 1516.63,412.697 1505.07,415.966 1487.55,421.647 C 1470.01,427.283 1458.9,430.128 1454.24,430.128 C 1449.74,430.128 1446.2,428.769 1443.59,426.097 C 1440.99,423.401 1439.06,417.825 1437.8,409.368 L 1427.81,409.368 L 1427.81,534.72 L 1437.8,534.72 C 1442.49,508.479 1448.75,488.835 1456.68,475.806 C 1464.57,462.803 1476.67,451.968 1492.91,443.353 C 1509.19,434.699 1527.03,430.396 1546.44,430.396 C 1568.92,430.396 1586.66,436.342 1599.68,448.191 C 1612.72,460.044 1619.25,474.079 1619.25,490.259 C 1619.25,499.234 1616.77,508.335 1611.84,517.498 C 1606.88,526.631 1599.18,535.176 1588.78,543.1 C 1581.78,548.489 1562.63,559.939 1531.34,577.446 C 1500.09,594.977 1477.86,608.986 1464.62,619.393 C 1451.41,629.829 1441.39,641.326 1434.55,653.891 C 1427.73,666.476 1424.31,680.32 1424.31,695.425 C 1424.31,721.66 1434.38,744.276 1454.52,763.238 C 1474.64,782.195 1500.24,791.661 1531.34,791.661 C 1550.77,791.661 1571.33,786.904 1593.09,777.381 C 1603.16,772.886 1610.26,770.647 1614.39,770.647 C 1619.07,770.647 1622.89,772.042 1625.84,774.826 C 1628.81,777.607 1631.18,783.218 1633,791.661 L 1642.98,791.661 Z" marker-start="none" marker-end="none"/>
      </g>
     </g>
    </g>
   </g>
  </g>
 </g>
</svg>
