<?xml version="1.0" standalone="no"?>
<!DOCTYPE svg PUBLIC "-//W3C//DTD SVG 1.1//EN" "http://www.w3.org/Graphics/SVG/1.1/DTD/svg11.dtd">
<!--Generator: Xara Designer (www.xara.com), SVG filter version: 4.0.0.1-->
<svg stroke-width="0.501" stroke-linejoin="bevel" fill-rule="evenodd" xmlns:xlink="http://www.w3.org/1999/xlink" xmlns="http://www.w3.org/2000/svg" version="1.1" overflow="visible" width="360pt" height="108pt" viewBox="0 0 360 108">
 <defs>
  <marker id="DefaultArrow2" markerUnits="strokeWidth" viewBox="0 0 1 1" markerWidth="1" markerHeight="1" overflow="visible" orient="auto">
   <!-- REF_ARROW_STRAIGHT (-2) -->
   <g transform="scale(0.0092592592)">
    <!-- 1/108 -->
    <path d="M -9 54 L -9 -54 L 117 0 z"/>
   </g>
  </marker>
  <marker id="DefaultArrow3" markerUnits="strokeWidth" viewBox="0 0 1 1" markerWidth="1" markerHeight="1" overflow="visible" orient="auto">
   <!-- REF_ARROW_ANGLED -->
   <g transform="scale(0.0092592592)">
    <path d="M -27 54 L -9 0 L -27 -54 L 135 0 z"/>
   </g>
  </marker>
  <marker id="DefaultArrow4" markerUnits="strokeWidth" viewBox="0 0 1 1" markerWidth="1" markerHeight="1" overflow="visible" orient="auto">
   <!-- REF_ARROW_ROUNDED -->
   <g transform="scale(0.0092592592)">
    <path d="M -9,0 L -9,-45 C -9,-51.708 2.808,-56.580 9,-54 L 117,-9 C 120.916,-7.369 126.000,-4.242 126,0 C 126,4.242 120.916,7.369 117,9 L 9,54 C 2.808,56.580 -9,51.708 -9,45 z"/>
   </g>
  </marker>
  <marker id="DefaultArrow5" markerUnits="strokeWidth" viewBox="0 0 1 1" markerWidth="1" markerHeight="1" overflow="visible" orient="auto">
   <!-- REF_ARROW_SPOT -->
   <g transform="scale(0.0092592592)">
    <path d="M -54, 0 C -54,29.807 -29.807,54 0,54 C 29.807,54 54,29.807 54,0 C 54,-29.807 29.807,-54 0,-54 C -29.807,-54 -54,-29.807 -54,0 z"/>
   </g>
  </marker>
  <marker id="DefaultArrow6" markerUnits="strokeWidth" viewBox="0 0 1 1" markerWidth="1" markerHeight="1" overflow="visible" orient="auto">
   <!-- REF_ARROW_DIAMOND -->
   <g transform="scale(0.0092592592)">
    <path d="M -63,0 L 0,63 L 63,0 L 0,-63 z"/>
   </g>
  </marker>
  <marker id="DefaultArrow7" markerUnits="strokeWidth" viewBox="0 0 1 1" markerWidth="1" markerHeight="1" overflow="visible" orient="auto">
   <!-- REF_ARROW_FEATHER -->
   <g transform="scale(0.0092592592)">
    <path d="M 18,-54 L 108,-54 L 63,0 L 108,54 L 18, 54 L -36,0 z"/>
   </g>
  </marker>
  <marker id="DefaultArrow8" markerUnits="strokeWidth" viewBox="0 0 1 1" markerWidth="1" markerHeight="1" overflow="visible" orient="auto">
   <!-- REF_ARROW_FEATHER2 -->
   <g transform="scale(0.0092592592)">
    <path d="M -36,0 L 18,-54 L 54,-54 L 18,-18 L 27,-18 L 63,-54 L 99,-54 L 63,-18 L 72,-18 L 108,-54 L 144,-54 L 90,0 L 144,54 L 108,54 L 72,18 L 63,18 L 99,54 L 63,54 L 27,18 L 18,18 L 54,54 L 18,54 z"/>
   </g>
  </marker>
  <marker id="DefaultArrow9" markerUnits="strokeWidth" viewBox="0 0 1 1" markerWidth="1" markerHeight="1" overflow="visible" orient="auto">
   <!-- REF_ARROW_HOLLOWDIAMOND -->
   <g transform="scale(0.0092592592)">
    <path d="M 0,45 L -45,0 L 0, -45 L 45, 0 z M 0, 63 L-63, 0 L 0, -63 L 63, 0 z"/>
   </g>
  </marker>
  <filter id="StainedFilter">
   <feBlend mode="multiply" in2="BackgroundImage" in="SourceGraphic" result="blend"/>
   <feComposite in="blend" in2="SourceAlpha" operator="in" result="comp"/>
  </filter>
  <filter id="BleachFilter">
   <feBlend mode="screen" in2="BackgroundImage" in="SourceGraphic" result="blend"/>
   <feComposite in="blend" in2="SourceAlpha" operator="in" result="comp"/>
  </filter>
  <filter id="InvertTransparencyBitmapFilter">
   <feComponentTransfer>
    <feFuncR type="gamma" amplitude="1.055" exponent=".416666666" offset="-0.055"/>
    <feFuncG type="gamma" amplitude="1.055" exponent=".416666666" offset="-0.055"/>
    <feFuncB type="gamma" amplitude="1.055" exponent=".416666666" offset="-0.055"/>
   </feComponentTransfer>
   <feComponentTransfer>
    <feFuncR type="linear" slope="-1" intercept="1"/>
    <feFuncG type="linear" slope="-1" intercept="1"/>
    <feFuncB type="linear" slope="-1" intercept="1"/>
    <feFuncA type="linear" slope="1" intercept="0"/>
   </feComponentTransfer>
   <feComponentTransfer>
    <feFuncR type="gamma" amplitude="1" exponent="2.4" offset="0"/>
    <feFuncG type="gamma" amplitude="1" exponent="2.4" offset="0"/>
    <feFuncB type="gamma" amplitude="1" exponent="2.4" offset="0"/>
   </feComponentTransfer>
  </filter>
 </defs>
 <g id="Document" fill="none" stroke="black" font-family="Times New Roman" font-size="16" transform="scale(1 -1)">
  <g id="Spread" transform="translate(0 -108)">
   <g id="Layer 1">
    <text xml:space="preserve" transform="matrix(-1 0 0 1 794.121 -38.25)" font-family="Arial" stroke-linejoin="round" stroke-linecap="round" stroke-width="0.25" stroke="none" font-size="10" fill="#000000" stroke-miterlimit="79.8403193612775"><tspan x="0" y="0">v</tspan></text>
    <g id="Group" fill-rule="nonzero" stroke-linejoin="round" stroke-linecap="round" stroke="none" fill="#000000">
     <g id="Group_1" stroke-width="1.138" stroke-miterlimit="79.8403193612775">
      <g id="Group_2">
       <path d="M 18.61,46.322 L 23.586,46.322 L 23.586,77.369 L 42.196,77.369 L 42.196,81.227 L 0.001,81.227 L 0.001,77.369 L 18.61,77.369 L 18.61,46.322 Z" marker-start="none" marker-end="none"/>
       <path d="M 62.531,46.322 L 67.508,46.322 L 67.508,60.11 L 91.814,60.11 C 92.949,60.12 93.966,60.056 94.868,59.918 C 95.77,59.78 96.539,59.504 97.175,59.091 C 97.81,58.676 98.295,58.06 98.632,57.242 C 98.967,56.423 99.137,55.337 99.14,53.988 L 99.14,46.322 L 103.819,46.322 L 103.819,55.241 C 103.834,56.306 103.666,57.281 103.313,58.161 C 102.96,59.042 102.325,59.795 101.407,60.419 C 100.488,61.042 99.19,61.502 97.512,61.797 L 97.512,61.894 C 98.794,61.989 99.943,62.247 100.955,62.664 C 101.968,63.079 102.769,63.75 103.36,64.675 C 103.951,65.601 104.252,66.876 104.264,68.498 L 104.264,71.342 C 104.284,72.982 104.141,74.419 103.836,75.653 C 103.532,76.888 102.953,77.917 102.098,78.743 C 101.245,79.569 100.001,80.19 98.369,80.604 C 96.737,81.019 94.603,81.227 91.967,81.227 L 62.531,81.227 L 62.531,46.322 Z M 67.508,63.967 L 67.508,77.369 L 90.186,77.369 C 92.007,77.373 93.511,77.287 94.696,77.112 C 95.884,76.936 96.813,76.65 97.483,76.253 C 98.153,75.856 98.624,75.326 98.896,74.664 C 99.167,74.001 99.298,73.184 99.287,72.21 L 99.287,69.028 C 99.306,67.215 98.686,65.914 97.426,65.124 C 96.166,64.334 94.16,63.948 91.407,63.967 L 67.508,63.967 Z" marker-start="none" marker-end="none"/>
       <path d="M 128.066,46.322 L 133.042,46.322 L 133.042,81.228 L 128.066,81.228 L 128.066,46.322 Z" marker-start="none" marker-end="none"/>
       <path d="M 157.552,46.322 L 162.529,46.322 L 162.529,76.99 L 196.25,46.322 L 203.667,46.322 L 203.667,81.228 L 198.691,81.228 L 198.691,50.559 L 164.97,81.228 L 157.552,81.228 L 157.552,46.322 Z" marker-start="none" marker-end="none"/>
       <path d="M 228.177,46.322 L 233.153,46.322 L 233.153,81.228 L 228.177,81.228 L 228.177,46.322 Z" marker-start="none" marker-end="none"/>
       <path d="M 272.559,46.322 L 277.536,46.322 L 277.536,77.369 L 296.146,77.369 L 296.146,81.227 L 253.951,81.227 L 253.951,77.369 L 272.559,77.369 L 272.559,46.322 Z" marker-start="none" marker-end="none"/>
       <path d="M 333.922,46.322 L 338.899,46.322 L 338.899,61.074 L 359.999,81.228 L 353.288,81.228 L 336.41,65.028 L 319.534,81.228 L 312.822,81.228 L 333.922,61.074 L 333.922,46.322 Z" marker-start="none" marker-end="none"/>
      </g>
     </g>
     <g id="Group_3" stroke-width="0.451" stroke-miterlimit="79.8403193612775">
      <g id="Group_4">
       <path d="M 16.299,26.928 L 18.029,26.928 L 18.029,32.466 C 18.022,33.037 18.093,33.516 18.237,33.905 C 18.381,34.293 18.635,34.603 18.998,34.834 C 19.361,35.066 19.868,35.232 20.518,35.334 C 21.169,35.436 21.997,35.486 23.002,35.484 L 23.446,35.484 C 24.279,35.483 24.95,35.427 25.456,35.316 C 25.962,35.203 26.344,35.044 26.6,34.836 C 26.857,34.629 27.029,34.38 27.114,34.09 C 27.199,33.799 27.239,33.475 27.232,33.115 L 27.232,26.928 L 28.962,26.928 L 28.962,33.516 C 28.965,33.96 28.895,34.379 28.75,34.775 C 28.607,35.169 28.372,35.52 28.043,35.827 C 27.716,36.134 27.278,36.375 26.729,36.552 C 26.181,36.727 25.502,36.817 24.695,36.82 L 22.218,36.82 C 21.5,36.826 20.87,36.78 20.328,36.681 C 19.785,36.582 19.326,36.399 18.952,36.133 C 18.578,35.866 18.283,35.485 18.068,34.987 L 18.029,34.987 L 18.029,40.751 L 16.299,40.751 L 16.299,26.928 Z" marker-start="none" marker-end="none"/>
       <path d="M 74.754,26.928 L 76.483,26.928 L 76.483,33.459 C 76.479,34.179 76.35,34.762 76.092,35.209 C 75.836,35.656 75.47,35.995 74.994,36.229 C 74.517,36.462 73.95,36.62 73.291,36.704 C 72.632,36.787 71.897,36.826 71.089,36.82 L 68.352,36.82 C 67.323,36.822 66.493,36.738 65.864,36.566 C 65.231,36.396 64.774,36.126 64.488,35.756 C 64.202,35.387 64.061,34.909 64.065,34.319 L 64.065,33.842 L 65.794,33.842 L 65.794,34.185 C 65.791,34.386 65.825,34.566 65.896,34.726 C 65.965,34.887 66.094,35.023 66.278,35.134 C 66.464,35.249 66.727,35.334 67.069,35.394 C 67.41,35.453 67.852,35.484 68.392,35.484 L 70.928,35.484 C 71.592,35.487 72.165,35.465 72.647,35.421 C 73.129,35.375 73.525,35.285 73.837,35.15 C 74.148,35.014 74.379,34.814 74.529,34.549 C 74.679,34.283 74.754,33.933 74.754,33.498 L 74.754,31.664 L 74.712,31.664 C 74.518,31.973 74.28,32.212 73.995,32.382 C 73.711,32.552 73.335,32.669 72.866,32.735 C 72.399,32.8 71.793,32.832 71.05,32.829 L 68.271,32.829 C 67.515,32.833 66.846,32.808 66.265,32.752 C 65.684,32.697 65.197,32.586 64.801,32.419 C 64.405,32.251 64.106,32.002 63.903,31.669 C 63.7,31.336 63.599,30.896 63.599,30.345 L 63.599,29.697 C 63.59,29.083 63.683,28.558 63.872,28.124 C 64.063,27.688 64.399,27.356 64.88,27.123 C 65.361,26.893 66.034,26.775 66.899,26.773 L 71.047,26.773 C 71.707,26.773 72.249,26.791 72.676,26.826 C 73.103,26.862 73.445,26.923 73.703,27.007 C 73.961,27.092 74.167,27.208 74.318,27.354 C 74.471,27.5 74.602,27.682 74.712,27.9 L 74.754,27.9 L 74.754,26.928 Z M 74.754,29.544 C 74.757,29.141 74.614,28.835 74.324,28.629 C 74.032,28.421 73.567,28.281 72.927,28.211 C 72.288,28.139 71.447,28.105 70.403,28.111 L 68.107,28.111 C 67.517,28.109 67.038,28.139 66.67,28.199 C 66.303,28.259 66.021,28.351 65.826,28.476 C 65.632,28.601 65.5,28.761 65.428,28.956 C 65.358,29.152 65.325,29.386 65.328,29.658 L 65.328,29.964 C 65.323,30.367 65.403,30.681 65.572,30.904 C 65.742,31.126 66.035,31.28 66.452,31.367 C 66.87,31.454 67.449,31.496 68.188,31.493 L 70.846,31.493 C 71.731,31.498 72.463,31.467 73.04,31.399 C 73.619,31.33 74.049,31.186 74.331,30.968 C 74.613,30.751 74.754,30.422 74.754,29.984 L 74.754,29.544 Z" marker-start="none" marker-end="none"/>
       <path d="M 111.709,26.928 L 113.439,26.928 L 113.439,36.667 L 111.709,36.667 L 111.709,26.928 Z M 111.709,38.957 L 113.439,38.957 L 113.439,40.751 L 111.709,40.751 L 111.709,38.957 Z" marker-start="none" marker-end="none"/>
       <path d="M 149.005,26.928 L 150.735,26.928 L 150.735,33.115 C 150.734,33.542 150.834,33.932 151.033,34.289 C 151.232,34.646 151.531,34.933 151.934,35.15 C 152.336,35.366 152.843,35.478 153.453,35.484 L 154.521,35.484 C 155.285,35.488 155.907,35.455 156.384,35.386 C 156.86,35.317 157.225,35.185 157.477,34.991 C 157.73,34.799 157.903,34.516 157.995,34.146 C 158.086,33.777 158.129,33.292 158.125,32.695 L 158.125,32.275 L 159.736,32.275 L 159.736,33.44 C 159.742,34.233 159.611,34.878 159.339,35.377 C 159.069,35.875 158.617,36.242 157.984,36.475 C 157.353,36.707 156.5,36.822 155.427,36.82 L 153.795,36.82 C 153.395,36.825 152.995,36.783 152.596,36.695 C 152.198,36.606 151.829,36.449 151.492,36.221 C 151.153,35.993 150.874,35.67 150.654,35.254 L 150.614,35.254 L 150.614,36.667 L 149.005,36.667 L 149.005,26.928 Z" marker-start="none" marker-end="none"/>
       <path d="M 193.247,30.708 C 193.251,30.005 193.351,29.416 193.546,28.943 C 193.739,28.468 193.996,28.085 194.316,27.797 C 194.636,27.508 194.986,27.289 195.367,27.142 C 195.749,26.993 196.129,26.893 196.51,26.845 C 196.89,26.794 197.238,26.77 197.553,26.773 L 201.458,26.773 C 202.528,26.77 203.395,26.883 204.059,27.113 C 204.723,27.342 205.209,27.708 205.514,28.212 C 205.82,28.714 205.973,29.374 205.968,30.193 L 205.968,30.48 L 204.357,30.48 L 204.357,30.155 C 204.35,29.631 204.213,29.218 203.947,28.92 C 203.682,28.621 203.326,28.411 202.88,28.289 C 202.436,28.166 201.941,28.106 201.398,28.111 L 198.479,28.111 C 197.777,28.103 197.163,28.173 196.641,28.321 C 196.116,28.467 195.71,28.734 195.419,29.124 C 195.127,29.513 194.98,30.066 194.976,30.785 L 194.976,32.829 C 194.98,33.429 195.068,33.909 195.241,34.266 C 195.413,34.624 195.648,34.891 195.945,35.066 C 196.242,35.241 196.579,35.355 196.954,35.409 C 197.33,35.464 197.725,35.488 198.137,35.484 L 201.317,35.484 C 201.899,35.489 202.404,35.436 202.831,35.324 C 203.259,35.212 203.589,35.011 203.824,34.72 C 204.058,34.428 204.177,34.013 204.18,33.478 L 204.18,33.249 L 205.791,33.249 L 205.791,33.516 C 205.795,34.207 205.645,34.798 205.343,35.289 C 205.04,35.781 204.558,36.159 203.897,36.422 C 203.236,36.685 202.37,36.818 201.301,36.82 L 198.399,36.82 C 197.758,36.827 197.132,36.788 196.524,36.703 C 195.915,36.617 195.364,36.442 194.871,36.178 C 194.378,35.914 193.986,35.519 193.695,34.991 C 193.403,34.464 193.253,33.762 193.247,32.886 L 193.247,30.708 Z" marker-start="none" marker-end="none"/>
       <path d="M 251.161,26.928 L 252.89,26.928 L 252.89,33.459 C 252.886,34.179 252.757,34.762 252.499,35.209 C 252.243,35.656 251.877,35.995 251.401,36.229 C 250.925,36.462 250.358,36.62 249.698,36.704 C 249.039,36.787 248.304,36.826 247.497,36.82 L 244.758,36.82 C 243.731,36.822 242.9,36.738 242.27,36.566 C 241.639,36.396 241.182,36.126 240.895,35.756 C 240.609,35.387 240.468,34.909 240.472,34.319 L 240.472,33.842 L 242.202,33.842 L 242.202,34.185 C 242.198,34.386 242.233,34.566 242.302,34.726 C 242.373,34.887 242.5,35.023 242.686,35.134 C 242.871,35.249 243.135,35.334 243.477,35.394 C 243.818,35.453 244.259,35.484 244.799,35.484 L 247.335,35.484 C 247.999,35.487 248.573,35.465 249.054,35.421 C 249.537,35.375 249.933,35.285 250.244,35.15 C 250.556,35.014 250.787,34.814 250.936,34.549 C 251.086,34.283 251.161,33.933 251.161,33.498 L 251.161,31.664 L 251.12,31.664 C 250.926,31.973 250.687,32.212 250.402,32.382 C 250.118,32.552 249.742,32.669 249.273,32.735 C 248.806,32.8 248.2,32.832 247.456,32.829 L 244.678,32.829 C 243.921,32.833 243.254,32.808 242.672,32.752 C 242.092,32.697 241.604,32.586 241.208,32.419 C 240.812,32.251 240.513,32.002 240.31,31.669 C 240.108,31.336 240.006,30.896 240.006,30.345 L 240.006,29.697 C 239.998,29.083 240.089,28.558 240.28,28.124 C 240.47,27.688 240.805,27.356 241.287,27.123 C 241.768,26.893 242.441,26.775 243.306,26.773 L 247.454,26.773 C 248.114,26.773 248.657,26.791 249.084,26.826 C 249.511,26.862 249.853,26.923 250.11,27.007 C 250.368,27.092 250.573,27.208 250.726,27.354 C 250.878,27.5 251.01,27.682 251.12,27.9 L 251.161,27.9 L 251.161,26.928 Z M 251.161,29.544 C 251.164,29.141 251.021,28.835 250.731,28.629 C 250.44,28.421 249.974,28.281 249.335,28.211 C 248.695,28.139 247.853,28.105 246.81,28.111 L 244.514,28.111 C 243.924,28.109 243.445,28.139 243.077,28.199 C 242.709,28.259 242.429,28.351 242.234,28.476 C 242.039,28.601 241.906,28.761 241.836,28.956 C 241.765,29.152 241.732,29.386 241.735,29.658 L 241.735,29.964 C 241.729,30.367 241.811,30.681 241.98,30.904 C 242.149,31.126 242.442,31.28 242.86,31.367 C 243.278,31.454 243.855,31.496 244.594,31.493 L 247.253,31.493 C 248.138,31.498 248.87,31.467 249.448,31.399 C 250.026,31.33 250.456,31.186 250.738,30.968 C 251.02,30.751 251.161,30.422 251.161,29.984 L 251.161,29.544 Z" marker-start="none" marker-end="none"/>
       <path d="M 288.018,26.928 L 289.748,26.928 L 289.748,33.115 C 289.747,33.542 289.847,33.932 290.046,34.289 C 290.245,34.646 290.544,34.933 290.948,35.15 C 291.349,35.366 291.856,35.478 292.466,35.484 L 293.534,35.484 C 294.298,35.488 294.919,35.455 295.397,35.386 C 295.874,35.317 296.239,35.185 296.491,34.991 C 296.743,34.799 296.917,34.516 297.008,34.146 C 297.099,33.777 297.143,33.292 297.138,32.695 L 297.138,32.275 L 298.749,32.275 L 298.749,33.44 C 298.756,34.233 298.624,34.878 298.352,35.377 C 298.081,35.875 297.629,36.242 296.997,36.475 C 296.366,36.707 295.513,36.822 294.44,36.82 L 292.808,36.82 C 292.407,36.825 292.008,36.783 291.609,36.695 C 291.211,36.606 290.842,36.449 290.505,36.221 C 290.166,35.993 289.886,35.67 289.667,35.254 L 289.627,35.254 L 289.627,36.667 L 288.018,36.667 L 288.018,26.928 Z" marker-start="none" marker-end="none"/>
       <path d="M 343.675,32.849 L 333.988,32.849 C 334.026,33.399 334.104,33.847 334.226,34.194 C 334.347,34.542 334.537,34.81 334.795,34.997 C 335.052,35.184 335.403,35.313 335.847,35.383 C 336.291,35.454 336.853,35.487 337.533,35.484 L 340.07,35.484 C 341.002,35.477 341.731,35.379 342.257,35.189 C 342.784,34.999 343.154,34.754 343.367,34.453 C 343.579,34.153 343.683,33.835 343.675,33.498 L 343.675,32.849 Z M 332.259,30.766 C 332.266,29.876 332.413,29.163 332.697,28.627 C 332.982,28.093 333.358,27.691 333.829,27.423 C 334.3,27.156 334.819,26.979 335.384,26.892 C 335.951,26.806 336.519,26.766 337.09,26.773 L 340.231,26.773 C 341.309,26.769 342.234,26.853 343.005,27.029 C 343.775,27.205 344.367,27.507 344.78,27.931 C 345.192,28.356 345.399,28.938 345.405,29.678 L 345.405,29.868 L 343.675,29.868 C 343.644,29.378 343.518,29.005 343.293,28.751 C 343.07,28.495 342.731,28.324 342.277,28.236 C 341.823,28.147 341.234,28.105 340.513,28.111 L 338.137,28.111 C 337.134,28.104 336.329,28.181 335.719,28.34 C 335.109,28.501 334.667,28.785 334.394,29.193 C 334.119,29.599 333.984,30.167 333.988,30.9 L 333.988,31.51 L 345.405,31.51 L 345.405,32.6 C 345.402,33.464 345.269,34.173 345.007,34.725 C 344.745,35.279 344.377,35.708 343.899,36.014 C 343.424,36.319 342.861,36.531 342.212,36.65 C 341.563,36.769 340.849,36.826 340.07,36.82 L 337.291,36.82 C 336.67,36.827 336.063,36.788 335.469,36.703 C 334.875,36.617 334.337,36.442 333.854,36.178 C 333.372,35.914 332.986,35.519 332.7,34.991 C 332.413,34.464 332.266,33.763 332.259,32.886 L 332.259,30.766 Z" marker-start="none" marker-end="none"/>
      </g>
     </g>
    </g>
   </g>
   <g id="SVG Document"/>
  </g>
 </g>
</svg>
