<svg xmlns="http://www.w3.org/2000/svg" xmlns:xlink="http://www.w3.org/1999/xlink" fill="none" fill-rule="evenodd" stroke="black" stroke-width=".501" stroke-linejoin="bevel" stroke-miterlimit="10" overflow="visible" width="800" height="400" viewBox="0 -300 600 300" xmlns:v="https://vecta.io/nano"><style><![CDATA[.B{fill-rule:nonzero}.C{fill-opacity:.047}]]></style><defs><linearGradient id="A" x1="21.404" y1="235.273" x2="354.452" y2="28.196" xlink:href="#H"><stop offset="0" stop-color="#7c5ab3"/><stop offset="1" stop-color="#7e019e"/></linearGradient><linearGradient id="B" x1="18.607" y1="138.698" x2="1589.212" y2="138.698" xlink:href="#H"><stop offset="0" stop-color="#a145b9"/><stop offset="1" stop-color="#050505"/></linearGradient><linearGradient id="C" x1="257.363" y1="269.634" x2="585.73" y2="65.468" xlink:href="#H"><stop offset="0" stop-color="#44454b"/><stop offset="1"/></linearGradient><linearGradient id="D" x1="372.602" y1="294.292" x2="615.239" y2="-58.105" xlink:href="#H"><stop offset="0" stop-color="#fff"/><stop offset="1" stop-color="#6c0088"/></linearGradient><linearGradient id="E" x1="282.99" y1="235.73" x2="244.92" y2="270.89" xlink:href="#H"><stop offset="0" stop-color="#a583db"/><stop offset="1" stop-color="#7a2fa8"/></linearGradient><path id="F" d="M1.084 14.554V235.73c0 7.991 6.507 14.555 14.555 14.555h357.534c8.048 0 14.612-6.564 14.612-14.555V14.554c0-3.87-1.541-7.581-4.283-10.312S377.043-.015 373.173 0H15.639C7.623.031 1.141 6.538 1.141 14.554z"/><path id="G" d="M82.406 159.206h-.114c-1.317.151-2.042 1.321-2.176 3.507l-.071 1.961.028 1.116-1.718-2.662c-1.727-2.558-3.035-3.837-3.922-3.837-.411.058-.731.281-.959.673-.297.486-.444 1.141-.445 1.961.001.688.11 1.418.33 2.191.276.983.763 1.817 1.461 2.504.667.65 1.45.974 2.347.974.61 0 1.293-.168 2.047-.501.439.601.844.902 1.216.902.153 0 .301-.052.445-.157.286-.192.458-.54.515-1.045.056-.43.086-.936.086-1.518v-.558l.072-1.855c.047-.633.144-1.158.292-1.574s.376-.623.681-.623c.276 0 .649.239 1.116.716.658.687 1.27 1.484 1.833 2.391a.72.72 0 0 0 .615.315c.124 0 .249-.038.373-.115a.68.68 0 0 0 .329-.601.83.83 0 0 0-.114-.401 16.31 16.31 0 0 0-2.02-2.612c-.734-.768-1.483-1.152-2.247-1.152zm-7.831 1.531c.43.02 1.709 1.728 3.837 5.125-.438.171-.835.258-1.188.258-.115 0-.307-.025-.58-.072s-.556-.21-.851-.486c-.487-.487-.84-1.108-1.06-1.861-.181-.64-.271-1.236-.271-1.79l.013-.358c.038-.543.072-.816.1-.816z"/><linearGradient id="H" gradientUnits="userSpaceOnUse"/></defs><g transform="scale(1 -1)"><g stroke="none"><use xlink:href="#F" fill="url(#A)"/><g fill="#fff"><use xlink:href="#F" fill-opacity=".149"/><path d="M1.084 14.554v147.261l238.87 88.413h119.007L127.226 0H15.696C7.657 0 1.141 6.516 1.141 14.554z" class="B C"/><use xlink:href="#F" class="C"/><use xlink:href="#F" class="C"/><use xlink:href="#F" class="C"/></g></g><mask id="I"><path fill="#191919" stroke="none" d="M-60-30h720v360H-60z"/></mask><g stroke="none"><g mask="url(#I)" class="B"><g fill="#fff"><path d="M150.057 27.968l-3.596 8.219a4.62 4.62 0 0 1-.343.742 1.2 1.2 0 0 1-.456.342c-.216.1-.448.158-.685.171v.229h3.881v-.229c-.457 0-.742-.114-.856-.228a.51.51 0 0 1-.171-.399c0-.229.057-.571.285-1.142l2.397-5.537 2.283 5.48.286 1.141c0 .172 0 .286-.172.4a1.42 1.42 0 0 1-.684.228h-.115v.286h2.911v-.229c-.274-.042-.531-.161-.742-.342-.303-.286-.537-.637-.685-1.027l-3.31-8.105h-.228zm5.194.228v.342h.399c.4 0 .685.114.856.343.115.171.172.513.172 1.084v5.993l-.115.971c0 .114-.171.171-.285.285-.192.109-.407.168-.628.171h-.342v.229h4.052v-.229h-.342c-.4 0-.685-.114-.856-.342-.115-.171-.172-.514-.172-1.085v-6.05c0-.514 0-.799.115-.97 0-.114.114-.228.285-.286a1.32 1.32 0 0 1 .571-.171h.399v-.285h-4.052zm5.194-.228v3.253h.285c.114-.628.285-1.142.457-1.484.234-.373.571-.67.97-.856a2.86 2.86 0 0 1 1.37-.343c.571 0 1.027.172 1.37.457a1.37 1.37 0 0 1 .285 1.826c-.143.248-.338.462-.571.628l-1.484.914-1.712 1.084a4 4 0 0 0-.799.913c-.532.952-.317 2.148.514 2.854a2.92 2.92 0 0 0 1.997.685c.514 0 1.028-.114 1.599-.342.177-.094.371-.152.57-.172.114 0 .229 0 .286.114l.171.4h.285v-3.253h-.285a4.13 4.13 0 0 1-.457 1.484c-.469.745-1.288 1.197-2.169 1.198-.416.01-.822-.132-1.141-.399a1.37 1.37 0 0 1-.571-1.028c0-.285.171-.57.342-.799.286-.342.971-.799 2.055-1.37l1.827-1.141c.342-.228.571-.571.742-.856.484-.989.25-2.179-.571-2.911-.58-.564-1.361-.872-2.169-.856-.228 0-.514 0-.742.114l-.913.228a4.24 4.24 0 0 1-.856.228c-.115 0-.229 0-.286-.114l-.114-.456h-.285zm6.792.228v.342c.457.057.685.172.799.286.228.228.514.685.799 1.37l3.311 7.762h.285l3.253-7.877c.159-.464.412-.892.742-1.255.265-.194.586-.294.914-.286v-.285h-3.767v.285c.399 0 .684.057.799.172s.171.228.171.399a2.87 2.87 0 0 1-.228.97l-.571 1.37h-3.71l-.628-1.484c-.122-.271-.199-.56-.228-.856l.171-.342c.171-.115.456-.229.913-.229v-.285h-2.968zm6.278 3.71l-1.598 3.824-1.655-3.824h3.253zm5.309-2.169c-.725.861-1.11 1.957-1.085 3.082a5.25 5.25 0 0 0 2.569 4.509c.685.4 1.541.571 2.454.571a4.79 4.79 0 0 0 2.169-.457c.165-.06.338-.098.514-.114.057 0 .171 0 .228.114.069.143.108.299.114.457h.229l.285-2.968h-.285a4.23 4.23 0 0 1-.914 1.712c-.571.514-1.313.799-2.169.799a3.08 3.08 0 0 1-2.796-1.427c-.552-.868-.831-1.882-.8-2.91.005-.851.2-1.689.571-2.455.277-.678.755-1.256 1.37-1.655.571-.343 1.142-.571 1.712-.571.703.023 1.389.22 1.998.571v2.74l-.114.913a.68.68 0 0 1-.343.342c-.256.089-.527.128-.799.115v.285h3.653v-.285h-.171c-.342 0-.571-.115-.742-.343-.114-.171-.114-.514-.114-1.027v-2.854c-.571-.343-1.142-.571-1.598-.685-.571-.114-1.142-.228-1.713-.228-1.883 0-3.253.57-4.223 1.769zm8.847-1.541v.342h.342c.4 0 .685.114.856.343.115.171.172.513.172 1.084v5.993c0 .457 0 .799-.115.971 0 .114-.114.171-.285.285-.175.098-.37.157-.571.171h-.399v.229h4.052v-.229h-.342c-.343 0-.628-.114-.799-.342-.114-.171-.172-.514-.172-1.085v-6.05l.058-.97.285-.286a1.33 1.33 0 0 1 .628-.171h.342v-.285h-3.995z"/><path d="M200.342 28.082l-6.222 7.591v-5.822c0-.571.058-.97.229-1.084.171-.172.456-.286.799-.286h.342v-.285h-3.31v.342h.342c.4 0 .685.114.857.343.114.171.171.513.171 1.027v6.621a4.36 4.36 0 0 1-.628.571 2.5 2.5 0 0 1-.628.342 2.75 2.75 0 0 1-.628 0v.286h2.569l5.764-7.078v5.48c0 .57 0 .913-.171 1.084s-.399.286-.799.286h-.342v.228h3.31V37.5h-.342c-.4 0-.685-.115-.856-.343-.115-.171-.172-.571-.172-1.027v-7.991h-.228zm3.425 1.312a4.96 4.96 0 0 0-1.313 3.596c0 1.484.514 2.74 1.541 3.653 1.806 1.709 4.648 1.659 6.393-.114a4.85 4.85 0 0 0 1.312-3.539c.03-1.314-.462-2.587-1.369-3.538-.826-.934-2.008-1.473-3.254-1.484a4.39 4.39 0 0 0-3.31 1.426zm5.479.115c.571.742.856 1.826.856 3.31 0 1.655-.285 2.854-.913 3.653-.533.637-1.341.978-2.169.913a2.51 2.51 0 0 1-2.055-.913 5.37 5.37 0 0 1-.913-3.425c-.088-1.273.254-2.539.97-3.595.571-.628 1.142-.971 1.998-.971a2.76 2.76 0 0 1 2.226 1.028zm7.648.228c-.699.872-1.063 1.965-1.027 3.082-.022 1.857.96 3.581 2.569 4.509.685.4 1.484.571 2.454.571l.913-.057 1.199-.4c.184-.063.376-.102.571-.114 0 0 .114 0 .171.114l.114.457h.285l.229-2.968h-.229c-.186.638-.518 1.225-.97 1.712-.571.514-1.313.799-2.169.799a3.08 3.08 0 0 1-2.74-1.427c-.552-.868-.83-1.882-.799-2.91.005-.851.2-1.689.571-2.455a3.65 3.65 0 0 1 1.313-1.655c.571-.343 1.141-.571 1.712-.571.4 0 .742.114 1.085.171l.913.4v2.74c0 .456 0 .799-.114.913-.069.152-.191.274-.343.342a2.17 2.17 0 0 1-.799.115v.285h3.71v-.285h-.228c-.343 0-.571-.115-.742-.343-.112-.33-.151-.681-.114-1.027v-2.854a7.07 7.07 0 0 0-3.368-.913c-1.769 0-3.196.57-4.109 1.769zm8.79-1.541v.342h.343c.399 0 .685.114.856.4.114.114.171.456.171 1.027v5.993c0 .571-.057.971-.228 1.142s-.457.285-.799.285h-.343v.229h3.425c1.027 0 1.77 0 2.283-.172a2.51 2.51 0 0 0 1.142-.856 2.12 2.12 0 0 0 .571-1.37 2.44 2.44 0 0 0-.571-1.541 3.26 3.26 0 0 0-1.827-.913l1.998-2.683c.457-.627.799-1.084 1.142-1.255a2.91 2.91 0 0 1 1.255-.4v-.285h-2.511l-3.197 4.452h-1.084v-2.74c0-.571.057-.97.228-1.141s.4-.286.799-.286h.343v-.285h-4.053zm5.137 5.479a1.92 1.92 0 0 1 .685 1.484c0 .571-.228 1.085-.57 1.427a2 2 0 0 1-1.484.571c-.229 0-.571 0-1.085-.114v-3.996h.4c.913 0 1.598.229 2.054.571zm5.765-4.281a4.97 4.97 0 0 0-1.37 3.596c0 1.484.571 2.74 1.541 3.653 1.807 1.709 4.649 1.659 6.393-.114a4.85 4.85 0 0 0 1.37-3.539c.03-1.314-.463-2.587-1.37-3.538a4.39 4.39 0 0 0-3.31-1.484c-1.237-.004-2.418.514-3.254 1.426zm5.48.115c.57.742.856 1.826.856 3.31 0 1.655-.343 2.854-.97 3.653-.526.613-1.305.95-2.112.913a2.51 2.51 0 0 1-2.055-.913c-.628-.799-.97-1.941-.97-3.425 0-1.598.342-2.796 1.027-3.595.514-.628 1.142-.971 1.998-.971.913 0 1.598.343 2.226 1.028zm2.911-1.313v.342l6.164 8.562h-3.025c-.571 0-.856 0-1.142-.114a1.14 1.14 0 0 1-.513-.514 3.89 3.89 0 0 1-.286-1.141h-.285l.228 2.34h7.021l-6.279-8.904h3.882c.57 0 1.084.171 1.426.399.286.286.571.799.8 1.598h.228l-.457-2.568h-7.705zm3.653 10.274l-1.313 2.283h.228l1.941-1.484 1.598 1.484h.171l-1.313-2.283h-1.312zm5.022-10.274v.342h.343c.399 0 .685.114.856.343.114.171.171.513.171 1.084v5.993c0 .457 0 .799-.114.971-.069.118-.167.216-.285.285a1.36 1.36 0 0 1-.628.171h-.343v.229h4.053v-.229h-.343c-.342 0-.684-.114-.856-.342-.114-.171-.171-.514-.171-1.085v-6.05c0-.514 0-.799.114-.97 0-.114.114-.228.286-.286.19-.111.407-.17.627-.171h.343v-.285h-3.995zm6.051 1.198c-.922.966-1.415 2.262-1.37 3.596a4.74 4.74 0 0 0 4.737 4.909c1.199 0 2.283-.457 3.197-1.37a4.79 4.79 0 0 0 1.312-3.539 4.96 4.96 0 0 0-1.312-3.538 4.39 4.39 0 0 0-3.311-1.484 4.39 4.39 0 0 0-3.31 1.426zm5.422.115c.571.742.856 1.826.856 3.31 0 1.655-.285 2.854-.913 3.653-.533.637-1.341.978-2.169.913a2.51 2.51 0 0 1-2.055-.913 5.37 5.37 0 0 1-.913-3.425c-.088-1.273.254-2.539.97-3.595.571-.628 1.142-.971 2.055-.971.856 0 1.598.343 2.169 1.028zm6.336-1.313v.342h.342c.4 0 .685.114.856.343.115.171.172.513.172 1.084v5.993c0 .457 0 .799-.115.971 0 .114-.114.171-.285.285-.192.107-.408.166-.628.171h-.342v.229h3.995v-.229h-.285a1.42 1.42 0 0 1-.571-.171c-.155-.064-.279-.187-.342-.342a3.24 3.24 0 0 1-.115-.914v-2.853c.115 0 .457.342.971.856l2.511 2.511.171.514c0 .114 0 .171-.114.285l-.514.114h-.228v.229h3.482v-.229c-.171 0-.4 0-.571-.114-.2-.073-.392-.169-.571-.285-.285-.114-.57-.4-.913-.685l-1.427-1.427-1.427-1.427 3.482-3.482c.571-.571 1.084-.97 1.484-1.141.368-.213.776-.349 1.199-.4v-.285h-4.51v.399c.286 0 .457 0 .571.114.171.115.229.229.229.343 0 .057 0 .171-.115.285l-.399.514-3.311 3.196v-3.025c0-.513 0-.799.114-.97 0-.114.172-.228.286-.285.191-.109.407-.168.628-.172h.342v-.285h-3.995zm12.671.342a2.97 2.97 0 0 0-1.142 1.427c-.114.4-.228 1.199-.228 2.34v3.71c0 .571-.057.971-.228 1.142s-.4.285-.799.285h-.343v.229h4.11v-.229h-.343c-.399 0-.685-.114-.856-.399-.114-.171-.171-.514-.171-1.028v-4.052c0-.4 0-.799.114-1.256a2.5 2.5 0 0 1 .343-1.141c.182-.29.438-.526.742-.685a2.68 2.68 0 0 1 1.255-.229c.571 0 1.142.115 1.656.4s.799.571.97 1.027c.228.457.285 1.142.285 2.169v3.825c0 .57 0 .97-.171 1.141s-.457.286-.799.286h-.343v.228h3.311V37.5h-.343c-.346.011-.672-.163-.856-.457-.114-.171-.171-.514-.171-1.028v-3.824c0-.97-.057-1.712-.285-2.283-.228-.55-.629-1.011-1.142-1.313-.669-.407-1.444-.606-2.226-.57-.799-.027-1.59.171-2.283.57zm.457 10.217v.913h4.452v-.913h-4.452zm7.077-10.559v.342h.343c.399 0 .685.114.856.4.114.114.171.456.171 1.027v5.993c0 .571-.114.971-.228 1.142-.172.171-.457.285-.799.285h-.343v.229h3.425c1.027 0 1.712 0 2.283-.172.454-.171.849-.468 1.141-.856a2.11 2.11 0 0 0 .571-1.37c0-.57-.228-1.141-.571-1.541-.497-.489-1.136-.809-1.826-.913l1.998-2.683c.456-.627.799-1.084 1.141-1.255.382-.23.812-.366 1.256-.4v-.285h-2.569l-3.196 4.452h-.571-.399v-2.74c0-.571.057-.97.171-1.141.171-.172.457-.286.799-.286h.4v-.285h-4.053zm5.137 5.479a1.92 1.92 0 0 1 .685 1.484c0 .571-.228 1.085-.571 1.427-.394.388-.931.594-1.484.571-.285 0-.628 0-1.084-.114v-3.996h.399c.914 0 1.599.229 2.055.571z"/><path d="M300.97 28.196v.342h.342c.229 0 .457 0 .628.172a.57.57 0 0 1 .343.342l.057.913v6.165c0 .57-.057.97-.172 1.084-.171.171-.456.286-.856.286h-.342v.228h7.306l.114-2.055h-.285a3.03 3.03 0 0 1-.286 1.027 1.03 1.03 0 0 1-.571.457 3.29 3.29 0 0 1-.97.057h-2.568v-3.71h2.054c.571 0 .914.057 1.142.228.171.229.342.571.342 1.142h.286v-3.311h-.286c-.016.311-.074.618-.171.914a.8.8 0 0 1-.399.342c-.287.128-.6.187-.914.171h-2.054v-3.139-.742l.228-.228.571-.114h1.541l1.198.114c.229.114.457.228.685.456.286.286.571.742.914 1.313h.285l-.913-2.454h-7.306zm3.539 10.673c-.155.149-.239.357-.229.571 0 .171.114.343.229.514.171.114.342.228.57.228s.4-.114.571-.228c.135-.158.197-.365.171-.571.01-.214-.073-.422-.228-.571-.158-.134-.365-.196-.571-.171-.194.006-.379.088-.513.228zm5.365-10.559c-.285.228-.4.457-.4.742a.96.96 0 0 0 .172.571c.171.114.342.171.57.171a.57.57 0 0 0 .4-.114 2.29 2.29 0 0 0 .399-.799c.115-.229.286-.4.457-.4.114 0 .228.114.343.229.114.171.171.456.171.856v6.392a2.87 2.87 0 0 1-.114.971c0 .114-.115.171-.286.285-.191.109-.407.168-.628.171h-.342v.229h4.052v-.229h-.342c-.4 0-.685-.114-.856-.342-.114-.171-.171-.514-.171-1.085v-4.566a5.45 5.45 0 0 0-.229-1.712 2.69 2.69 0 0 0-.799-1.142c-.366-.359-.857-.563-1.37-.57-.372-.009-.735.112-1.027.342z"/><path d="M319.634 25.285c-.268.091-.479.302-.571.571-.03.15-.03.306 0 .456 0 .229 0 .4.115.571l.342.571c.159.201.33.392.514.571h.057-.4c-.813-.055-1.625.123-2.34.513-.524.341-.924.841-1.141 1.427-.22.76-.316 1.55-.286 2.34v3.71c0 .571 0 .971-.228 1.142-.171.171-.4.285-.742.285h-.4v.229h4.11v-.229h-.343c-.399 0-.684-.114-.856-.399-.114-.171-.171-.514-.171-1.028v-4.052c0-.4 0-.799.114-1.256.025-.401.143-.792.343-1.141.202-.294.477-.53.799-.685.376-.167.787-.246 1.198-.229.628 0 1.142.115 1.713.4.456.285.799.571.97 1.027s.285 1.142.285 2.169v3.825c0 .57-.057.97-.228 1.141s-.457.286-.799.286h-.342v.228h3.367V37.5h-.399c-.347.011-.673-.163-.857-.457l-.114-1.028v-3.824c0-.97-.114-1.712-.285-2.283-.228-.55-.629-1.011-1.142-1.313-.228-.171-.513-.285-1.141-.285a3.54 3.54 0 0 1-.685-.97c-.087-.18-.145-.373-.171-.571 0-.228.114-.457.228-.571.131-.183.345-.29.571-.285.202.005.399.064.57.171l.115-.171a2.65 2.65 0 0 0-.571-.457c-.207-.121-.445-.181-.685-.171-.155-.012-.31.007-.457.057zm1.142 2.968l.342.399h-.228l-.457-.399-.342-.228c.399 0 .685.057.685.228zm8.105-.285v3.253h.285c.114-.628.286-1.142.514-1.484.219-.365.535-.661.913-.856.423-.223.892-.34 1.37-.343.571 0 1.027.172 1.37.457a1.37 1.37 0 0 1 .342 1.826 2.05 2.05 0 0 1-.57.628 16.15 16.15 0 0 1-1.542.914l-1.712 1.084a4 4 0 0 0-.799.913c-.155.32-.233.672-.228 1.028 0 .742.228 1.312.799 1.769.514.514 1.141.742 1.94.742.571 0 1.028-.114 1.656-.342a1.47 1.47 0 0 1 .57-.172c.058 0 .172 0 .229.114.114 0 .171.172.171.4h.285v-3.253h-.285a4.11 4.11 0 0 1-.4 1.484c-.469.745-1.288 1.197-2.168 1.198a1.71 1.71 0 0 1-1.256-.399c-.292-.262-.459-.636-.457-1.028 0-.285.114-.57.343-.799.285-.342.97-.799 2.054-1.37l1.77-1.141c.342-.228.571-.571.742-.856.505-.986.269-2.189-.571-2.911a3.02 3.02 0 0 0-2.112-.856c-.285 0-.571 0-.799.114l-.856.228a4.11 4.11 0 0 1-.913.228c-.114 0-.171 0-.286-.114l-.114-.456h-.285zm9.132.228v.342h.286c.456 0 .742.114.856.343.114.171.171.513.171 1.027V37.1h-1.142a3.43 3.43 0 0 1-.913-.114c-.256-.104-.475-.283-.628-.514a2.12 2.12 0 0 1-.342-1.027h-.228l.114 2.283h7.705l.114-2.283h-.285c0 .399-.114.685-.171.856a1.49 1.49 0 0 1-.571.571 2.12 2.12 0 0 1-.97.228h-1.313v-7.249c0-.571 0-.97.171-1.084.171-.172.457-.286.799-.286h.343v-.285h-3.996zm8.904.342a2.86 2.86 0 0 0-1.141 1.427c-.114.4-.171 1.199-.171 2.34v3.71c0 .571-.115.971-.286 1.142s-.399.285-.742.285h-.399v.229h4.109v-.229h-.342c-.4 0-.685-.114-.856-.399-.115-.171-.172-.514-.172-1.028v-4.052c0-.4 0-.799.114-1.256.031-.4.148-.79.343-1.141.19-.284.444-.518.742-.685.394-.176.825-.255 1.256-.229.57 0 1.141.115 1.712.4.457.285.799.571.97 1.027s.229 1.142.229 2.169v3.825c0 .57 0 .97-.172 1.141s-.456.286-.799.286h-.342v.228h3.367V37.5h-.456c-.35.024-.682-.153-.856-.457-.115-.171-.115-.514-.115-1.028v-3.824c0-.97-.114-1.712-.285-2.283-.235-.546-.634-1.004-1.141-1.313-.687-.415-1.483-.614-2.284-.57a4.23 4.23 0 0 0-2.283.57zm7.535-.342v.342h.342c.4 0 .685.114.856.4.114.114.171.456.171 1.027v5.993c0 .571-.114.971-.228 1.142-.171.171-.399.285-.799.285h-.342v.229h3.824c1.427 0 2.511-.114 3.253-.457a3.83 3.83 0 0 0 1.77-1.598c.47-.794.707-1.704.685-2.626a4.74 4.74 0 0 0-1.142-3.31c-.97-.971-2.283-1.484-4.167-1.484h-4.223zm6.849 1.655c.742.742 1.141 1.77 1.141 3.082s-.399 2.34-1.141 3.082a3.65 3.65 0 0 1-2.74 1.142l-1.427-.171v-8.105l1.541-.171c1.028 0 1.941.342 2.683 1.141zm3.31-1.655v.342h.4c.342 0 .628.114.799.343.114.171.171.513.171 1.084v5.993l-.057.971-.285.285a1.36 1.36 0 0 1-.628.171h-.4v.229h4.11v-.229h-.342c-.4 0-.685-.114-.857-.342-.114-.171-.171-.514-.171-1.085v-6.05c0-.514 0-.799.114-.97 0-.114.114-.228.286-.286.174-.1.37-.158.57-.171h.4v-.285h-4.053zm4.852.114c-.228.228-.4.457-.4.742-.017.202.055.401.198.544s.343.216.544.198a.57.57 0 0 0 .4-.114c.2-.236.355-.507.457-.799.114-.229.228-.4.399-.4.114 0 .228.114.343.229.114.171.171.456.171.856v6.392l-.057.971-.343.285c-.174.1-.37.159-.57.171h-.4v.229h4.11v-.229h-.343c-.399 0-.685-.114-.856-.342-.114-.171-.171-.514-.171-1.085v-4.566c.018-.579-.06-1.158-.229-1.712-.158-.446-.434-.84-.799-1.142-.38-.373-.894-.578-1.427-.57a1.54 1.54 0 0 0-1.027.342zm4.737-.114v.342c.457.057.685.172.799.286.229.228.514.685.8 1.37l3.31 7.762h.285l3.254-7.877c.285-.627.571-1.027.742-1.255.228-.172.571-.286.913-.286v-.285h-3.767v.285c.4 0 .628.057.799.172.114.114.171.228.171.399-.036.338-.133.667-.285.97l-.571 1.37h-3.653l-.628-1.484c-.131-.267-.209-.558-.228-.856 0-.114 0-.228.171-.342.114-.115.457-.229.914-.229v-.285H374.2zm6.279 3.71l-1.598 3.824-1.713-3.824h3.311zM159.817 1.255l-10.845 24.829h10.502l3.996-9.247 3.767 9.247h4.566L161.757 1.255h-1.94zm-17.238 39.612l-8.447 19.635-2.74 5.536c-.856 1.028-1.94 1.884-3.139 2.455s-2.854.97-4.966 1.141v1.884h28.025v-1.884c-3.196-.285-5.251-.856-6.164-1.598a3.71 3.71 0 0 1-1.427-3.025c0-1.712.799-4.281 2.34-7.877l7.021-16.21h-10.446zm30.708 0l6.336 15.696c1.598 3.939 2.397 6.621 2.397 8.163 0 .97-.457 1.94-1.427 2.853-1.027.857-2.683 1.484-5.023 1.827l-.856.171v1.884h21.176v-1.884a11.24 11.24 0 0 1-5.537-2.283c-1.712-1.712-3.367-4.224-4.737-7.648l-7.706-18.779h-4.68zm93.094-38.014V4.68h2.454c2.854 0 4.852.856 6.165 2.454.799 1.142 1.198 3.71 1.198 7.82v11.13h9.703v-11.13c0-3.425.229-5.708.685-6.849.426-.964 1.172-1.75 2.112-2.227 1.484-.799 2.968-1.141 4.566-1.141h2.398V2.739h-29.281zm41.324 0V4.68c1.998 0 3.425.342 4.224 1.027.913.571 1.313 1.37 1.313 2.169s-.172 1.541-.457 2.169c-.343.628-1.37 1.827-3.196 3.596l-12.558 12.443h13.528l10.388-10.388c3.106-3.321 6.683-6.167 10.616-8.448a22.73 22.73 0 0 1 8.847-2.568V2.853h-32.762zm-31.45 37.957v18.436c0 3.425-.228 5.822-.685 6.964-.436.909-1.158 1.65-2.054 2.111-1.485.8-3.026 1.199-4.624 1.199h-2.454v1.884h29.281V69.52h-2.34c-1.599 0-3.14-.399-4.567-1.141a4.46 4.46 0 0 1-2.283-2.455c-.342-1.084-.571-3.31-.571-6.678V40.867h-9.703zm16.667 3.881c6.559 5.582 12.631 11.711 18.151 18.322.913 1.37 1.369 2.569 1.369 3.596 0 .742-.342 1.427-1.084 2.055-.685.571-1.884.856-3.596.856h-1.541v1.884h25.228V69.52a14.75 14.75 0 0 1-4.052-.571 20.66 20.66 0 0 1-4.452-2.169c-1.77-1.084-3.939-2.796-6.507-5.137l-10.274-10.388-10.445-10.445h-6.964l4.167 3.881zm50.057-43.436v23.516h1.826c.914-4.908 2.112-8.561 3.596-11.073 1.484-2.397 3.71-4.452 6.85-6.05a21.12 21.12 0 0 1 9.931-2.512c4.224 0 7.534 1.142 9.989 3.368a10.39 10.39 0 0 1 2.283 12.957c-.856 1.598-2.169 3.139-3.996 4.566h13.414a18.82 18.82 0 0 0 .856-3.425v-4.737a17.98 17.98 0 0 0-5.879-11.016c-4.254-3.851-9.849-5.88-15.582-5.651-4.165-.057-8.298.719-12.158 2.283a30.22 30.22 0 0 1-6.278 1.598c-.72.017-1.417-.249-1.941-.742-.514-.57-.856-1.541-1.142-3.139h-1.826zm1.256 45.891c-3.637 6.898-2.08 15.388 3.767 20.548 3.767 3.538 8.561 5.308 14.383 5.308 3.653 0 7.535-.856 11.587-2.626 1.941-.856 3.254-1.313 3.996-1.313.913 0 1.598.286 2.168.8.571.57 1.028 1.598 1.37 3.139h1.827V49.315h-1.827c-.57 4.566-1.712 8.162-3.253 10.844-3.351 5.457-9.293 8.785-15.696 8.79-3.539 0-6.45-1.027-8.733-3.196s-3.425-4.566-3.425-7.306c0-2.112.685-3.995 2.169-5.708a55.88 55.88 0 0 1 14.897-10.16l3.197-1.712h-21.005c-2.397 1.941-4.167 3.996-5.422 6.279zM204.908 14.041c-2.91 3.528-5.083 7.604-6.393 11.986h11.873c.57-1.941 1.312-3.824 2.169-5.708 2.066-4.851 5.521-8.982 9.931-11.872 5.921-3.832 13.232-4.856 19.977-2.797 2.398.628 4.681 1.598 6.85 2.854v4.395c0 3.425-.286 5.708-.799 6.735a5.25 5.25 0 0 1-2.398 2.455c-1.141.57-3.025.799-5.822.799v1.94h26.599v-1.883h-1.313c-2.569 0-4.395-.914-5.366-2.683-.868-2.352-1.219-4.863-1.027-7.363V7.305c-3.629-1.972-7.48-3.505-11.473-4.566-4.107-1.017-8.325-1.515-12.557-1.484h-.114c-13.242 0-23.287 4.281-30.194 12.729zm-3.424 39.383c3.177 6.305 8.088 11.572 14.155 15.183 5.023 2.968 10.959 4.395 17.808 4.395a36.18 36.18 0 0 0 15.525-3.254c1.884-.742 3.139-1.084 3.767-1.084.685 0 1.142.285 1.655.913.457.571.743 1.712.857 3.425h1.883l1.713-21.633h-1.713c-1.305 4.556-3.694 8.727-6.963 12.158a21.63 21.63 0 0 1-15.754 5.936c-8.733 0-15.411-3.425-19.92-10.331-3.502-5.468-5.473-11.776-5.708-18.265h-11.301c.571 4.338 1.941 8.562 4.053 12.557z"/></g></g><g fill="#1a1e33"><path d="M305.936 101.027v63.699h63.641V100.97h-63.641zm61.986 1.655v60.388h-60.388v-60.445h60.388zm-42.98 37.329v-.343a2.11 2.11 0 0 1-1.141-.57 4.12 4.12 0 0 1-1.028-1.541l-5.022-12.215h-.343l-5.422 12.386c-.229.628-.457 1.027-.571 1.141-.16.239-.375.435-.628.571-.343.146-.711.224-1.084.228v.343h5.879v-.343c-.628-.114-1.085-.171-1.313-.342a.8.8 0 0 1-.286-.628c.001-.399.172-.913.514-1.712l3.653-8.391 3.425 8.334c.285.799.456 1.37.456 1.712 0 .171-.114.4-.285.571a2.1 2.1 0 0 1-1.027.399h-.229v.4h4.452zm20.891-6.393l5.308-5.251c.856-.856 1.598-1.427 2.226-1.769.571-.343 1.199-.514 1.827-.571v-.343h-6.85v.4c.4 0 .742 0 .913.171s.286.286.286.457l-.114.456c-.2.273-.43.522-.685.742l-4.966 4.909v-4.566c0-.742 0-1.256.114-1.484.11-.21.293-.372.514-.457.285-.171.571-.228.913-.228h.514v-.4h-6.222v.4h.571c.571 0 .97.114 1.256.514.171.228.285.742.285 1.598v9.304c0 .742-.057 1.198-.171 1.426a1.02 1.02 0 0 1-.457.457c-.293.177-.627.275-.97.285h-.514v.343h6.165v-.343h-.514c-.323-.017-.637-.115-.913-.285-.235-.093-.421-.279-.514-.514-.106-.448-.144-.91-.114-1.369v-4.395l1.484 1.312 3.767 3.882c.228.285.285.57.285.742-.016.159-.099.304-.228.399-.114.171-.399.228-.742.228h-.285v.343h5.251v-.343l-.856-.171c-.846-.375-1.619-.897-2.283-1.541l-2.169-2.112-2.169-2.226zm18.322 6.792v-5.022h-.343c-.114.97-.399 1.712-.685 2.283a3.53 3.53 0 0 1-1.427 1.37 3.99 3.99 0 0 1-1.883.456c-.668.037-1.323-.189-1.827-.628-.459-.381-.73-.944-.742-1.541 0-.456.172-.856.514-1.198.4-.571 1.427-1.256 3.082-2.112 1.37-.742 2.283-1.313 2.797-1.713a4.22 4.22 0 0 0 1.142-1.312 3.71 3.71 0 0 0-.857-4.452c-.898-.826-2.091-1.258-3.31-1.199a6.57 6.57 0 0 0-2.569.514l-1.255.285c-.17.014-.338-.049-.457-.171-.057-.057-.171-.286-.228-.628h-.4v4.909h.4c.228-1.028.456-1.77.742-2.283a3.59 3.59 0 0 1 1.427-1.313 4.45 4.45 0 0 1 2.112-.514c.913 0 1.598.285 2.111.742s.742 1.027.742 1.655a2.27 2.27 0 0 1-.285 1.028c-.22.409-.533.761-.913 1.027-.286.228-1.028.685-2.283 1.37l-2.569 1.655c-.478.359-.884.805-1.198 1.313a3.54 3.54 0 0 0 .799 4.281c.799.799 1.769 1.141 3.025 1.141.742 0 1.541-.171 2.397-.57.27-.124.56-.202.856-.229.171 0 .343 0 .457.172.114.114.228.285.285.627h.4zm-26.085 0l.343-4.566h-.343c-.399 1.142-.856 1.941-1.484 2.569a4.56 4.56 0 0 1-3.253 1.198 4.68 4.68 0 0 1-4.167-2.169 7.82 7.82 0 0 1-1.256-4.337 9.09 9.09 0 0 1 .8-3.768c.57-1.141 1.255-1.94 2.111-2.511 1.239-.791 2.762-.999 4.167-.571.514.114.97.343 1.427.571v3.995c0 .8 0 1.256-.171 1.484a1.08 1.08 0 0 1-.514.514c-.366.131-.753.19-1.141.171v.4h5.536v-.4h-.285c-.571 0-.914-.228-1.142-.57a3.65 3.65 0 0 1-.228-1.541v-4.281c-.758-.418-1.563-.744-2.397-.971-.861-.201-1.742-.297-2.626-.285-2.797 0-4.909.856-6.279 2.683a6.78 6.78 0 0 0-1.712 4.566c0 1.313.343 2.511.97 3.653.685 1.37 1.713 2.454 2.969 3.196 1.027.571 2.283.913 3.71.913.57 0 .97 0 1.426-.114.624-.139 1.235-.33 1.827-.571a2.89 2.89 0 0 1 .799-.228c.114 0 .228.057.343.228.114.115.114.343.171.685h.399z"/><path d="M291.78 83.847l-2.968 6.278h.914l2.111-4.566 2.112 4.566h.856l-2.853-6.278h-.172zm5.822-2.226c-.378.116-.728.311-1.027.57-.314.333-.565.72-.742 1.142h.856a2.28 2.28 0 0 1 .913-.913 2.91 2.91 0 0 1 1.427-.343c.571 0 1.028.114 1.427.343.343.171.628.456.799.742.171.342.286.856.286 1.541v.342a3.37 3.37 0 0 0-1.142-.913 3.31 3.31 0 0 0-4.281 1.313c-.569 1.009-.569 2.243 0 3.253.343.457.742.913 1.256 1.142.904.532 2.009.596 2.968.171.4-.171.799-.514 1.142-.97v1.141h.856v-5.08c0-.856-.114-1.541-.229-1.94a2.56 2.56 0 0 0-1.141-1.37c-.575-.319-1.226-.477-1.884-.457-.571 0-1.027.114-1.484.228zm3.254 3.652c.456.457.685 1.028.685 1.77a2.91 2.91 0 0 1-.286 1.256c-.434.753-1.242 1.211-2.112 1.198a2.51 2.51 0 0 1-1.813-.715c-.483-.473-.755-1.12-.755-1.796-.023-.642.226-1.263.685-1.713.491-.465 1.15-.712 1.826-.684.742 0 1.313.228 1.77.684zm3.196-1.426v8.732h.856v-4.965l2.854 2.568h1.256l-3.482-3.025 3.653-3.31h-1.142l-3.139 2.853v-2.853h-.856zm6.221.057c-.316.163-.589.397-.799.685l.514.57c.4-.513.856-.742 1.313-.742.285 0 .571.114.799.343s.342.456.342.742c0 .228-.057.399-.228.571a4.04 4.04 0 0 1-1.027.742c-.571.285-.914.57-1.142.856a1.59 1.59 0 0 0-.285.97c0 .457.114.913.456 1.199.34.316.793.48 1.256.456.571 0 1.142-.285 1.712-.856l-.456-.571c-.457.457-.856.685-1.313.685-.258.006-.507-.097-.685-.285a.8.8 0 0 1-.228-.571c0-.228.057-.399.228-.571a2.88 2.88 0 0 1 .97-.685c.571-.342 1.028-.627 1.199-.913.228-.285.343-.628.343-1.027.003-.499-.205-.975-.571-1.313-.36-.37-.855-.576-1.37-.571-.359.022-.709.12-1.028.286zm4.795 0a.74.74 0 0 0 0 .97c.114.171.285.228.514.228.171 0 .342-.057.513-.228.126-.141.188-.326.172-.514 0-.378-.307-.685-.685-.685a.68.68 0 0 0-.514.172zm5.251-.057l-2.968 6.278h.913l2.112-4.566 2.112 4.566h.856l-2.854-6.278h-.171zm4.167 0v6.278h.799v-6.278h-.799zm-.114 7.762c-.126.141-.187.326-.172.514l.172.456.513.172c.172 0 .343 0 .457-.172a.68.68 0 0 0 .228-.456c.001-.196-.082-.383-.228-.514-.129-.129-.303-.201-.485-.201s-.357.072-.485.201zm2.854-7.705c-.34.151-.635.387-.857.685l.571.57c.343-.513.799-.742 1.256-.742.342 0 .571.114.856.343a.97.97 0 0 1 .114 1.37c-.307.277-.653.508-1.027.685a3.41 3.41 0 0 0-1.142.856 1.71 1.71 0 0 0-.342.97c0 .457.171.913.513 1.199.326.301.755.465 1.199.456.571 0 1.199-.285 1.769-.856l-.513-.571c-.457.457-.856.685-1.256.685a.97.97 0 0 1-.685-.285.8.8 0 0 1-.285-.571c0-.228.057-.399.228-.571a2.93 2.93 0 0 1 .97-.685c.571-.342 1.028-.627 1.256-.913s.285-.628.285-1.027a1.83 1.83 0 0 0-1.94-1.827 2.62 2.62 0 0 0-.97.229zm5.022.742c-.605.626-.934 1.469-.913 2.34 0 .913.286 1.712.97 2.34.571.685 1.37.97 2.284.97a2.97 2.97 0 0 0 2.511-1.312v1.141h.799v-6.278h-.799v1.084a3.58 3.58 0 0 0-1.142-.97 3.25 3.25 0 0 0-1.37-.286c-.913 0-1.712.286-2.283.971zm3.653.114c.4.228.742.513.914.913.228.342.342.799.342 1.256 0 .742-.228 1.37-.742 1.883-.447.469-1.065.736-1.712.742-.902.023-1.74-.462-2.169-1.255a2.57 2.57 0 0 1 0-2.626c.171-.4.456-.685.856-.913.774-.461 1.738-.461 2.511 0zm5.423-3.139a2.91 2.91 0 0 0-1.085.57c-.315.332-.567.719-.742 1.142h.913a2.29 2.29 0 0 1 .914-.913c.439-.232.93-.35 1.427-.343.57 0 .97.114 1.37.343.399.171.684.456.799.742.171.342.285.856.285 1.541v.342c-.623-.778-1.572-1.221-2.569-1.198a3.25 3.25 0 0 0-2.853 1.598 3.31 3.31 0 0 0 .057 3.253c.285.457.685.913 1.255 1.142a3.14 3.14 0 0 0 2.854.171c.457-.171.856-.514 1.256-.97v1.141h.799v-5.08c.036-.655-.041-1.311-.228-1.94-.205-.579-.61-1.065-1.142-1.37-.575-.319-1.226-.477-1.883-.457-.571 0-1.028.114-1.427.228zm3.253 3.652c.4.457.685 1.028.685 1.77 0 .457-.114.913-.342 1.256-.444.744-1.246 1.199-2.112 1.198a2.62 2.62 0 0 1-1.313-.285 2.57 2.57 0 0 1-1.256-2.169c-.039-.661.211-1.307.685-1.77a2.51 2.51 0 0 1 1.827-.684 2.59 2.59 0 0 1 1.826.684zm3.025-1.426v6.278h.856v-6.278h-.799zm0 7.762c-.146.131-.229.318-.228.514.03.356.328.629.685.628.171 0 .342 0 .456-.172.133-.117.214-.28.229-.456.001-.196-.082-.383-.229-.514-.122-.116-.287-.178-.456-.171a.63.63 0 0 0-.457.171zm2.569-7.762v6.278h.799v-1.141a3.09 3.09 0 0 0 1.084 1.027c.409.198.859.296 1.313.285.457 0 .856-.114 1.256-.342.342-.228.571-.571.799-.97a5.03 5.03 0 0 0 .228-1.884v-3.253h-.799v3.025c0 .685 0 1.141-.114 1.427a1.71 1.71 0 0 1-.514.97 1.71 1.71 0 0 1-1.027.285 1.94 1.94 0 0 1-1.37-.456c-.378-.327-.639-.768-.742-1.256a8.18 8.18 0 0 1-.114-1.712v-2.283h-.799zm7.876.799a3.31 3.31 0 0 0-.913 2.34 3.23 3.23 0 0 0 .971 2.34c.627.685 1.369.97 2.283.97 1.003.006 1.943-.486 2.511-1.312v1.141h.856v-6.278h-.856v1.084c-.307-.401-.696-.732-1.142-.97-.429-.195-.897-.293-1.369-.286-.914 0-1.713.286-2.284.971zm3.711.114c.342.228.684.513.913.913.228.342.285.799.285 1.256 0 .742-.228 1.37-.742 1.883-.447.469-1.065.736-1.712.742-.931.02-1.793-.488-2.226-1.312-.198-.389-.296-.82-.286-1.256a2.57 2.57 0 0 1 1.199-2.283 2.51 2.51 0 0 1 2.569 0zm4.052-.856a2.33 2.33 0 0 0-.856.685l.513.57c.4-.513.857-.742 1.313-.742.343 0 .628.114.856.343s.343.456.343.742c0 .228-.114.399-.228.571-.302.299-.649.549-1.028.742-.571.285-.97.57-1.141.856a1.71 1.71 0 0 0-.343.97c0 .457.171.913.514 1.199.325.301.755.465 1.199.456.57 0 1.141-.285 1.769-.856l-.514-.571c-.456.457-.856.685-1.255.685a.91.91 0 0 1-.685-.285c-.171-.142-.274-.349-.286-.571 0-.228.057-.399.228-.571.272-.293.603-.527.971-.685.571-.342 1.027-.627 1.256-.913.222-.296.342-.657.342-1.027a1.77 1.77 0 0 0-.571-1.313c-.355-.376-.853-.583-1.37-.571a2.69 2.69 0 0 0-1.027.286z" class="B"/><path d="M256.449 83.219c-1.882 1.878-2.302 4.773-1.03 7.108s3.931 3.554 6.53 2.992 4.517-2.77 4.711-5.422-1.385-5.115-3.875-6.048v4.452h1.313c.114 0 .171.057.171.171v1.541h-1.484v.856c0 .4.114.571.628.571h.742c.114 0 .171.114.171.228v1.256c0 .114-.057.171-.171.171h-1.142c-1.141 0-1.997-.799-1.997-2.111v-.914h-1.142c-.047-.013-.086-.045-.108-.088s-.024-.095-.006-.14v-1.37c0-.114 0-.171.114-.171h1.142v-4.852c-1.656-.057-3.311.514-4.567 1.713zM275 85.844c-.436.309-.725.784-.8 1.313-.057.571.057 1.027.4 1.484a1.8 1.8 0 0 0 1.256.742h.57a1.88 1.88 0 0 0 1.142-.571 1.94 1.94 0 0 0 .171-2.568c-.324-.41-.795-.676-1.313-.742h-.285c-.407-.013-.808.108-1.141.342zm2.397 1.77c-.067.548-.484.988-1.028 1.084h-.399a1.14 1.14 0 0 1-.799-.514c-.298-.4-.33-.939-.083-1.372s.728-.678 1.224-.625c.742.114 1.199.742 1.142 1.427z"/><path d="M271.86 83.219c-2.34 2.283-2.34 6.164 0 8.504 2.283 2.283 6.108 2.283 8.448 0a6.05 6.05 0 1 0-8.505-8.504zm7.477.97c.457.4.742.97.742 1.598v3.596c0 1.142-.97 2.112-2.111 2.112h-3.653a2.11 2.11 0 0 1-2.112-2.112v-3.596c0-.685.342-1.256.799-1.712a2.11 2.11 0 0 1 1.598-.685h3.139c.628 0 1.256.285 1.598.799zm-1.541 5.308a.63.63 0 0 0-.171.4c0 .171.057.342.171.456a.65.65 0 0 0 .457.172c.171 0 .342-.057.457-.172.116-.123.178-.287.171-.456-.002-.151-.064-.294-.171-.4a.63.63 0 0 0-.914 0z"/></g><g class="B"><path d="M27.397 118.607l-8.847 20.091h3.31l5.366-12.614 5.022 12.614h3.311l-8.276-19.977zm10.845.856v19.178h3.025v-19.178h-3.025zm7.02 0v19.178h5.708c.799 0 1.541-.114 2.112-.285 1.771-.506 3.18-1.85 3.767-3.596.539-1.592.539-3.317 0-4.909-.383-1.167-1.147-2.173-2.169-2.854-.491-.328-1.03-.579-1.598-.742-.571-.171-1.313-.285-2.169-.285H48.23v-6.507h-2.968zm8.448 10.274l.57.799c.224.562.322 1.166.286 1.769l-.057.857-.286.913c-.116.315-.29.605-.513.856a2.98 2.98 0 0 1-1.142.742 4.56 4.56 0 0 1-1.655.285H48.23v-7.306h2.683c1.255 0 2.169.343 2.797 1.028zm20.662-10.103c-1.221.286-2.381.789-3.425 1.484-2.064 1.435-3.511 3.596-4.053 6.05a8.97 8.97 0 0 0 0 3.825c.257 1.221.741 2.383 1.427 3.424 1.025 1.547 2.499 2.742 4.224 3.425 2.389 1.018 5.089 1.018 7.477 0h.229l.171-.114v-3.539c-.571.457-1.199.799-1.941 1.142-1.55.503-3.228.443-4.737-.172a6.79 6.79 0 0 1-3.539-3.596 6.73 6.73 0 0 1 0-5.022 6.56 6.56 0 0 1 3.539-3.596c2.475-1.018 5.321-.431 7.192 1.484l.342.342.285.343v-4.053a14.56 14.56 0 0 0-1.541-.856c-1.201-.469-2.477-.721-3.767-.742-.628 0-1.256.057-1.883.228zm14.326.229c-1.217.379-2.304 1.091-3.139 2.054a6.28 6.28 0 0 0-1.37 4.053v12.671h2.968V125.97a3.15 3.15 0 0 1 .343-1.484 2.85 2.85 0 0 1 .856-1.142c.395-.288.84-.5 1.312-.628a5.38 5.38 0 0 1 3.197 0 4.02 4.02 0 0 1 1.313.685c.399.286.685.628.913 1.085.171.456.285.913.285 1.484v12.671h3.025V125.97a6.39 6.39 0 0 0-2.34-4.966c-.648-.508-1.383-.894-2.169-1.141-.856-.286-1.712-.4-2.625-.4s-1.713.114-2.569.4zm16.438-.286l-1.141.286c-1.248.521-2.332 1.369-3.139 2.454l2.34 1.883c.48-.657 1.132-1.171 1.883-1.484a3.09 3.09 0 0 1 1.77-.171c.479.076.931.272 1.313.571a2.06 2.06 0 0 1 .685 1.027c.114.286.114.571 0 .856-.077.264-.192.514-.343.743l-1.998 1.997-.57.571-.286.285-2.34 2.226a5.42 5.42 0 0 0-1.484 2.284c-.268.773-.288 1.611-.057 2.397.114.456.285.856.571 1.198a4.57 4.57 0 0 0 1.883 1.713 4.54 4.54 0 0 0 1.256.342c.457.114.913.171 1.427.114 1.036-.077 2.028-.454 2.854-1.084.399-.286.799-.685 1.141-1.142l-2.283-1.883c-.285.333-.634.604-1.027.799-.462.279-1.01.38-1.541.285a2 2 0 0 1-.914-.399 1.43 1.43 0 0 1-.513-.742v-.4c.023-.199.081-.392.171-.571a3.58 3.58 0 0 1 .571-.742l3.196-3.082.742-.742.742-.628 1.028-1.198c.529-.797.826-1.726.856-2.683a4.62 4.62 0 0 0-1.085-3.025 5.76 5.76 0 0 0-3.995-2.112h-1.713zm13.528-.114v16.495h-5.308v2.683h13.584v-2.683h-5.251v-16.495h-3.025zm16.495.171c-1.221.284-2.382.787-3.424 1.484-1.033.679-1.924 1.551-2.626 2.569-1.098 1.572-1.677 3.448-1.655 5.365.021 1.911.596 3.775 1.655 5.365.698 1.017 1.567 1.906 2.569 2.626a10.46 10.46 0 0 0 3.424 1.427c3.812.78 7.722-.793 9.932-3.996l.856-1.712c.471-1.181.722-2.438.742-3.71a9.3 9.3 0 0 0-1.598-5.365c-.715-1.006-1.604-1.876-2.626-2.569a10.57 10.57 0 0 0-1.598-.913 11.22 11.22 0 0 0-3.767-.742c-.628 0-1.256.057-1.884.228zm4.395 3.311c1.637.661 2.935 1.959 3.596 3.596.692 1.602.692 3.42 0 5.022-1.046 2.448-3.446 4.04-6.107 4.053a6.62 6.62 0 0 1-6.107-3.996 6.5 6.5 0 0 1 0-5.079c1.417-3.343 5.246-4.94 8.618-3.596zm10.503-3.482v20.034l9.018-13.413 9.018 13.413V119.52h-3.025v10.16l-5.993-8.961-6.05 8.961v-10.217h-2.968zm22.032 0v19.178h11.529v-2.683h-8.561v-5.137h7.02v-2.682h-6.963v-5.993h8.504v-2.74h-11.529zm15.068 0v19.178h5.708a8.33 8.33 0 0 0 2.169-.285 5.93 5.93 0 0 0 2.568-1.656c.514-.57.856-1.141 1.142-1.94a7.42 7.42 0 0 0 0-4.909 5.54 5.54 0 0 0-3.425-3.425l5.194-6.963h-3.367l-4.795 6.507h-2.226v-6.507h-2.968zm7.306 9.475c.457.171.799.399 1.142.742l.513.856c.214.544.312 1.128.286 1.712v.914l-.286.913c-.316.753-.939 1.335-1.712 1.598a4.66 4.66 0 0 1-1.598.285h-2.683v-7.306h2.683c.628 0 1.141.115 1.655.286z" fill="url(#B)"/><g fill="#1a1e33"><path d="M18.892 86.073h1.713l2.111-6.165 2.226 6.107h1.713l-3.14-8.561h-1.598l-3.025 8.561zm9.475.342c.285 0 .514-.057.742-.285.191-.199.294-.467.285-.742-.015-.266-.139-.514-.342-.685a.97.97 0 0 0-1.427 0c-.197.195-.301.465-.285.742 0 .228.114.513.285.685.228.228.457.285.742.285zm-.799-2.568h1.598v-6.336h-1.598v6.278zm6.906-.914l-.97-.97c-.399.4-.799.571-1.141.571-.172 0-.286 0-.4-.114l-.114-.229.057-.285a1.84 1.84 0 0 1 .514-.286l.57-.285c.571-.285 1.028-.571 1.256-.913.247-.327.369-.732.343-1.142 0-.57-.229-1.027-.571-1.37a2.4 2.4 0 0 0-1.713-.57 2.63 2.63 0 0 0-2.226 1.084l.971 1.028a2.16 2.16 0 0 1 .685-.514 1.54 1.54 0 0 1 .685-.171c.171 0 .342 0 .456.114.171.114.229.228.229.342 0 .286-.229.571-.685.742l-.571.286c-1.028.513-1.541 1.141-1.541 1.94 0 .457.228.914.57 1.256.4.342.914.571 1.485.571a2.68 2.68 0 0 0 2.111-1.028zm6.051.914h1.598v-6.336h-1.598v.628c-.288-.245-.617-.439-.971-.571-1.099-.424-2.346-.13-3.139.742a3.37 3.37 0 0 0-.856 2.34c0 .971.285 1.77.856 2.397s1.256.914 2.112.914c.35.006.698-.052 1.027-.172a3.01 3.01 0 0 0 .971-.684v.742zm-1.713-1.313c-.443-.024-.857-.23-1.141-.571a1.88 1.88 0 0 1-.571-1.313c0-.571.171-.97.571-1.313.285-.342.685-.57 1.141-.57.5-.011.98.198 1.313.57.285.343.457.742.457 1.313s-.172 1.028-.457 1.37a1.71 1.71 0 0 1-1.313.514zm9.589 1.313h1.598v-5.423c0-1.141-.228-1.883-.684-2.397-.571-.685-1.427-1.027-2.626-1.027-.571 0-1.142.114-1.541.228a2.85 2.85 0 0 0-1.712 1.769h1.712a1.36 1.36 0 0 1 .628-.342c.228-.114.571-.171.856-.171.399 0 .799.057 1.027.228a1.14 1.14 0 0 1 .571.514c.114.171.171.57.171 1.027-.517-.504-1.219-.772-1.94-.742-.821-.022-1.611.311-2.169.913-.571.571-.856 1.37-.856 2.283 0 1.028.285 1.827.913 2.455.809.807 2.022 1.054 3.082.627a3.24 3.24 0 0 0 .97-.684v.742zm-1.712-1.313a1.6 1.6 0 0 1-1.142-.571c-.343-.307-.549-.739-.57-1.199 0-.57.171-.97.57-1.312a1.71 1.71 0 0 1 1.199-.514 1.88 1.88 0 0 1 1.256.456 2.04 2.04 0 0 1 .456 1.313c0 .571-.171.971-.456 1.313a1.71 1.71 0 0 1-1.256.514zm5.479 3.881c.286 0 .571-.057.742-.285a1.03 1.03 0 0 0 .286-.742.97.97 0 0 0-.286-.685.97.97 0 0 0-.684-.343c-.286 0-.571.114-.742.343a.97.97 0 0 0-.286.742c0 .228.057.513.286.685.171.228.456.285.742.285zm-.742-2.568h1.542v-6.336h-1.542v6.278zm3.026 0h1.541v-.685c.399.342.685.57 1.027.627.285.172.571.229.856.229.628 0 1.142-.229 1.598-.685.4-.4.571-.913.571-1.712v-4.11h-1.541v2.74c0 .799 0 1.255-.114 1.541a.97.97 0 0 1-.4.571c-.167.115-.367.175-.57.171-.321.011-.632-.113-.857-.343a1.71 1.71 0 0 1-.456-.856c-.057-.228-.114-.628-.114-1.313v-2.511h-1.541v6.278zm10.102.114c.571 0 1.142-.114 1.713-.4.513-.285.913-.742 1.198-1.256a3.25 3.25 0 0 0 0-3.31c-.282-.502-.696-.917-1.198-1.199-1.303-.713-2.916-.505-3.996.514-.653.603-1.025 1.451-1.027 2.34a3.14 3.14 0 0 0 1.141 2.455c.571.57 1.313.856 2.169.856zm0-1.484c-.454.007-.89-.18-1.198-.514a1.83 1.83 0 0 1-.514-1.313c0-.571.171-.97.514-1.313a1.65 1.65 0 0 1 1.198-.57c.48.005.936.213 1.256.57.342.343.514.799.514 1.313 0 .571-.172.971-.514 1.313-.302.349-.737.556-1.199.571zm16.096 2.169l-1.141-1.142c-.654.731-1.589 1.146-2.569 1.142a2.97 2.97 0 0 1-2.112-.799c-.563-.533-.874-1.28-.856-2.055-.02-.793.29-1.558.856-2.112.571-.571 1.37-.856 2.226-.856.571 0 1.028.171 1.427.342.343.286.685.628.913 1.142H76.94v1.541h4.281v-.4c-.002-.742-.198-1.47-.571-2.112a4.05 4.05 0 0 0-3.653-2.054c-.913 0-1.712.171-2.397.57-.695.388-1.268.961-1.655 1.656a4.62 4.62 0 0 0-.571 2.283c0 1.141.342 2.169 1.084 2.968a4.39 4.39 0 0 0 3.425 1.541c1.407.017 2.756-.564 3.71-1.598zm1.541-.799h1.37v-.8c.171.286.343.571.571.685.421.292.965.335 1.427.115l-.457-1.37c-.142.069-.298.108-.456.114-.286 0-.457-.114-.628-.457a4.24 4.24 0 0 1-.229-1.769v-2.854h-1.598v6.278zm7.135.114c.571 0 1.142-.114 1.712-.4.522-.301.955-.734 1.256-1.256.285-.513.4-1.027.4-1.655 0-.571-.115-1.141-.457-1.655a3.2 3.2 0 0 0-1.142-1.199c-.52-.299-1.111-.457-1.712-.456-.97 0-1.712.342-2.34.97-.626.617-.976 1.461-.97 2.34 0 .971.342 1.827 1.084 2.455.628.57 1.37.856 2.169.856zm0-1.484a1.6 1.6 0 0 1-1.142-.514c-.361-.342-.567-.816-.57-1.313 0-.571.228-.97.513-1.313.32-.357.776-.565 1.256-.57.46.021.892.227 1.199.57.342.343.57.799.57 1.313 0 .571-.228.971-.57 1.313a1.6 1.6 0 0 1-1.199.571zm4.395 1.37h4.852l-2.854-5.023h2.739v-1.313h-5.137l2.854 4.966h-2.454v1.37zm-.171 2.796h1.712l.685-.799.628.799h1.712l-1.712-1.655h-1.256l-1.712 1.655zm6.564-.228a1.03 1.03 0 0 0 1.027-1.027.97.97 0 0 0-.285-.685c-.185-.218-.457-.343-.742-.343s-.571.114-.742.343a.97.97 0 0 0-.286.742c0 .228.114.513.286.685.228.228.456.285.742.285zm-.799-2.568h1.598v-6.336h-1.598v6.278zm5.993.114a3.75 3.75 0 0 0 1.712-.4c.514-.285.913-.742 1.199-1.256.891-1.583.39-3.588-1.142-4.566a3.48 3.48 0 0 0-1.712-.399c-.971 0-1.713.342-2.34.97a3.2 3.2 0 0 0-.971 2.34c0 .971.343 1.827 1.085 2.455.571.57 1.37.856 2.169.856zm0-1.484c-.453 0-.886-.186-1.199-.514a1.83 1.83 0 0 1-.514-1.313c0-.571.172-.97.514-1.313.307-.343.739-.549 1.199-.57a1.71 1.71 0 0 1 1.255.57c.343.343.514.799.514 1.313 0 .571-.171.971-.514 1.313-.302.349-.737.556-1.198.571zm8.162 3.596h1.712v-2.968l2.283 2.968h1.941l-2.968-3.825 3.31-4.737h-1.94l-2.683 3.767v-3.767h-1.655v8.562zm7.249-2.226h1.598v-3.083c0-.57 0-.97.114-1.198.07-.228.21-.427.4-.571a1.14 1.14 0 0 1 .627-.171c.286 0 .514.057.685.171a.87.87 0 0 1 .4.571c.114.171.114.57.114 1.141v3.14h1.598v-2.683c0-1.142-.057-1.884-.285-2.283a2.46 2.46 0 0 0-.913-1.142c-.484-.284-1.039-.423-1.599-.399-.605-.038-1.206.123-1.712.456a2.4 2.4 0 0 0-.856 1.313c-.114.343-.171 1.085-.171 2.112v2.626zm1.141 1.141v1.256h3.254v-1.256h-3.311zm5.651-1.141h1.313v-.8c.171.286.342.571.57.685.435.314 1.008.358 1.484.115l-.513-1.37a1.15 1.15 0 0 1-.457.114c-.228 0-.456-.114-.571-.457-.227-.56-.325-1.165-.285-1.769v-2.854h-1.541v6.278zm10.502-3.653h-5.137a1.83 1.83 0 0 1 .571-1.085 1.88 1.88 0 0 1 1.256-.399 2.21 2.21 0 0 1 1.541.627l1.37-.57c-.288-.483-.703-.878-1.199-1.142-.541-.225-1.127-.323-1.712-.285-.889-.024-1.75.304-2.398.913-.619.64-.95 1.507-.913 2.397 0 .913.286 1.713.913 2.397.571.628 1.427.914 2.341.914.97 0 1.826-.286 2.454-.914a3.42 3.42 0 0 0 .913-2.568v-.285zm-1.598 1.255c-.091.341-.291.642-.571.856a1.82 1.82 0 0 1-1.141.343c-.414-.008-.814-.148-1.142-.4a2.23 2.23 0 0 1-.571-.799h3.425zm-1.712 5.194a.73.73 0 0 0 .57-.228c.171-.142.274-.349.286-.571 0-.473-.383-.856-.856-.856s-.856.383-.856.856c0 .229.114.4.285.571.114.171.342.228.571.228zm5.365-.228c.285 0 .514-.057.685-.285a.97.97 0 0 0 .285-.742 1.03 1.03 0 0 0-.97-1.028c-.285 0-.571.114-.742.343-.191.199-.294.466-.285.742 0 .228.114.513.285.685.228.228.457.285.742.285zm-.799-2.568h1.598v-6.564c-.002-.448-.079-.891-.228-1.313-.1-.291-.303-.534-.571-.685a1.71 1.71 0 0 0-.913-.285 3.69 3.69 0 0 0-1.142.285v1.199c.196-.1.409-.158.628-.172a.57.57 0 0 1 .457.172c.114.171.171.342.171.684v6.679zm3.139 0h1.598v-3.083c0-.57 0-.97.115-1.198a1.14 1.14 0 0 1 1.027-.742c.285 0 .514.057.685.171.228.114.342.285.399.571.115.171.115.57.115 1.141v3.14h1.598v-2.683c0-1.142-.057-1.884-.286-2.283a2.51 2.51 0 0 0-.913-1.142c-.482-.287-1.038-.426-1.598-.399-.605-.038-1.206.123-1.712.456a2.46 2.46 0 0 0-.857 1.313c-.114.343-.171 1.085-.171 2.112v2.626zm2.911-6.336h.856c-.57-.343-.799-.685-.799-.97 0-.172 0-.286.114-.4.126-.111.289-.172.457-.171l.514.171v-.913a3.73 3.73 0 0 0-.742-.114 1.65 1.65 0 0 0-1.085.342.97.97 0 0 0-.342.799c0 .229.114.457.285.685s.4.4.742.571zm12.215 7.363l-1.199-1.027c-.399.57-.856.856-1.313.856-.186.004-.367-.056-.513-.172-.115-.114-.172-.228-.172-.399 0-.114 0-.285.115-.4l1.198-1.141 1.142-.913c.342-.343.571-.685.685-.971.146-.302.224-.634.228-.97a2.28 2.28 0 0 0-.742-1.769 2.68 2.68 0 0 0-1.884-.685c-.566-.01-1.122.149-1.598.456a3.48 3.48 0 0 0-1.141 1.37l1.37.856c.399-.742.856-1.141 1.369-1.141a1.14 1.14 0 0 1 .742.228c.172.171.286.342.286.571s-.114.399-.229.571c-.114.228-.456.513-.97.913-.913.742-1.541 1.37-1.769 1.712-.265.386-.404.845-.4 1.313 0 .571.171 1.084.628 1.484a2.32 2.32 0 0 0 1.712.685c.4 0 .799-.114 1.199-.343.4-.171.799-.57 1.256-1.084zm1.712 1.313h1.598v-2.34h.971v-1.37h-.971v-4.966h-1.541v4.966h-.856v1.37h.799v2.283zm3.425-2.34h1.598v-3.083c0-.57 0-.97.114-1.198a1.03 1.03 0 0 1 .4-.571 1.14 1.14 0 0 1 .627-.171c.286 0 .514.057.685.171.19.144.33.343.4.571.114.171.114.57.114 1.141v3.14h1.598v-2.683c0-1.142-.114-1.884-.228-2.283a2.51 2.51 0 0 0-.97-1.142 2.91 2.91 0 0 0-1.599-.399c-.605-.038-1.206.123-1.712.456a2.4 2.4 0 0 0-.856 1.313c-.114.343-.228 1.085-.228 2.112v2.626zm11.815 2.454h1.598v-8.79h-1.598v.628c-.268-.244-.577-.437-.913-.571-1.1-.425-2.347-.13-3.14.742a3.31 3.31 0 0 0-.913 2.34c0 .971.285 1.77.856 2.397a2.77 2.77 0 0 0 2.112.914c.369.013.738-.045 1.085-.172.347-.164.658-.397.913-.684v3.139zm-1.713-3.767a1.6 1.6 0 0 1-1.141-.571 1.88 1.88 0 0 1-.571-1.313c0-.571.228-.97.571-1.313.285-.342.685-.57 1.141-.57.5-.011.98.198 1.313.57.286.343.457.742.457 1.313s-.114 1.028-.457 1.37a1.71 1.71 0 0 1-1.255.514zm5.537 3.881c.285 0 .514-.057.742-.285a1.08 1.08 0 0 0 .285-.742 1.03 1.03 0 0 0-1.027-1.028.97.97 0 0 0-.742.343c-.197.195-.301.465-.285.742 0 .228.114.513.285.685.228.228.457.285.742.285zm-.799-2.568h1.598v-6.336h-1.598v6.278zm3.767 2.568c.285 0 .571-.057.742-.285.191-.199.294-.467.285-.742.009-.276-.094-.543-.285-.742a.97.97 0 0 0-1.427 0c-.206.212-.31.504-.285.799a.97.97 0 0 0 .97.97zm-.799-2.568h1.598v-6.564c0-.571-.057-1.028-.171-1.313a1.37 1.37 0 0 0-.571-.685 1.71 1.71 0 0 0-.913-.285c-.413.028-.818.125-1.199.285v1.199c.213-.108.447-.166.685-.172.171 0 .343.057.4.172.114.171.171.342.171.684v6.679zm7.877 0h1.541v-6.336h-1.598v.628c-.272-.239-.58-.432-.914-.571-1.099-.424-2.346-.13-3.139.742-.59.636-.916 1.473-.913 2.34 0 .971.285 1.77.856 2.397a2.91 2.91 0 0 0 3.196.742 3.13 3.13 0 0 0 .914-.684v.742zm-1.713-1.313a1.6 1.6 0 0 1-1.255-.571 1.88 1.88 0 0 1-.457-1.313c0-.571.171-.97.514-1.313.285-.342.742-.57 1.198-.57.48.005.936.213 1.256.57.343.343.514.742.514 1.313s-.171 1.028-.571 1.37c-.316.323-.747.507-1.199.514z"/><path d="M19.634 71.689h1.713c.97 0 1.598 0 1.94-.114 1.03-.198 1.76-1.121 1.713-2.169 0-.571-.172-1.028-.457-1.427a2.28 2.28 0 0 0-1.256-.742 10.84 10.84 0 0 0-2.226-.114h-.571v-3.996h-.856v8.562zm.856-.856v-2.854h1.427c.571 0 1.028 0 1.313.114a1.37 1.37 0 0 1 .856 1.313c0 .285-.057.571-.228.799a1.26 1.26 0 0 1-.571.514 3.85 3.85 0 0 1-1.313.114h-1.427zm14.156-.742l-.685-.514a3.88 3.88 0 0 1-4.966.97 3.54 3.54 0 0 1-1.827-3.196c0-1.027.4-1.883 1.142-2.568.7-.691 1.642-1.08 2.626-1.085 1.255 0 2.283.514 3.025 1.427l.685-.514c-.425-.54-.973-.971-1.599-1.255-.661-.306-1.382-.462-2.111-.457a4.45 4.45 0 0 0-3.596 1.541c-.696.852-1.061 1.926-1.028 3.025 0 1.256.4 2.283 1.256 3.14.88.867 2.075 1.341 3.31 1.312.8 0 1.542-.171 2.169-.456.685-.343 1.142-.799 1.599-1.37zm8.276-8.562l-.457.286.286.684a3.54 3.54 0 0 1 .114.628h-.514v1.599h1.085v-.971c0-.571 0-.913-.115-1.198-.095-.357-.229-.701-.399-1.028zm-2.569 0l-.456.286.285.684c.058.206.096.416.114.628h-.57v1.599h1.141v-.971c0-.571-.057-.913-.171-1.198a4.42 4.42 0 0 0-.343-1.028zm5.309 1.598v8.562h1.712c1.313 0 2.283-.114 2.854-.285.806-.272 1.493-.817 1.94-1.541.478-.77.717-1.664.685-2.569a4.5 4.5 0 0 0-.57-2.283 3.72 3.72 0 0 0-1.427-1.427 5.54 5.54 0 0 0-2.512-.457h-2.682zm.799.799h1.027c1.142 0 1.998.115 2.454.229.628.228 1.142.571 1.484 1.141.4.571.571 1.199.571 1.998 0 .856-.228 1.541-.571 2.112a3.03 3.03 0 0 1-1.712 1.199c-.571.171-1.427.228-2.625.228h-.571v-6.849zm10.902 5.708c.97 0 1.769-.342 2.454-1.084.571-.571.856-1.37.856-2.283 0-.857-.285-1.656-.913-2.283a3.14 3.14 0 0 0-2.397-1.028 3.25 3.25 0 0 0-3.311 3.311c0 .856.342 1.655.913 2.283.628.742 1.427 1.084 2.398 1.084zm0-.799c-.651.008-1.274-.262-1.713-.742a2.51 2.51 0 0 1-.742-1.826c0-.457.114-.857.343-1.256a2.28 2.28 0 0 1 .913-.97 2.51 2.51 0 0 1 2.454 0c.4.228.685.57.913.913.229.456.343.856.343 1.313 0 .685-.285 1.312-.742 1.826a2.34 2.34 0 0 1-1.712.742zm4.851.628h.799v-1.142c.286.457.571.742.856.914.4.285.857.399 1.313.399l.856-.171c.264-.118.498-.294.685-.514.205-.254.36-.544.457-.856.285.514.571.913 1.027 1.142.4.285.799.399 1.313.399a2 2 0 0 0 1.884-1.256c.206-.566.303-1.166.285-1.769v-3.425h-.856v3.425c0 .628 0 1.142-.171 1.37-.086.25-.245.469-.457.628-.256.161-.554.241-.856.228-.409.021-.812-.1-1.142-.342a2.11 2.11 0 0 1-.685-.914 6.26 6.26 0 0 1-.228-1.94v-2.512h-.799v3.254c0 .742 0 1.255-.114 1.541a1.37 1.37 0 0 1-1.313.913c-.409.026-.814-.095-1.142-.342a1.94 1.94 0 0 1-.684-.914 4.78 4.78 0 0 1-.229-1.712v-2.74h-.799v6.279zm11.416 2.626c.228 0 .399-.115.513-.229.112-.126.172-.288.172-.456s-.06-.331-.172-.457a.68.68 0 0 0-.513-.228.57.57 0 0 0-.457.228c-.111.126-.172.289-.171.457s.057.342.171.456c.171.171.285.229.457.229zm-.4-2.626h.856v-6.279h-.856v6.279zm2.512 0h.856v-1.142c.285.457.685.742 1.084.971s.799.342 1.256.342c.919.024 1.758-.521 2.112-1.37.196-.607.274-1.247.228-1.883v-3.254h-.799v3.025c0 .742 0 1.199-.114 1.484a1.6 1.6 0 0 1-.571.914c-.294.226-.656.346-1.027.342-.486-.006-.953-.188-1.313-.513a2.17 2.17 0 0 1-.742-1.199 7.92 7.92 0 0 1-.114-1.712v-2.284h-.856v6.279zm10.273.171c.971 0 1.77-.342 2.455-1.084.571-.571.856-1.37.856-2.283a3.25 3.25 0 0 0-3.311-3.311c-.97 0-1.712.343-2.34 1.028a3.25 3.25 0 0 0-.97 2.283c0 .913.342 1.655.913 2.283.571.742 1.427 1.084 2.397 1.084zm0-.799a2.34 2.34 0 0 1-1.712-.742 2.51 2.51 0 0 1-.742-1.826c.001-.881.454-1.7 1.199-2.169a2.51 2.51 0 0 1 3.424.856c.172.456.286.856.286 1.313a2.69 2.69 0 0 1-.685 1.826c-.447.469-1.065.736-1.712.742zm5.594 3.082l.457-.285-.286-.685a4.78 4.78 0 0 1-.114-.628h.514v-1.598h-1.085v.97c0 .571 0 .914.115 1.199l.399 1.027zm2.569 0l.513-.285c-.137-.216-.252-.446-.342-.685-.058-.205-.096-.415-.114-.628h.57v-1.598h-1.141v.97l.114 1.199a3.99 3.99 0 0 0 .4 1.027zm3.424-7.191l.799-.4-1.141-2.169-.571.228.913 2.283zm7.135 6.963h1.712v-8.562h-.913v7.706h-1.313l.514.856zm14.897-2.226v-6.279h-.799v1.028c-.306-.387-.697-.7-1.141-.913-.442-.228-.931-.345-1.427-.343-.857 0-1.656.343-2.283.97-.62.641-.951 1.507-.914 2.398 0 .913.286 1.712.914 2.283.684.685 1.426 1.027 2.283 1.027.57 0 1.027-.114 1.484-.342.399-.229.742-.571 1.084-1.028v1.142h.799zm-3.253-.571c-.911-.001-1.746-.507-2.169-1.313a2.57 2.57 0 0 1-.283-1.96c.172-.665.602-1.233 1.196-1.578.378-.231.813-.35 1.256-.343a2.57 2.57 0 0 1 2.169 1.256c.228.399.342.856.342 1.313 0 .742-.228 1.369-.742 1.826-.461.483-1.102.752-1.769.742zm4.966.571h.856v-2.968c0-.685 0-1.199.114-1.484a1.65 1.65 0 0 1 .628-.913 2 2 0 0 1 1.141-.343c.514 0 .914.114 1.199.343.342.228.571.513.685.856.057.228.114.742.114 1.541v2.968h.799v-3.082a4.92 4.92 0 0 0-.285-1.998 2.28 2.28 0 0 0-.914-1.027c-.466-.274-1-.412-1.541-.4a2.85 2.85 0 0 0-1.541.4c-.402.24-.721.599-.913 1.027-.262.652-.378 1.353-.342 2.055v3.025zm7.363 2.454h.799v-5.023l2.968 2.569h1.141l-3.424-3.025 3.653-3.311h-1.142l-3.196 2.854v-2.854h-.799v8.79zm9.189-3.139l-.571-.571c-.399.457-.856.685-1.255.685-.258 0-.504-.103-.685-.285a.86.86 0 0 1-.286-.571c0-.228.114-.457.229-.628.293-.294.643-.527 1.027-.685.571-.285.97-.571 1.199-.913a1.44 1.44 0 0 0 .342-.97c0-.571-.171-.971-.571-1.313-.359-.37-.854-.576-1.37-.571-.738-.018-1.44.322-1.883.913l.571.571c.399-.456.799-.685 1.312-.685.286 0 .571.114.799.286.229.228.343.456.343.742 0 .228-.057.456-.228.627a3.37 3.37 0 0 1-1.028.685 3.42 3.42 0 0 0-1.141.857c-.194.285-.294.625-.286.97 0 .514.114.913.457 1.199.33.336.784.522 1.256.513.57 0 1.141-.285 1.712-.856zm-1.427 1.827h-.799l-1.712 1.484h1.084l1.028-.857 1.027.857h1.142l-1.713-1.484zm3.539 1.198h.856v-2.34h1.256v-.685h-1.256v-5.651h-.856v5.651h-1.142v.685h1.142v2.34zm9.646-2.34v-6.279h-.799v1.028a3.08 3.08 0 0 0-2.569-1.256 3.31 3.31 0 0 0-3.253 3.368c0 .913.342 1.712.97 2.283.685.685 1.427 1.027 2.341 1.027a2.93 2.93 0 0 0 1.426-.342c.4-.229.8-.571 1.142-1.028v1.142h.742zm-3.253-.571c-.448-.013-.883-.151-1.256-.399a2.29 2.29 0 0 1-.913-.914c-.353-.589-.455-1.295-.283-1.96s.602-1.233 1.196-1.578c.378-.231.813-.35 1.256-.343.909.005 1.751.48 2.226 1.256.171.399.285.856.285 1.313 0 .742-.228 1.369-.742 1.826-.447.469-1.065.736-1.712.742zm8.276-.114l-.571-.571c-.399.457-.799.685-1.199.685-.257 0-.503-.103-.684-.285-.166-.147-.268-.351-.286-.571 0-.228.057-.457.228-.628.277-.288.607-.52.971-.685.571-.285 1.027-.571 1.255-.913.229-.285.286-.571.286-.97 0-.571-.171-.971-.571-1.313a1.88 1.88 0 0 0-1.313-.571 2.53 2.53 0 0 0-1.084.228c-.317.162-.591.396-.799.685l.571.571c.342-.456.799-.685 1.255-.685.343 0 .571.114.856.286.229.228.343.456.343.742 0 .228-.114.456-.228.627-.303.284-.65.515-1.028.685-.571.286-.97.571-1.141.857-.218.276-.339.618-.343.97 0 .514.171.913.514 1.199a1.71 1.71 0 0 0 1.198.513c.571 0 1.142-.285 1.77-.856z"/><path d="M18.949 57.077h.971l2.853-6.621 2.854 6.621h.914l-3.71-8.562h-.172l-3.71 8.562zm14.27-6.45l.685-.342c-.192-.428-.463-.815-.799-1.142a3.2 3.2 0 0 0-2.284-.799 3.08 3.08 0 0 0-2.397 1.028c-.556.63-.86 1.442-.856 2.283 0 .799.228 1.541.742 2.169.571.799 1.427 1.141 2.511 1.141s1.941-.342 2.569-1.141c.469-.624.71-1.389.685-2.169h-5.708c0-.799.285-1.37.742-1.827.439-.48 1.062-.75 1.712-.742 1.029.012 1.96.611 2.398 1.541zm0 1.713a2.86 2.86 0 0 1-.514 1.027 2.34 2.34 0 0 1-.799.628c-.356.169-.748.247-1.142.228a2.28 2.28 0 0 1-1.541-.571 2.74 2.74 0 0 1-.742-1.312h4.738zm3.082 4.851h.856v-2.283h1.256v-.742h-1.256v-5.651h-.856v5.651h-1.142v.685h1.142v2.34zm8.676-6.564l.685-.399a3.85 3.85 0 0 0-.799-1.142 3.2 3.2 0 0 0-2.227-.799 3.08 3.08 0 0 0-2.397 1.028c-.576.621-.902 1.435-.913 2.283 0 .799.285 1.541.742 2.169.628.799 1.484 1.141 2.511 1.141 1.142 0 1.941-.342 2.626-1.141.469-.624.71-1.389.685-2.169h-5.708c0-.799.228-1.37.685-1.827.439-.48 1.062-.75 1.712-.742.626.008 1.23.229 1.713.628.228.171.456.514.685.913zm0 1.713a2.63 2.63 0 0 1-.457 1.027c-.232.274-.525.489-.856.628-.882.433-1.938.298-2.683-.343a2.68 2.68 0 0 1-.742-1.312h4.738zm2.112 2.511h.856v-.913a3.32 3.32 0 0 0 .742.799c.285.171.57.285.856.285.228 0 .514-.057.742-.228l-.4-.685c-.143.068-.298.107-.456.114a1.14 1.14 0 0 1-.799-.342c-.282-.284-.479-.639-.571-1.028a10.78 10.78 0 0 1-.114-2.169v-2.169h-.856v6.336zm10.216 0v-6.278h-.799V49.6a3.41 3.41 0 0 0-1.141-.913c-.442-.226-.931-.343-1.427-.343a3.31 3.31 0 0 0-3.254 3.368c0 .913.343 1.712.971 2.283.628.685 1.427 1.027 2.283 1.027.571 0 1.027-.114 1.427-.342.456-.228.799-.571 1.141-.97v1.141h.799zm-3.253-.571c-.448-.01-.884-.149-1.256-.399-.802-.449-1.287-1.308-1.255-2.226a2.51 2.51 0 0 1 1.255-2.226c.378-.231.813-.35 1.256-.343a2.57 2.57 0 0 1 2.169 1.256c.228.4.342.856.342 1.313a2.51 2.51 0 0 1-2.511 2.568zm5.08.571h.799V53.71c.342.456.685.742 1.142.97a2.57 2.57 0 0 0 2.511 0c.342-.286.628-.571.799-.97.219-.623.316-1.282.285-1.941v-3.254h-.856v3.026l-.057 1.484a1.54 1.54 0 0 1-.571.913c-.292.23-.655.351-1.027.342-.486 0-.955-.184-1.313-.513a2.29 2.29 0 0 1-.799-1.199c-.091-.566-.129-1.139-.114-1.712v-2.283h-.799v6.278zm7.135 0h.856V51.94c0-.685 0-1.198.114-1.484.098-.367.32-.69.628-.913.354-.236.773-.355 1.198-.343a1.93 1.93 0 0 1 1.142.343c.342.228.571.514.685.856.057.228.114.742.114 1.541v2.968h.856v-3.082c.025-.682-.092-1.362-.342-1.998a2.4 2.4 0 0 0-.913-1.027 2.86 2.86 0 0 0-1.542-.4c-.57 0-1.141.114-1.541.4a2.4 2.4 0 0 0-.913 1.027c-.253.655-.37 1.354-.342 2.055v3.025zm2.682-6.278h.685c-.513-.457-.742-.857-.742-1.142-.019-.199.068-.394.229-.514a1.15 1.15 0 0 1 .627-.171 3.81 3.81 0 0 1 .4 0v-.457c-.187-.041-.379-.061-.571-.057-.347-.026-.692.075-.97.286a.97.97 0 0 0-.343.742c0 .571.286.97.685 1.255zm13.471 6.278h.799v-5.023c0-.913-.114-1.541-.229-1.997-.216-.558-.62-1.022-1.141-1.313a3.71 3.71 0 0 0-1.884-.457c-.571 0-1.027.057-1.484.228-.377.119-.727.313-1.027.571-.316.332-.567.719-.742 1.142h.856c.228-.4.571-.742.913-.913a3.03 3.03 0 0 1 1.427-.286c.571 0 1.028.057 1.427.286s.628.456.799.799c.171.285.229.799.229 1.484v.342c-.301-.393-.693-.707-1.142-.913a3.31 3.31 0 0 0-4.167 1.313 3.37 3.37 0 0 0 0 3.253c.826 1.465 2.633 2.059 4.167 1.37a3.5 3.5 0 0 0 1.142-.97v1.141zm-2.455-.571c-.446-.021-.879-.159-1.255-.399-.784-.439-1.266-1.271-1.256-2.169 0-.742.228-1.256.685-1.713.491-.465 1.15-.712 1.826-.684.742 0 1.313.228 1.77.627.456.457.685 1.085.685 1.77 0 .514-.115.913-.286 1.313-.219.365-.535.661-.913.856-.38.225-.814.343-1.256.342zm5.879-4.509c.229 0 .4 0 .514-.171.275-.287.275-.74 0-1.027-.13-.148-.317-.232-.514-.232a.68.68 0 0 0-.513.232c-.12.143-.181.327-.172.513l.172.514c.171.114.342.228.57.228zm6.165 4.623h-.799c0 .857.285 1.542.856 2.112s1.198.799 1.997.799 1.427-.228 1.941-.742c.457-.57.685-1.141.685-1.826a2.69 2.69 0 0 0-.342-1.37 9.49 9.49 0 0 0-1.313-1.712l-2.169-2.283h3.995v-.857h-5.822l3.254 3.539c.685.685 1.084 1.256 1.255 1.598.229.286.343.685.343 1.085a1.71 1.71 0 0 1-.571 1.199c-.345.355-.817.56-1.313.57a1.88 1.88 0 0 1-1.369-.57c-.362-.433-.564-.978-.571-1.542zm6.963-4.28l.799-.4-1.141-2.226-.628.285.97 2.284zm5.251 6.963h.971l2.853-6.621 2.854 6.621h.914l-3.71-8.562h-.172l-3.71 8.562zm9.19.4c.171 0 .342-.114.456-.229.132-.117.214-.28.229-.456a.69.69 0 0 0-.229-.457.68.68 0 0 0-.456-.228c-.379 0-.685.306-.685.685 0 .171.114.342.228.456.114.172.286.229.457.229zm-.4-2.626h.799v-6.278h-.799v6.278zm5.708-.685l-.571-.571c-.399.457-.856.685-1.256.685-.257 0-.503-.103-.684-.285-.166-.146-.268-.351-.286-.571 0-.228.114-.456.228-.628a3.47 3.47 0 0 1 1.028-.685c.571-.285.97-.57 1.198-.913a1.77 1.77 0 0 0-.228-2.283c-.359-.37-.854-.576-1.37-.571a2.34 2.34 0 0 0-1.826.913l.514.571c.399-.456.856-.685 1.255-.685.343 0 .628.114.856.286.229.228.343.456.343.742 0 .228-.057.456-.228.628a3.68 3.68 0 0 1-1.028.685c-.571.285-.97.57-1.141.856-.202.303-.302.663-.286 1.027 0 .449.182.879.505 1.191s.759.48 1.208.464c.57 0 1.141-.285 1.712-.856zm7.763.685v-6.278h-.914V49.6a3.41 3.41 0 0 0-1.141-.913c-.424-.219-.893-.336-1.37-.343-.913 0-1.712.343-2.283.971a3.31 3.31 0 0 0-.971 2.397c0 .913.343 1.712.971 2.283.571.685 1.37 1.027 2.283 1.027a2.97 2.97 0 0 0 2.511-1.312v1.141h.799zm-3.311-.571c-.447-.016-.881-.154-1.256-.399-.382-.215-.698-.531-.913-.913a2.51 2.51 0 0 1 0-2.569 2.99 2.99 0 0 1 .913-.97c.379-.228.814-.347 1.256-.343a2.57 2.57 0 0 1 2.226 1.256c.171.4.285.856.285 1.313.032.68-.22 1.343-.696 1.83a2.45 2.45 0 0 1-1.815.738zm10.559.571h.799v-5.023c0-.913 0-1.541-.228-1.997-.202-.549-.584-1.012-1.084-1.313a3.71 3.71 0 0 0-1.884-.457c-.571 0-1.027.057-1.484.228a2.8 2.8 0 0 0-1.027.571c-.336.327-.608.714-.799 1.142h.913a2.28 2.28 0 0 1 .913-.913c.445-.21.935-.308 1.427-.286.571 0 1.027.057 1.427.286.342.228.628.456.799.799.171.285.228.799.228 1.484v.342a3.02 3.02 0 0 0-1.141-.913 3.31 3.31 0 0 0-4.224 1.313c-.28.505-.418 1.077-.399 1.655-.02 1.184.617 2.283 1.655 2.854a3.14 3.14 0 0 0 4.109-.856v1.141zm-2.397-.571a2.51 2.51 0 0 1-1.313-.399c-.382-.215-.698-.531-.913-.913a2.62 2.62 0 0 1-.342-1.256c-.008-.651.262-1.273.742-1.713a2.45 2.45 0 0 1 1.769-.684c.742 0 1.37.228 1.827.627.456.457.684 1.085.684 1.77 0 .514-.114.913-.342 1.313-.443.744-1.246 1.199-2.112 1.198zm5.251 3.197c.379 0 .685-.307.685-.685s-.306-.685-.685-.685a.68.68 0 0 0-.456.228c-.146.119-.23.297-.23.485s.084.366.23.485c.114.115.285.172.456.172zm-.399-2.626h.799v-6.278h-.799v6.278zm2.511 0h.799V53.71c.304.403.694.735 1.142.97.342.228.799.342 1.255.342a2.29 2.29 0 0 0 1.256-.342c.343-.286.628-.571.799-.97a5.03 5.03 0 0 0 .286-1.941v-3.254h-.799v3.026l-.115 1.484c-.078.361-.28.684-.57.913a1.6 1.6 0 0 1-1.028.342c-.486 0-.955-.184-1.313-.513a2.35 2.35 0 0 1-.799-1.199c-.095-.566-.133-1.139-.114-1.712v-2.283h-.799v6.278zm13.585 0v-6.278h-.799V49.6a3.38 3.38 0 0 0-1.142-.913c-.44-.23-.93-.347-1.427-.343-.913 0-1.655.343-2.283.971a3.25 3.25 0 0 0-.97 2.397c0 .913.342 1.712.97 2.283.628.685 1.427 1.027 2.283 1.027.497.012.989-.106 1.427-.342.457-.228.799-.571 1.142-.97v1.141h.799zm-3.254-.571c-.447-.016-.881-.154-1.256-.399a2.47 2.47 0 0 1-.913-.913c-.701-1.233-.297-2.8.913-3.539.771-.474 1.742-.474 2.512 0 .399.228.685.571.913.913.228.4.343.856.343 1.313.015.676-.243 1.329-.715 1.813a2.51 2.51 0 0 1-1.797.755zm8.276-.114l-.57-.571c-.4.457-.799.685-1.256.685-.258.006-.507-.097-.685-.285-.17-.142-.274-.349-.285-.571 0-.228.114-.456.228-.628.296-.29.645-.523 1.027-.685.571-.285 1.028-.57 1.199-.913a1.44 1.44 0 0 0 .342-.97 1.77 1.77 0 0 0-.57-1.313c-.356-.376-.853-.583-1.37-.571-.737-.009-1.435.33-1.884.913l.571.571c.4-.456.856-.685 1.313-.685a1.36 1.36 0 0 1 .799.286c.228.228.342.456.342.742 0 .228-.057.456-.228.628-.301.285-.649.516-1.027.685-.571.285-.914.57-1.142.856a1.71 1.71 0 0 0-.285 1.027c0 .457.114.856.456 1.142.33.336.785.522 1.256.513.571 0 1.142-.285 1.712-.856zM21.803 38.584v2.511h.799v-2.511h2.569v-.799h-2.569v-2.512h-.799v2.512h-2.568v.799h2.568zm5.594 1.941h-.913a2.85 2.85 0 0 0 .97 1.598c.399.399.97.571 1.598.571.4 0 .799-.115 1.199-.286.373-.201.688-.496.913-.856.194-.328.293-.704.285-1.084 0-.742-.342-1.313-1.084-1.713.966-.341 1.608-1.259 1.598-2.283 0-.503-.138-.997-.4-1.427-.251-.408-.606-.742-1.027-.97a3.14 3.14 0 0 0-1.484-.4c-.684-.033-1.356.191-1.884.628a3.03 3.03 0 0 0-.97 1.884h.856c.094-.434.312-.83.628-1.142.359-.37.855-.576 1.37-.571.571 0 1.142.229 1.484.571.4.4.571.856.571 1.37a1.72 1.72 0 0 1-.286.913 1.7 1.7 0 0 1-.742.685c-.476.166-.979.243-1.484.229v.799c.4 0 .742.057 1.085.228.285.114.571.285.685.514.391.54.29 1.292-.229 1.712-.322.257-.731.38-1.141.342a1.48 1.48 0 0 1-.913-.285 2.28 2.28 0 0 1-.685-1.084zm5.879 1.94h5.422l-4.566-8.79-.742.4 3.995 7.591h-4.109v.799zm6.107-4.281c0 1.142.114 1.998.4 2.626.228.571.57 1.084.97 1.37.457.342.97.514 1.541.514s1.027-.172 1.484-.514c.486-.367.861-.861 1.085-1.427.228-.628.399-1.484.399-2.569s-.171-1.94-.399-2.568c-.221-.568-.597-1.062-1.085-1.427-.427-.325-.947-.506-1.484-.514-.571 0-1.084.172-1.484.457a3.02 3.02 0 0 0-1.027 1.427c-.286.628-.4 1.484-.4 2.625zm.799 0c0-.97.114-1.712.286-2.226.125-.447.384-.845.742-1.141.331-.239.733-.359 1.141-.343.343 0 .685.115 1.027.343.343.285.571.628.743 1.141.228.571.342 1.37.342 2.226s-.114 1.542-.285 2.112c-.144.469-.422.886-.8 1.199-.304.255-.687.396-1.084.399-.396-.008-.778-.148-1.084-.399a2.45 2.45 0 0 1-.742-1.142 7.27 7.27 0 0 1-.229-2.169zm11.473 4.624h.913a15.24 15.24 0 0 1-.285-11.416h-.857c-.69 1.722-1.02 3.568-.97 5.423.012 2.074.418 4.128 1.199 6.05zm5.993-.114l.742-.457-2.283-3.539.856.171c.65.008 1.273-.262 1.712-.742.514-.456.742-1.084.742-1.769.016-.945-.488-1.821-1.312-2.283a2.68 2.68 0 0 0-1.37-.4c-.46 0-.912.118-1.313.343-.409.224-.746.561-.97.97a2.57 2.57 0 0 0-.343 1.313c0 .342.114.742.228 1.141l.742 1.37 2.626 3.882zm-.913-4.567c-.48-.005-.936-.213-1.256-.57-.358-.32-.565-.776-.571-1.256.006-.48.213-.936.571-1.256.32-.358.776-.565 1.256-.571a1.55 1.55 0 0 1 1.255.571c.4.343.571.799.571 1.256a1.71 1.71 0 0 1-.571 1.313c-.32.358-.775.565-1.255.57zm3.596.057c0 1.142.114 1.998.342 2.626.228.571.571 1.084 1.027 1.37.457.342.914.514 1.484.514s1.085-.172 1.484-.514c.505-.361.9-.855 1.142-1.427.228-.628.342-1.484.342-2.569s-.114-1.94-.399-2.568a3.26 3.26 0 0 0-1.027-1.427c-.443-.337-.985-.518-1.542-.514-.57 0-1.027.172-1.484.457-.471.368-.827.863-1.027 1.427-.228.628-.342 1.484-.342 2.625zm.799 0c0-.97.057-1.712.228-2.226.141-.454.42-.853.799-1.141.3-.216.658-.335 1.027-.343.4 0 .742.115 1.142.343.285.285.571.628.685 1.141.228.571.342 1.37.342 2.226s-.114 1.542-.285 2.112c-.14.471-.419.888-.799 1.199a1.71 1.71 0 0 1-1.085.399 1.71 1.71 0 0 1-1.027-.399 2.45 2.45 0 0 1-.799-1.142c-.189-.706-.266-1.438-.228-2.169zm9.76 4.51l.742-.457-2.283-3.539.799.171c.65.008 1.273-.262 1.712-.742.514-.456.742-1.084.742-1.769a2.51 2.51 0 0 0-1.313-2.283c-.83-.479-1.852-.479-2.682 0a2.63 2.63 0 0 0-1.313 2.283 6.85 6.85 0 0 0 .97 2.511l2.626 3.825zm-.913-4.567c-.48-.005-.936-.213-1.256-.57-.358-.32-.565-.776-.571-1.256.006-.48.213-.936.571-1.256.32-.358.776-.565 1.256-.571a1.71 1.71 0 0 1 1.255.571c.343.343.571.799.571 1.256a1.71 1.71 0 0 1-.571 1.313c-.32.358-.775.565-1.255.57zm4.794-6.735h-.913a15.3 15.3 0 0 1 .285 11.416h.914c1.26-3.715 1.179-7.754-.229-11.416zm7.42 8.391h-.799c0 .856.343 1.541.856 2.111.571.571 1.199.8 1.998.8s1.427-.286 1.941-.8c.456-.456.685-1.084.685-1.769a2.91 2.91 0 0 0-.343-1.37c-.377-.615-.817-1.188-1.313-1.712l-2.169-2.283h3.996v-.856h-5.822l3.253 3.538c.628.685 1.142 1.256 1.256 1.599a1.88 1.88 0 0 1 .343 1.084 1.72 1.72 0 0 1-.571 1.199 1.77 1.77 0 0 1-1.313.57c-.497-.003-.971-.209-1.313-.57a2.29 2.29 0 0 1-.628-1.541zm5.651-1.599c0 1.142.114 1.998.342 2.626.229.571.571 1.084 1.028 1.37a2.51 2.51 0 0 0 2.968 0 3.31 3.31 0 0 0 1.141-1.427c.229-.628.343-1.484.343-2.569s-.114-1.94-.4-2.568c-.202-.562-.558-1.057-1.027-1.427-.443-.337-.985-.518-1.541-.514-.571 0-1.028.172-1.484.457a3.03 3.03 0 0 0-1.028 1.427c-.228.628-.342 1.484-.342 2.625zm.799 0c0-.97.114-1.712.228-2.226a2.29 2.29 0 0 1 .799-1.141c.316-.227.696-.347 1.085-.343.37 0 .731.121 1.027.343.343.285.571.628.799 1.141.172.571.286 1.37.286 2.226s-.114 1.542-.286 2.112c-.146.468-.423.884-.799 1.199a1.71 1.71 0 0 1-1.027.399c-.416.006-.82-.136-1.142-.399a2.46 2.46 0 0 1-.742-1.142 7.11 7.11 0 0 1-.228-2.169zm6.279 4.281h5.422l-4.566-8.79-.742.4 3.995 7.591H94.92v.799zm7.306-1.94h-.857c.12.619.441 1.181.914 1.598.456.399.97.571 1.598.571.456 0 .856-.115 1.255-.286a2.28 2.28 0 0 0 .857-.856c.214-.322.332-.698.342-1.084 0-.742-.342-1.313-1.141-1.713a2.4 2.4 0 0 0 1.598-2.283c0-.503-.138-.997-.4-1.427a2.74 2.74 0 0 0-1.027-.97 3.14 3.14 0 0 0-1.484-.4c-.665-.019-1.314.204-1.827.628-.54.491-.884 1.159-.97 1.884h.856c.114-.571.343-.971.571-1.142.363-.364.856-.569 1.37-.571a2.32 2.32 0 0 1 1.541.571c.342.4.571.856.571 1.37a1.72 1.72 0 0 1-.286.913c-.196.3-.473.537-.799.685-.459.158-.942.235-1.427.229v.799c.343 0 .742.057 1.028.228a1.45 1.45 0 0 1 .742.514c.378.555.252 1.309-.286 1.712-.322.257-.731.38-1.141.342-.328.009-.649-.092-.914-.285-.327-.289-.564-.665-.684-1.084zm7.363-6.85l-.742.457 2.283 3.539a2.92 2.92 0 0 0-.857-.172 2.34 2.34 0 0 0-1.712.743 2.57 2.57 0 0 0-.742 1.826c0 .457.114.913.343 1.313.285.399.57.742 1.027.97a2.74 2.74 0 0 0 2.626 0c.815-.471 1.316-1.342 1.312-2.283a3.31 3.31 0 0 0-.228-1.142c-.198-.481-.447-.94-.742-1.369l-2.626-3.882zm.913 4.567a1.71 1.71 0 0 1 1.769 1.826 1.77 1.77 0 0 1-.514 1.256 1.71 1.71 0 0 1-1.255.513 1.77 1.77 0 0 1-1.827-1.769c-.01-.5.198-.98.571-1.313a1.71 1.71 0 0 1 1.256-.513z"/><path d="M21.803 23.972v2.512h.799v-2.512h2.569v-.799h-2.569v-2.511h-.799v2.511h-2.568v.799h2.568zm5.594 1.884h-.913a2.85 2.85 0 0 0 .97 1.655c.399.342.97.571 1.598.571.4 0 .799-.114 1.199-.286a2.28 2.28 0 0 0 .913-.856c.194-.328.293-.703.285-1.084 0-.742-.342-1.313-1.084-1.713.405-.173.759-.449 1.027-.799.4-.399.571-.913.571-1.484a2.74 2.74 0 0 0-1.427-2.397 3.03 3.03 0 0 0-1.484-.4c-.693-.023-1.368.222-1.884.685-.524.479-.866 1.124-.97 1.827h.856c.172-.571.343-.913.628-1.142a1.94 1.94 0 0 1 1.37-.57c.571 0 1.142.228 1.484.57.4.4.571.856.571 1.37a1.72 1.72 0 0 1-.286.913c-.181.277-.439.495-.742.628-.472.186-.976.283-1.484.286v.799c.4 0 .742.057 1.085.228.285.114.571.285.685.514.391.541.29 1.293-.229 1.712-.324.252-.731.374-1.141.343a1.54 1.54 0 0 1-.913-.286c-.328-.288-.565-.665-.685-1.084zm5.879 1.997h5.422l-4.566-8.79-.742.4 3.995 7.591h-4.109v.799zm6.107-4.28c0 1.141.114 1.997.4 2.625.228.571.57 1.142.97 1.37.457.342.97.514 1.541.514s1.027-.172 1.484-.514a3.2 3.2 0 0 0 1.085-1.427c.228-.628.399-1.484.399-2.568s-.171-1.941-.399-2.569c-.224-.566-.599-1.06-1.085-1.427a2.57 2.57 0 0 0-2.968 0c-.467.348-.824.824-1.027 1.37-.29.844-.426 1.733-.4 2.626zm.799 0c0-.971.114-1.713.286-2.226.125-.448.384-.846.742-1.142a1.82 1.82 0 0 1 1.141-.342c.343 0 .685.114 1.027.342.343.285.571.628.743 1.142.228.57.342 1.369.342 2.226s-.114 1.541-.285 2.111a2.45 2.45 0 0 1-.8 1.142 1.71 1.71 0 0 1-1.084.457c-.396-.008-.778-.149-1.084-.4a2.45 2.45 0 0 1-.742-1.141 7.41 7.41 0 0 1-.229-2.169zm11.473 4.68h.913a15.41 15.41 0 0 1-.285-11.416h-.857c-.684 1.684-1.014 3.491-.97 5.309.004 2.093.411 4.167 1.199 6.107zm5.993-.171l.742-.457-2.283-3.539.856.171c.65.008 1.273-.262 1.712-.742.514-.456.742-1.084.742-1.769a2.68 2.68 0 0 0-.342-1.37 2.51 2.51 0 0 0-.97-.97c-.836-.457-1.847-.457-2.683 0a2.63 2.63 0 0 0-1.313 2.283c0 .342.114.742.228 1.142l.742 1.369 2.626 3.882zm-.913-4.567a1.71 1.71 0 0 1-1.256-.57c-.358-.32-.565-.776-.571-1.256a1.77 1.77 0 0 1 3.082-1.256c.4.343.571.799.571 1.256a1.71 1.71 0 0 1-.571 1.313 1.65 1.65 0 0 1-1.255.513zm9.075 4.338v-.799h-3.082l-.4-2.34 1.028.171c.742 0 1.37-.285 1.883-.799.571-.571.799-1.141.799-1.997 0-.571-.171-1.085-.399-1.542-.248-.474-.623-.87-1.085-1.141-.475-.246-1.006-.364-1.541-.343a2.51 2.51 0 0 0-1.712.685c-.5.42-.825 1.01-.913 1.656h.913c.057-.343.171-.628.342-.857a1.78 1.78 0 0 1 .571-.456c.286-.171.571-.228.856-.228.571 0 1.028.228 1.484.684.4.4.571.914.571 1.542 0 .57-.171 1.084-.571 1.426a1.94 1.94 0 0 1-1.427.571c-.631-.038-1.251-.193-1.826-.456l.799 4.223h3.71zm1.541 0h5.48l-4.567-8.79-.742.4 3.996 7.591h-4.11v.799zm7.42-11.016h-.913a15.3 15.3 0 0 1 .285 11.416h.914c1.26-3.715 1.179-7.754-.229-11.416zM86.7 27.853v-.799h-3.025l-.456-2.34a3.41 3.41 0 0 0 1.027.171c.742 0 1.427-.285 1.941-.799.456-.571.742-1.141.742-1.997 0-.571-.114-1.085-.4-1.542a2.74 2.74 0 0 0-1.027-1.141c-.475-.249-1.006-.367-1.541-.343-1.346-.066-2.505.941-2.626 2.284h.856a2.01 2.01 0 0 1 .343-.8c.358-.415.879-.654 1.427-.654s1.069.239 1.427.654c.456.4.627.914.627 1.542 0 .57-.171 1.084-.57 1.426a2 2 0 0 1-1.427.571 5.14 5.14 0 0 1-1.827-.456l.799 4.223h3.71zm5.822.229h.172v-5.993h1.027v-.8h-1.027v-1.997h-.857v1.997h-4.109l4.794 6.793zm-.685-5.993v3.595l-2.511-3.595h2.511zm6.793 1.883c.57-.228.97-.571 1.255-.97a2.17 2.17 0 0 0 .343-1.256 2.57 2.57 0 0 0-.571-1.712c-.571-.628-1.313-.971-2.283-.971s-1.712.286-2.169.857c-.514.513-.742 1.141-.742 1.712s.114.97.4 1.37c.228.342.627.685 1.255.97a2.51 2.51 0 0 0-.97.799 1.94 1.94 0 0 0 0 2.169c.285.343.571.571.97.856.788.407 1.724.407 2.512 0a2.28 2.28 0 0 0 .913-.856c.201-.346.3-.742.285-1.141.013-.364-.087-.723-.285-1.028a2.75 2.75 0 0 0-.913-.799zm-1.256 3.254c-.417.01-.822-.132-1.142-.4-.304-.233-.492-.587-.513-.97 0-.4.171-.742.513-1.085a1.71 1.71 0 0 1 1.941-.228 1.54 1.54 0 0 1 .799 1.313c0 .342-.114.628-.399.97a1.66 1.66 0 0 1-1.199.4zm0-3.653c-.571 0-1.085-.229-1.427-.571a1.77 1.77 0 0 1-.628-1.37c0-.285.057-.571.286-.856a1.71 1.71 0 0 1 .684-.628c.338-.162.71-.24 1.085-.228.571 0 1.141.171 1.484.513.342.4.571.799.571 1.313-.006.48-.213.936-.571 1.256a2 2 0 0 1-1.427.571zm4.68 1.598h-.856c0 .856.343 1.541.856 2.112.571.57 1.199.799 1.998.799a2.82 2.82 0 0 0 1.941-.742c.802-.848.963-2.118.399-3.14-.38-.645-.84-1.239-1.37-1.769l-2.169-2.283h3.996v-.856h-5.822l3.253 3.539c.685.684 1.142 1.255 1.313 1.598s.285.685.285 1.084c0 .457-.171.856-.57 1.199a1.77 1.77 0 0 1-1.256.571c-.515.005-1.011-.201-1.37-.571-.391-.42-.614-.968-.628-1.541zm7.42 2.682h1.713v-8.561h-.914v7.705h-1.312l.513.856z"/></g></g><path d="M18.892 151.997v31.45h181.621v-31.393H18.892z" fill="#e5e5e5"/><g fill="#2223af" class="B"><path d="M43.313 155.598c-.287 0-.568.047-.845.144-1.116.381-2.014 1.259-2.691 2.634-.648 1.306-.973 2.81-.974 4.508.001 1.375.301 2.718.903 4.03s1.584 2.432 2.949 3.357 3.192 1.494 5.482 1.704c0 .047-.004.09-.014.128v.115c-.22 2.462-.701 4.652-1.446 6.571l-6.341-.588c-2.195-.295-4.228-.686-6.098-1.173-1.7-.438-3.046-.945-4.037-1.518-.783-.458-1.175-.893-1.175-1.303 0-.305.258-.668.773-1.088.172-.142.258-.328.258-.558 0-.161-.048-.315-.143-.458a.72.72 0 0 0-.558-.257c-.163 0-.315.052-.458.157-.87.716-1.303 1.436-1.303 2.161 0 1.003.625 1.866 1.874 2.592 1.118.639 2.583 1.197 4.396 1.675 3.846.945 7.907 1.526 12.182 1.746l-.3.53c-.077.125-.115.253-.115.386 0 .259.12.464.358.617.114.075.239.113.372.113.057 0 .143-.018.258-.057.2-.048.535-.558 1.002-1.531l1.331.014c3.665 0 5.497-.402 5.497-1.203a.78.78 0 0 0-.042-.243c-.125-.315-.349-.472-.673-.472-.077 0-.159.013-.244.042-.973.306-2.5.458-4.58.458h-.716c.696-1.946 1.149-4.112 1.359-6.498 0-.096.01-.192.029-.287.334 0 .57-.071.709-.215a.71.71 0 0 0 .207-.515.69.69 0 0 0-.207-.508c-.139-.139-.351-.208-.638-.208l.015-.858c0-2.577-.353-5.073-1.059-7.487-1.393-4.439-3.159-6.657-5.297-6.657zm.015 1.445c1.45 0 2.757 1.881 3.922 5.641.648 2.243.973 4.571.973 6.985l-.015.86c-1.956-.191-3.516-.678-4.68-1.46s-2.004-1.728-2.519-2.834a8.03 8.03 0 0 1-.773-3.422c.009-1.432.281-2.696.815-3.794.506-1.011 1.117-1.641 1.832-1.889.143-.057.292-.087.445-.087zm11.164 2.163c-.439 0-.908.184-1.409.55s-.904 1.014-1.211 1.94c-.323 1.04-.486 2.281-.486 3.722l.071 1.475c.019.2.1.358.244.472s.296.171.458.171a.72.72 0 0 0 .573-.271.75.75 0 0 0 .142-.444v-.086a14.07 14.07 0 0 1-.057-1.317c0-1.269.138-2.362.415-3.278.335-.983.716-1.475 1.146-1.475.286 0 .572.203.858.609s.521.966.702 1.682c.248 1.126.401 2.153.458 3.077l.043.932c.019.2.143.353.372.458a1.02 1.02 0 0 0 .401.085c.095 0 .226-.028.394-.085s.261-.268.279-.63l-.057-.86-.029-1.602.015-1.275a11.27 11.27 0 0 1 .135-1.56c.081-.516.22-.79.415-.823s.351-.123.466-.265a.76.76 0 0 0 .172-.487c0-.219-.086-.401-.259-.544-.133-.105-.29-.158-.471-.158h-.044c-.668.067-1.154.65-1.459 1.748-.602-1.175-1.361-1.761-2.277-1.761zm9.147-1.747c-.907.029-1.637.41-2.19 1.145-.898 1.203-1.346 3.269-1.346 6.198 0 2.205.215 4.6.645 7.188.571 3.482 1.049 5.328 1.431 5.539.105.057.219.086.343.086.067 0 .134-.009.2-.029.335-.115.502-.338.502-.673a.94.94 0 0 0-.029-.228c-.343-1.145-.691-2.792-1.044-4.94-.402-2.461-.602-4.824-.602-7.085 0-1.471.138-2.74.415-3.808.343-1.288.907-1.933 1.689-1.933a.72.72 0 0 0 .501-.222c.134-.139.201-.308.201-.508 0-.21-.069-.381-.208-.516a.75.75 0 0 0-.508-.214zm3.322 1.918c-.373 0-.678.057-.917.172-.611.258-1.107.811-1.489 1.661-.228.515-.343 1.14-.343 1.874 0 1.185.296 2.463.888 3.837.113.296.333.444.658.444a.66.66 0 0 0 .271-.057c.287-.143.43-.363.43-.658a.86.86 0 0 0-.057-.302c-.496-1.201-.744-2.285-.744-3.249 0-.544.076-.993.228-1.346.2-.468.44-.758.716-.873.077-.038.201-.057.372-.057.555 0 1.122.234 1.704.702.715.553 1.265 1.311 1.647 2.276.123.315.343.471.658.471.086 0 .171-.013.258-.042a.67.67 0 0 0 .458-.673c0-.086-.015-.171-.043-.258-.477-1.231-1.175-2.204-2.091-2.92-.858-.668-1.726-1.002-2.604-1.002zm-.587 8.446a1.13 1.13 0 0 0-.78.301c-.225.2-.338.458-.338.773 0 .305.113.558.338.759s.484.301.78.3a1.1 1.1 0 0 0 .772-.3c.22-.201.33-.454.33-.759 0-.315-.11-.573-.33-.773a1.11 1.11 0 0 0-.772-.301z"/><path d="M68.22 149.399c-1.041 0-1.561.287-1.561.86 0 .066.01.133.029.2.124.343.348.515.673.515.076 0 .148-.01.215-.029.238-.057.458-.085.658-.085h.143c.745.114 1.288.701 1.633 1.76.429 1.307.643 3.007.643 5.096 0 1.909-.106 3.737-.322 5.483l-.536 3.479c-.02.067-.03.129-.03.187 0 .123.043.256.13.4.115.21.315.315.601.315.353 0 .582-.182.687-.545.153-.592.348-1.836.586-3.736.21-1.756.315-3.625.315-5.611 0-2.233-.238-4.08-.715-5.54-.268-.792-.634-1.426-1.102-1.904a2.76 2.76 0 0 0-2.047-.845zm1.775 18.267c-.297 0-.556.103-.781.308s-.336.46-.336.765.113.558.336.758a1.13 1.13 0 0 0 .781.302c.296 0 .553-.1.773-.302a.98.98 0 0 0 .33-.758 1 1 0 0 0-.33-.765c-.22-.205-.477-.308-.773-.308z"/><use xlink:href="#G"/><path d="M107.414 156.758l-.358.014c-.926.096-1.666.468-2.219 1.116-.343.411-.515.921-.515 1.532 0 1.002.282 1.503.844 1.503.076 0 .153-.01.229-.028a.67.67 0 0 0 .487-.688.89.89 0 0 0-.029-.228c-.066-.182-.1-.354-.1-.515 0-.573.31-.955.93-1.146.22-.077.458-.115.717-.115.276 0 .553.043.829.129.898.296 1.702.887 2.413 1.775s1.133 1.894 1.266 3.021a3.2 3.2 0 0 1 .029.443c0 1.413-.601 2.534-1.803 3.364-.802.545-1.751.993-2.849 1.346l-3.421.96c-1.633.371-3.138.829-4.517 1.374s-2.422 1.336-3.127 2.376c-.478.802-.717 1.57-.717 2.304 0 .182.044.54.129 1.074s.483 1.184 1.188 1.947c1.384 1.433 3.289 2.501 5.713 3.207 1.669.487 3.292.73 4.867.73 2.376 0 4.213-.515 5.511-1.546.916-.735 1.436-1.771 1.56-3.106v-.043a.75.75 0 0 0-.193-.509.66.66 0 0 0-.522-.222.72.72 0 0 0-.481.18c-.138.119-.216.278-.236.479-.095.935-.486 1.661-1.173 2.176-1.031.763-2.52 1.145-4.466 1.145-1.442 0-2.931-.224-4.467-.673-2.176-.64-3.861-1.57-5.054-2.791-.601-.648-.901-1.341-.901-2.076 0-.487.153-.988.458-1.503.553-.811 1.447-1.446 2.684-1.904s2.603-.863 4.101-1.217l3.801-1.08c1.226-.406 2.293-.95 3.2-1.633s1.541-1.587 1.904-2.712a6 6 0 0 0 .228-1.632l-.028-.587c-.162-1.432-.687-2.702-1.575-3.808s-1.922-1.856-3.107-2.248c-.41-.123-.82-.185-1.23-.185zm9.977 2.461h-.086c-.648.03-1.25.373-1.804 1.031-.62.735-.93 1.738-.93 3.006l.015.458c.008.21.085.378.228.502a.76.76 0 0 0 .515.186c-.152.392-.228.758-.228 1.102 0 .363.086.697.258 1.002a2.25 2.25 0 0 0 1.116 1.03 2.23 2.23 0 0 0 .902.187 2.75 2.75 0 0 0 .615-.072c1.117-.258 1.87-1.169 2.262-2.734a5.89 5.89 0 0 0 .172-1.274c.753.086 1.369.263 1.846.529a.7.7 0 0 0 .358.1c.278 0 .486-.118.63-.358a.78.78 0 0 0 .1-.371c0-.267-.124-.472-.372-.615-.706-.402-1.593-.65-2.662-.745-.315-1.594-1.084-2.558-2.305-2.892a2.82 2.82 0 0 0-.63-.072zm1.603 4.41c-.019.324-.061.64-.128.945-.325 1.145-.808 1.718-1.446 1.718-.134 0-.263-.029-.387-.087-.334-.143-.501-.386-.501-.73 0-.266.12-.583.358-.944.448-.515 1.15-.817 2.104-.902zm-1.603-2.964c.105 0 .2.01.286.029.554.163.944.663 1.174 1.504-1.165.095-2.114.486-2.849 1.173v-.115c0-.916.201-1.613.601-2.089.305-.335.564-.502.774-.502h.014z"/><path d="M123.633 159.106c-.115 0-.23.028-.344.085-.591.391-.888 1.627-.888 3.707 0 1.05.092 2.143.272 3.279.153.935.397 1.751.73 2.447.125.268.33.402.616.402.115 0 .229-.025.344-.072a.68.68 0 0 0 .386-.63.86.86 0 0 0-.072-.343c-.534-1.145-.811-2.787-.829-4.925.458 1.966.978 3.35 1.559 4.152.392.535.85.801 1.375.801.916 0 1.517-.639 1.804-1.917.181-.888.282-1.715.3-2.478.592 1.461 1.145 2.544 1.661 3.251.505.638.983.958 1.431.958.258 0 .52-.105.788-.315.343-.315.539-.845.587-1.589l.015-.844-.058-1.632v-.057l-.057-2.019c0-.515.038-.945.115-1.288a.77.77 0 0 0 .028-.2c0-.125-.043-.254-.13-.387-.113-.211-.305-.315-.571-.315-.135 0-.273.037-.415.114-.307.181-.459.854-.459 2.019l.072 2.304.07 1.846c0 .535-.033.841-.1.917l-.013.015-1.489-2.606c-.287-.563-.566-1.029-.838-1.396s-.575-.55-.909-.55c-.438.056-.732.31-.88.758s-.251.993-.308 1.632l-.243 1.568c-.095.481-.225.737-.386.765-.239-.028-.464-.297-.673-.809s-.408-1.128-.594-1.853l-.494-2.105c-.163-.821-.349-1.489-.559-2.004-.191-.458-.473-.686-.844-.686zm13.499.113h-.087c-.648.03-1.25.373-1.804 1.031-.62.735-.93 1.738-.93 3.006l.015.458c.009.21.085.378.228.502a.76.76 0 0 0 .515.186c-.152.392-.228.758-.228 1.102 0 .363.086.697.258 1.002.257.477.63.82 1.116 1.03a2.23 2.23 0 0 0 .902.187 2.75 2.75 0 0 0 .615-.072c1.117-.258 1.871-1.169 2.262-2.734a5.89 5.89 0 0 0 .172-1.274c.753.086 1.369.263 1.846.529.115.067.235.1.358.1.278 0 .487-.118.63-.358a.77.77 0 0 0 .1-.371c0-.267-.123-.472-.372-.615-.706-.402-1.593-.65-2.662-.745-.315-1.594-1.083-2.558-2.305-2.892-.209-.048-.419-.072-.629-.072zm1.603 4.41a6.18 6.18 0 0 1-.129.945c-.325 1.145-.807 1.718-1.446 1.718a.9.9 0 0 1-.386-.087c-.335-.143-.502-.386-.502-.73 0-.266.12-.583.358-.944.449-.515 1.15-.817 2.105-.902zm-1.603-2.964a1.31 1.31 0 0 1 .285.029c.554.163.945.663 1.174 1.504-1.164.095-2.114.486-2.849 1.173v-.115c0-.916.202-1.613.602-2.089.305-.335.563-.502.773-.502h.015z"/><path d="M144.791 157.388l-.115.013c-.535.192-.996.857-1.382 1.997s-.746 2.412-1.081 3.816l-1.073 3.751c-.038.105-.058.205-.058.3 0 .296.143.511.43.644a.86.86 0 0 0 .3.057.9.9 0 0 0 .315-.071c.335-.144.831-1.59 1.489-4.338l.029-.129 1.374-4.624c.143.048.678 1.465 1.603 4.252l1.003 3.092c.248.822.43 1.317.543 1.488.172.22.353.33.545.33.438 0 .711-.32.816-.959l.014-.014c.133-1.011.429-1.775.888-2.291a1.17 1.17 0 0 1 .915-.4c.096 0 .196.009.301.029l.143.013c.143 0 .287-.047.43-.142.19-.135.286-.335.286-.601 0-.144-.043-.282-.129-.417-.162-.228-.563-.343-1.202-.343a2.4 2.4 0 0 0-1.474.494c-.44.33-.778.794-1.018 1.396l-1.173-3.293c-1.04-2.7-1.948-4.05-2.719-4.05z"/><use xlink:href="#G" x="78.345"/></g><path d="M213.584 65.068v221.119c0 7.991 6.507 14.555 14.555 14.555h357.534a14.56 14.56 0 0 0 10.329-4.243c2.742-2.731 4.283-6.442 4.283-10.312V65.068c.015-3.88-1.519-7.605-4.263-10.349s-6.469-4.278-10.349-4.263H228.139c-8.026.031-14.524 6.53-14.555 14.555z" fill="url(#C)"/><path d="M425.228 50.513l-36.073 250.286h10.502l29.909-209.361 29.908 209.361h10.56L433.961 50.513h-8.733zm60.331 0v250.286h10.274V50.513h-10.274zm36.929 0v250.286h31.45c13.527 0 22.546-3.311 27.112-9.932 3.71-5.194 5.593-14.84 5.593-28.995v-36.416c0-22.831-10.901-34.246-32.705-34.246h-20.891V50.513h-10.559zm49.486 154.681c3.14 3.767 4.681 10.901 4.681 21.518v38.527c0 10.388-1.713 17.409-5.137 21.119-3.425 3.767-10.217 5.651-20.377 5.651h-18.094V199.6h18.094c10.16 0 17.123 1.884 20.833 5.594z" fill-opacity=".239" fill="url(#D)" class="B"/><path d="M244.406 230.764c-12.026 9.3-14.237 26.587-4.937 38.613s26.587 14.237 38.613 4.938 14.236-26.587 4.937-38.613-26.587-14.237-38.613-4.938z" fill="url(#E)"/><g fill="#fff"><path d="M244.406 230.764c-12.026 9.3-14.237 26.587-4.937 38.613s26.587 14.237 38.613 4.938 14.236-26.587 4.937-38.613-26.587-14.237-38.613-4.938zm37.5 5.822c8.821 11.443 6.691 27.871-4.757 36.685s-27.874 6.675-36.681-4.778c-8.815-11.444-6.689-27.865 4.748-36.687s27.86-6.708 36.69 4.723z" fill-opacity=".298"/><path d="M251.141 257.363v-.343a1.89 1.89 0 0 1-.913-.399c-.354-.357-.626-.785-.799-1.256l-3.996-9.818h-.342l-4.281 9.932c-.135.341-.308.667-.514.97a1.61 1.61 0 0 1-.513.4c-.256.1-.526.158-.799.171v.342h4.68v-.342c-.514 0-.856-.114-1.028-.285-.143-.108-.228-.277-.228-.457 0-.285.114-.742.4-1.37l2.911-6.735 2.739 6.678c.286.628.4 1.142.4 1.37 0 .171-.114.285-.228.457a1.72 1.72 0 0 1-.857.342h-.171v.343h3.596zm16.781-5.137l4.281-4.224c.685-.742 1.312-1.142 1.769-1.427.459-.251.964-.406 1.484-.457v-.285h-5.479v.285c.342 0 .57.057.742.171a.52.52 0 0 1 .171.4l-.057.342-.571.571-3.995 3.996v-3.767c0-.571.057-.971.171-1.142a.75.75 0 0 1 .342-.343c.241-.147.517-.226.799-.228h.343v-.285h-4.909v.285h.4c.513 0 .856.171 1.084.4.114.228.171.628.171 1.312v7.478c0 .57 0 .97-.114 1.141-.065.168-.186.309-.342.4-.247.125-.523.184-.799.171h-.4v.342h4.909v-.342h-.343a1.65 1.65 0 0 1-.799-.171.8.8 0 0 1-.342-.4 3.81 3.81 0 0 1-.114-1.141v-3.539l1.141 1.084c1.713 1.541 2.74 2.569 3.082 3.083.127.165.206.363.229.57 0 .172-.057.286-.171.4l-.571.114h-.286v.342h4.224v-.342a2.57 2.57 0 0 1-1.427-.457c-.405-.25-.788-.536-1.141-.856l-1.713-1.712-1.712-1.77zm14.783 5.365v-3.996h-.342c-.06.661-.254 1.302-.571 1.884a3.14 3.14 0 0 1-2.626 1.484 2.11 2.11 0 0 1-1.427-.571 1.71 1.71 0 0 1-.571-1.256c0-.342.115-.627.343-.913.342-.456 1.141-1.027 2.511-1.712l2.226-1.313a3.26 3.26 0 0 0 .914-1.141 2.97 2.97 0 0 0-.685-3.596 3.71 3.71 0 0 0-2.626-.914 5.61 5.61 0 0 0-2.055.4 4.67 4.67 0 0 1-1.084.228c-.114 0-.228 0-.286-.114-.114-.057-.171-.228-.228-.514h-.285v3.996h.285a5.42 5.42 0 0 1 .571-1.884c.279-.44.674-.795 1.141-1.027.529-.273 1.118-.41 1.713-.4.742 0 1.313.172 1.712.571.4.343.571.799.571 1.313 0 .285 0 .571-.171.856-.188.316-.441.589-.742.799l-1.827 1.085-2.112 1.312c-.381.312-.693.701-.913 1.142-.592 1.152-.334 2.558.628 3.425.571.57 1.427.856 2.397.856.571 0 1.256-.114 1.941-.457l.685-.171c.171 0 .285 0 .342.114.114.114.171.285.229.571h.342zm-21.005 0l.286-3.653h-.286a4.97 4.97 0 0 1-1.141 2.055c-.717.694-1.686 1.065-2.683 1.027-1.328.053-2.586-.597-3.31-1.712a6.28 6.28 0 0 1-.971-3.539 7.35 7.35 0 0 1 .628-3.025c.36-.821.956-1.517 1.713-1.998.62-.373 1.33-.57 2.054-.571.836-.027 1.664.17 2.398.571V250c0 .57 0 .97-.115 1.141a.86.86 0 0 1-.399.4c-.313.102-.643.141-.97.114v.342h4.452v-.342h-.229c-.456 0-.742-.114-.913-.4-.15-.4-.209-.829-.171-1.255v-3.425c-.628-.343-1.256-.571-1.884-.799-.71-.17-1.439-.246-2.169-.229-2.226 0-3.881.743-5.08 2.169a5.71 5.71 0 0 0-1.255 3.711c-.015 2.258 1.183 4.35 3.139 5.479.799.457 1.769.685 2.968.685.888.006 1.766-.189 2.569-.571l.627-.114c.115 0 .229 0 .286.114.114.114.114.285.171.571h.285z"/></g></g></g></svg>